<svg width="99" height="42" viewBox="0 0 99 42" fill="none" xmlns="http://www.w3.org/2000/svg">
<g clip-path="url(#clip0_1368_20696)">
<path d="M48.3088 9.62592H64.0239L65.6912 1.78125H49.0211C45.9614 1.78125 43.4837 2.30862 41.7456 3.74282C40.0075 5.17701 39.0637 7.1418 38.5412 9.59858C37.9077 12.5795 36.7999 17.8034 36.2388 20.4435C35.7178 22.9003 35.5812 24.8023 36.7758 26.2992C37.9688 27.7962 40.342 28.2608 43.4017 28.2608H60.075L61.945 19.4338H46.2283L48.3088 9.62592Z" fill="#CF432D"/>
<path d="M35.2869 1.7793H15.7355C12.6276 1.7793 10.1981 2.30667 8.46006 3.74087C6.72198 5.17506 5.78461 7.14145 5.25563 9.59663C4.4919 13.1484 1.25049 28.2203 1.25049 28.2203L11.0664 28.2331L12.105 23.3533H20.8951L19.8516 28.2605H29.6595L35.2869 1.7793ZM22.5592 15.5119H13.7708L15.0217 9.62557H23.8101L22.5592 15.5119Z" fill="#CF432D"/>
<path d="M94.2063 19.5716C94.5826 17.4975 94.5729 15.8478 93.5118 14.5181C92.3187 13.0228 89.9456 12.5582 86.8874 12.5582L78.0604 12.5646L78.89 8.65753L95.6084 8.64788L97.0715 1.76953L70.5919 1.77918L64.9629 28.2571L74.4974 28.2523V28.2587C74.4974 34.7496 79.7792 40.0314 86.27 40.0314C92.7609 40.0314 98.041 34.7496 98.041 28.2587C98.0426 24.8228 96.5634 21.7261 94.2063 19.5716ZM81.067 20.1231C83.8615 20.9189 86.3922 22.5107 88.3329 24.7279C88.6384 25.0768 88.9246 25.4386 89.1963 25.81C87.8602 26.5609 86.016 26.9371 83.556 26.9371H76.7034C77.0925 24.0751 78.7373 21.6135 81.067 20.1231ZM82.7151 19.2757C83.8165 18.84 85.0127 18.5972 86.27 18.5972C88.6721 18.5972 90.8668 19.4751 92.5567 20.927C92.0776 22.7181 91.3379 24.0446 90.2607 25.0318C88.3795 22.4432 85.7619 20.4221 82.7151 19.2757ZM77.9253 33.1241C77.0908 31.6947 76.6101 30.0338 76.6101 28.2587V28.2571L83.556 28.2587C86.1173 28.2587 88.2702 27.8761 89.923 26.913C90.3202 27.5738 90.661 28.2636 90.9521 28.9742C90.534 29.2218 90.0983 29.4646 89.6417 29.6994C86.1687 31.4905 82.0205 32.7044 77.951 33.1241C77.943 33.1241 77.935 33.1241 77.9253 33.1241ZM86.1655 37.9171C83.1862 37.8849 80.53 36.507 78.7791 34.3589C83.5528 33.7672 88.0531 32.1803 91.4055 30.2412C91.563 30.7557 91.6949 31.2783 91.7994 31.8073C90.1288 32.9118 88.3072 34.9088 86.1655 37.9171ZM92.0261 36.0182C90.8331 36.9057 89.4262 37.5215 87.8988 37.7804C89.5565 35.5535 90.9006 34.1418 92.0132 33.28C92.0583 33.7544 92.0824 34.2335 92.0824 34.7126C92.0824 35.15 92.0631 35.5857 92.0261 36.0182ZM91.0003 26.1412C92.256 25.0479 93.0792 23.6587 93.6211 21.9946C94.388 22.8934 94.9926 23.9337 95.3913 25.072C94.7964 26.093 93.642 27.2008 92.0888 28.2555C91.7753 27.5224 91.4119 26.8149 91.0003 26.1412ZM93.4024 34.7753C93.4024 34.7544 93.404 34.7335 93.404 34.7142C93.404 33.9602 93.351 33.2189 93.2529 32.4938C93.9877 32.1337 94.6051 32.0372 95.1453 32.079C94.7144 33.0758 94.1243 33.9859 93.4024 34.7753ZM93.0133 31.1497C92.8911 30.5966 92.7448 30.0531 92.5696 29.5225C93.9218 28.6318 95.0263 27.688 95.8126 26.7442C95.8914 27.2378 95.9332 27.7442 95.9332 28.2587C95.9332 29.1398 95.8126 29.9936 95.5907 30.804C94.745 30.6737 93.8944 30.7815 93.0133 31.1497Z" fill="#CF432D"/>
<path d="M7.04194 35.7571L3.99829 35.7587L4.14621 35.0609H8.63853L8.89096 33.8711H2.37276L1.25049 39.14L6.32323 39.1384C6.98245 39.1384 7.51625 39.0242 7.89249 38.7155C8.26712 38.4068 8.47131 37.984 8.58225 37.4534L8.58547 37.4405C8.69802 36.9115 8.72696 36.5015 8.4697 36.1783C8.21245 35.8568 7.70116 35.7571 7.04194 35.7571ZM6.47276 37.865L3.65743 37.8666L3.86002 36.9099H6.67535L6.47276 37.865Z" fill="#CF432D"/>
<path d="M16.4911 33.8711H14.462L14.0696 35.7201H11.0324L11.4231 33.8711H9.53875C9.53875 33.8711 9.23326 35.3278 9.21557 35.405C9.11588 35.8777 9.08855 36.2443 9.31847 36.5321C9.54839 36.8199 10.005 36.9099 10.5951 36.9099H13.8172L13.6146 37.8666H9.058L8.78467 39.1432L13.277 39.14C14.0037 39.14 14.5922 39.0146 15.0038 38.6737C15.417 38.3329 15.6421 37.8666 15.7643 37.2829L16.4911 33.8711Z" fill="#CF432D"/>
<path d="M19.7021 33.8724C19.0428 33.8724 18.509 33.9865 18.1344 34.2952C17.7598 34.6039 17.5556 35.03 17.443 35.5574C17.3321 36.0831 16.9896 37.7392 16.9896 37.7392H16.1182H16.1166L15.6294 40.032H17.4672L17.6569 39.1413L21.7858 39.1397L21.5961 40.032H23.4339L23.921 37.7392H23.1139L23.9371 33.8691L19.7021 33.8724ZM21.0864 37.7392H18.9239L19.448 35.2728H21.6106L21.0864 37.7392Z" fill="#CF432D"/>
<path d="M29.7767 35.4162C29.0596 35.4162 28.037 35.4162 26.971 35.4162L27.299 33.8711H25.2715L24.1509 39.1432H28.9857C29.7124 39.1432 30.2993 39.0162 30.7125 38.6753C31.1257 38.3361 31.3492 37.8698 31.473 37.2862L31.4762 37.2717C31.6 36.688 31.6322 36.2378 31.3492 35.8825C31.0678 35.5256 30.5212 35.4162 29.7767 35.4162ZM29.1513 37.738H26.479L26.7025 36.6848L29.3748 36.6832L29.1513 37.738Z" fill="#CF432D"/>
<path d="M57.9959 33.8711H52.4537L51.333 39.1416H53.3605L54.1853 35.2635H57.7017L57.9959 33.8711Z" fill="#CF432D"/>
<path d="M49.7879 33.8711L45.8181 37.127L46.5095 33.8711H44.482L43.3613 39.1416H45.3181L49.3779 35.7941L48.6672 39.1416H50.6963L51.8154 33.8711H49.7879Z" fill="#CF432D"/>
<path d="M40.4304 33.8711H34.7531L33.6309 39.1416H38.9416C39.6008 39.1416 40.1346 39.0258 40.5092 38.7171C40.8838 38.4084 41.088 37.9856 41.2006 37.455L41.2038 37.4421C41.3164 36.9131 41.3453 36.5031 41.088 36.18C41.006 36.0771 40.8951 35.9983 40.7649 35.9372C40.8453 35.9002 40.9208 35.8568 40.9867 35.8021C41.2311 35.6011 41.3646 35.3246 41.4385 34.9789L41.4402 34.9709C41.5141 34.6252 41.5318 34.3567 41.3646 34.146C41.1958 33.937 40.8613 33.8711 40.4304 33.8711ZM39.0911 37.8666H36.0394L36.242 36.9099H39.2937L39.0911 37.8666ZM39.4545 35.7587H36.3787L36.562 34.8969H39.6378L39.4545 35.7587Z" fill="#CF432D"/>
<path d="M64.9728 35.7262C65.0966 35.1426 65.1287 34.6908 64.8457 34.3354C64.5628 33.9801 64.0177 33.8691 63.2733 33.8691H58.5269L57.4062 39.1397H59.4353L59.7633 37.5945L62.4822 37.5929C63.209 37.5929 63.7958 37.4675 64.209 37.1266C64.6222 36.7858 64.8473 36.3195 64.9695 35.7358L64.9728 35.7262ZM62.6462 36.1909H60.0608L60.2843 35.1377H62.8697L62.6462 36.1909Z" fill="#CF432D"/>
<path d="M71.3796 35.149L71.6514 33.8691H65.831L64.7119 39.1413H70.5307L70.8024 37.863H67.0111L67.1639 37.1443H70.9552L71.2269 35.8677H67.4356L67.5883 35.149H71.3796Z" fill="#CF432D"/>
</g>
<defs>
<clipPath id="clip0_1368_20696">
<rect width="98.4" height="41" fill="white" transform="translate(0.446777 0.5)"/>
</clipPath>
</defs>
</svg>
