<svg width="54" height="42" viewBox="0 0 54 42" fill="none" xmlns="http://www.w3.org/2000/svg">
<path d="M11.4492 18.4642L12.2033 14.416H12.781L13.8554 16.9905L14.9703 14.416H15.546L16.2251 18.4642H15.4183L15.0595 15.9668L13.971 18.4642H13.7014L12.6654 15.9668L12.256 18.4642H11.4492Z" fill="#194BBC"/>
<path d="M17.9414 17.4519C18.0653 17.5801 18.215 17.6806 18.3806 17.7468C18.5461 17.813 18.7237 17.8434 18.9019 17.8361C19.0819 17.8435 19.2615 17.8131 19.4291 17.7469C19.5967 17.6808 19.7487 17.5803 19.8752 17.4519C20.1226 17.1755 20.2594 16.8176 20.2594 16.4466C20.2594 16.0757 20.1226 15.7178 19.8752 15.4414C19.6176 15.187 19.2703 15.0444 18.9083 15.0444C18.5464 15.0444 18.1989 15.187 17.9414 15.4414C17.694 15.7178 17.5572 16.0757 17.5572 16.4466C17.5572 16.8176 17.694 17.1755 17.9414 17.4519ZM17.3523 14.9163C17.559 14.7208 17.8023 14.5681 18.0683 14.467C18.3342 14.3659 18.6175 14.3184 18.9019 14.3272C19.4801 14.3094 20.0418 14.5212 20.4643 14.9163C20.851 15.3295 21.0661 15.8743 21.0661 16.4402C21.0661 17.0062 20.851 17.551 20.4643 17.9642C20.2568 18.1623 20.0115 18.3166 19.743 18.4178C19.4746 18.519 19.1885 18.5651 18.9019 18.5533C18.6172 18.5651 18.333 18.5189 18.0667 18.4177C17.8003 18.3164 17.5573 18.1621 17.3523 17.9642C16.9656 17.551 16.7505 17.0062 16.7505 16.4402C16.7505 15.8743 16.9656 15.3295 17.3523 14.9163Z" fill="#194BBC"/>
<path d="M24.7289 17.4006V18.3226C24.4198 18.4797 24.0768 18.5589 23.73 18.5531C23.4593 18.5628 23.1894 18.5179 22.9363 18.4211C22.6833 18.3243 22.4524 18.1775 22.2573 17.9896C22.0451 17.7921 21.8772 17.5519 21.7646 17.2848C21.652 17.0177 21.5974 16.7298 21.6042 16.44C21.5923 16.1458 21.6445 15.8526 21.7573 15.5806C21.8701 15.3086 22.0407 15.0644 22.2573 14.865C22.594 14.5769 23.0085 14.3951 23.4484 14.3426C23.8884 14.2902 24.334 14.3695 24.7289 14.5704V15.4925C24.61 15.3504 24.461 15.2365 24.2927 15.159C24.1244 15.0815 23.9409 15.0423 23.7557 15.0442C23.5737 15.0397 23.3928 15.0739 23.225 15.1446C23.0572 15.2152 22.9063 15.3207 22.7824 15.454C22.5392 15.7296 22.4069 16.0855 22.411 16.4529C22.4007 16.6425 22.4333 16.832 22.5065 17.0072C22.5796 17.1823 22.6915 17.3387 22.8336 17.4646C22.9593 17.586 23.1077 17.6812 23.2703 17.745C23.433 17.8087 23.6066 17.8396 23.7813 17.836C23.9621 17.8415 24.1418 17.8051 24.3062 17.7295C24.4706 17.654 24.6153 17.5414 24.7289 17.4006Z" fill="#194BBC"/>
<path d="M26.2516 14.416V16.133L27.7374 14.416H28.7368L27.0219 16.287L28.826 18.4642H27.776L26.3428 16.658L26.2516 16.7472V18.4642H25.459V14.416H26.2516Z" fill="#194BBC"/>
<path d="M30.0689 17.4519C30.1928 17.5801 30.3425 17.6806 30.508 17.7468C30.6735 17.813 30.8512 17.8434 31.0294 17.8361C31.2094 17.8434 31.389 17.8131 31.5566 17.7469C31.7242 17.6807 31.8761 17.5803 32.0026 17.4519C32.25 17.1755 32.3868 16.8176 32.3868 16.4466C32.3868 16.0757 32.25 15.7178 32.0026 15.4414C31.7451 15.187 31.3977 15.0443 31.0358 15.0443C30.6738 15.0443 30.3264 15.187 30.0689 15.4414C29.8215 15.7178 29.6847 16.0757 29.6847 16.4466C29.6847 16.8176 29.8215 17.1755 30.0689 17.4519ZM29.4798 14.9163C29.6865 14.7208 29.9298 14.5681 30.1957 14.467C30.4617 14.3659 30.745 14.3184 31.0294 14.3272C31.6076 14.3094 32.1693 14.5212 32.5917 14.9163C32.9784 15.3295 33.1936 15.8743 33.1936 16.4402C33.1936 17.0062 32.9784 17.551 32.5917 17.9642C32.3842 18.1623 32.139 18.3166 31.8705 18.4178C31.6021 18.519 31.316 18.5651 31.0294 18.5533C30.7447 18.5651 30.4605 18.5189 30.1942 18.4177C29.9278 18.3164 29.6848 18.1621 29.4798 17.9642C29.0931 17.5509 28.8779 17.0062 28.8779 16.4402C28.8779 15.8743 29.0931 15.3295 29.4798 14.9163Z" fill="#194BBC"/>
<path d="M34.7178 16.709V17.8232H35.0508C35.2357 17.8332 35.4203 17.7981 35.5886 17.7207C35.6707 17.6728 35.7379 17.6033 35.7831 17.5197C35.8283 17.4362 35.8496 17.3418 35.8447 17.2469C35.8491 17.1491 35.8231 17.0523 35.7704 16.9698C35.7177 16.8873 35.6408 16.823 35.5502 16.7859C35.3734 16.7246 35.1864 16.6985 34.9996 16.709H34.7178ZM34.7178 15.0569V16.0943H35.0508C35.1026 16.09 35.154 16.0814 35.2044 16.0686C35.2638 16.0465 35.3198 16.0164 35.3709 15.979C35.4233 15.9367 35.4668 15.8845 35.499 15.8253C35.5368 15.7454 35.5544 15.6575 35.5502 15.5692C35.5554 15.4965 35.5429 15.4236 35.5139 15.3567C35.485 15.2899 35.4403 15.231 35.3837 15.185C35.255 15.0991 35.1031 15.0544 34.9483 15.057L34.7178 15.0569ZM33.9238 14.4166H34.9227C35.2705 14.3918 35.6169 14.4818 35.9087 14.6727C36.0356 14.7698 36.1369 14.8963 36.2039 15.0414C36.2708 15.1864 36.3014 15.3456 36.293 15.5052C36.3012 15.6696 36.2621 15.833 36.1804 15.9759C36.0987 16.1189 35.9778 16.2355 35.8319 16.3119C35.9526 16.3235 36.0698 16.359 36.1766 16.4163C36.2834 16.4736 36.3776 16.5517 36.4539 16.6458C36.5302 16.74 36.587 16.8485 36.621 16.9649C36.6549 17.0812 36.6653 17.2032 36.6515 17.3236C36.6571 17.4772 36.629 17.6301 36.5693 17.7717C36.5095 17.9132 36.4196 18.04 36.3058 18.1432C36.016 18.3736 35.6507 18.4877 35.2813 18.4634H33.9238V14.4166Z" fill="#194BBC"/>
<path d="M40.3267 17.4007V18.3228C40.0125 18.4785 39.6657 18.5575 39.315 18.5533C39.0443 18.563 38.7743 18.5181 38.5213 18.4213C38.2683 18.3245 38.0373 18.1777 37.8422 17.9897C37.63 17.7923 37.4621 17.5521 37.3496 17.285C37.237 17.0179 37.1823 16.73 37.1892 16.4402C37.1772 16.146 37.2295 15.8527 37.3423 15.5807C37.4551 15.3088 37.6256 15.0646 37.8422 14.8651C38.1814 14.5769 38.5981 14.3953 39.04 14.3429C39.482 14.2905 39.9296 14.3697 40.3267 14.5706V15.4926C40.2052 15.3503 40.0539 15.2363 39.8835 15.1589C39.7131 15.0814 39.5278 15.0424 39.3406 15.0444C39.1603 15.0386 38.981 15.0723 38.8151 15.1431C38.6492 15.2139 38.5007 15.3201 38.3801 15.4542C38.1318 15.7266 37.9987 16.0846 38.0088 16.4531C37.9963 16.6417 38.0266 16.8307 38.0976 17.006C38.1685 17.1812 38.2783 17.338 38.4186 17.4648C38.546 17.5873 38.6966 17.6832 38.8615 17.7469C39.0264 17.8107 39.2023 17.841 39.379 17.8361C39.5595 17.839 39.7383 17.8014 39.9023 17.7261C40.0663 17.6507 40.2113 17.5395 40.3267 17.4007Z" fill="#194BBC"/>
<path d="M41.8386 14.416V16.133L43.3244 14.416H44.3218L42.6068 16.287L44.413 18.4642H43.3752L41.9277 16.658L41.8386 16.7472V18.4642H41.0439V14.416H41.8386Z" fill="#194BBC"/>
<path d="M45.6538 17.4518C45.7803 17.5802 45.9322 17.6807 46.0998 17.7468C46.2674 17.813 46.447 17.8434 46.6271 17.836C46.8052 17.8434 46.9829 17.8129 47.1485 17.7467C47.314 17.6805 47.4636 17.58 47.5876 17.4518C47.835 17.1754 47.9718 16.8175 47.9718 16.4466C47.9718 16.0756 47.835 15.7177 47.5876 15.4413C47.33 15.1869 46.9827 15.0443 46.6207 15.0443C46.2588 15.0443 45.9113 15.1869 45.6538 15.4413C45.4064 15.7177 45.2696 16.0756 45.2696 16.4466C45.2696 16.8175 45.4064 17.1754 45.6538 17.4518ZM45.0648 14.9162C45.4942 14.5367 46.0476 14.3271 46.6207 14.3271C47.1939 14.3271 47.7472 14.5367 48.1767 14.9162C48.5634 15.3294 48.7785 15.8742 48.7785 16.4401C48.7785 17.0061 48.5634 17.5509 48.1767 17.9641C47.7472 18.3436 47.1939 18.5531 46.6207 18.5531C46.0476 18.5531 45.4942 18.3436 45.0648 17.9641C44.678 17.5509 44.4629 17.0061 44.4629 16.4401C44.4629 15.8742 44.678 15.3294 45.0648 14.9162Z" fill="#194BBC"/>
<path d="M51.7629 14.416V15.0951H50.3034V16.0053H51.698V16.6844H50.3034V17.7851H51.7629V18.4642H49.5088V14.416H51.7629Z" fill="#194BBC"/>
<path d="M12.6523 23.778C12.9163 24.0249 13.2642 24.1622 13.6256 24.1622C13.987 24.1622 14.3349 24.0249 14.5989 23.778C14.8482 23.5011 14.9812 23.1388 14.9703 22.7663C14.9836 22.3973 14.85 22.0381 14.5989 21.7674C14.3389 21.513 13.9895 21.3704 13.6256 21.3704C13.2618 21.3704 12.9124 21.513 12.6523 21.7674C12.4012 22.0381 12.2677 22.3973 12.281 22.7663C12.27 23.1388 12.403 23.5011 12.6523 23.778ZM12.0633 21.2424C12.4952 20.8627 13.0506 20.6533 13.6256 20.6533C14.2007 20.6533 14.7561 20.8627 15.188 21.2424C15.5748 21.6556 15.7899 22.2004 15.7899 22.7663C15.7899 23.3323 15.5748 23.8771 15.188 24.2903C14.7561 24.6699 14.2007 24.8793 13.6256 24.8793C13.0506 24.8793 12.4952 24.6699 12.0633 24.2903C11.6766 23.877 11.4614 23.3323 11.4614 22.7663C11.4614 22.2004 11.6766 21.6556 12.0633 21.2424Z" fill="#194BBC"/>
<path d="M17.3016 23.0352V24.1109H17.6859C18.1853 24.1109 18.4286 23.9316 18.4286 23.5859C18.43 23.5118 18.4159 23.4382 18.3873 23.3698C18.3586 23.3015 18.316 23.2398 18.2621 23.1889C18.1003 23.0687 17.899 23.0138 17.6986 23.0352L17.3016 23.0352ZM16.5205 24.7897V20.7429H18.864V21.4216H17.3016V22.3438H17.8523C18.2191 22.3255 18.5797 22.4441 18.864 22.6767C18.9901 22.7886 19.09 22.927 19.1564 23.082C19.2228 23.2369 19.2541 23.4047 19.2482 23.5732C19.2505 23.8347 19.1698 24.0903 19.0177 24.3031C18.8786 24.474 18.6994 24.6079 18.4961 24.6928C18.2928 24.7777 18.0716 24.811 17.8523 24.7898L16.5205 24.7897Z" fill="#194BBC"/>
<path d="M20.7587 21.4215V22.6125H21.0917C21.2719 22.6276 21.452 22.5826 21.6039 22.4844C21.6748 22.428 21.7314 22.3557 21.7692 22.2734C21.807 22.1911 21.825 22.1011 21.8217 22.0106C21.8269 21.9203 21.8084 21.8302 21.7679 21.7493C21.7275 21.6684 21.6665 21.5995 21.5911 21.5496C21.4255 21.4502 21.2329 21.4054 21.0405 21.4215H20.7587ZM19.9775 20.7428H21.1557C21.3624 20.7409 21.5686 20.7624 21.7704 20.8068C21.9357 20.8545 22.0886 20.9375 22.2186 21.0501C22.3563 21.1706 22.4647 21.3209 22.5357 21.4895C22.6067 21.6581 22.6384 21.8407 22.6284 22.0233C22.6398 22.1898 22.616 22.3567 22.5586 22.5134C22.5013 22.67 22.4116 22.8128 22.2955 22.9326C22.1588 23.06 21.9972 23.1576 21.8209 23.2194C21.6445 23.2811 21.4572 23.3055 21.271 23.2911H20.7587V24.7895H19.9776L19.9775 20.7428Z" fill="#194BBC"/>
<path d="M23.9737 23.2913H25.1263L24.55 21.8443L23.9737 23.2913ZM25.7154 24.7897L25.3568 23.9445H23.7176L23.359 24.7897H22.501L24.2555 20.7429H24.8701L26.5606 24.7897H25.7154Z" fill="#194BBC"/>
<path d="M27.4052 21.6652L26.9953 21.1273C27.3323 20.8143 27.7777 20.6444 28.2375 20.6535C28.5846 20.6331 28.9283 20.7326 29.2108 20.9353C29.3254 21.0273 29.4173 21.1445 29.4795 21.2777C29.5416 21.4109 29.5724 21.5566 29.5694 21.7035C29.5777 21.8795 29.5349 22.054 29.4463 22.2063C29.3577 22.3585 29.227 22.4818 29.0699 22.5615C29.2923 22.6149 29.4878 22.7468 29.6206 22.9329C29.7605 23.131 29.8324 23.3692 29.8255 23.6116C29.827 23.7895 29.7874 23.9653 29.7096 24.1253C29.6318 24.2852 29.5181 24.425 29.3773 24.5337C29.0378 24.7748 28.6279 24.8964 28.2119 24.8794C27.9121 24.9019 27.6118 24.8422 27.3433 24.7068C27.0748 24.5714 26.8483 24.3655 26.688 24.1111L27.2003 23.6244C27.2803 23.8213 27.431 23.9812 27.6229 24.0727C27.8077 24.1727 28.0145 24.2255 28.2247 24.2263C28.4361 24.2378 28.6447 24.1743 28.8138 24.047C28.8749 23.995 28.9237 23.9302 28.9569 23.8571C28.9901 23.7841 29.0068 23.7047 29.0059 23.6244C29.0059 23.2146 28.7114 23.0097 28.1223 23.0097H27.7509V22.331H28.1223C28.2956 22.3391 28.4667 22.2896 28.6089 22.1902C28.6617 22.1462 28.7047 22.0919 28.7355 22.0305C28.7662 21.9692 28.7839 21.9021 28.7875 21.8336C28.7912 21.7651 28.7806 21.6965 28.7565 21.6323C28.7324 21.568 28.6952 21.5094 28.6474 21.4602C28.5196 21.3735 28.366 21.3328 28.212 21.345C28.0623 21.3354 27.9123 21.3591 27.7727 21.4145C27.6332 21.4698 27.5076 21.5555 27.4052 21.6652Z" fill="#194BBC"/>
<path d="M31.5416 23.778C31.8055 24.0249 32.1534 24.1622 32.5148 24.1622C32.8762 24.1622 33.2241 24.0249 33.4881 23.778C33.7374 23.5011 33.8704 23.1388 33.8595 22.7663C33.8728 22.3973 33.7392 22.0381 33.4881 21.7674C33.228 21.513 32.8787 21.3704 32.5148 21.3704C32.151 21.3704 31.8016 21.513 31.5416 21.7674C31.2904 22.0381 31.1569 22.3973 31.1701 22.7663C31.1592 23.1388 31.2922 23.5011 31.5416 23.778ZM30.9524 21.2424C31.3844 20.8627 31.9397 20.6533 32.5148 20.6533C33.0898 20.6533 33.6453 20.8627 34.0772 21.2424C34.4639 21.6556 34.679 22.2004 34.679 22.7663C34.679 23.3323 34.4639 23.8771 34.0772 24.2903C33.6453 24.6699 33.0898 24.8793 32.5148 24.8793C31.9397 24.8793 31.3844 24.6699 30.9524 24.2903C30.5657 23.877 30.3506 23.3323 30.3506 22.7663C30.3506 22.2004 30.5657 21.6556 30.9524 21.2424Z" fill="#194BBC"/>
<path d="M36.1903 23.0352V24.1494H36.5361C36.7225 24.1595 36.9081 24.1197 37.074 24.0341C37.154 23.9881 37.2193 23.9204 37.2623 23.8388C37.3054 23.7572 37.3244 23.6651 37.3172 23.5731C37.3242 23.4748 37.2994 23.3768 37.2463 23.2938C37.1933 23.2107 37.1148 23.147 37.0227 23.1121C36.8501 23.0517 36.6674 23.0256 36.4848 23.0352H36.1903ZM36.1903 21.3832V22.4205H36.5361C36.5848 22.4152 36.6323 22.4022 36.677 22.3821C36.7424 22.3724 36.8042 22.346 36.8563 22.3053C36.9046 22.2623 36.9437 22.21 36.9715 22.1516C37.0137 22.0728 37.0357 21.9848 37.0355 21.8955C37.0413 21.8214 37.0278 21.7471 36.9964 21.6798C36.965 21.6125 36.9167 21.5544 36.8563 21.5113C36.7311 21.418 36.5766 21.3726 36.4208 21.3832H36.1903ZM35.4092 20.7429H36.408C36.7563 20.7137 37.1041 20.8041 37.3941 20.9991C37.521 21.0961 37.6223 21.2226 37.6892 21.3677C37.7562 21.5127 37.7868 21.6719 37.7783 21.8314C37.7864 21.9942 37.7471 22.1557 37.6652 22.2966C37.5834 22.4375 37.4626 22.5517 37.3173 22.6254C37.5145 22.6547 37.6978 22.7442 37.8423 22.8815C37.9408 22.9804 38.0178 23.0985 38.0685 23.2285C38.1192 23.3586 38.1425 23.4977 38.1369 23.6371C38.1437 23.7908 38.1162 23.9441 38.0564 24.0859C37.9966 24.2276 37.9059 24.3543 37.7911 24.4567C37.5029 24.6913 37.1376 24.81 36.7666 24.7897H35.4092V20.7429Z" fill="#194BBC"/>
<path d="M39.7632 23.2913H40.9158L40.3395 21.8443L39.7632 23.2913ZM41.5048 24.7897L41.1463 23.9445H39.5071L39.1486 24.7897H38.2905L40.0321 20.7429H40.6597L42.3501 24.7897H41.5048Z" fill="#194BBC"/>
<path d="M43.6179 20.7427V22.3056H45.3206V20.7427H46.1153V24.7888H45.3206V22.9847H43.6179V24.7888H42.8232V20.7427H43.6179Z" fill="#194BBC"/>
<path d="M47.0381 20.7427H47.8184V23.4326L50.0462 20.7427H50.6098V24.7888H49.8172V22.0887L47.5874 24.7888H47.0381V20.7427Z" fill="#194BBC"/>
<path d="M53.7733 20.7427V21.4218H52.3117V22.3319H53.7083V23.009H52.3117V24.1117H53.7733V24.7888H51.5312V20.7427H53.7733Z" fill="#194BBC"/>
<path d="M34.4357 9.48639C33.7186 9.4992 32.9886 9.51201 32.2715 9.51201C32.2715 7.23252 32.2843 4.96583 32.2971 2.68634C22.2442 2.99367 18.0823 7.64231 18.0311 7.69353L17.2627 8.58996L16.4431 7.73194C16.3919 7.68074 11.8201 3.01929 2.15145 2.68634V16.517H0V0.522014H1.07573C6.86808 0.270859 12.5676 2.04094 17.1986 5.52923C19.0043 3.94125 24.0115 0.522014 33.36 0.522014H34.4357V9.48639Z" fill="#194BBC"/>
<path d="M17.2244 41.5018L16.4688 40.7463C15.7574 40.0514 14.9103 39.5108 13.9804 39.1582C13.0505 38.8057 12.0578 38.6488 11.0645 38.6973H7.26111C2.79176 38.6973 0 36.136 0 32.0253V16.1841H2.15145V32.0253C2.15145 34.8939 4.02116 36.5457 7.26111 36.5457H11.0645C13.2911 36.4652 15.474 37.1777 17.2243 38.5563C18.9815 37.1813 21.1669 36.4694 23.3968 36.5457H27.2003C30.4275 36.5457 32.2972 34.8938 32.2972 32.0253V29.8995H34.4358V32.0253C34.4358 36.136 31.6697 38.6973 27.2003 38.6973H23.3969C22.4006 38.6492 21.4052 38.8075 20.473 39.1623C19.5409 39.5171 18.6921 40.0607 17.9799 40.7591L17.2244 41.5018Z" fill="#194BBC"/>
</svg>
