<svg width="55" height="42" viewBox="0 0 55 42" fill="none" xmlns="http://www.w3.org/2000/svg">
<g clip-path="url(#clip0_1368_20710)">
<path d="M37.7988 3.19803L35.9347 2.24338C35.7128 2.12988 35.4785 2.20899 35.3672 2.42662L34.7709 3.5912C34.6965 3.7362 34.7223 3.94877 34.8435 4.05914L34.1776 4.6442L33.9876 5.01548L34.9007 5.48318L35.6264 4.6757L35.814 4.77188L35.3355 5.7061L36.2697 6.18462L37.799 3.19851L37.7988 3.19803ZM36.1112 3.27618L36.4825 3.46615L36.1961 4.025L35.8248 3.83503L36.1112 3.27618ZM32.704 1.49457L31.9634 2.5091L31.8841 2.49082L32.2751 1.47918L32.3688 1.07279L31.3507 0.837855L30.5964 4.107L31.6145 4.34193L31.69 4.01514L32.4309 3.00061L32.5148 3.02009L32.1192 4.03053L32.0254 4.43692L33.0433 4.67185L33.7979 1.40271L32.7798 1.16778L32.7043 1.49481L32.704 1.49457ZM28.002 0.526692L26.9526 0.5L26.8677 3.85402L29.6609 3.92472L29.6821 3.08622L29.4041 3.07924L29.4676 0.563724L28.4182 0.537272L28.3545 3.05279L27.9378 3.04221L28.0015 0.526692H28.002ZM23.1022 1.01099L23.1563 3.9858L23.2297 4.39628L24.2581 4.21256L24.2052 3.53541L24.658 3.45437L24.8381 4.10868L25.8714 3.92424L25.7981 3.51377L24.8192 0.704156L23.1017 1.01099H23.1022ZM24.1338 2.69618L24.0528 1.698L24.166 1.6778L24.4356 2.64231L24.1338 2.69618ZM21.6856 3.82637C21.9174 3.73499 22.0129 3.50679 21.9232 3.27931L21.3834 1.91058C21.2934 1.68334 21.0698 1.58595 20.838 1.67756L18.8897 2.44609L20.1207 5.56711L21.097 5.18188L20.7137 4.20992L21.6856 3.82637ZM20.1755 2.84551L20.5634 2.69257L20.7937 3.27667L20.4059 3.4296L20.1755 2.84551ZM19.2526 6.06006L18.8 5.35405L17.7913 6.00067L17.5429 5.61328L18.4102 5.05708L17.9577 4.35107L17.0901 4.90727L16.8886 4.5925L17.7559 4.0363L17.667 3.58687L17.4419 3.23579L15.5537 4.44629L17.3645 7.27081L19.2528 6.0603L19.2526 6.06006ZM14.4373 10.0855L16.5873 7.83086L15.9803 7.25206L15.7884 7.45333L13.9674 5.71692L12.5782 7.1739L14.0455 9.28135L13.8306 9.50691L14.4375 10.0857L14.4373 10.0855ZM15.0639 8.21296L14.7828 8.50777L13.7474 7.16284L13.8498 7.05535L15.0639 8.21296ZM13.9191 10.7643L13.213 10.3117L12.5664 11.3205L12.179 11.0721L12.7352 10.2047L12.0292 9.75218L11.4733 10.6198L11.1585 10.418L11.7147 9.55067L11.4461 9.17915L11.095 8.95408L9.88426 10.8425L12.7088 12.6532L13.9193 10.7648L13.9191 10.7643ZM11.3593 15.8949L11.6957 14.9006L11.3552 14.7854L11.6762 13.8365C11.7561 13.6004 11.6478 13.3815 11.4119 13.3017L9.65943 12.709C9.42329 12.6291 9.20471 12.7371 9.12463 12.9732L8.80361 13.9221L8.51745 13.8254L8.18104 14.8198L8.4672 14.9167L8.14617 15.8656C8.06634 16.1015 8.17431 16.3203 8.41045 16.4001L10.163 16.9931C10.3991 17.0729 10.6177 16.9647 10.6975 16.7286L11.0185 15.7797L11.3593 15.8949ZM9.2617 15.1853L10.2243 15.5109L10.1028 15.8696L9.14026 15.5441L9.2617 15.1853ZM10.5607 14.5165L9.59811 14.191L9.71786 13.837L10.6804 14.1626L10.5607 14.5165Z" fill="#1A1A18"/>
<path d="M45.1897 21.7217L46.304 22.3017L46.2977 22.383L45.239 22.1486L44.8232 22.1168L44.7438 23.1585L48.0892 23.4134L48.1686 22.3715L47.8341 22.346L46.7198 21.766L46.7262 21.6799L47.7848 21.9191L48.2005 21.9509L48.2801 20.9092L44.9348 20.6543L44.8554 21.6962L45.1901 21.7217H45.1897ZM44.7289 25.0546L45.7413 25.7984L45.7228 25.8777L44.7123 25.4841L44.3062 25.3891L44.0681 26.4065L47.3351 27.1707L47.5729 26.1533L47.2464 26.0768L46.234 25.3331L46.2537 25.2491L47.2632 25.6476L47.6694 25.7426L47.9072 24.7252L44.6402 23.9612L44.4024 24.9784L44.7289 25.0548V25.0546ZM43.1106 28.626C43.0091 28.8535 43.0964 29.0814 43.3196 29.181L45.622 30.2078C45.8452 30.3073 46.0731 30.22 46.1746 29.9926L46.9165 28.3293L46.1506 27.9876L45.6646 29.0776L44.1369 28.3961L44.5568 27.4552L44.2336 27.1325L43.8527 26.9627L43.1108 28.626H43.1106ZM41.5841 31.1834C41.4507 31.3938 41.5038 31.6318 41.7101 31.7629L43.8387 33.1138C44.045 33.2449 44.2833 33.1915 44.4168 32.9811L45.3926 31.4433L44.6847 30.9939L44.045 32.0014L42.6325 31.1052L43.1847 30.235L42.912 29.869L42.5599 29.6456L41.5841 31.1834ZM43.0505 34.6641C43.2231 34.4842 43.2183 34.2404 43.0418 34.0711L41.2239 32.3246C41.0476 32.1553 40.8036 32.1601 40.6309 32.34L39.4723 33.5462C39.2997 33.7258 39.3045 33.9699 39.4808 34.1392L41.2987 35.8857C41.4752 36.055 41.719 36.0499 41.8917 35.8705L43.0505 34.6641ZM40.8043 33.3771L42.0107 34.5359L41.7219 34.8368L40.5155 33.678L40.8043 33.3774V33.3771ZM39.6902 36.3955C39.8951 36.2536 39.936 36.0095 39.7967 35.8085L38.9587 34.5992C38.8195 34.3982 38.5795 34.3546 38.3746 34.4967L36.6531 35.6895L38.5639 38.4471L39.4266 37.8493L38.8317 36.9904L39.6904 36.3952L39.6902 36.3955ZM37.9959 35.7849L38.3388 35.5473L38.6964 36.0636L38.3537 36.301L37.9959 35.7849ZM32.1648 37.6134L32.6953 40.5411L32.8335 40.9345L33.8195 40.5882L33.6588 39.9284L34.0929 39.7759L34.3756 40.393L35.3659 40.045L35.2279 39.6516L33.811 37.0353L32.165 37.6137L32.1648 37.6134ZM33.453 39.1118L33.2132 38.1393L33.3217 38.1011L33.7425 39.0098L33.453 39.1115V39.1118ZM31.6189 41.1685L31.2231 37.8371L29.2289 38.0739L28.9471 41.066L28.9962 41.4801L30.0434 41.3558L30.1369 38.811L30.2846 38.7934L30.5813 41.2921L31.6189 41.169V41.1685ZM27.3915 41.4989C27.6402 41.5179 27.8253 41.3589 27.8439 41.1151L28.0353 38.6013C28.0538 38.3574 27.8948 38.1723 27.6464 38.1535L25.9786 38.0263C25.7302 38.0073 25.545 38.1663 25.5262 38.4101L25.3348 40.9237C25.3163 41.1675 25.4753 41.3527 25.7237 41.3714L27.3915 41.4984V41.4989ZM26.9563 38.9468L26.8293 40.6147L26.4138 40.5829L26.5408 38.9151L26.9565 38.9468H26.9563ZM24.1236 38.9641L23.1016 38.7251L23.188 38.3565L24.434 38.6479L24.6935 38.2754L24.7885 37.8693L22.3617 37.3015L21.5975 40.5685L23.6369 41.0454C23.875 41.1012 24.0834 40.9677 24.139 40.7296L24.4348 39.465C24.4906 39.227 24.3619 39.0197 24.1236 38.9639V38.9641ZM22.8058 39.99L22.9107 39.5417L23.3214 39.6377L23.2166 40.0859L22.8058 39.99ZM19.6634 39.7757L21.6874 37.4615L21.8574 37.0808L20.9689 36.6845L20.2502 37.802L20.1451 37.7551L20.4349 36.4464L19.5155 36.0365L19.3458 36.4173L19.2655 38.7273L18.9887 39.0182L18.8189 39.3991L19.6637 39.7759L19.6634 39.7757ZM16.7822 38.2569C16.9851 38.4019 17.2258 38.3618 17.3677 38.1627L18.8326 36.111C18.9747 35.9121 18.9346 35.6714 18.7316 35.5267L17.3703 34.5547C17.1676 34.4099 16.9269 34.4501 16.7848 34.6492L15.3199 36.7009C15.178 36.8997 15.2179 37.1404 15.4209 37.2852L16.7822 38.2572V38.2569ZM17.7306 35.8482L16.7584 37.2094L16.4191 36.9673L17.391 35.606L17.7303 35.8482H17.7306ZM13.992 31.1271L11.4414 33.3067L13.9728 36.269L16.5234 34.0894L15.8446 33.2951L13.9317 34.9298L13.6857 34.642L15.5988 33.0073L14.92 32.213L13.0071 33.8477L12.7611 33.5599L14.674 31.9252L13.992 31.1271Z" fill="#1A1A18"/>
<path d="M28.5039 6.24301C28.3743 6.19636 28.1966 6.15788 27.9867 6.12975C28.0545 6.24974 28.1266 6.38416 28.1995 6.60684C28.4056 7.36551 28.6013 7.3619 27.4134 8.69865C26.7815 9.40707 26.9808 9.48378 25.7455 9.37412C25.1396 9.32026 24.4307 9.39721 23.8608 9.24066C23.8463 9.43905 23.8401 9.60281 23.8422 9.70765C24.4403 9.95725 25.2535 9.85169 25.9362 9.91229C27.1715 10.0219 26.9722 9.94523 27.6041 9.23682C28.8136 7.88035 29.1359 7.94142 28.5039 6.24301ZM26.7372 11.0119C26.6026 10.9925 26.4169 10.9653 26.1993 10.9355C26.534 12.3499 27.3206 13.5787 27.7717 14.5889L27.3369 15.2196H28.0653L28.3767 14.7784C27.953 13.5664 27.1297 12.3708 26.7372 11.0119ZM29.5382 7.03342L29.53 7.01346C29.5829 7.19309 29.6466 7.37561 29.7291 7.57159L45.7858 11.161L45.7894 11.1617L29.5382 7.03342ZM24.3941 5.28379C18.5585 6.62703 13.5354 11.1872 12.295 16.8514C12.2147 17.2186 12.0587 18.6059 12.3773 18.9428C12.8395 15.1605 14.8902 11.7595 17.1753 9.68577C19.2436 7.7226 21.7925 6.40292 24.5704 5.80296C26.182 5.42446 27.3196 5.40595 29.1842 5.48891C27.8503 4.72014 25.039 5.1323 24.3941 5.28379ZM19.9344 19.2621C19.183 18.4628 18.9925 15.1751 18.7477 14.6038L18.2269 14.5514C18.557 15.7008 18.8634 18.1139 19.1642 18.8194C19.3018 19.1291 19.6625 19.2679 20.0025 19.3342L19.9344 19.2621ZM20.7729 22.4884L0.84668 18.1355L0.849084 18.1362L20.8614 22.9898C20.8253 22.8155 20.7963 22.6481 20.7729 22.4884ZM26.3253 31.9835C25.9766 30.9942 25.0862 30.4005 25.0787 29.1962C25.0785 29.1426 25.0816 29.0883 25.0881 29.033C24.9243 28.9197 24.7668 28.805 24.6149 28.6893C24.6076 28.7233 24.6019 28.7567 24.5973 28.7894C24.4234 29.853 24.7952 30.4866 25.3495 31.252L11.0771 27.7381L26.3253 31.9835ZM24.4881 34.891C24.5437 34.259 25.3372 33.6605 25.9374 32.9408C25.8364 32.9042 25.6323 32.8328 25.4553 32.7708C24.5266 33.5359 24.0228 34.4343 23.9567 34.7426C23.8103 35.4255 24.2751 36.1243 24.8428 36.4586C24.6117 35.8776 24.453 35.332 24.4881 34.891ZM30.142 33.8305C29.9366 34.4252 29.6853 35.0636 29.5209 35.4169C29.4855 35.4931 27.2215 36.0286 25.638 35.4936C25.6866 35.6273 25.7424 35.7901 25.7785 36.0257C27.2925 36.3884 29.0738 35.9687 29.6158 35.9868C29.984 35.2596 30.1595 34.8551 30.4654 33.8447C30.3548 33.8413 30.2471 33.8368 30.142 33.8305ZM41.8955 24.5336C41.8977 24.7219 41.8974 24.9184 41.8945 25.1261C42.3254 24.8941 42.9415 25.3656 42.8453 25.6768C43.0529 25.0997 42.4579 24.5557 41.8955 24.5336ZM40.1264 19.3727C39.5733 19.2902 37.2535 19.0471 36.7846 19.2943C36.1702 19.5805 35.7141 20.2903 35.2678 21.125C35.2774 21.4155 35.2711 21.8365 35.2052 22.3478C35.761 21.2575 36.2453 20.2175 36.9753 19.8325C37.4445 19.5855 39.764 19.8284 40.3168 19.9111C40.9045 19.9989 41.209 20.3221 41.3792 20.7888C41.2361 20.1379 40.8497 19.4809 40.1264 19.3727ZM35.4967 14.9717C35.5498 15.1107 35.601 15.2526 35.6489 15.3968L54.5051 19.247L35.4967 14.9717ZM29.7224 14.0796C29.8137 13.9658 29.9123 13.848 30.0181 13.7285C29.5329 13.5943 29.2328 13.4584 29.019 13.2803C29.1938 13.6378 29.3179 13.8783 29.7224 14.0796ZM30.9591 10.0734C30.3704 10.0195 30.2237 10.9194 30.5787 11.521C30.4168 11.0668 30.6508 10.5659 31.1498 10.6116C31.919 10.6084 45.591 14.1996 52.8115 15.9934C45.5273 14.0202 31.9202 10.0496 30.9591 10.0734ZM40.5578 21.3037L39.9251 21.2592C40.2103 22.1037 40.3777 22.8751 40.4207 23.5785C40.4529 24.1058 40.4582 24.3987 40.3476 24.8522C40.2216 25.3699 39.9203 25.8985 39.6236 26.389C37.7787 29.0854 38.1387 29.1227 36.8587 29.0399C36.4169 29.0116 35.786 29.0356 35.382 28.9346C35.4029 29.0938 35.4176 29.2571 35.4236 29.4249C35.804 29.5812 36.5485 29.5461 37.0491 29.5781C38.3291 29.6608 37.9831 29.7015 39.8277 27.0051C40.8043 25.4753 40.9928 25.0533 41.0096 24.2032C40.956 22.9595 40.7331 22.3932 40.5578 21.3037ZM22.8198 7.01322C22.6755 7.60213 22.6897 8.21844 22.5353 9.02064C22.2068 10.0354 19.8469 12.1537 19.0495 12.8597L17.4151 12.7125C17.3614 12.8914 17.3076 13.0617 17.2527 13.2189L19.2402 13.3978C20.0376 12.6921 22.5868 10.4817 22.9152 9.46694C23.0968 8.52239 23.0699 7.76107 23.318 7.07358C23.4193 6.85379 23.1877 6.87688 22.8198 7.01322ZM33.6078 26.378C33.4996 26.5304 33.3844 26.6834 33.2618 26.8361C33.579 28.0415 33.8851 29.5194 33.5787 29.935C33.4258 30.1427 31.1741 32.3112 30.7097 32.3476C30.2026 32.387 28.2671 31.9573 27.4913 31.8308L27.8301 32.4577C28.4448 32.5351 30.3517 32.9285 30.9002 32.8857C31.365 32.8494 33.9296 30.3512 34.0825 30.1437C34.485 29.5973 33.9315 27.4974 33.6078 26.378ZM17.1763 10.7279C17.0897 10.7191 16.993 10.7457 16.8892 10.8018C16.7408 11.2498 16.5037 11.8206 16.4222 12.0779C16.1865 12.8202 16.1872 12.9145 15.6546 13.7073C14.7586 14.8993 14.3462 15.6998 13.6847 17.0135C13.589 17.303 13.3699 17.5723 13.237 17.561C13.1261 18.4258 13.7148 18.0369 13.8754 17.5517C14.5369 16.238 14.9493 15.4375 15.8453 14.2457C16.3779 13.4527 16.477 13.3659 16.7124 12.6233C16.8519 12.1845 17.3427 10.8277 17.1763 10.7279ZM3.54688 22.386H3.5464H3.54688ZM3.54688 22.386H3.5464L3.56203 22.3915L3.54688 22.386ZM21.6994 26.6278L3.54688 22.386L21.8901 27.166C22.5141 27.3314 22.8034 27.8318 22.7498 28.2173C22.9011 27.7433 22.9032 26.9229 21.6994 26.6278ZM41.5949 26.0656C40.8834 27.463 40.3558 28.3087 39.5858 29.5702C39.2088 30.1559 38.2505 31.1522 37.607 31.7046C37.2478 32.2718 37.0515 32.6361 37.1711 32.6111C37.2211 32.9011 39.1936 31.0142 39.7765 30.1083C40.6429 28.8387 41.1808 27.9795 41.8582 26.4605C41.9304 26.2674 41.7791 26.1017 41.5949 26.0656ZM36.8183 30.6535C36.5745 31.1907 36.1981 31.7935 35.9726 32.1898C35.3618 33.3782 33.0632 35.1764 31.0134 35.2377C30.9555 35.4255 30.9059 35.5869 30.8694 35.6958C33.5188 35.4253 35.6049 33.8995 36.1633 32.728C36.4626 32.2014 37.0289 31.3107 37.1965 30.6927C37.0847 30.6833 36.9566 30.6691 36.8183 30.6535Z" fill="black"/>
<path fill-rule="evenodd" clip-rule="evenodd" d="M21.8899 27.1646C15.7753 25.5713 9.66098 23.9777 3.5464 22.3844C7.76658 23.8558 18.4517 28.0621 22.0395 28.6979C23.0494 28.7775 22.9855 27.4546 21.8899 27.1646ZM31.1498 10.6102C30.3288 10.5352 30.2249 11.9386 31.4215 12.1817C31.5364 12.2021 31.6516 12.2225 31.7666 12.2432C32.3189 11.9217 32.9345 11.6986 33.5972 11.6692C33.5972 11.6692 33.9211 12.0564 34.3343 12.7006C40.4933 13.7978 46.6524 14.8949 52.8115 15.9921C45.591 14.1982 31.919 10.6071 31.1498 10.6102ZM35.6489 15.3953C35.7819 15.7942 35.892 16.2109 35.9661 16.6385L54.5053 19.2456L35.6489 15.3953ZM28.981 13.201C27.7496 10.6908 27.5086 10.8269 28.281 9.89796C28.6973 9.39707 29.1847 8.95605 29.5425 8.45252L45.7894 11.1606L29.7291 7.57024C29.4326 6.8652 29.3799 6.33232 29.1842 5.48756C27.3196 5.4046 26.182 5.42312 24.5704 5.80137C21.7925 6.40158 19.2436 7.72126 17.1753 9.68442C14.8902 11.7582 12.8395 15.1591 12.3773 18.9414C12.8645 19.0157 13.8314 19.3141 14.2904 18.3592C15.045 16.8397 15.6125 15.7201 16.6903 14.3952L18.7477 14.6024C18.9925 15.1738 19.183 18.4614 19.9344 19.2608C20.0082 19.3391 20.0789 19.4149 20.1504 19.4839C19.7634 18.2996 19.8474 17.0771 20.1412 15.9608C20.1018 15.7591 20.0703 15.5797 20.0491 15.4397C19.8159 13.8998 19.7625 14.1636 21.0083 12.8581L23.0131 10.8663C23.5068 10.5273 25.9629 10.9 26.7372 11.0104C27.1297 12.3695 27.953 13.5651 28.3767 14.777L28.0653 15.2183H28.9269C28.9269 15.2183 29.2135 14.7099 29.7224 14.078C29.2893 13.8628 29.1777 13.6023 28.981 13.201ZM16.7127 12.622C16.477 13.3645 16.3777 13.4513 15.8453 14.2444C14.9493 15.4361 14.5369 16.2367 13.8754 17.5503C13.6885 18.1147 12.9229 18.5485 13.3517 17.0331C13.6041 15.7382 16.1149 10.6196 17.1763 10.7266C17.3427 10.8264 16.8519 12.1834 16.7127 12.622ZM23.318 7.072C23.0699 7.75973 23.0968 8.52105 22.9152 9.4656C22.5865 10.4804 20.0376 12.6907 19.2402 13.3967L17.2527 13.2176C17.6223 12.1586 17.9462 10.4953 18.4543 9.71448C18.9444 9.18906 19.8279 8.57058 20.4974 8.18656C20.5147 8.1767 23.6446 6.36406 23.318 7.072ZM25.9362 9.91094C25.2535 9.85035 24.4403 9.95591 23.8422 9.70631C23.8302 9.1465 24.0579 6.92435 24.5293 6.63242C25.5928 5.97355 27.7835 5.98244 28.5039 6.24191C29.1359 7.94008 28.8136 7.879 27.6041 9.23547C26.9722 9.94389 27.1715 10.0206 25.9362 9.91094ZM41.8945 25.1248C41.9162 23.5298 41.795 22.5811 41.4778 21.134C41.3347 20.4828 41.0404 20.018 40.3168 19.9098C39.764 19.8271 37.4445 19.5842 36.9753 19.8311C36.2453 20.2161 35.761 21.2559 35.2052 22.3459C35.0675 23.4167 34.6685 24.8836 33.6078 26.3766C33.9315 27.496 34.485 29.596 34.0825 30.1423C33.9296 30.3499 31.365 32.8481 30.9002 32.8844C30.3517 32.9269 28.4448 32.5338 27.8301 32.4563L26.4208 29.848C25.9372 29.5861 25.4942 29.313 25.0881 29.0316C25.0816 29.0869 25.0785 29.1413 25.0787 29.1949C25.0862 30.3992 25.9766 30.9931 26.3253 31.9821L11.0771 27.7367L25.2312 32.6908C25.4086 32.7533 25.7871 32.8851 25.9374 32.9394C25.3372 33.6592 24.5439 34.2577 24.4884 34.8896C24.453 35.3306 24.6117 35.8763 24.8428 36.4572C24.8907 36.4664 24.9385 36.4755 24.9866 36.4844C26.9902 36.8509 29.0089 36.8595 31.1267 36.4168C32.052 36.2235 33.0014 35.92 33.8743 35.5632C34.9477 35.1246 35.9132 34.5275 36.7021 34.03C37.3158 33.6431 37.9254 33.1393 38.4917 32.6057C39.6349 31.5284 40.7191 30.209 41.5338 28.7582C42.1593 27.6441 42.4995 26.8734 42.8453 25.6754C42.9415 25.3643 42.3254 24.893 41.8945 25.1248ZM29.6158 35.9852C29.0738 35.9672 27.2925 36.3868 25.7785 36.0241C25.6948 35.4778 25.5046 35.3222 25.5464 35.0137C25.6215 34.5523 26.0815 34.2396 26.9633 33.2561C28.1774 33.5435 29.081 33.8008 30.4654 33.8431C30.1595 34.8536 29.984 35.258 29.6158 35.9852ZM35.2875 24.4678C36.011 23.4285 36.617 22.3327 37.2494 21.0705L40.5578 21.3023C40.7331 22.3919 40.956 22.9582 41.0096 24.2019C40.9925 25.0519 40.8043 25.4739 39.8275 27.0038C37.9831 29.7001 38.3294 29.6595 37.0491 29.577C36.5485 29.5448 35.804 29.5801 35.4236 29.4236C35.3531 27.4614 34.1219 26.1403 35.2875 24.4678ZM36.1633 32.7266C35.6047 33.8982 33.5188 35.4239 30.8694 35.6945C31.0271 35.2258 31.4237 33.7842 31.698 33.4497L33.301 32.0856C33.7879 31.7114 34.5024 30.8294 34.7539 30.6827C35.2315 30.4042 36.5177 30.6339 37.1965 30.6913C37.0289 31.3093 36.4626 32.2 36.1633 32.7266ZM41.858 26.4591C41.1808 27.9781 40.6429 28.8373 39.7765 30.107C39.1936 31.0128 37.2208 32.8998 37.1711 32.6098C36.9003 32.6665 38.2493 30.725 39.4461 28.9508C40.2646 27.7372 40.9767 26.5858 41.1912 26.2687C41.4025 25.8567 41.9871 26.1143 41.858 26.4591ZM20.8614 22.9885L0.84668 18.1342L21.2464 24.3115C21.0692 23.8426 20.9461 23.3968 20.8614 22.9885Z" fill="#EE7C00"/>
<g filter="url(#filter0_d_1368_20710)">
<path fill-rule="evenodd" clip-rule="evenodd" d="M33.4134 12.2852C30.844 12.6682 29.2297 15.8592 29.2297 15.8592C28.4672 15.8227 27.981 15.8585 27.9733 15.8592C27.9671 15.8587 27.503 15.8164 26.7166 15.8592C26.7166 15.8592 25.1024 12.6682 22.533 12.2852C22.533 12.2852 19.1504 16.199 21.1465 20.6053C21.1465 20.6053 20.4027 26.5128 27.9726 30.1367V30.1374C27.9726 30.1374 27.9731 30.1374 27.9733 30.1371C27.9733 30.1371 27.9738 30.1371 27.974 30.1374V30.1367C35.5439 26.5131 34.8001 20.6053 34.8001 20.6053C36.7963 16.199 33.4136 12.2852 33.4136 12.2852H33.4134Z" fill="#020203"/>
<path d="M33.3925 13.3457C33.0493 14.0096 32.5924 15.3274 32.8207 17.3976C32.8411 17.4363 33.9477 18.2409 34.5292 19.7582C34.8141 17.7751 34.2387 15.124 33.3925 13.3459V13.3457Z" fill="white"/>
<path d="M23.1498 17.3976C23.378 15.3274 22.9209 14.0096 22.5777 13.3457C21.8083 14.9633 21.1407 17.6662 21.4413 19.758C21.7933 18.8392 22.3899 18.0384 23.1498 17.3973V17.3976Z" fill="white"/>
<path d="M27.9744 27.4043C26.5959 25.0371 24.7515 22.3913 21.876 21.8438C21.9907 25.1704 25.3776 27.9011 27.9744 29.4836C30.5698 27.9016 33.9551 25.1728 34.0724 21.8478C31.2087 22.4055 29.3648 25.0162 27.9744 27.4043Z" fill="white"/>
<path d="M23.517 13.5195C23.9099 14.5329 24.2993 16.977 23.7762 17.9121C22.7975 18.6963 22.111 19.7671 21.9307 21.0173C24.5282 21.4222 26.6436 23.7208 27.9796 25.8377C29.3262 23.7033 31.4154 21.4263 34.0398 21.0173C33.8595 19.7671 33.1727 18.6963 32.1943 17.9121C31.671 16.9772 32.0606 14.5331 32.4535 13.5195C31.1881 14.2979 30.2085 15.2987 29.6958 16.691C28.3805 16.433 27.5898 16.433 26.2747 16.691C25.762 15.2987 24.7824 14.2979 23.517 13.5195Z" fill="#EE7B00"/>
<path d="M27.9854 29.4765C30.2183 23.4162 34.0723 21.8477 34.0723 21.8477C31.2163 22.4036 29.3748 25.0019 27.9854 27.3844C26.5959 25.0016 24.7545 22.4036 21.8984 21.8477C21.8984 21.8477 25.7524 23.4162 27.9854 29.4765Z" fill="#D5D5D5"/>
<path d="M34.5715 17.8645C32.4443 16.8226 33.3925 13.3457 33.3925 13.3457C33.0493 14.0096 32.5924 15.3274 32.8207 17.3976C32.8411 17.4363 33.9477 18.2409 34.5292 19.7582C34.6136 19.172 34.6225 18.5278 34.5715 17.8648V17.8645Z" fill="#D5D5D5"/>
<path d="M21.3991 17.8645C23.5263 16.8226 22.5779 13.3457 22.5779 13.3457C22.921 14.0096 23.3782 15.3274 23.1499 17.3976C23.1295 17.4363 22.0229 18.2409 21.4414 19.7582C21.357 19.172 21.3481 18.5278 21.3991 17.8648V17.8645Z" fill="#D5D5D5"/>
</g>
</g>
<defs>
<filter id="filter0_d_1368_20710" x="14.8561" y="6.62516" width="26.2346" height="29.1716" filterUnits="userSpaceOnUse" color-interpolation-filters="sRGB">
<feFlood flood-opacity="0" result="BackgroundImageFix"/>
<feColorMatrix in="SourceAlpha" type="matrix" values="0 0 0 0 0 0 0 0 0 0 0 0 0 0 0 0 0 0 127 0" result="hardAlpha"/>
<feOffset/>
<feGaussianBlur stdDeviation="2.83"/>
<feColorMatrix type="matrix" values="0 0 0 0 0.00784314 0 0 0 0 0.00784314 0 0 0 0 0.0117647 0 0 0 0.75 0"/>
<feBlend mode="normal" in2="BackgroundImageFix" result="effect1_dropShadow_1368_20710"/>
<feBlend mode="normal" in="SourceGraphic" in2="effect1_dropShadow_1368_20710" result="shape"/>
</filter>
<clipPath id="clip0_1368_20710">
<rect width="53.6586" height="41" fill="white" transform="translate(0.84668 0.5)"/>
</clipPath>
</defs>
</svg>
