<svg width="56" height="42" viewBox="0 0 56 42" fill="none" xmlns="http://www.w3.org/2000/svg">
<g clip-path="url(#clip0_1368_20657)">
<path d="M8.79782 37.2363H9.55324L10.3086 39.1447C10.3882 39.3832 10.5074 39.7013 10.5074 39.7013C10.5074 39.7013 10.6267 39.3832 10.7062 39.1447L11.4616 37.2363H12.217L12.535 41.053H11.8194L11.6604 38.9062C11.6206 38.6676 11.6604 38.3098 11.6604 38.3098C11.6604 38.3098 11.5411 38.6676 11.4616 38.9062L10.8255 40.3772H10.2291L9.59299 38.9062C9.5135 38.6676 9.3942 38.3098 9.3942 38.3098C9.3942 38.3098 9.3942 38.6676 9.3942 38.9062L9.23515 41.053H8.51953L8.79782 37.2363Z" fill="#A7A9AC"/>
<path d="M14.0857 37.2363H16.2723V37.8327H14.7616V41.053H14.0459V37.2363H14.0857Z" fill="#A7A9AC"/>
<path d="M17.6242 37.2363H20.7253V41.053H20.0097V37.8327H18.3001V41.053H17.5845V37.2363H17.6242Z" fill="#A7A9AC"/>
<path d="M22.6734 40.3374C22.7529 40.417 22.912 40.5362 23.1108 40.5362C23.3096 40.5362 23.4288 40.4169 23.5084 40.2182L21.9976 37.2363H22.7529L23.5878 38.9459C23.7071 39.1845 23.7866 39.4627 23.7866 39.4627C23.7866 39.4627 23.8661 39.2242 23.9457 38.9459L24.542 37.2363H25.2577L24.0649 40.2579C23.9059 40.6555 23.6276 41.1326 23.071 41.1326C22.7927 41.1326 22.5541 41.0133 22.3156 40.8543L22.6734 40.3374Z" fill="#A7A9AC"/>
<path d="M15.835 14.1367C16.9482 14.1367 17.8229 15.0114 17.8229 16.0848C17.8229 17.1981 16.988 18.0727 15.835 18.0727C14.7218 18.0727 13.8472 17.1981 13.8472 16.0848C13.8472 15.0114 14.7218 14.1367 15.835 14.1367ZM15.835 17.4763C16.5507 17.4763 17.1073 16.88 17.1073 16.1246C17.1073 15.3692 16.5507 14.8126 15.835 14.8126C15.1194 14.8126 14.5628 15.3692 14.5628 16.1246C14.5628 16.88 15.1194 17.4763 15.835 17.4763Z" fill="#EE3524"/>
<path d="M24.701 14.2168H23.9854V18.0335H24.701V14.2168Z" fill="#4D4D4F"/>
<path d="M26.8875 14.2168H26.1321L24.8599 16.0456L26.2116 18.0732H27.0465L25.6152 16.0456L26.8875 14.2168Z" fill="#4D4D4F"/>
<path d="M42.9895 14.2168H42.2739V18.0335H42.9895V14.2168Z" fill="#4D4D4F"/>
<path d="M45.1761 14.2168H44.4207L43.1484 16.0456L44.5002 18.0732H45.3351L43.9039 16.0456L45.1761 14.2168Z" fill="#4D4D4F"/>
<path d="M36.6282 21.8887H35.9126V25.7054H36.6282V21.8887Z" fill="#4D4D4F"/>
<path d="M38.8147 21.8887H38.0196L36.7871 23.7175L38.1389 25.7054H38.9738L37.5425 23.6778L38.8147 21.8887Z" fill="#4D4D4F"/>
<path d="M8.79782 14.2168H9.55324L10.3086 16.1251C10.3882 16.3637 10.5074 16.6818 10.5074 16.6818C10.5074 16.6818 10.6267 16.3637 10.7062 16.1251L11.4616 14.2168H12.217L12.535 18.0335H11.8194L11.6604 15.8866C11.6206 15.648 11.6604 15.2902 11.6604 15.2902C11.6604 15.2902 11.5411 15.648 11.4616 15.8866L10.8255 17.3576H10.2291L9.59299 15.8866C9.5135 15.648 9.3942 15.2902 9.3942 15.2902C9.3942 15.2902 9.3942 15.648 9.3942 15.8866L9.23515 18.0335H8.51953L8.79782 14.2168Z" fill="#4D4D4F"/>
<path d="M21.0833 14.1367C21.6001 14.1367 22.1169 14.2958 22.5145 14.6535L22.1965 15.1704C21.9181 14.9319 21.5206 14.7728 21.1628 14.7728C20.3279 14.7728 19.8905 15.3692 19.8905 16.0848C19.8905 16.8005 20.3676 17.4366 21.1628 17.4366C21.5604 17.4366 21.9977 17.2378 22.276 16.9595L22.6338 17.4763C22.3157 17.7944 21.7989 18.1125 21.123 18.1125C19.9303 18.1125 19.1352 17.2378 19.1352 16.1246C19.0954 15.0114 19.9303 14.1367 21.0833 14.1367Z" fill="#4D4D4F"/>
<path d="M29.9093 14.1367C31.0225 14.1367 31.8971 15.0114 31.8971 16.0848C31.8971 17.1981 31.0622 18.0727 29.9093 18.0727C28.7961 18.0727 27.9214 17.1981 27.9214 16.0848C27.9214 15.0114 28.7961 14.1367 29.9093 14.1367ZM29.9093 17.4763C30.6249 17.4763 31.1815 16.88 31.1815 16.1246C31.1815 15.3692 30.6249 14.8126 29.9093 14.8126C29.1936 14.8126 28.637 15.3692 28.637 16.1246C28.637 16.88 29.1936 17.4763 29.9093 17.4763Z" fill="#4D4D4F"/>
<path d="M33.4077 14.2168H34.7595C35.4751 14.2168 35.9522 14.5746 35.9522 15.2107C35.9522 15.5685 35.7932 15.8866 35.4751 16.0456C35.9124 16.1649 36.1112 16.5625 36.1112 16.96C36.1112 17.7154 35.5149 18.0732 34.7992 18.0732H33.4077V14.2168ZM34.7595 15.7673C35.0776 15.7673 35.2365 15.5685 35.2365 15.2902C35.2365 15.0119 35.0776 14.8131 34.7595 14.8131H34.0836V15.7673H34.7595ZM34.839 17.4371C35.1968 17.4371 35.3956 17.1986 35.3956 16.8805C35.3956 16.5625 35.1968 16.3239 34.839 16.3239H34.0836V17.4371H34.839Z" fill="#4D4D4F"/>
<path d="M39.3714 14.1367C39.8882 14.1367 40.405 14.2958 40.8026 14.6535L40.4846 15.1704C40.2062 14.9319 39.8087 14.7728 39.4509 14.7728C38.6159 14.7728 38.1786 15.3692 38.1786 16.0848C38.1786 16.8005 38.6557 17.4366 39.4509 17.4366C39.8484 17.4366 40.2858 17.2378 40.5641 16.9595L40.9219 17.4763C40.6038 17.7944 40.087 18.1125 39.4111 18.1125C38.2184 18.1125 37.4232 17.2378 37.4232 16.1246C37.3835 15.0114 38.2184 14.1367 39.3714 14.1367Z" fill="#4D4D4F"/>
<path d="M46.5278 14.2168H47.2435V16.4432C47.2435 16.6818 47.2037 17.0395 47.2037 17.0395C47.2037 17.0395 47.4025 16.6818 47.5218 16.4432L48.953 14.2168H49.6289V18.0335H48.953V15.8071C48.953 15.5685 48.9928 15.2107 48.9928 15.2107C48.9928 15.2107 48.8338 15.5685 48.6748 15.8071L47.2037 18.0335H46.5278V14.2168Z" fill="#4D4D4F"/>
<path d="M51.418 14.2166H52.1336V16.443C52.1336 16.6816 52.0938 17.0394 52.0938 17.0394C52.0938 17.0394 52.2926 16.6816 52.4119 16.443L53.8432 14.2166H54.519V18.0333H53.8432V15.8069C53.8432 15.5684 53.8829 15.2105 53.8829 15.2105C53.8829 15.2105 53.7239 15.5684 53.5649 15.8069L52.0938 18.0333H51.418V14.2166ZM52.1336 13.3022V13.2227H52.6505V13.3022C52.6505 13.5407 52.8493 13.66 53.0083 13.66C53.1673 13.66 53.3661 13.5407 53.3661 13.3022V13.2227H53.8829V13.3022C53.8829 13.7793 53.4853 14.0576 53.0083 14.0576C52.5312 14.0576 52.1336 13.7793 52.1336 13.3022Z" fill="#4D4D4F"/>
<path d="M8.63887 21.8887H10.8255V22.485H9.31474V25.7054H8.59912V21.8887H8.63887Z" fill="#4D4D4F"/>
<path d="M13.8077 21.8105C14.9209 21.8105 15.7956 22.6852 15.7956 23.7587C15.7956 24.8719 14.9607 25.7465 13.8077 25.7465C12.6945 25.7465 11.8198 24.8719 11.8198 23.7587C11.8198 22.6852 12.6547 21.8105 13.8077 21.8105ZM13.8077 25.1502C14.5233 25.1502 15.0799 24.5538 15.0799 23.7984C15.0799 23.0431 14.5233 22.4864 13.8077 22.4864C13.0921 22.4864 12.5354 23.0431 12.5354 23.7984C12.5354 24.5538 13.0921 25.1502 13.8077 25.1502Z" fill="#4D4D4F"/>
<path d="M17.2663 21.8887H18.7374C19.453 21.8887 19.9699 22.4055 19.9699 23.1211C19.9699 23.8765 19.453 24.3934 18.7374 24.3934H17.9422V25.7054H17.2266V21.8887H17.2663ZM18.6181 23.797C19.0156 23.797 19.2542 23.5187 19.2542 23.1211C19.2542 22.7235 19.0156 22.485 18.6181 22.485H17.9422V23.797H18.6181Z" fill="#4D4D4F"/>
<path d="M23.1505 21.8105C24.2637 21.8105 25.1383 22.6852 25.1383 23.7587C25.1383 24.8719 24.3034 25.7465 23.1505 25.7465C22.0373 25.7465 21.1626 24.8719 21.1626 23.7587C21.1626 22.6852 22.0373 21.8105 23.1505 21.8105ZM23.1505 25.1502C23.8661 25.1502 24.4227 24.5538 24.4227 23.7984C24.4227 23.0431 23.8661 22.4864 23.1505 22.4864C22.4349 22.4864 21.8782 23.0431 21.8782 23.7984C21.8782 24.5538 22.4349 25.1502 23.1505 25.1502Z" fill="#4D4D4F"/>
<path d="M26.4899 25.109C26.967 24.3934 27.0464 23.479 27.0464 22.7235V21.8887H29.4319V25.109H29.8692V26.4607H29.2331V25.7054H26.7284V26.4607H26.0923V25.109H26.4899ZM28.7163 25.109V22.485H27.6826V22.7633C27.6826 23.5187 27.6031 24.4729 27.2055 25.109H28.7163Z" fill="#4D4D4F"/>
<path d="M33.0105 21.8105C33.5274 21.8105 34.0442 21.9696 34.4418 22.3274L34.1237 22.8443C33.8454 22.6057 33.4478 22.4467 33.09 22.4467C32.2551 22.4467 31.8178 23.0431 31.8178 23.7587C31.8178 24.4743 32.2948 25.1104 33.09 25.1104C33.4876 25.1104 33.9249 24.9116 34.2032 24.6333L34.561 25.1502C34.243 25.4683 33.7261 25.7863 33.0503 25.7863C31.8575 25.7863 31.0624 24.9116 31.0624 23.7984C31.0226 22.6852 31.8575 21.8105 33.0105 21.8105Z" fill="#4D4D4F"/>
<path d="M41.8365 21.8105C42.9497 21.8105 43.8244 22.6852 43.8244 23.7587C43.8244 24.8719 42.9895 25.7465 41.8365 25.7465C40.7233 25.7465 39.8486 24.8719 39.8486 23.7587C39.8486 22.6852 40.6836 21.8105 41.8365 21.8105ZM41.8365 25.1502C42.5521 25.1502 43.1088 24.5538 43.1088 23.7984C43.1088 23.0431 42.5521 22.4864 41.8365 22.4864C41.1209 22.4864 40.5643 23.0431 40.5643 23.7984C40.5643 24.5538 41.1209 25.1502 41.8365 25.1502Z" fill="#4D4D4F"/>
<path d="M45.335 21.8885H46.0506V24.1149C46.0506 24.3535 46.0108 24.7112 46.0108 24.7112C46.0108 24.7112 46.2096 24.3535 46.3289 24.1149L47.7602 21.9282H48.436V25.7449H47.7602V23.5185C47.7602 23.28 47.7999 22.9222 47.7999 22.9222C47.7999 22.9222 47.6409 23.28 47.4819 23.5185L46.0108 25.7449H45.335V21.8885ZM46.0108 20.9741V20.8945H46.5277V20.9741C46.5277 21.2126 46.7265 21.3319 46.8855 21.3319C47.0445 21.3319 47.2433 21.2126 47.2433 20.9741V20.8945H47.7602V20.9741C47.7602 21.4512 47.3626 21.7294 46.8855 21.7294C46.4482 21.7294 46.0108 21.4512 46.0108 20.9741Z" fill="#4D4D4F"/>
<path d="M8.83798 32.6629C8.91748 32.7424 9.07652 32.8617 9.27532 32.8617C9.47411 32.8617 9.59335 32.7424 9.67285 32.5436L8.16211 29.6016H8.91748L9.7524 31.3111C9.87164 31.5497 9.95119 31.828 9.95119 31.828C9.95119 31.828 10.0307 31.5894 10.1102 31.3111L10.7066 29.6016H11.4222L10.2295 32.6231C10.0704 33.0207 9.79214 33.4978 9.23551 33.4978C8.95722 33.4978 8.71868 33.3785 8.48014 33.2195L8.83798 32.6629Z" fill="#4D4D4F"/>
<path d="M12.7339 29.5625H13.4495V31.1926H15.1988V29.5625H15.8747V33.3792H15.1988V31.7889H13.4495V33.3792H12.7339V29.5625Z" fill="#4D4D4F"/>
<path d="M17.624 29.5625H18.3396V31.7889C18.3396 32.0275 18.2999 32.3853 18.2999 32.3853C18.2999 32.3853 18.4987 32.0275 18.6179 31.7889L20.0492 29.5625H20.7251V33.3792H20.0492V31.1926C20.0492 30.9541 20.089 30.5962 20.089 30.5962C20.089 30.5962 19.9299 30.9541 19.7709 31.1926L18.2999 33.3792H17.624V29.5625Z" fill="#4D4D4F"/>
<path d="M22.5142 29.5625H23.8659C24.5815 29.5625 25.0586 29.9203 25.0586 30.5565C25.0586 30.9142 24.8996 31.2323 24.5815 31.3914C25.0189 31.5106 25.2177 31.9082 25.2177 32.3058C25.2177 33.0612 24.6213 33.419 23.9057 33.419H22.5142V29.5625ZM23.8659 31.113C24.1839 31.113 24.343 30.9142 24.343 30.636C24.343 30.3577 24.1839 30.1589 23.8659 30.1589H23.19V31.113H23.8659ZM23.9454 32.7829C24.3032 32.7829 24.502 32.5443 24.502 32.2262C24.502 31.9082 24.3032 31.6697 23.9454 31.6697H23.19V32.7829H23.9454Z" fill="#4D4D4F"/>
<path d="M26.7285 29.5625H29.0344V30.1589H27.4441V31.1528H28.7164V31.7492H27.4441V32.7829H29.114V33.3792H26.7285V29.5625Z" fill="#4D4D4F"/>
<path d="M30.5852 29.5625H32.0562C32.7718 29.5625 33.2887 30.0794 33.2887 30.795C33.2887 31.5504 32.7718 32.0673 32.0562 32.0673H31.261V33.3792H30.5454V29.5625H30.5852ZM31.9369 31.4709C32.3345 31.4709 32.573 31.1926 32.573 30.795C32.573 30.3974 32.3345 30.1589 31.9369 30.1589H31.261V31.4709H31.9369Z" fill="#4D4D4F"/>
<path d="M36.469 29.4824C36.9858 29.4824 37.5027 29.6415 37.9003 29.9993L37.5822 30.5161C37.3039 30.2776 36.9064 30.1185 36.5485 30.1185C35.7137 30.1185 35.2763 30.7149 35.2763 31.4305C35.2763 32.1462 35.7534 32.7823 36.5485 32.7823C36.9461 32.7823 37.3834 32.5835 37.6617 32.3052L38.0196 32.8221C37.7015 33.1401 37.1846 33.4582 36.5088 33.4582C35.3161 33.4582 34.5209 32.5835 34.5209 31.4703C34.4811 30.3571 35.3161 29.4824 36.469 29.4824Z" fill="#4D4D4F"/>
<path d="M39.3716 29.5625H40.0872V31.7889C40.0872 32.0275 40.0475 32.3853 40.0475 32.3853C40.0475 32.3853 40.2462 32.0275 40.3655 31.7889L41.7967 29.5625H42.4727V33.3792H41.7967V31.1926C41.7967 30.9541 41.8365 30.5962 41.8365 30.5962C41.8365 30.5962 41.6775 30.9541 41.5184 31.1926L40.0475 33.3792H39.3716V29.5625Z" fill="#4D4D4F"/>
<path d="M45.1365 30.1589H43.8643V29.5625H47.0846V30.1589H45.8124V33.3792H45.1365V30.1589Z" fill="#4D4D4F"/>
<path d="M48.4362 29.5625H50.7421V30.1589H49.1519V31.1528H50.4241V31.7492H49.1121V32.7829H50.7819V33.3792H48.3965V29.5625H48.4362Z" fill="#4D4D4F"/>
<path d="M53.1673 30.1589H51.895V29.5625H55.1153V30.1589H53.8431V33.3792H53.1673V30.1589Z" fill="#4D4D4F"/>
<path d="M5.37891 25.5869C3.11274 23.0822 1.72123 19.7824 1.72123 16.1246C1.72123 8.3322 8.04265 2.01078 15.8351 2.01078C21.759 2.01078 26.8479 5.70822 28.9153 10.8767L30.3465 10.3201C28.0406 4.59501 22.3951 0.5 15.8351 0.5C7.20773 0.5 0.210449 7.53708 0.210449 16.1246C0.210449 20.1401 1.72123 23.8376 4.2657 26.5808L5.37891 25.5869Z" fill="#EE3524"/>
</g>
<defs>
<clipPath id="clip0_1368_20657">
<rect width="55.2361" height="41" fill="white" transform="translate(0.210449 0.5)"/>
</clipPath>
</defs>
</svg>
