<svg width="151" height="46" viewBox="0 0 151 46" fill="none" xmlns="http://www.w3.org/2000/svg">
<path d="M83.0275 23.7491H80.1717V5.03932H83.0275V12.3772H83.5014C85.0509 12.3772 85.5503 10.6996 85.5503 9.44464V5.03932H88.4188V9.31652C88.4702 10.1758 88.2993 11.0338 87.9224 11.8077C87.5456 12.5816 86.9755 13.2453 86.2674 13.7347C86.9852 14.2114 87.5631 14.8709 87.9412 15.6452C88.3194 16.4195 88.4842 17.2807 88.4188 18.1399V23.749H85.5503V18.0119C85.5503 16.8082 84.974 15.3354 83.5269 15.3483H83.0275V23.7491ZM131.563 23.7491V5.03932H134.111V15.9757L137.057 5.03928H140.245V23.7491H137.671V10.7381L134.162 23.7747L131.563 23.7491ZM142.269 23.7491V5.03932H144.817V15.9757L147.75 5.03928H150.938V23.7491H148.364V10.7381L144.856 23.7747L142.269 23.7491ZM149.747 2.79825H143.46V0.608398H149.747V2.79825ZM124.289 23.7491H121.433V5.03932H124.289V12.3772H124.763C126.312 12.3772 126.812 10.6996 126.812 9.44464V5.03932H129.68V9.31652C129.732 10.1758 129.561 11.0338 129.184 11.8077C128.807 12.5816 128.237 13.2453 127.529 13.7347C128.247 14.2114 128.825 14.8709 129.203 15.6452C129.581 16.4195 129.746 17.2807 129.68 18.1399V23.749H126.812V18.0119C126.812 16.8082 126.248 15.3354 124.788 15.3483H124.289V23.7491ZM72.5137 23.7107H69.658V5.01369H78.1484V12.5181H75.2285V7.67732H72.5136V21.0469H75.2285V16.2062H78.1483V23.7106L72.5137 23.7107ZM113.775 23.7107H110.919V5.01369H119.41V12.5181H116.49V7.67732H113.775V21.0469H116.49V16.2062H119.41V23.7106L113.775 23.7107ZM64.7148 7.67738H62.0512V21.047H64.7148V7.67738ZM61.9999 23.7107H59.1441V5.01369H67.6346V23.7107H61.9999ZM96.0131 7.67738H93.3494V21.047H96.0131V7.67738ZM93.298 23.7107H90.4423V5.01369H98.9329V23.7107H93.298ZM103.812 7.67738V12.6974C104.875 12.7614 106.168 12.6974 106.168 10.7893V9.08606V7.67738H103.812ZM103.812 15.3739V21.047H106.168V17.41C106.168 15.5019 104.875 15.3226 103.812 15.3739ZM109.024 8.30487V10.5972C109.052 11.2324 108.921 11.8646 108.644 12.4368C108.367 13.0091 107.952 13.5034 107.436 13.8756C107.97 14.3297 108.391 14.9014 108.667 15.5458C108.942 16.1902 109.064 16.8897 109.024 17.5893V23.7107H100.956V5.01369H109.024V8.30487ZM51.1017 17.5381C51.8445 13.5427 52.8178 9.07325 53.2661 5.03932H57.1207V23.7491H54.6234V16.3471L54.918 9.66233C54.2137 14.4001 53.0206 19.0522 51.358 23.5442V23.557H50.8329V23.5442C49.1736 19.052 47.9848 14.3998 47.2856 9.66233L47.5802 16.3471V23.7491H45.083V5.03932H48.9247C49.3729 9.07327 50.3461 13.5426 51.1017 17.5381Z" fill="#194BBC"/>
<path d="M79.364 29.358V37.6948C80.4397 37.7588 81.7204 37.5668 81.7204 35.6586V33.9682V29.358H79.364ZM84.5889 33.1871V35.4793C84.5889 38.3607 83.1034 40.3713 80.3245 40.3713H79.364V45.3913H76.5083V26.6943C79.1976 26.7071 81.8996 26.6943 84.5889 26.6943V33.1871ZM85.3701 26.6943H94.2063V29.358H91.2224V45.3913H88.3666V29.358H85.37L85.3701 26.6943ZM71.6547 29.358H68.991V42.7276H71.6547V29.358ZM68.9398 45.3913H66.084V26.6943H74.5618V45.3913L68.9398 45.3913ZM47.9377 45.3913H45.082V26.6943H53.5724V34.1987H50.6526V29.358H47.9377V42.7276H50.6526V37.8869H53.5724V45.3912L47.9377 45.3913ZM58.4388 45.3913H55.5831V26.6943H64.0736V45.3913H61.1538V29.358H58.4389L58.4388 45.3913Z" fill="#194BBC"/>
<path d="M20.1104 35.6717C20.8233 36.5254 21.5844 37.3378 22.3899 38.1049C26.2954 41.8119 31.1702 44.3381 36.451 45.3915V42.1644C32.054 41.1515 28.0082 38.9805 24.7333 35.8766C23.6922 34.887 22.7408 33.807 21.8904 32.6494L20.1104 35.6717Z" fill="#194BBC"/>
<path d="M8.36756 32.3036C10.1693 30.6197 11.6084 28.586 12.5971 26.3268C13.5858 24.0676 14.1031 21.6305 14.1174 19.1645V5.01367H17.4343V19.1645C17.432 21.7667 17.8293 24.3538 18.6124 26.8353C19.3893 24.3523 19.7865 21.7662 19.7906 19.1645V5.01367H23.1074V19.1645C23.1223 21.6292 23.6386 24.0651 24.6249 26.324C25.6112 28.5828 27.0469 30.6173 28.8445 32.3036C31.0134 34.3501 33.6125 35.8859 36.4514 36.7985V40.1025C32.7266 39.0932 29.3085 37.1797 26.5009 34.5319C24.4486 32.5914 22.7956 30.2683 21.6347 27.6934C20.8885 29.7965 19.8725 31.7938 18.6124 33.6355H18.5996C17.3487 31.7903 16.3374 29.7936 15.5901 27.6934C14.4201 30.2663 12.7633 32.5885 10.711 34.5319C7.90828 37.1794 4.49446 39.0931 0.773438 40.1025V36.7986C3.60987 35.8888 6.20539 34.3525 8.36756 32.3036Z" fill="#194BBC"/>
<path d="M28.4091 18.8699C28.4179 20.6657 28.7939 22.4407 29.5141 24.0858C30.2342 25.7309 31.2833 27.2113 32.5967 28.436C33.7299 29.5154 35.032 30.4021 36.4514 31.0613V34.4933C34.1414 33.662 32.0304 32.3579 30.2532 30.6642C28.6333 29.1548 27.3396 27.3296 26.452 25.3011C25.5644 23.2727 25.1017 21.0839 25.0923 18.8698V15.6812H28.4091V18.8699Z" fill="#194BBC"/>
<path d="M8.81569 15.6812H12.1325V18.8698C12.1231 21.0839 11.6604 23.2727 10.7728 25.3011C9.88518 27.3296 8.59159 29.1548 6.97169 30.6642C5.19451 32.3579 3.08337 33.662 0.773438 34.4933V31.0614C2.19281 30.4023 3.49488 29.5155 4.62809 28.4362C5.94151 27.2114 6.99055 25.731 7.7107 24.0859C8.43085 22.4408 8.80688 20.6658 8.81569 18.87V15.6812Z" fill="#194BBC"/>
<path d="M15.3213 32.6494C14.4746 33.81 13.5229 34.8903 12.4783 35.8766C9.20828 38.9802 5.16656 41.1514 0.773438 42.1644V45.3916C6.05134 44.3408 10.9228 41.8141 14.8218 38.1049C15.6339 37.3444 16.3953 36.5316 17.1013 35.6717L15.3213 32.6494Z" fill="#194BBC"/>
</svg>
