<svg width="133" height="42" viewBox="0 0 133 42" fill="none" xmlns="http://www.w3.org/2000/svg">
<path d="M42.5461 9.17383H43.5587L44.7039 11.683L45.7835 9.17383H46.8152L47.5351 13.5003H46.4364L46.02 10.9727L44.9029 13.5003H44.401L43.2743 11.0198L42.8668 13.5003H41.8159L42.5448 9.17383H42.5461Z" fill="#0086FF"/>
<path d="M49.4619 13.4063C49.1747 13.299 48.9272 13.1458 48.7187 12.9475C48.5101 12.7486 48.3474 12.5134 48.2312 12.2419C48.1143 11.9705 48.0562 11.6676 48.0562 11.3333C48.0562 10.999 48.1163 10.6927 48.236 10.4151C48.3556 10.1375 48.5204 9.90228 48.7282 9.71016C48.9368 9.51736 49.1843 9.36762 49.4714 9.26028C49.7586 9.15294 50.069 9.09961 50.404 9.09961C50.739 9.09961 51.0583 9.15294 51.3462 9.26028C51.6333 9.36762 51.8795 9.52077 52.0846 9.71905C52.2897 9.91801 52.451 10.1532 52.5679 10.4246C52.6842 10.6961 52.743 10.999 52.743 11.3333C52.743 11.6676 52.6828 11.9821 52.5632 12.2563C52.4428 12.5311 52.2787 12.7657 52.0709 12.9612C51.8624 13.1567 51.6162 13.3065 51.3325 13.4111C51.0487 13.515 50.7397 13.5677 50.4047 13.5677C50.0697 13.5677 49.7504 13.5136 49.4625 13.4063H49.4619ZM50.8628 12.4833C50.9988 12.4231 51.1151 12.3383 51.2135 12.2276C51.3113 12.1168 51.3858 11.9862 51.4357 11.8344C51.4863 11.6833 51.5116 11.5158 51.5116 11.3326C51.5116 11.1494 51.4863 10.9935 51.4357 10.8451C51.3851 10.6968 51.3127 10.5655 51.2183 10.452C51.124 10.3385 51.0084 10.2517 50.873 10.1915C50.737 10.1313 50.5811 10.1012 50.404 10.1012C50.2269 10.1012 50.071 10.1327 49.935 10.1963C49.7996 10.2592 49.6827 10.346 49.5849 10.4568C49.4872 10.5675 49.4126 10.6981 49.362 10.8499C49.3114 11.0017 49.2868 11.1624 49.2868 11.3326C49.2868 11.5028 49.3121 11.6642 49.362 11.8153C49.4126 11.9664 49.4858 12.099 49.5795 12.2125C49.6745 12.326 49.7914 12.4149 49.9302 12.4778C50.069 12.5414 50.2269 12.5729 50.4033 12.5729C50.5797 12.5729 50.7267 12.5428 50.8621 12.4826L50.8628 12.4833Z" fill="#0086FF"/>
<path d="M54.7168 13.4118C54.4358 13.3078 54.1972 13.1574 54.0017 12.9619C53.8061 12.7663 53.653 12.5311 53.5429 12.257C53.4321 11.9821 53.3774 11.6813 53.3774 11.3524C53.3774 10.999 53.4356 10.6817 53.5525 10.4014C53.6687 10.1204 53.8301 9.88519 54.0352 9.6958C54.2403 9.50642 54.4803 9.35942 54.7551 9.2555C55.03 9.15157 55.3308 9.09961 55.6597 9.09961C55.8361 9.09961 56.0097 9.1167 56.18 9.15157C56.3502 9.18644 56.5081 9.23225 56.6531 9.289C56.798 9.34575 56.9307 9.41548 57.0503 9.49753C57.17 9.57957 57.2746 9.66777 57.3628 9.76281L56.757 10.5675C56.6251 10.4287 56.4767 10.3166 56.3126 10.2311C56.1478 10.1464 55.9619 10.1033 55.754 10.1033C55.5776 10.1033 55.4197 10.1334 55.2809 10.1935C55.1421 10.2537 55.0218 10.3371 54.9213 10.4445C54.8208 10.5518 54.7428 10.6797 54.6895 10.828C54.6362 10.9764 54.6088 11.1391 54.6088 11.3155C54.6088 11.4919 54.6375 11.6676 54.6943 11.8221C54.7503 11.9767 54.8296 12.1107 54.9308 12.2242C55.0313 12.3377 55.1544 12.4245 55.3 12.4847C55.445 12.5448 55.6063 12.5749 55.7834 12.5749C55.9981 12.5749 56.1854 12.5325 56.3468 12.4471C56.5081 12.3616 56.6517 12.2501 56.7775 12.1107L57.4688 12.7923C57.2732 13.0446 57.0209 13.2374 56.7112 13.3701C56.4022 13.5027 56.0514 13.569 55.6603 13.569C55.313 13.569 54.9985 13.5171 54.7182 13.4124L54.7168 13.4118Z" fill="#0086FF"/>
<path d="M58.2241 12.4502V9.17451H59.398V13.501H58.2241V12.4502ZM58.6029 10.7648H60.0606V11.6639H58.6029V10.7648ZM59.5403 11.2475L60.894 9.17383H62.1151V9.33518L60.827 11.1436L62.4365 13.3404V13.501H61.1299L59.5389 11.2482L59.5403 11.2475Z" fill="#0086FF"/>
<path d="M64.0039 13.4063C63.7167 13.299 63.4692 13.1458 63.2607 12.9475C63.0528 12.7486 62.8901 12.5134 62.7732 12.2419C62.6563 11.9705 62.5981 11.6676 62.5981 11.3333C62.5981 10.999 62.6576 10.6927 62.778 10.4151C62.8976 10.1375 63.0617 9.90228 63.2702 9.71016C63.4788 9.51736 63.7263 9.36762 64.0134 9.26028C64.3006 9.15294 64.611 9.09961 64.946 9.09961C65.281 9.09961 65.6003 9.15294 65.8882 9.26028C66.1753 9.36762 66.4214 9.52077 66.6266 9.71905C66.8317 9.91801 66.993 10.1532 67.1099 10.4246C67.2262 10.6961 67.285 10.999 67.285 11.3333C67.285 11.6676 67.2255 11.9821 67.1052 12.2563C66.9855 12.5311 66.8214 12.7657 66.6129 12.9612C66.405 13.1567 66.1582 13.3065 65.8745 13.4111C65.5907 13.515 65.281 13.5677 64.9467 13.5677C64.6124 13.5677 64.2917 13.5136 64.0045 13.4063H64.0039ZM65.4048 12.4833C65.5408 12.4231 65.6571 12.3383 65.7555 12.2276C65.8533 12.1168 65.9278 11.9862 65.9777 11.8344C66.0283 11.6833 66.0536 11.5158 66.0536 11.3326C66.0536 11.1494 66.0283 10.9935 65.9777 10.8451C65.9271 10.6968 65.8547 10.5655 65.7603 10.452C65.6653 10.3385 65.5504 10.2517 65.415 10.1915C65.279 10.1313 65.1231 10.1012 64.946 10.1012C64.7689 10.1012 64.613 10.1327 64.477 10.1963C64.3409 10.2592 64.2247 10.346 64.1262 10.4568C64.0285 10.5675 63.9539 10.6981 63.904 10.8499C63.8534 11.0017 63.8281 11.1624 63.8281 11.3326C63.8281 11.5028 63.8534 11.6642 63.904 11.8153C63.9546 11.9664 64.0271 12.099 64.1214 12.2125C64.2165 12.326 64.3327 12.4149 64.4722 12.4778C64.611 12.5414 64.7689 12.5729 64.9453 12.5729C65.1217 12.5729 65.2687 12.5428 65.4041 12.4826L65.4048 12.4833Z" fill="#0086FF"/>
<path d="M68.1841 9.92796C68.1841 9.51158 68.5218 9.17383 68.9382 9.17383H71.9424C72.3903 9.17383 72.728 9.27023 72.955 9.46304C73.1827 9.65584 73.2962 9.90608 73.2962 10.2158C73.2962 10.3669 73.2688 10.5016 73.2155 10.6185C73.1622 10.7354 73.0911 10.8346 73.0029 10.9166C72.914 10.9986 72.8087 11.0615 72.6856 11.106C72.5619 11.1504 72.4347 11.1723 72.3021 11.1723V11.0868C72.5038 11.0868 72.6918 11.1074 72.8654 11.1484C73.0391 11.1894 73.1902 11.2544 73.3201 11.3426C73.4493 11.4308 73.5505 11.5463 73.623 11.6878C73.6955 11.83 73.7324 12.0017 73.7324 12.204C73.7324 12.6211 73.5792 12.9411 73.2729 13.1653C72.9666 13.3896 72.5202 13.5017 71.9335 13.5017H68.1848V9.92933L68.1841 9.92796ZM69.008 12.6389H71.6778C71.9684 12.6389 72.1783 12.5917 72.3075 12.4967C72.4368 12.4023 72.5017 12.2662 72.5017 12.0898C72.5017 11.9005 72.4354 11.763 72.3028 11.6783C72.1701 11.5935 71.9712 11.5504 71.7066 11.5504H69.008V10.8687H71.5924C71.7941 10.8687 71.9459 10.8339 72.047 10.7648C72.1475 10.6951 72.1988 10.5877 72.1988 10.4428C72.1988 10.2978 72.1482 10.2014 72.047 10.1351C71.9465 10.0688 71.7913 10.036 71.5835 10.036H69.008L69.3587 9.61892V13.0464L69.008 12.6396V12.6389Z" fill="#0086FF"/>
<path d="M42.1299 19.3967C42.1299 18.9803 42.4676 18.6426 42.884 18.6426H45.8882C46.3361 18.6426 46.6738 18.739 46.9008 18.9318C47.1285 19.1246 47.242 19.3748 47.242 19.6846C47.242 19.8357 47.2146 19.9703 47.1613 20.0873C47.108 20.2042 47.0369 20.3033 46.9487 20.3854C46.8598 20.4674 46.7545 20.5303 46.6314 20.5747C46.5077 20.6192 46.3805 20.6411 46.2479 20.6411V20.5556C46.4496 20.5556 46.6376 20.5761 46.8112 20.6171C46.9849 20.6582 47.136 20.7231 47.2659 20.8113C47.3951 20.8995 47.4963 21.0151 47.5688 21.1566C47.6413 21.2988 47.6782 21.4704 47.6782 21.6728C47.6782 22.0898 47.525 22.4098 47.2187 22.6341C46.9124 22.8583 46.466 22.9705 45.8793 22.9705H42.1306V19.3981L42.1299 19.3967ZM42.9538 22.1076H45.6236C45.9142 22.1076 46.1241 22.0604 46.2533 21.9654C46.3826 21.8711 46.4475 21.735 46.4475 21.5586C46.4475 21.3692 46.3812 21.2318 46.2486 21.147C46.1159 21.0622 45.917 21.0192 45.6524 21.0192H42.9538V20.3375H45.5382C45.7399 20.3375 45.8917 20.3026 45.9928 20.2336C46.0933 20.1638 46.1446 20.0565 46.1446 19.9115C46.1446 19.7666 46.094 19.6702 45.9928 19.6039C45.8923 19.5376 45.7371 19.5047 45.5293 19.5047H42.9538L43.3045 19.0877V22.5151L42.9538 22.1083V22.1076Z" fill="#0086FF"/>
<path d="M75.5923 13.4118C75.3113 13.3078 75.0734 13.1574 74.8778 12.9619C74.6816 12.7663 74.5291 12.5311 74.4184 12.257C74.3076 11.9821 74.2529 11.6813 74.2529 11.3524C74.2529 10.999 74.311 10.6817 74.428 10.4014C74.5442 10.1204 74.7055 9.88519 74.9107 9.6958C75.1158 9.50642 75.3557 9.35942 75.6306 9.2555C75.9054 9.15157 76.2063 9.09961 76.5351 9.09961C76.7115 9.09961 76.8852 9.1167 77.0555 9.15157C77.2257 9.18644 77.3836 9.23225 77.5286 9.289C77.6735 9.34575 77.8062 9.41548 77.9258 9.49753C78.0455 9.57957 78.1501 9.66777 78.2383 9.76281L77.6325 10.5675C77.5005 10.4287 77.3522 10.3166 77.1881 10.2311C77.0233 10.1464 76.8373 10.1033 76.6295 10.1033C76.4531 10.1033 76.2952 10.1334 76.1564 10.1935C76.0176 10.2537 75.8972 10.3371 75.7967 10.4445C75.6962 10.5518 75.6183 10.6797 75.565 10.828C75.5116 10.9764 75.4843 11.1391 75.4843 11.3155C75.4843 11.4919 75.513 11.6676 75.5697 11.8221C75.6258 11.9767 75.7051 12.1107 75.8063 12.2242C75.9068 12.3377 76.0299 12.4245 76.1755 12.4847C76.3205 12.5448 76.4818 12.5749 76.6589 12.5749C76.8736 12.5749 77.0609 12.5325 77.2223 12.4471C77.3836 12.3616 77.5272 12.2501 77.653 12.1107L78.3442 12.7923C78.1487 13.0446 77.8964 13.2374 77.5867 13.3701C77.2777 13.5027 76.9269 13.569 76.5358 13.569C76.1885 13.569 75.874 13.5171 75.5937 13.4124L75.5923 13.4118Z" fill="#0086FF"/>
<path d="M79.1001 12.4502V9.17451H80.274V13.501H79.1001V12.4502ZM79.4789 10.7648H80.9365V11.6639H79.4789V10.7648ZM80.4162 11.2475L81.77 9.17383H82.9911V9.33518L81.703 11.1436L83.3124 13.3404V13.501H82.0059L80.4149 11.2482L80.4162 11.2475Z" fill="#0086FF"/>
<path d="M83.9091 9.17383H85.083V12.6013L84.2687 12.6676L87.0897 9.17383H88.0079V13.5003H86.834V10.1679L87.4582 10.092L84.7124 13.5003H83.9077V9.17383H83.9091Z" fill="#0086FF"/>
<path d="M89.1732 9.17405H90.3472V12.6015L89.5329 12.6678L92.3539 9.17405H93.2721V13.5006H92.0982V10.1682L92.7224 10.0923L89.9766 13.5006H89.1719V9.17405H89.1732ZM90.674 8.53478C90.5003 8.48145 90.3492 8.39941 90.2193 8.28865C90.0901 8.17788 89.9875 8.03909 89.9116 7.87158C89.8358 7.70476 89.7947 7.51058 89.7886 7.28906H90.6309C90.6432 7.45931 90.6972 7.5981 90.7916 7.70544C90.8866 7.81278 91.0377 7.8668 91.2462 7.8668C91.4418 7.8668 91.5902 7.81484 91.6913 7.71023C91.7918 7.6063 91.8493 7.46546 91.8616 7.28906H92.6943C92.6814 7.5099 92.6355 7.70407 92.5569 7.87158C92.4776 8.03909 92.371 8.17788 92.2349 8.28865C92.0988 8.39941 91.9457 8.48145 91.7754 8.53478C91.6052 8.58879 91.422 8.61546 91.2264 8.61546C91.0309 8.61546 90.8463 8.58879 90.6726 8.53478H90.674Z" fill="#0086FF"/>
<path d="M100.553 13.5003H96.9453V9.80626C96.9453 9.45688 97.2284 9.17383 97.5777 9.17383H98.1192V12.4686H99.6719V9.17383H100.846V12.4686H101.518V13.8039C101.518 14.1697 101.221 14.4664 100.855 14.4664H100.552V13.501L100.553 13.5003Z" fill="#0086FF"/>
<path d="M103.28 13.4105C102.989 13.3066 102.742 13.1562 102.537 12.9606C102.332 12.7651 102.17 12.5333 102.054 12.2646C101.937 11.9966 101.879 11.6978 101.879 11.3696C101.879 11.023 101.938 10.7085 102.059 10.4275C102.178 10.1472 102.342 9.90854 102.551 9.713C102.76 9.51745 103.004 9.36635 103.285 9.25833C103.566 9.15099 103.864 9.09766 104.18 9.09766C104.52 9.09766 104.824 9.15577 105.093 9.27269C105.361 9.3896 105.587 9.55027 105.77 9.75538C105.953 9.9605 106.093 10.2005 106.192 10.4746C106.29 10.7495 106.338 11.0442 106.338 11.3601V11.6062H102.561V10.8958H105.931L105.221 11.3977V11.0661C105.221 10.9273 105.196 10.7946 105.145 10.6688C105.094 10.5423 105.022 10.4336 104.928 10.342C104.833 10.2504 104.72 10.1779 104.587 10.1246C104.454 10.0713 104.303 10.0439 104.132 10.0439C103.961 10.0439 103.815 10.074 103.674 10.1342C103.531 10.1943 103.413 10.2777 103.319 10.3851C103.224 10.4924 103.149 10.6237 103.091 10.7782C103.034 10.9327 103.006 11.1078 103.006 11.3033C103.006 11.518 103.038 11.7074 103.101 11.8715C103.164 12.0356 103.255 12.1743 103.371 12.2878C103.488 12.4013 103.629 12.4882 103.793 12.5483C103.957 12.6085 104.137 12.6386 104.332 12.6386C104.584 12.6386 104.82 12.5941 105.038 12.5059C105.255 12.4177 105.437 12.2885 105.582 12.1176L106.235 12.7138C106.007 12.9914 105.721 13.2033 105.377 13.3483C105.034 13.4932 104.653 13.5657 104.236 13.5657C103.889 13.5657 103.57 13.5137 103.281 13.4091L103.28 13.4105Z" fill="#0086FF"/>
<path d="M107.246 12.4495V9.17383H108.42V13.5003H107.246V12.4495ZM107.814 10.7641H110.749V11.7959H107.814V10.7641ZM110.219 12.4495V9.17383H111.393V13.5003H110.219V12.4495Z" fill="#0086FF"/>
<path d="M113.552 10.2055H112.16V9.17383H116.117V10.2055H114.725V13.5003H113.552V10.2055H113.552Z" fill="#0086FF"/>
<path d="M117.709 15.7733C117.248 15.7733 116.875 15.4 116.875 14.9392V9.17413H117.983V10.3481L118.049 10.4144V15.7726H117.709V15.7733ZM118.821 13.4726C118.628 13.4097 118.456 13.3229 118.305 13.2121C118.153 13.1014 118.027 12.9735 117.926 12.8286C117.825 12.6836 117.756 12.5257 117.717 12.3554V11.3517H118.049C118.049 11.5288 118.076 11.6929 118.13 11.844C118.183 11.9951 118.257 12.123 118.352 12.2276C118.447 12.3315 118.558 12.4135 118.688 12.4737C118.817 12.5339 118.962 12.564 119.119 12.564C119.276 12.564 119.412 12.5352 119.545 12.4785C119.677 12.4218 119.794 12.3397 119.895 12.2324C119.996 12.125 120.073 11.9958 120.127 11.844C120.18 11.6922 120.207 11.522 120.207 11.3326C120.207 11.1309 120.179 10.9559 120.123 10.8075C120.066 10.6592 119.987 10.5347 119.886 10.4335C119.785 10.3323 119.669 10.2571 119.535 10.2065C119.403 10.1559 119.264 10.1306 119.119 10.1306C118.961 10.1306 118.816 10.1594 118.683 10.2161C118.551 10.2729 118.437 10.3535 118.343 10.4575C118.248 10.5614 118.175 10.6831 118.126 10.8219C118.075 10.9607 118.05 11.1125 118.05 11.2765H117.765V10.264C117.778 10.1122 117.83 9.96724 117.922 9.82844C118.013 9.68965 118.134 9.56658 118.282 9.45924C118.43 9.3519 118.602 9.26507 118.798 9.19875C118.994 9.13243 119.205 9.09961 119.433 9.09961C119.697 9.09961 119.952 9.15499 120.195 9.26507C120.438 9.37583 120.653 9.52898 120.838 9.72452C121.024 9.92006 121.173 10.1539 121.284 10.4253C121.394 10.6968 121.449 10.9996 121.449 11.334C121.449 11.6683 121.394 11.9732 121.284 12.2474C121.173 12.5223 121.023 12.7568 120.834 12.9523C120.644 13.1479 120.428 13.2996 120.185 13.407C119.941 13.5143 119.691 13.5683 119.432 13.5683C119.217 13.5683 119.014 13.5369 118.822 13.4733L118.821 13.4726Z" fill="#0086FF"/>
<path d="M49.6039 22.8731C49.3168 22.7657 49.0693 22.6126 48.8608 22.4143C48.6522 22.2154 48.4895 21.9802 48.3733 21.7087C48.2564 21.4373 48.1982 21.1344 48.1982 20.8001C48.1982 20.4657 48.2584 20.1594 48.3781 19.8819C48.4977 19.6043 48.6625 19.3691 48.8703 19.177C49.0789 18.9842 49.3264 18.8344 49.6135 18.7271C49.9007 18.6197 50.2111 18.5664 50.5461 18.5664C50.8811 18.5664 51.2004 18.6197 51.4883 18.7271C51.7754 18.8344 52.0215 18.9876 52.2267 19.1858C52.4318 19.3848 52.5931 19.62 52.71 19.8914C52.8263 20.1629 52.8851 20.4657 52.8851 20.8001C52.8851 21.1344 52.8249 21.4489 52.7053 21.7231C52.5849 21.9979 52.4208 22.2325 52.213 22.428C52.0045 22.6235 51.7583 22.7733 51.4746 22.8779C51.1908 22.9818 50.8818 23.0344 50.5468 23.0344C50.2118 23.0344 49.8925 22.9804 49.6046 22.8731H49.6039ZM51.0049 21.9501C51.1409 21.8899 51.2572 21.8051 51.3556 21.6944C51.4534 21.5836 51.5279 21.453 51.5778 21.3012C51.6284 21.1501 51.6537 20.9826 51.6537 20.7994C51.6537 20.6162 51.6284 20.4603 51.5778 20.3119C51.5272 20.1636 51.4548 20.0323 51.3604 19.9188C51.266 19.8053 51.1505 19.7185 51.0151 19.6583C50.8791 19.5981 50.7232 19.568 50.5461 19.568C50.369 19.568 50.2131 19.5995 50.0771 19.6631C49.9417 19.726 49.8248 19.8128 49.727 19.9236C49.6292 20.0343 49.5547 20.1649 49.5041 20.3167C49.4535 20.4685 49.4289 20.6292 49.4289 20.7994C49.4289 20.9696 49.4542 21.131 49.5041 21.2821C49.5547 21.4332 49.6279 21.5658 49.7215 21.6793C49.8166 21.7928 49.9335 21.8817 50.0723 21.9446C50.2111 22.0082 50.369 22.0396 50.5454 22.0396C50.7218 22.0396 50.8688 22.0096 51.0042 21.9494L51.0049 21.9501Z" fill="#0086FF"/>
<path d="M54.8584 22.8786C54.5774 22.7746 54.3388 22.6242 54.1433 22.4287C53.9477 22.2331 53.7946 21.9979 53.6845 21.7238C53.5737 21.4489 53.519 21.1481 53.519 20.8192C53.519 20.4657 53.5772 20.1485 53.6941 19.8682C53.8103 19.5872 53.9717 19.352 54.1768 19.1626C54.3819 18.9732 54.6219 18.8262 54.896 18.7223C55.1709 18.6184 55.4717 18.5664 55.8006 18.5664C55.977 18.5664 56.1513 18.5835 56.3216 18.6184C56.4918 18.6532 56.6498 18.699 56.7947 18.7558C56.9396 18.8125 57.0723 18.8823 57.1919 18.9643C57.3116 19.0464 57.4162 19.1346 57.5044 19.2296L56.8986 20.0343C56.7667 19.8955 56.6183 19.7834 56.4542 19.6979C56.2894 19.6132 56.1035 19.5701 55.8956 19.5701C55.7185 19.5701 55.5606 19.6002 55.4218 19.6603C55.283 19.7205 55.1627 19.8039 55.0622 19.9113C54.961 20.0186 54.8837 20.1465 54.8304 20.2948C54.7771 20.4432 54.7497 20.6059 54.7497 20.7823C54.7497 20.9587 54.7778 21.1344 54.8345 21.2889C54.8912 21.4435 54.9706 21.5775 55.0711 21.691C55.1723 21.8045 55.2953 21.8913 55.4403 21.9514C55.5852 22.0116 55.7466 22.0417 55.9236 22.0417C56.1383 22.0417 56.3257 21.9993 56.487 21.9138C56.6484 21.8284 56.792 21.7169 56.9178 21.5775L57.609 22.2591C57.4135 22.5114 57.1612 22.7042 56.8514 22.8369C56.5424 22.9695 56.1917 23.0358 55.7999 23.0358C55.4526 23.0358 55.1388 22.9839 54.8584 22.8792V22.8786Z" fill="#0086FF"/>
<path d="M59.1677 18.6426H62.4365V22.1671C62.4365 22.6101 62.0776 22.9691 61.6345 22.9691H61.2626V19.6743H59.5397V22.9691H58.3657V19.4446C58.3657 19.0015 58.7247 18.6426 59.1677 18.6426Z" fill="#0086FF"/>
<path d="M42.9319 28.1094H46.2007V31.6339C46.2007 32.0769 45.8417 32.4359 45.3987 32.4359H45.0268V29.1411H43.3038V32.4359H42.1299V28.9114C42.1299 28.4683 42.4888 28.1094 42.9319 28.1094Z" fill="#0086FF"/>
<path d="M63.6112 18.6426H64.7852V22.07L63.9709 22.1363L66.7918 18.6426H67.7101V22.9691H66.5361V19.6367L67.1604 19.5608L64.4146 22.9691H63.6099V18.6426H63.6112Z" fill="#0086FF"/>
<path d="M69.8691 19.6743H68.4771V18.6426H72.4344V19.6743H71.0423V22.9691H69.8684V19.6743H69.8691Z" fill="#0086FF"/>
<path d="M73.7987 22.9489C73.6031 22.873 73.4391 22.7725 73.3064 22.646C73.1738 22.5195 73.0733 22.3732 73.0035 22.2057C72.9338 22.0389 72.8989 21.8604 72.8989 21.6703C72.8989 21.4803 72.9324 21.295 72.9981 21.1309C73.0644 20.9668 73.1594 20.8266 73.2825 20.7097C73.4056 20.5928 73.5519 20.5033 73.7228 20.4397C73.893 20.3768 74.079 20.3446 74.2814 20.3446C74.4017 20.3446 74.5132 20.3556 74.6178 20.3775C74.7224 20.3993 74.8181 20.4219 74.907 20.4438C74.9952 20.4657 75.0834 20.4882 75.1723 20.5101C75.2605 20.532 75.3521 20.5429 75.4464 20.5429C75.6167 20.5429 75.7432 20.5067 75.8252 20.4342C75.9073 20.3617 75.9483 20.2653 75.9483 20.1457C75.9483 20.0506 75.9278 19.9672 75.8867 19.8948C75.8457 19.8223 75.7855 19.7594 75.7069 19.7054C75.6276 19.652 75.5333 19.611 75.4225 19.5823C75.3117 19.5536 75.1907 19.5392 75.0581 19.5392C74.7805 19.5392 74.5576 19.598 74.3908 19.7143C74.2233 19.8312 74.1146 19.9966 74.064 20.2113L73.0514 19.9556C73.1143 19.7409 73.2045 19.5481 73.3215 19.3779C73.4377 19.2076 73.5847 19.0627 73.7618 18.9423C73.9382 18.8227 74.1392 18.7324 74.3634 18.6723C74.587 18.6121 74.8379 18.582 75.1162 18.582C75.3945 18.582 75.6638 18.6183 75.9066 18.6907C76.1493 18.7632 76.3592 18.8767 76.5363 19.0312C76.7127 19.1864 76.8515 19.3833 76.9526 19.6226C77.0531 19.8626 77.1037 20.1498 77.1037 20.4841V22.9646H75.9681V21.7148L76.0912 21.6204C76.0912 21.8221 76.0536 22.0115 75.9777 22.1886C75.9025 22.3657 75.7944 22.5168 75.6556 22.6433C75.5168 22.7698 75.3466 22.8703 75.1442 22.9461C74.9425 23.022 74.7149 23.0596 74.4626 23.0596C74.2103 23.0596 73.9949 23.022 73.7994 22.9461L73.7987 22.9489ZM75.2946 22.0067C75.4334 21.9596 75.5517 21.8919 75.6495 21.803C75.7473 21.7148 75.8218 21.6102 75.8717 21.4905C75.9223 21.3709 75.9476 21.2417 75.9476 21.1022V20.4964L76.0802 20.6858C76.0043 20.869 75.9052 21.001 75.7821 21.083C75.6584 21.1651 75.5182 21.2061 75.3603 21.2061C75.3035 21.2061 75.2434 21.2013 75.1805 21.1918C75.1169 21.1822 75.054 21.1712 74.9911 21.1589C74.9282 21.1459 74.8646 21.135 74.8017 21.1254C74.7381 21.1159 74.6752 21.1111 74.6123 21.1111C74.4291 21.1111 74.2937 21.1521 74.2055 21.2341C74.1166 21.3162 74.0729 21.4201 74.0729 21.5466C74.0729 21.6915 74.131 21.8167 74.2479 21.9206C74.3641 22.0245 74.5583 22.0772 74.8297 22.0772C75 22.0772 75.1545 22.0532 75.294 22.006L75.2946 22.0067Z" fill="#0086FF"/>
<path d="M79.1943 19.6743H77.8022V18.6426H81.7596V19.6743H80.3675V22.9691H79.1936V19.6743H79.1943Z" fill="#0086FF"/>
<path d="M83.4927 22.8792C83.2021 22.7753 82.9546 22.6249 82.7495 22.4294C82.5444 22.2338 82.3831 22.002 82.2668 21.7333C82.1499 21.4653 82.0918 21.1666 82.0918 20.8384C82.0918 20.4917 82.1513 20.1772 82.2716 19.8962C82.3913 19.6159 82.5554 19.3773 82.7639 19.1817C82.9724 18.9862 83.2165 18.8351 83.4975 18.7271C83.7785 18.6197 84.0766 18.5664 84.3925 18.5664C84.733 18.5664 85.0372 18.6245 85.3059 18.7414C85.5739 18.8583 85.7996 19.019 85.9828 19.2241C86.166 19.4292 86.3062 19.6692 86.4046 19.9434C86.5024 20.2182 86.551 20.5129 86.551 20.8288V21.0749H82.7735V20.3646H86.1441L85.4338 20.8664V20.5348C85.4338 20.396 85.4085 20.2634 85.3579 20.1376C85.3073 20.0111 85.2348 19.9024 85.1405 19.8108C85.0461 19.7191 84.9326 19.6467 84.8 19.5933C84.6673 19.54 84.5162 19.5127 84.3453 19.5127C84.1744 19.5127 84.0281 19.5427 83.8865 19.6029C83.7443 19.6631 83.626 19.7465 83.5317 19.8538C83.4367 19.9612 83.3614 20.0924 83.304 20.247C83.2473 20.4015 83.2192 20.5765 83.2192 20.7721C83.2192 20.9867 83.2507 21.1761 83.3143 21.3402C83.3772 21.5043 83.4674 21.6431 83.5837 21.7566C83.7006 21.8701 83.8414 21.9569 84.0055 22.0171C84.1696 22.0773 84.3494 22.1073 84.5449 22.1073C84.7972 22.1073 85.0324 22.0629 85.2505 21.9747C85.468 21.8865 85.6498 21.7573 85.7948 21.5864L86.4477 22.1825C86.22 22.4601 85.9342 22.6721 85.5903 22.817C85.2464 22.962 84.8663 23.0344 84.4492 23.0344C84.1019 23.0344 83.7833 22.9825 83.4934 22.8779L83.4927 22.8792Z" fill="#0086FF"/>
<path d="M87.0954 23.0533C87.0421 23.0471 86.9963 23.0403 86.958 23.0341V21.9074C86.9833 21.9135 87.0086 21.9183 87.0339 21.9217C87.0592 21.9252 87.0845 21.9265 87.1091 21.9265C87.2164 21.9265 87.3067 21.8855 87.3792 21.8035C87.4516 21.7214 87.5132 21.5901 87.5638 21.4103C87.6144 21.2305 87.6499 20.9974 87.6725 20.7095C87.6944 20.4224 87.706 20.0703 87.706 19.6539V19.3667C87.706 18.9654 88.0314 18.6406 88.4321 18.6406H90.9905V22.241C90.9905 22.6424 90.6651 22.9671 90.2644 22.9671H89.8166V19.6723H88.7842V20.1838C88.7842 20.7266 88.7514 21.1827 88.6851 21.5519C88.6187 21.9211 88.521 22.2164 88.3917 22.4373C88.2625 22.6581 88.106 22.8174 87.9227 22.9152C87.7395 23.0129 87.5255 23.0622 87.2787 23.0622C87.2096 23.0622 87.1481 23.0588 87.0941 23.0526L87.0954 23.0533Z" fill="#0086FF"/>
<path d="M92.165 18.6426H93.339V19.8924H94.1061C94.718 19.8924 95.1836 20.0189 95.5029 20.2712C95.8215 20.5241 95.9808 20.9057 95.9808 21.4171C95.9808 21.9285 95.8147 22.3073 95.4838 22.5719C95.1522 22.8371 94.6613 22.9691 94.0117 22.9691H92.1657V18.6426H92.165ZM94.2715 22.0228C94.3823 22.0037 94.4732 21.9709 94.5464 21.9237C94.6189 21.8765 94.6756 21.8116 94.7166 21.7295C94.7577 21.6475 94.7782 21.5436 94.7782 21.4171C94.7782 21.2906 94.7604 21.199 94.7262 21.1238C94.6913 21.0479 94.638 20.985 94.5655 20.9344C94.4931 20.8838 94.4062 20.8489 94.305 20.8304C94.2039 20.8113 94.0808 20.8017 93.9358 20.8017H93.3396V22.0516H93.8982C94.037 22.0516 94.1615 22.042 94.2722 22.0228H94.2715Z" fill="#0086FF"/>
<path d="M96.7656 21.9182V18.6426H97.9396V22.9691H96.7656V21.9182ZM97.3338 20.2329H100.269V21.2646H97.3338V20.2329ZM99.7384 21.9182V18.6426H100.912V22.9691H99.7384V21.9182Z" fill="#0086FF"/>
<path d="M105.301 20.2692C105.619 20.5222 105.779 20.9037 105.779 21.4151C105.779 21.9265 105.613 22.3053 105.282 22.5699C104.95 22.8352 104.459 22.9671 103.81 22.9671H102.077V18.6406H103.251V19.8904H103.904C104.516 19.8904 104.982 20.0169 105.301 20.2692ZM104.051 22.0209C104.162 22.0017 104.256 21.9689 104.335 21.9217C104.414 21.8746 104.474 21.8096 104.515 21.7276C104.556 21.6455 104.577 21.5416 104.577 21.4151C104.577 21.182 104.506 21.0206 104.363 20.9324C104.221 20.8442 104.009 20.7998 103.725 20.7998H103.252V22.0496H103.687C103.82 22.0496 103.941 22.04 104.052 22.0209H104.051ZM106.196 18.6406H107.37V22.9671H106.196V18.6406Z" fill="#0086FF"/>
<path d="M108.079 22.751L109.708 20.2985L109.717 21.0752L108.193 18.86V18.6426H109.424L110.56 20.3184H110.021L111.091 18.6426H112.208V18.86L110.75 21.0568L110.655 20.2616L112.34 22.7612L112.35 22.9698H111.147L109.888 21.0855H110.475L109.225 22.9698H108.08V22.7524L108.079 22.751Z" fill="#0086FF"/>
<path d="M53.4999 32.4176C53.3036 32.3417 53.1395 32.2412 53.0076 32.1147C52.875 31.9883 52.7738 31.8419 52.704 31.6744C52.635 31.5076 52.6001 31.3292 52.6001 31.1391C52.6001 30.949 52.6336 30.7637 52.6992 30.5996C52.7656 30.4356 52.8599 30.2954 52.9837 30.1785C53.1067 30.0616 53.253 29.972 53.424 29.9084C53.5942 29.8455 53.7802 29.8134 53.9826 29.8134C54.1022 29.8134 54.2143 29.8243 54.3189 29.8462C54.4229 29.8681 54.5193 29.8906 54.6075 29.9125C54.6957 29.9344 54.7839 29.957 54.8727 29.9788C54.9609 30.0007 55.0526 30.0117 55.1469 30.0117C55.3172 30.0117 55.4436 29.9754 55.5257 29.9029C55.6077 29.8305 55.6488 29.7341 55.6488 29.6144C55.6488 29.5194 55.6282 29.436 55.5872 29.3635C55.5462 29.291 55.486 29.2281 55.4074 29.1741C55.3281 29.1208 55.2337 29.0798 55.123 29.051C55.0122 29.0223 54.8912 29.008 54.7586 29.008C54.481 29.008 54.2581 29.0668 54.0913 29.183C53.9238 29.2999 53.8151 29.4654 53.7645 29.6801L52.7519 29.4244C52.8148 29.2097 52.905 29.0169 53.0213 28.8466C53.1382 28.6764 53.2845 28.5314 53.4616 28.4111C53.638 28.2914 53.8383 28.2012 54.0626 28.141C54.2868 28.0809 54.5377 28.0508 54.8153 28.0508C55.0929 28.0508 55.363 28.087 55.6057 28.1595C55.8484 28.232 56.0583 28.3455 56.2354 28.5C56.4118 28.6552 56.5506 28.8521 56.6518 29.0914C56.7523 29.3314 56.8029 29.6185 56.8029 29.9529V32.4334H55.6672V31.1835L55.7903 31.0892C55.7903 31.2909 55.7527 31.4803 55.6768 31.6573C55.6016 31.8344 55.4936 31.9855 55.3548 32.112C55.216 32.2385 55.0457 32.339 54.8433 32.4149C54.6417 32.4908 54.4147 32.5284 54.1617 32.5284C53.9087 32.5284 53.6947 32.4908 53.4992 32.4149L53.4999 32.4176ZM54.9958 31.4755C55.1346 31.4283 55.2529 31.3606 55.3507 31.2717C55.4484 31.1835 55.523 31.0789 55.5729 30.9593C55.6235 30.8396 55.6488 30.7104 55.6488 30.5709V29.9652L55.7814 30.1546C55.7055 30.3378 55.6064 30.4697 55.4833 30.5518C55.3596 30.6338 55.2194 30.6749 55.0615 30.6749C55.0047 30.6749 54.9445 30.6701 54.8816 30.6605C54.8181 30.6509 54.7552 30.64 54.6923 30.6277C54.6293 30.6147 54.5658 30.6038 54.5029 30.5942C54.4393 30.5846 54.3764 30.5798 54.3135 30.5798C54.1302 30.5798 53.9942 30.6208 53.906 30.7029C53.8178 30.7849 53.774 30.8889 53.774 31.0153C53.774 31.1603 53.8321 31.2854 53.9491 31.3893C54.0653 31.4933 54.2595 31.5459 54.5309 31.5459C54.7011 31.5459 54.8557 31.522 54.9951 31.4748L54.9958 31.4755Z" fill="#0086FF"/>
<path d="M57.9023 31.3857V28.1101H59.0763V32.4366H57.9023V31.3857ZM58.2811 29.7004H59.7388V30.5994H58.2811V29.7004ZM59.2185 30.1831L60.5722 28.1094H61.7933V28.2707L60.5052 30.0791L62.1147 32.2759V32.4366H60.8081L59.2171 30.1837L59.2185 30.1831Z" fill="#0086FF"/>
<path d="M63.7065 29.1411H62.3145V28.1094H66.2718V29.1411H64.8797V32.4359H63.7058V29.1411H63.7065Z" fill="#0086FF"/>
<path d="M67.0282 28.1094H68.2022V31.5368L67.3879 31.6031L70.2088 28.1094H71.1271V32.4359H69.9531V29.1035L70.5774 29.0276L67.8316 32.4359H67.0269V28.1094H67.0282Z" fill="#0086FF"/>
<path d="M72.2925 31.3857V28.1101H73.4664V32.4366H72.2925V31.3857ZM72.6713 29.7004H74.1289V30.5994H72.6713V29.7004ZM73.6086 30.1831L74.9624 28.1094H76.1835V28.2707L74.8954 30.0791L76.5048 32.2759V32.4366H75.1982L73.6073 30.1837L73.6086 30.1831Z" fill="#0086FF"/>
<path d="M48.2086 34.7088C47.7478 34.7088 47.3745 34.3355 47.3745 33.8747V28.1104H48.4821V29.2843L48.5484 29.3506V34.7088H48.2086ZM49.3203 32.4082C49.1275 32.3453 48.9559 32.2584 48.8042 32.1477C48.6524 32.0369 48.5266 31.9091 48.4254 31.7641C48.3242 31.6192 48.2551 31.4612 48.2168 31.291V30.2873H48.5484C48.5484 30.4644 48.5751 30.6285 48.6291 30.7796C48.6825 30.9307 48.757 31.0585 48.8513 31.1631C48.9464 31.2671 49.0578 31.3491 49.1877 31.4093C49.3169 31.4694 49.4612 31.4995 49.6184 31.4995C49.7757 31.4995 49.9118 31.4708 50.0444 31.414C50.1764 31.3573 50.2933 31.2753 50.3945 31.1679C50.4956 31.0606 50.5729 30.9314 50.6262 30.7796C50.6796 30.6285 50.7069 30.4575 50.7069 30.2682C50.7069 30.0665 50.6789 29.8914 50.6221 29.7431C50.5654 29.5947 50.4861 29.4703 50.3856 29.3691C50.2844 29.2679 50.1682 29.1927 50.0348 29.1421C49.9022 29.0915 49.7634 29.0662 49.6184 29.0662C49.4605 29.0662 49.3156 29.0949 49.1829 29.1517C49.0503 29.2084 48.9368 29.2891 48.8424 29.393C48.7474 29.4969 48.6749 29.6186 48.625 29.7574C48.5744 29.8962 48.5491 30.048 48.5491 30.2121H48.2647V29.1995C48.2777 29.0477 48.3297 28.9028 48.4213 28.764C48.5129 28.6252 48.6332 28.5021 48.7816 28.3948C48.9293 28.2874 49.1016 28.2006 49.2978 28.1343C49.4933 28.068 49.7046 28.0352 49.9323 28.0352C50.1969 28.0352 50.4512 28.0905 50.6946 28.2006C50.9373 28.3114 51.152 28.4645 51.338 28.6601C51.5239 28.8556 51.673 29.0894 51.7831 29.3609C51.8931 29.6323 51.9485 29.9352 51.9485 30.2695C51.9485 30.6039 51.8931 30.9088 51.7831 31.183C51.6723 31.4578 51.5226 31.6923 51.3332 31.8879C51.1438 32.0834 50.9278 32.2352 50.6844 32.3425C50.441 32.4499 50.1907 32.5039 49.9316 32.5039C49.7169 32.5039 49.5132 32.4724 49.321 32.4088L49.3203 32.4082Z" fill="#0086FF"/>
<path d="M101.585 29.4922C101.377 29.4922 101.218 29.5612 101.11 29.6994C101.001 29.8375 100.947 30.0084 100.947 30.2121C100.947 30.3085 100.96 30.4002 100.986 30.4884C101.012 30.5765 101.053 30.6538 101.107 30.7194C101.161 30.7858 101.228 30.837 101.308 30.8753C101.388 30.9136 101.481 30.9328 101.585 30.9328C101.79 30.9328 101.947 30.8644 102.056 30.7283C102.164 30.5923 102.218 30.4207 102.218 30.2121C102.218 30.0036 102.165 29.8368 102.058 29.6994C101.952 29.5612 101.795 29.4922 101.585 29.4922Z" fill="#FF3333"/>
<path d="M105.069 30.933C105.25 30.933 105.401 30.8694 105.521 30.7436C105.641 30.6178 105.702 30.4421 105.702 30.2185C105.702 30.0981 105.684 29.9942 105.65 29.906C105.616 29.8185 105.57 29.7453 105.512 29.6872C105.453 29.6291 105.386 29.586 105.31 29.558C105.234 29.53 105.155 29.5156 105.075 29.5156C104.898 29.5156 104.753 29.5737 104.64 29.69C104.528 29.8055 104.467 29.96 104.46 30.1522V30.2239C104.464 30.4482 104.524 30.6226 104.638 30.7463C104.753 30.8701 104.896 30.9323 105.069 30.9323V30.933Z" fill="#FF3333"/>
<path d="M119.157 27.6289H83.8566C82.4857 27.6289 81.374 28.7399 81.374 30.1108C81.374 31.4816 82.4851 32.5933 83.8566 32.5933H103.61V28.8233H104.412V29.1611C104.508 29.0449 104.635 28.9512 104.791 28.8808C104.948 28.8104 105.123 28.7755 105.315 28.7755C105.484 28.7755 105.646 28.8104 105.801 28.8808C105.955 28.9505 106.092 29.049 106.21 29.1761C106.329 29.3026 106.424 29.4537 106.497 29.6281C106.569 29.8031 106.606 29.9973 106.606 30.2099C106.606 30.4225 106.569 30.6181 106.497 30.7945C106.424 30.9716 106.328 31.1227 106.208 31.2491C106.087 31.3756 105.949 31.4741 105.795 31.5445C105.64 31.6149 105.48 31.6498 105.316 31.6498C105.143 31.6498 104.983 31.6197 104.837 31.5596C104.691 31.4994 104.565 31.4173 104.46 31.3127V32.5933H119.157C120.528 32.5933 121.64 31.4823 121.64 30.1108C121.64 28.7399 120.529 27.6289 119.157 27.6289ZM95.9384 31.5233C95.7333 31.6081 95.5043 31.6498 95.2513 31.6498C95.0263 31.6498 94.8233 31.617 94.6428 31.5507C94.4623 31.4843 94.3084 31.3886 94.1813 31.2642C94.0548 31.1398 93.9563 30.99 93.8859 30.815C93.8155 30.6406 93.7806 30.4444 93.7806 30.2277C93.7806 29.9986 93.8175 29.7942 93.8921 29.613C93.9666 29.4325 94.0698 29.2807 94.2025 29.1584C94.3351 29.036 94.491 28.9416 94.6694 28.8753C94.8486 28.809 95.0421 28.7762 95.2513 28.7762C95.496 28.7762 95.7162 28.8172 95.9111 28.8992C96.1059 28.982 96.2556 29.0832 96.3603 29.2035L95.9323 29.7696C95.8523 29.6896 95.7634 29.6233 95.667 29.5713C95.5706 29.5194 95.4578 29.4927 95.3299 29.4927C95.1207 29.4927 94.96 29.5611 94.8479 29.6971C94.7351 29.8332 94.679 30.0014 94.679 30.201C94.679 30.413 94.7385 30.588 94.8568 30.7261C94.9751 30.8642 95.1391 30.9333 95.3477 30.9333C95.4721 30.9333 95.5815 30.9073 95.6759 30.8553C95.7702 30.8034 95.8577 30.735 95.9384 30.6509L96.4327 31.1411C96.3083 31.3107 96.1435 31.4379 95.9384 31.5233ZM99.5545 31.6081H98.7047V29.5652H97.6798V31.6081H96.83V28.8233H99.5545V31.6081ZM102.999 30.8129C102.92 30.99 102.813 31.1404 102.676 31.2649C102.54 31.3893 102.378 31.4843 102.191 31.5513C102.004 31.6184 101.802 31.6505 101.585 31.6505C101.368 31.6505 101.153 31.6163 100.964 31.5479C100.776 31.4796 100.613 31.3825 100.476 31.2553C100.339 31.1288 100.234 30.9784 100.16 30.8034C100.085 30.629 100.048 30.4328 100.048 30.2161C100.048 29.9993 100.087 29.7949 100.166 29.6164C100.244 29.438 100.352 29.2862 100.488 29.1618C100.625 29.0373 100.786 28.9423 100.973 28.8753C101.16 28.809 101.364 28.7762 101.585 28.7762C101.806 28.7762 102.017 28.8104 102.206 28.8787C102.395 28.9471 102.557 29.0442 102.691 29.1714C102.826 29.2978 102.931 29.4496 103.005 29.626C103.079 29.8031 103.116 29.9993 103.116 30.2167C103.116 30.4342 103.076 30.6365 102.998 30.8136L102.999 30.8129ZM109.403 29.5652H108.511V31.6081H107.661V29.5652H106.769V28.8233H109.403V29.5652Z" fill="#FF3333"/>
<path d="M95.676 30.8546C95.5817 30.9065 95.4723 30.9325 95.3478 30.9325C95.1386 30.9325 94.9752 30.8634 94.8569 30.7253C94.738 30.5872 94.6792 30.4129 94.6792 30.2002C94.6792 30.0006 94.7352 29.8324 94.848 29.6963C94.9602 29.5603 95.1208 29.4919 95.33 29.4919C95.4586 29.4919 95.5714 29.5179 95.6671 29.5705C95.7635 29.6225 95.8524 29.6881 95.9324 29.7688L96.3604 29.2027C96.2558 29.0824 96.1061 28.9812 95.9112 28.8985C95.7163 28.8157 95.4962 28.7754 95.2514 28.7754C95.0422 28.7754 94.8487 28.8082 94.6696 28.8745C94.4911 28.9408 94.3352 29.0352 94.2026 29.1576C94.07 29.28 93.9667 29.4318 93.8922 29.6123C93.8177 29.7934 93.7808 29.9979 93.7808 30.2269C93.7808 30.4443 93.8156 30.6399 93.886 30.8142C93.9558 30.9892 94.0549 31.139 94.1814 31.2634C94.3079 31.3878 94.4617 31.4829 94.6429 31.5499C94.8241 31.6169 95.0265 31.649 95.2514 31.649C95.5044 31.649 95.7334 31.6066 95.9385 31.5225C96.143 31.4378 96.3077 31.3106 96.4329 31.1403L95.9385 30.6501C95.8579 30.7342 95.7704 30.8019 95.676 30.8546Z" fill="white"/>
<path d="M96.8301 31.609H97.6799V29.566H98.7048V31.609H99.5547V28.8242H96.8301V31.609Z" fill="white"/>
<path d="M102.692 29.1706C102.557 29.0441 102.396 28.9463 102.206 28.8779C102.017 28.8096 101.81 28.7754 101.585 28.7754C101.36 28.7754 101.161 28.8082 100.973 28.8745C100.787 28.9408 100.625 29.0366 100.488 29.161C100.351 29.2854 100.244 29.4372 100.166 29.6157C100.087 29.7948 100.048 29.9944 100.048 30.2153C100.048 30.4361 100.085 30.6282 100.16 30.8026C100.234 30.9776 100.34 31.128 100.476 31.2545C100.613 31.381 100.776 31.4788 100.965 31.5471C101.153 31.6155 101.36 31.6497 101.585 31.6497C101.81 31.6497 102.004 31.6169 102.191 31.5506C102.378 31.4842 102.54 31.3885 102.677 31.2641C102.813 31.1397 102.921 30.9892 102.999 30.8122C103.077 30.6351 103.117 30.4361 103.117 30.2153C103.117 29.9944 103.08 29.8016 103.005 29.6246C102.931 29.4475 102.826 29.2957 102.692 29.1699L102.692 29.1706ZM102.056 30.7294C101.947 30.8655 101.79 30.9339 101.585 30.9339C101.481 30.9339 101.388 30.9147 101.308 30.8764C101.228 30.8381 101.161 30.7862 101.107 30.7205C101.053 30.6542 101.012 30.5776 100.986 30.4895C100.96 30.4019 100.947 30.3096 100.947 30.2132C100.947 30.0095 101.001 29.8379 101.109 29.7004C101.217 29.5623 101.377 29.4933 101.585 29.4933C101.794 29.4933 101.952 29.5623 102.058 29.7004C102.165 29.8386 102.218 30.0095 102.218 30.2132C102.218 30.417 102.164 30.5934 102.056 30.7294Z" fill="white"/>
<path d="M104.837 31.5595C104.983 31.6196 105.143 31.6497 105.316 31.6497C105.489 31.6497 105.64 31.6148 105.795 31.5444C105.949 31.4747 106.087 31.3762 106.208 31.2491C106.328 31.1219 106.425 30.9708 106.497 30.7944C106.569 30.6173 106.606 30.4224 106.606 30.2098C106.606 29.9972 106.569 29.803 106.497 29.628C106.425 29.4536 106.329 29.3025 106.211 29.176C106.092 29.0496 105.955 28.9511 105.801 28.8807C105.646 28.8103 105.484 28.7754 105.316 28.7754C105.122 28.7754 104.948 28.8103 104.791 28.8807C104.635 28.9504 104.508 29.0441 104.412 29.161V28.8233H103.61V32.5932H104.46V31.3126C104.565 31.4172 104.69 31.4993 104.837 31.5595ZM104.46 30.1531C104.468 29.9609 104.529 29.8064 104.641 29.6909C104.754 29.5746 104.898 29.5165 105.075 29.5165C105.156 29.5165 105.233 29.5302 105.31 29.5589C105.386 29.587 105.454 29.63 105.512 29.6881C105.57 29.7463 105.616 29.8194 105.651 29.9069C105.685 29.9951 105.702 30.0991 105.702 30.2194C105.702 30.443 105.642 30.6187 105.521 30.7445C105.401 30.8703 105.25 30.9339 105.069 30.9339C104.889 30.9339 104.753 30.8716 104.638 30.7479C104.524 30.6241 104.464 30.4498 104.46 30.2255V30.1537V30.1531Z" fill="white"/>
<path d="M106.769 29.566H107.661V31.609H108.511V29.566H109.403V28.8242H106.769V29.566Z" fill="white"/>
<path d="M28.9684 18.8447C29.5461 18.1658 29.6869 16.9911 29.6972 16.2637H28.3564V18.9418C28.3564 19.0628 28.3469 19.1824 28.3325 19.3007C28.578 19.207 28.7886 19.0559 28.9684 18.8447Z" fill="#FF3333"/>
<path d="M26.6442 27.7974C26.6442 27.6477 26.5225 27.5253 26.372 27.5253H25.9153C25.6459 27.5253 25.4278 27.3072 25.4278 27.0378V26.5093C25.4278 26.3377 25.2884 26.1975 25.1161 26.1975H25.0429C24.7735 26.1975 24.5554 25.9794 24.5554 25.71V22.9964C24.5554 22.6067 24.7291 22.2252 25.0313 21.9496C25.0327 21.9496 25.032 21.9496 25.0333 21.9476L26.772 20.3559C27.159 20.0017 27.3805 19.4862 27.3805 18.9406V14.9648H20.7485V18.9406C20.7485 19.4855 20.9701 20.0017 21.357 20.3559L23.0957 21.9476C23.0957 21.9476 23.1128 21.9626 23.1155 21.9653C23.4232 22.2368 23.6003 22.621 23.6003 23.0183V25.7107C23.6003 25.9801 23.3822 26.1982 23.1128 26.1982H23.0396C22.868 26.1982 22.7279 26.3377 22.7279 26.51V26.5947L26.6442 30.511V27.7988V27.7974Z" fill="#FF3333"/>
<path d="M36.7824 24.6916L35.8772 10.3686C35.7691 9.25274 34.8858 8.37007 33.77 8.26136L19.4476 7.35613C18.5014 7.29665 17.5743 7.64603 16.9042 8.31675L12.0984 13.1225C11.3135 13.9074 11.3135 15.1791 12.0984 15.964L21.9568 25.8224C22.1127 25.5777 22.3466 25.3862 22.6255 25.2912V23.0179C22.6255 22.9003 22.5694 22.7834 22.471 22.6965L22.4471 22.6753L20.6995 21.0761C20.4773 20.8724 20.2906 20.6345 20.1443 20.3726C19.4456 20.2994 18.8644 19.9993 18.4186 19.4756C17.2885 18.1478 17.4649 15.8328 17.4731 15.735C17.4936 15.482 17.7055 15.2872 17.9592 15.2872H19.7731V14.477C19.7731 14.2076 19.9912 13.9895 20.2606 13.9895H27.8675C28.1369 13.9895 28.355 14.2076 28.355 14.477V15.2872H30.1696C30.4232 15.2872 30.6345 15.482 30.6557 15.735C30.6639 15.8328 30.8403 18.1471 29.7101 19.4756C29.2643 19.9993 28.6832 20.2988 27.9844 20.3726C27.8381 20.6338 27.6521 20.8724 27.4299 21.0761L25.6919 22.6664C25.6919 22.6664 25.6878 22.6705 25.6858 22.6726C25.5805 22.7758 25.5306 22.8852 25.5306 22.9967V25.2912C26.0372 25.4642 26.403 25.9448 26.403 26.5096V26.5513C27.0765 26.5677 27.6193 27.1208 27.6193 27.7984V31.4863L28.1738 32.0408C28.9587 32.8257 30.2304 32.8257 31.0153 32.0408L35.8211 27.235C36.4918 26.5643 36.8419 25.6378 36.7817 24.6916H36.7824Z" fill="#FF3333"/>
<path d="M19.7736 16.2637H18.4355C18.4438 16.9152 18.549 18.1254 19.163 18.846C19.3428 19.0566 19.5527 19.207 19.7975 19.3007C19.7831 19.1824 19.7736 19.0628 19.7736 18.9418V16.2637Z" fill="#FF3333"/>
<path d="M26.4036 26.552V26.5103C26.4036 25.9456 26.0378 25.4642 25.5311 25.292V22.9974C25.5311 22.8867 25.5811 22.7766 25.6863 22.6733C25.6884 22.6713 25.6904 22.6692 25.6925 22.6672L27.4305 21.0769C27.6527 20.8731 27.8393 20.6352 27.985 20.3733C28.6837 20.3002 29.2649 20 29.7107 19.4763C30.8408 18.1479 30.6644 15.8335 30.6562 15.7357C30.6357 15.4828 30.4238 15.2879 30.1701 15.2879H28.3555V14.4777C28.3555 14.2083 28.1374 13.9902 27.8681 13.9902H20.2611C19.9917 13.9902 19.7736 14.2083 19.7736 14.4777V15.2879H17.9597C17.7061 15.2879 17.4948 15.4828 17.4736 15.7357C17.4654 15.8335 17.289 18.1486 18.4192 19.4763C18.865 20 19.4454 20.2995 20.1449 20.3733C20.2912 20.6345 20.4772 20.8731 20.7001 21.0769L22.4476 22.6761L22.4715 22.6973C22.57 22.7841 22.6261 22.901 22.6261 23.0186V25.292C22.3464 25.387 22.1133 25.5784 21.9574 25.8232L22.7293 26.5951V26.5103C22.7293 26.3387 22.8688 26.1985 23.0411 26.1985H23.1142C23.3836 26.1985 23.6017 25.9804 23.6017 25.7111V23.0186C23.6017 22.6214 23.4253 22.2378 23.117 21.9657C23.1149 21.9637 23.0999 21.95 23.0971 21.9479L21.3585 20.3563C20.9715 20.0021 20.75 19.4866 20.75 18.941V14.9652H27.3819V18.941C27.3819 19.4859 27.1604 20.0021 26.7734 20.3563L25.0348 21.9479C25.0348 21.9479 25.0334 21.9493 25.0327 21.95C24.7305 22.2255 24.5569 22.607 24.5569 22.9967V25.7104C24.5569 25.9798 24.775 26.1979 25.0443 26.1979H25.1175C25.2891 26.1979 25.4293 26.3373 25.4293 26.5096V27.0381C25.4293 27.3075 25.6474 27.5256 25.9168 27.5256H26.3735C26.5232 27.5256 26.6456 27.6473 26.6456 27.7977V30.51L27.6212 31.4857V27.7977C27.6212 27.1202 27.0784 26.5671 26.4049 26.5507L26.4036 26.552ZM28.3562 18.9423V16.2643H29.697C29.6867 16.991 29.5459 18.1663 28.9682 18.8453C28.7883 19.0565 28.5778 19.2076 28.3323 19.3013C28.3467 19.183 28.3562 19.0634 28.3562 18.9423ZM19.1631 18.8466C18.5484 18.126 18.4438 16.9158 18.4356 16.2643H19.7736V18.9423C19.7736 19.0634 19.7832 19.183 19.7976 19.3013C19.5528 19.2076 19.3429 19.0572 19.1631 18.8466Z" fill="white"/>
</svg>
