<svg width="34" height="42" viewBox="0 0 34 42" fill="none" xmlns="http://www.w3.org/2000/svg">
<g clip-path="url(#clip0_1368_20725)">
<path d="M13.3015 9.159C14.1187 9.53272 14.6475 8.73412 14.7498 8.22084C14.7204 8.40227 14.7095 8.4767 14.6475 8.73411C14.9793 8.31388 15.0507 7.80836 15.0507 7.80836C15.0507 10.598 13.2472 9.85991 13.3031 9.159H13.3015ZM15.1329 6.00182C15.0879 5.99561 15.7221 6.25923 16.0198 6.54921C15.7082 6.36312 15.5174 6.28559 15.3453 6.30575C15.6771 6.5275 15.5717 6.61278 15.9315 6.91051C16.133 7.07644 16.651 7.08419 16.651 7.08419C16.423 7.03302 16.4246 6.17704 15.1329 6.00182ZM15.0786 6.37088C15.2864 6.57712 15.3903 6.68877 15.4492 7.05008C15.2352 6.66706 14.7778 6.25613 14.7111 6.23907C14.7111 7.38192 15.4926 7.31214 15.2383 8.52477C15.9718 8.25961 15.9423 6.84849 15.0801 6.36933L15.0786 6.37088ZM13.5062 6.16619C14.7111 7.23616 14.2722 8.37126 14.2722 8.37126C15.3391 7.85488 14.6351 6.75545 14.3575 6.55386C14.3575 6.55386 14.4614 6.65 14.5994 7.14002C14.3792 6.66241 13.5062 6.16619 13.5062 6.16619ZM13.0239 6.26543C12.0982 6.67171 12.5587 7.32765 12.5587 7.32765C12.5928 6.56161 13.7186 6.6376 13.7186 6.6376L13.469 6.36157C13.3573 6.23752 13.1774 6.19875 13.0239 6.26698V6.26543ZM11.2422 5.273C11.4965 4.88998 12.0036 5.09002 12.0036 5.09002C12.292 5.64981 13.2317 6.02663 13.2317 6.02663C13.0798 6.05919 12.9448 6.09641 12.8285 6.13052C12.7293 6.15999 12.6332 6.13672 12.5339 6.10571C11.6438 5.82814 11.4903 6.20961 11.4903 6.20961C11.1368 5.99561 11.0856 5.53196 11.2437 5.27144L11.2422 5.273ZM11.7927 5.72579C11.7927 5.80178 11.8547 5.86381 11.9307 5.86381C12.0067 5.86381 12.0687 5.80178 12.0687 5.72579C12.0687 5.64981 12.0067 5.58778 11.9307 5.58778C11.8547 5.58778 11.7927 5.64981 11.7927 5.72579ZM12.8642 5.60949C12.5928 5.27765 12.5339 5.03729 12.5262 4.73336C12.3897 4.74887 12.4161 4.96751 12.444 5.07451C12.3277 5.00163 12.2982 4.86827 12.3091 4.79228C12.1912 4.81554 12.1214 4.94425 12.1912 5.09467C12.2858 5.31021 12.7122 5.54126 12.8642 5.61104V5.60949ZM12.7417 4.73956C12.7417 4.73956 15.3515 5.17375 16.3905 4.46974C16.3905 4.46974 16.3207 5.36138 15.505 5.47458C15.505 5.47458 15.9842 5.81728 16.6804 5.90877C16.6804 5.90877 16.3021 6.12742 15.8322 6.06539C15.35 6.00026 15.0057 5.82504 14.9173 5.73045C14.9173 5.73045 14.9251 5.9584 15.1034 6.21271C15.1034 6.21271 14.7157 6.13517 14.4785 6.00337C14.4785 6.00337 14.4583 6.17084 14.5358 6.43756C14.5358 6.43756 12.7402 6.00337 12.7402 4.73956H12.7417ZM13.21 5.13654C13.21 5.13654 13.2038 5.3862 13.5046 5.53351C13.5279 5.25129 13.9497 5.18771 14.1342 5.1753C13.7109 5.19546 13.4442 5.1629 13.2085 5.13654H13.21ZM12.9619 4.39996C12.9588 4.46664 13.2317 4.53177 13.5698 4.54573C13.9078 4.55968 14.1838 4.51471 14.1869 4.44803C14.19 4.38135 13.9171 4.31623 13.5791 4.30227C13.241 4.28831 12.965 4.33328 12.9619 4.39996ZM13.1774 4.20148L13.517 4.18132L13.2705 3.47731C13.1837 3.28812 12.675 3.18733 12.7417 3.47421C12.7681 3.58896 13.1294 4.13325 13.1774 4.20148ZM13.3697 3.3579C13.3914 3.48816 13.5558 3.89134 13.6147 4.04331C13.6706 3.89289 13.8629 3.48971 13.866 3.3579C13.8722 3.05242 13.3263 3.09274 13.3697 3.3579ZM16.0834 4.45113C16.2509 4.37205 16.4137 4.21698 16.5223 4.07432C16.5595 4.0278 16.3874 3.98128 16.0307 4.10378C16.3176 3.87428 16.6339 3.90064 16.6417 3.88203C16.6417 3.88203 15.4864 3.5657 15.0119 4.57674C15.0119 4.57674 15.567 4.68529 16.0834 4.45113ZM13.9776 3.48816L13.7047 4.18442L14.0443 4.21543C14.0955 4.14875 14.4754 3.61687 14.5048 3.50367C14.5808 3.21989 14.066 3.31604 13.976 3.48661L13.9776 3.48816ZM13.5233 2.98884L13.7528 2.99349L13.759 2.68491L14.0334 2.68956L14.0365 2.48797L13.7621 2.48332L13.7683 2.17008L13.5388 2.16543L13.5326 2.47867L13.2488 2.47402L13.2457 2.67561L13.5295 2.68026L13.5233 2.98884ZM7.14375 18.6135C7.14375 18.6135 8.26334 18.2072 8.69908 17.3528C9.13482 16.4906 9.33331 16.227 9.42325 15.9417C9.45737 15.8347 9.40154 15.5649 9.36122 15.3075C9.36122 15.3075 8.20287 16.855 7.72836 17.5218C7.72836 17.5218 9.10536 15.1477 9.18134 15.1229C8.97045 15.1912 8.90532 15.2005 8.69443 15.2718C8.63861 15.2904 8.58588 15.3214 8.54246 15.3602C6.9065 16.8597 7.1422 18.612 7.1422 18.612L7.14375 18.6135ZM6.98248 7.83472C6.98248 7.83472 7.55003 8.03631 7.702 8.10919C7.51591 7.9045 5.90476 6.51354 4.87665 3.76728C6.01951 5.07141 6.5793 6.42205 7.16391 7.09815C7.1484 6.55696 6.99954 6.02818 6.73437 5.55677C6.38237 4.92874 5.96523 4.27901 5.61788 3.77039C5.21625 3.19043 4.27809 2.11581 3.63766 1.56997C3.4888 2.24297 3.32752 3.47421 3.89973 4.56433C4.46107 5.64206 5.59927 6.9958 6.98093 7.83472H6.98248ZM7.51591 10.6895C8.48974 10.9159 9.25423 10.6663 9.25423 10.6663C8.90687 10.2119 7.87412 9.99482 7.23524 10.0134C7.75317 9.91884 7.95941 9.90178 8.75491 9.97311C8.55642 9.78082 7.24765 9.62266 6.52193 9.82114C6.52193 9.82114 6.64753 10.4879 7.51591 10.6895ZM6.47541 11.5253C6.47541 11.5253 6.97318 11.9471 7.53917 11.9642C8.10517 11.9688 8.63395 11.8107 8.8619 11.637C8.8619 11.637 8.48509 11.0989 7.11274 11.2788C7.66788 11.0508 8.48509 11.0989 8.48509 11.0989C8.05555 10.9221 7.60275 10.8306 7.15305 10.9904C6.70956 11.1687 6.59326 11.3656 6.47541 11.5238V11.5253ZM7.88187 13.1132C8.37654 13.0078 8.90377 12.7984 9.16274 12.2511C9.16274 12.2511 8.47268 12.1797 7.61671 12.6077C8.35793 12.0665 9.31936 12.0371 9.31936 12.0371C8.95805 11.9735 8.17961 11.7781 6.70336 12.738C6.70336 12.738 7.28641 13.2326 7.88187 13.1132ZM9.84659 12.9613C9.84659 12.9613 9.84659 12.9597 9.84659 12.9582C9.84659 12.9582 9.40774 12.9489 8.22302 13.4358C8.40911 13.1598 9.03558 13.014 9.03558 13.014C8.7456 13.0078 7.83225 13.0791 7.75937 14.0747C7.75937 14.0747 8.58123 14.4453 9.84659 12.9613ZM9.93032 13.5381C8.36569 13.8436 8.52541 15.1307 8.52541 15.1307C8.94254 14.8019 9.9908 14.8702 9.97374 13.7754C9.62329 13.8095 9.12862 14.1212 8.88982 14.4995C9.04333 14.0824 9.33641 13.8746 9.93032 13.5366V13.5381ZM10.5739 14.0871L10.5661 14.0902C10.4358 14.1382 10.3211 14.2158 10.2203 14.3073C9.48373 14.9818 9.64345 15.6424 9.64345 15.6424C10.3552 15.0516 11.0375 15.0655 11.2701 14.3321C11.3337 14.1305 11.2918 14.025 11.2143 13.9429C10.8282 14.039 10.6669 14.1243 10.1862 14.7166C10.3195 14.2902 10.5739 14.0855 10.5739 14.0855V14.0871ZM11.7167 14.3615C11.574 14.4856 11.4407 14.7709 11.4019 15.0345C11.3523 15.3431 11.419 15.7122 11.4562 15.8672C11.4562 15.8672 11.5958 15.6796 11.9183 15.4284C12.1881 15.2175 12.6905 14.6903 12.5308 14.2158C12.5308 14.2158 11.9772 14.3336 11.6485 14.9927C11.8253 14.4949 12.0811 14.1088 12.0811 14.1088C11.8904 14.222 11.8361 14.2561 11.7152 14.3615H11.7167ZM6.81501 9.01944C6.81501 9.01944 4.53861 6.86399 3.62681 6.17549C5.27518 7.323 6.07688 7.92001 6.49246 8.37901C6.3467 8.09834 6.2428 7.7851 5.90476 7.43775C5.34961 6.86399 2.44519 4.41547 1.83732 4.30382C1.83732 4.30382 1.74738 5.46063 2.37386 6.32126C3.00188 7.19119 4.96194 8.71706 6.81501 9.01944ZM5.98229 11.4214C6.19939 11.4121 6.356 11.3439 6.50952 11.1904C6.50952 11.1904 6.51107 11.1873 6.51262 11.1873C5.92492 10.8834 4.34787 10.5825 3.12439 10.443C4.47038 10.3468 5.92491 10.7733 6.66924 10.8958C6.72817 10.9051 6.78864 10.8942 6.83982 10.8647L6.98403 10.7857C6.1172 10.5221 5.04413 10.1638 3.25619 10.0475C1.94897 9.95915 0.9953 10.0305 0.506836 10.1638C0.506836 10.1638 1.70551 11.0074 3.07166 11.302C4.23932 11.5533 5.21936 11.454 5.98384 11.423L5.98229 11.4214ZM3.73535 12.9132C5.4411 12.7938 6.81501 12.493 7.38876 12.1193L7.05691 12.0479C7.00884 12.0371 6.96077 12.0324 6.9127 12.0324C5.72178 12.0417 3.36939 12.2619 3.36939 12.2619C5.02087 11.9053 5.82102 11.8339 6.62272 11.8308C6.62117 11.8308 6.61962 11.8293 6.61807 11.8277C6.44439 11.7269 2.53978 11.3548 1.1178 12.7287C1.1178 12.7287 2.0203 13.0404 3.7369 12.9116L3.73535 12.9132ZM7.49576 13.3365C7.30812 13.2714 7.12669 13.1954 6.90495 13.1427C6.16992 12.9659 4.60839 13.4032 3.82064 13.8266C3.82064 13.8266 4.44867 13.1396 6.61807 12.9039L6.5793 12.8682C6.51417 12.8062 6.42578 12.7752 6.33585 12.7845C5.71712 12.845 5.05653 12.9861 4.51535 13.1489C3.93384 13.3303 2.88868 13.7537 2.26376 14.9399C2.26376 14.9399 3.17866 15.2144 4.90302 14.4096C6.62582 13.6017 7.17476 13.4265 7.49731 13.3365H7.49576ZM7.48645 14.1879C7.55778 14.1429 7.60585 14.0716 7.61671 13.9878C7.61981 13.9615 7.62291 13.9366 7.62601 13.9165C7.20113 13.8901 6.03191 14.4267 4.93248 15.1943C5.72643 14.2561 7.62911 13.7087 7.62911 13.7087C7.64307 13.6854 7.63377 13.4311 5.29224 14.4918C4.76811 14.729 3.9664 15.2392 3.52601 16.4379C3.52601 16.4379 4.59133 16.5651 5.49538 15.875C6.35135 15.2098 6.83206 14.5941 7.4849 14.1863L7.48645 14.1879ZM7.06777 16.7527C7.65082 15.8797 8.22768 15.1229 8.29436 14.8252C8.32072 14.7073 8.34088 14.5026 8.34088 14.5026C7.51746 14.8252 6.18388 16.5201 6.18388 16.5201C6.89254 15.0826 8.25714 14.2158 8.24163 14.2158C8.24008 14.2158 8.23698 14.2158 8.23543 14.2158C7.9377 14.2607 7.65703 14.3786 7.41822 14.5631C7.00109 14.8857 6.60411 15.2129 6.16062 15.7478C5.60392 16.4162 5.41784 17.0256 5.33721 17.7901C5.33721 17.7901 6.40873 17.7157 7.06777 16.7527ZM10.2668 15.4765C10.1567 15.5261 10.0621 15.6036 9.99545 15.7044C9.38759 16.6379 8.727 17.911 9.22942 18.9221C9.22942 18.9221 9.7706 18.6352 10.1335 18.0894C10.5072 17.5342 10.8933 15.1756 10.8948 15.1183C10.8638 15.1415 10.6747 15.2594 10.6064 15.3276C10.6064 15.3276 10.0869 15.9324 9.55506 17.7343C9.66051 16.9992 9.79541 16.3092 10.2684 15.4749C10.2684 15.4749 10.2668 15.4749 10.2653 15.4749L10.2668 15.4765ZM10.9894 17.3714C10.9894 17.3714 11.053 16.6581 11.2174 16.0549C11.2437 15.9572 11.1693 15.6843 11.1693 15.6843C10.9321 16.2565 10.3878 17.635 11.0499 18.4972C11.0499 18.4972 11.7493 17.6226 11.8671 15.8471C11.6624 15.9355 11.4128 16.1634 11.3833 16.2239C11.3135 16.3728 11.0654 16.8969 10.9879 17.3714H10.9894ZM12.2532 15.6936C12.0206 16.7651 12.3292 17.221 12.3292 17.221C13.3155 16.3185 13.2441 14.6469 13.6985 14.2158L13.5077 14.1755C12.7526 14.6965 12.3851 16.4503 12.3851 16.4503C12.3742 15.537 13.0038 14.5104 13.0038 14.5104C12.9774 14.5275 12.3788 15.1183 12.2548 15.692L12.2532 15.6936ZM10.3537 9.93434C9.46357 9.37455 8.91463 9.71725 8.91463 9.71725C9.08365 10.6461 9.85899 10.8089 9.85899 10.8089C9.02938 10.7174 8.68823 11.1392 8.68823 11.1392C8.99371 11.8091 9.79696 11.8401 9.79696 11.8401C9.0821 12.3937 9.21546 12.7953 9.21546 12.7953C9.99235 12.9752 10.4265 12.5938 10.4265 12.5938C9.82643 13.3753 10.287 13.9568 10.287 13.9568C11.0871 13.8483 11.3414 13.2233 11.3414 13.2233C11.2686 13.9304 11.6237 14.1134 11.6237 14.1134C12.0517 13.977 12.2594 13.5831 12.2594 13.5831C12.3944 14.1103 12.934 14.2561 12.934 14.2561C13.2503 13.918 13.1883 13.5707 13.1883 13.5707C13.4891 14.3429 14.4614 14.0545 14.4614 14.0545C13.8768 13.8157 13.5605 13.3272 13.393 12.9349C13.2658 12.6356 12.9588 12.4635 12.6363 12.5038C12.002 12.5829 11.3895 12.4247 11.1833 12.172C10.9073 11.8572 11.0732 11.0539 11.6113 10.4461C12.0299 9.97311 11.5229 9.45208 11.2344 9.24274C10.625 8.80235 9.39379 7.82697 9.17359 7.05318C8.91308 9.02254 10.3568 9.93589 10.3568 9.93589L10.3537 9.93434ZM2.55218 9.38075C3.82994 9.91573 5.58377 10.1856 6.57775 10.4414C6.37306 10.0491 6.21644 9.93744 5.61478 9.63506C4.76966 9.21173 2.36765 8.3604 2.36765 8.3604C4.15404 8.66744 5.79156 9.34819 6.25676 9.55287C6.34515 9.59164 6.43974 9.60715 6.53588 9.59939C6.6801 9.58699 6.88324 9.56838 6.9065 9.56838C6.47696 9.21948 3.18951 7.65639 0.610732 7.54629C0.610732 7.54629 0.813871 8.66123 2.55373 9.38075H2.55218ZM9.43876 9.159C9.43876 9.159 8.54246 8.16191 8.161 7.01906C8.48354 7.63003 9.05419 8.26271 9.05419 8.26271C8.9658 7.95257 8.82624 7.40363 8.71459 7.20204C8.60449 7.00511 8.07571 6.0747 7.43838 5.72734C7.43838 5.72734 7.1546 6.80972 7.55313 7.51063C7.88808 8.11384 8.57658 8.72946 9.44031 9.16055L9.43876 9.159ZM6.57775 7.96498C6.57775 7.96498 6.7964 8.85972 7.19492 9.21948C7.61516 9.59784 8.31762 9.69089 9.00302 9.54822C9.00302 9.54822 8.54091 9.11868 7.8214 8.74652C7.81209 8.74187 8.7487 9.11558 9.28214 9.44898C8.98286 9.05511 7.77023 8.28287 6.57775 7.96498ZM15.398 16.1619C15.3624 16.0843 15.1747 16.2596 15.0243 16.6581C14.9747 16.2999 15.2368 15.9029 15.2368 15.9029C14.6366 16.1898 14.6196 16.779 14.6661 17.0411C14.7483 17.5172 14.7405 17.3993 14.7266 17.6428C15.5484 17.2148 15.5469 16.486 15.3996 16.1634L15.398 16.1619ZM15.7795 16.2844C15.8276 15.9742 16.5781 15.6036 15.9485 14.6252C15.8074 14.7771 15.6756 14.9849 15.6492 15.3012C15.5035 14.805 15.7097 14.5926 15.7748 14.3832C15.7392 14.4654 14.8754 15.1493 15.781 16.2828L15.7795 16.2844ZM15.8741 3.13306L15.947 3.31914C15.947 3.31914 16.2462 3.27882 16.3874 3.25091C16.3439 2.84928 16.2338 1.9716 16.0478 1.77466C15.9625 1.71418 15.8663 1.73124 15.7392 1.7576C15.6973 1.77156 15.657 1.78862 15.6198 1.81188C15.5205 1.8739 15.4833 2.00106 15.5221 2.11116L15.8756 3.13306H15.8741ZM16.468 16.0998C16.2928 16.503 16.2292 16.6271 16.1284 16.9899C16.147 16.8209 16.0431 16.472 16.2338 16.0099C15.2259 17.266 16.1082 17.6242 16.0819 18.0304C16.0819 18.0304 17.0573 16.9341 16.468 16.0998ZM13.9683 19.4509C14.4009 19.209 15.6942 20.234 16.1765 18.7624C16.2152 18.6461 16.2338 18.4693 16.2168 18.3204C16.1222 18.4507 16.0105 18.9422 15.4383 19.0554C15.7857 18.857 15.8927 18.6337 15.8942 18.4801C15.1608 19.4354 14.5343 18.4305 13.9683 19.4509ZM15.6756 17.497C15.6756 17.497 15.4461 17.6211 15.35 17.9622C15.291 17.725 15.5081 17.2675 15.5081 17.2675C14.7964 18.1545 15.1856 18.4957 14.9654 18.8058C16.2013 18.5825 15.6756 17.497 15.6756 17.497ZM15.8818 14.0731C15.9687 14.5151 16.4401 14.895 16.4401 14.895C16.6045 14.4391 17.1022 13.8839 16.4091 13.0264C16.24 13.2202 16.1703 13.3396 16.1113 13.7893C16.1113 13.7893 15.9919 13.4342 16.0757 13.0667C15.8648 13.4156 15.8415 13.8932 15.8803 14.0747L15.8818 14.0731ZM16.8324 1.28775H17.0588V1.01483H17.3441V0.813238H17.0588V0.5H16.8324V0.813238H16.5455V1.01483H16.8324V1.28775ZM16.7998 3.21369C16.7518 2.82292 16.3207 1.5312 16.1594 1.48313C16.1594 1.48313 16.3889 1.96229 16.5254 3.23385L16.7998 3.21369ZM14.6863 14.0421C14.7964 14.3848 15.0305 14.5848 15.2337 14.8019C15.2616 14.5957 15.536 14.4065 15.6322 14.115C15.8028 13.6002 15.4507 13.2249 15.3065 13.0435C15.029 13.3598 15.029 13.6343 15.029 14.0545C14.832 13.5319 14.953 13.0667 15.1174 12.7705C15.1174 12.7705 14.4971 13.4559 14.6863 14.0405V14.0421ZM16.9099 19.7719C16.9099 19.7719 17.8915 18.2661 17.0666 17.2411C17.0216 17.1853 16.9379 18.6057 16.9379 18.3685C16.9099 18.6057 16.8324 17.1884 16.7812 17.2722C16.6246 17.5249 16.4602 17.894 16.4618 18.153C16.4851 18.8306 16.9099 19.7719 16.9099 19.7719ZM15.7996 21.7567C16.423 21.7722 16.7471 21.1442 16.758 20.6651C16.7735 19.944 16.53 19.5532 16.4432 19.3144C16.4339 19.2865 16.3641 19.2586 16.3315 19.5393C16.2742 19.3516 16.3191 19.1314 16.3998 18.8802C16.1796 19.1904 16.0509 19.7517 16.1486 20.1254C16.4804 21.4078 15.7996 21.7567 15.7996 21.7567ZM14.7933 21.6652C14.4164 21.8374 14.3544 22.5383 14.3544 22.5383C14.7235 21.7971 16.3052 22.2328 15.8446 20.2944C15.7562 19.9238 15.9175 19.561 15.9175 19.5594C15.764 19.6059 15.5252 19.8727 15.4756 20.1859C15.4042 20.6402 15.0724 20.7317 14.7964 20.8806C14.3947 21.0961 14.4382 21.6963 14.4382 21.6963C14.6739 21.0946 15.5004 21.6932 15.6865 20.4991C15.7795 21.2621 15.2073 21.4745 14.7933 21.6652ZM14.2955 20.6542C14.2955 20.6542 14.066 20.6883 13.959 20.555C13.5512 20.051 14.7219 19.7734 14.8599 19.8385C14.8599 19.8385 14.7436 19.7703 14.5126 19.716C14.4599 19.7036 14.159 19.716 13.7931 19.8851C13.8954 19.7564 13.9823 19.6943 14.1451 19.6571C13.8194 19.6416 13.4783 19.7408 13.3434 20.1688C13.2193 20.5596 13.7621 21.2311 14.2955 20.6526V20.6542ZM16.8402 10.8554C16.3424 11.026 16.0664 12.4154 16.7673 13.1737C16.8836 13.2993 16.9813 13.5381 16.9813 13.5381C16.9983 13.4389 17.0386 13.2947 17.1177 13.2109C17.8807 12.417 17.5023 11.4478 17.1441 11.0989C17.0836 11.04 16.972 12.4775 16.9642 12.5054C16.958 12.4759 16.9254 10.826 16.8402 10.8539V10.8554ZM17.0898 14.6624C17.0697 14.9105 17.0247 15.2873 16.9813 15.7246C16.9518 15.6439 16.9146 15.0097 16.8464 14.6624C16.116 15.416 16.6804 16.0983 16.9487 16.5247C17.1767 16.1154 17.9318 15.6253 17.0914 14.6624H17.0898ZM9.63259 22.8484C10.149 23.0128 10.1443 22.4344 10.1474 22.3863C10.2032 22.0638 10.8545 22.0576 10.8545 22.0576C10.1211 22.5832 10.3071 23.4625 10.5056 23.4206C10.4172 23.8781 10.8716 23.7214 10.8716 23.7214C10.6111 23.6238 10.7336 23.4423 10.7336 23.4423C11.143 23.447 11.0422 22.8624 10.929 22.7817C10.8809 21.98 11.7477 21.659 12.1462 21.9397C12.0935 22.2204 12.2936 22.2902 12.2936 22.2902C12.3385 22.439 12.1556 22.5011 12.1556 22.5011C12.3819 22.6639 12.5866 22.284 12.5866 22.284C13.2255 21.8513 12.4145 21.4264 11.8997 21.3861C12.1168 21.1365 12.3556 20.8558 12.4564 20.724C12.6192 20.51 13.0146 20.4169 13.2162 20.4945C13.2767 20.5177 13.1154 20.3472 12.7991 20.2743C12.7588 20.265 12.3401 20.3394 12.0206 20.5844C12.1214 20.3177 12.5308 20.2278 12.4951 20.2278C12.2858 20.2278 12.0641 20.2991 11.8795 20.5208C11.4531 21.0899 10.8127 21.29 10.2482 21.169C9.38603 20.9845 9.15653 21.1783 9.16584 21.3551C8.70063 21.4559 8.96735 21.8622 8.96735 21.8622C8.89137 21.6141 9.23407 21.6296 9.23407 21.6296C9.33641 21.9738 9.73029 21.8482 9.86675 21.6141C9.89466 21.4637 10.5677 21.735 10.5677 21.735C9.92412 21.7428 9.1984 22.2436 9.41085 22.6406C9.23872 22.7941 9.25733 23.1089 9.49148 23.1989C9.35192 22.9011 9.63259 22.8515 9.63259 22.8515V22.8484ZM15.2817 12.3565C15.291 12.7333 15.4523 12.9582 15.6896 13.1722C15.7097 12.6279 16.0307 12.8047 16.2369 11.2137C16.2431 11.1625 15.9299 11.3532 15.6647 11.8835C15.7655 11.3486 16.1361 11.1423 16.0664 11.1702C15.7438 11.3005 15.2678 11.8138 15.2817 12.3565ZM15.1391 11.9642C15.2755 11.5967 15.3624 11.4307 15.7128 11.0834C15.9749 10.8229 16.0741 10.1018 15.6554 9.73896C15.5159 9.89713 15.3422 10.4042 15.3422 10.4042C15.3422 10.4042 15.322 10.0584 15.4818 9.62886C14.4955 11.0167 15.1391 11.9626 15.1391 11.9626V11.9642ZM16.1113 9.85991C16.0943 9.39626 16.2276 9.3916 16.3796 8.89849C16.561 8.30768 16.1144 7.24391 16.1144 7.24391C16.1144 7.24391 16.2711 7.73238 16.0059 8.29837C16.0338 7.76959 16.054 7.71687 16.0555 7.71222C15.1747 9.22258 16.1129 9.86146 16.1129 9.86146L16.1113 9.85991ZM14.9421 12.4899C15.0693 12.2309 14.7514 11.6835 14.7498 11.5439C14.7498 11.5439 14.5917 11.6509 14.4583 12.02C14.4692 11.7874 14.5188 11.6354 14.6428 11.3951C14.6428 11.3951 13.7946 11.989 14.5529 13.4249C14.5529 13.4249 14.5948 13.2001 14.9421 12.4883V12.4899ZM13.5326 18.9485C12.506 18.767 12.0439 19.6339 11.7958 19.5827C11.7958 19.5827 13.0394 20.6868 13.8396 19.0306C13.7838 19.0105 13.2085 19.0942 12.7014 19.3113C12.9262 18.9609 13.5791 18.9562 13.531 18.9485H13.5326ZM14.6118 16.2177C15.2181 15.537 14.9282 14.8314 14.7095 14.4809C14.4319 14.5926 14.4723 15.0593 14.4599 15.0283C14.2815 14.5585 14.511 14.2902 14.5405 14.2576C13.6876 15.1043 14.511 15.799 14.6118 16.2177ZM14.5405 14.2576C14.5405 14.2576 14.542 14.2561 14.5436 14.2545C14.5436 14.2545 14.5436 14.2545 14.5405 14.2576ZM13.3651 18.7019C13.6101 18.6693 13.7946 18.8321 14.2226 18.812C14.908 18.781 14.9902 17.6428 14.9902 17.6428C14.9902 17.6428 14.8367 17.8366 14.2024 18.1716C14.3932 17.8785 14.4444 17.8847 14.5684 17.6862C14.1978 17.7978 13.5062 18.2724 13.3666 18.7019H13.3651ZM16.9472 1.44592C16.9472 1.44592 16.9472 1.44592 16.9456 1.44592C16.9441 1.44592 16.9456 1.44592 16.9441 1.44592C16.7487 1.44592 16.5936 1.59788 16.5936 1.78086C16.5936 2.02742 16.8991 2.58101 16.9472 2.83067C16.9952 2.57946 17.3007 2.02587 17.3007 1.78086C17.3007 1.59788 17.1441 1.44592 16.9503 1.44592H16.9472ZM17.2294 3.22455L17.3565 3.23385C17.493 1.96229 17.7225 1.48313 17.7225 1.48313C17.5612 1.5312 17.1301 2.82292 17.0821 3.21369L17.2309 3.22455H17.2294ZM17.9334 3.31914L18.0063 3.13306L18.3598 2.11116C18.3986 2.00106 18.3598 1.8739 18.2621 1.81188C18.2249 1.78862 18.183 1.77156 18.1427 1.7576C18.0156 1.73124 17.9194 1.71418 17.8341 1.77466C17.6481 1.9716 17.538 2.84928 17.4945 3.25091C17.6357 3.27882 17.9349 3.31914 17.9349 3.31914H17.9334ZM13.5744 11.3563C14.9266 11.2726 15.4864 8.53563 15.4864 8.53563C15.4864 8.53563 14.6335 10.8384 13.4411 10.4848C13.0441 10.367 12.9728 9.87076 12.9728 9.87076C12.7634 10.0289 12.7293 10.4926 12.8223 10.7872C12.9309 11.0818 13.2503 11.3765 13.5744 11.3563ZM16.989 8.83956C17.3519 8.37281 17.6341 7.39743 17.1317 7.23306C17.0635 7.3323 17.0278 7.53389 16.9766 7.97738C16.9239 7.58816 16.8262 7.35401 16.7704 7.2253C16.1703 7.48582 16.7347 8.58215 16.9875 8.83956H16.989ZM14.3854 13.6653C14.1683 13.2916 13.8954 12.6915 14.0753 11.5967C14.0753 11.5967 13.6256 11.6866 13.6411 12.3736C13.4721 12.0138 13.5062 11.5517 13.5062 11.5517C12.9976 12.2852 13.7977 13.4358 14.3854 13.6653ZM20.5788 9.373C19.6655 9.64281 19.3197 8.72636 19.1088 8.23014C19.129 8.41623 19.1553 8.64728 19.3011 8.96207C18.9103 8.49376 18.8095 7.80061 18.8095 7.80061C18.8948 10.7004 20.7215 9.96691 20.5788 9.37455V9.373ZM18.7103 6.00182C17.417 6.17704 17.4604 7.03302 17.2325 7.08574C17.2325 7.08574 17.6031 7.24236 17.8047 7.07489C18.1644 6.77871 18.2063 6.52905 18.5382 6.3073C18.366 6.28714 18.1753 6.36468 17.8636 6.55076C18.0714 6.18635 18.7537 5.99561 18.7103 6.00182ZM18.8064 6.37243C17.9427 6.85159 17.9148 8.26271 18.6483 8.52787C18.3443 7.3385 19.1755 7.38502 19.1755 6.24217C19.1073 6.25768 19.0437 6.84694 18.487 7.10125C18.8529 6.69497 18.8622 6.34297 18.808 6.37243H18.8064ZM19.6128 8.37281C19.6128 8.37281 19.1739 7.23926 20.3788 6.16774L19.9756 6.35072C19.9756 6.35072 19.5058 6.66396 19.2856 7.14157C19.4236 6.65155 19.5275 6.55541 19.5275 6.55541C19.2484 6.75545 18.5459 7.85643 19.6128 8.37281ZM21.3263 7.32765C21.3263 7.32765 21.8706 6.55541 20.5928 6.16774L20.1679 6.6376C20.1679 6.6376 21.2937 6.56161 21.3278 7.32765H21.3263ZM21.883 5.09157C21.883 5.09157 22.39 4.89153 22.6444 5.27455C22.8025 5.53351 22.7514 5.99871 22.3978 6.21271C22.3978 6.21271 21.7589 5.7289 21.2224 6.20806C21.2224 6.20806 20.9603 6.05764 20.7339 5.99871C20.7339 5.99871 20.8611 5.80023 21.1293 5.67772C21.4907 5.51955 21.6876 5.54747 21.883 5.09157ZM21.8178 5.72734C21.8178 5.80333 21.8799 5.86536 21.9559 5.86536C22.0318 5.86536 22.0939 5.80333 22.0939 5.72734C22.0939 5.65136 22.0318 5.58933 21.9559 5.58933C21.8799 5.58933 21.8178 5.65136 21.8178 5.72734ZM21.6953 5.09467C21.7636 4.94425 21.6953 4.81554 21.5775 4.79228C21.5527 4.78763 21.5883 4.96596 21.424 5.11328C21.4813 4.90238 21.4348 4.80314 21.4069 4.81089C21.4069 4.81089 21.3418 5.11173 21.1464 5.47458C21.2984 5.4048 21.6007 5.31021 21.6938 5.09467H21.6953ZM17.2046 5.90722C17.9008 5.81573 18.38 5.47303 18.38 5.47303C17.5643 5.35983 17.4945 4.46819 17.4945 4.46819C18.5335 5.1722 21.1433 4.73801 21.1433 4.73801C21.1076 5.97545 19.3709 6.43446 19.3709 6.43446C19.3119 6.14293 19.3709 5.9677 19.3709 5.9677C19.1677 6.15999 18.749 6.20961 18.749 6.20961C18.9444 5.90412 18.9553 5.72579 18.9553 5.72579C18.8669 5.82039 18.5335 5.99716 18.0512 6.06229C17.5814 6.12587 17.203 5.90567 17.203 5.90567L17.2046 5.90722ZM19.6515 5.21097C19.8593 5.25904 20.3493 5.1722 20.3804 5.53506C20.6641 5.35983 20.675 5.13809 20.675 5.13809C20.4238 5.166 20.1385 5.20166 19.6624 5.1722C19.6624 5.1722 19.6546 5.18771 19.6515 5.21097ZM19.6981 4.44958C19.7012 4.51626 19.9772 4.56123 20.3152 4.54728C20.6533 4.53332 20.9262 4.46819 20.9231 4.40151C20.92 4.33483 20.644 4.28986 20.3059 4.30382C19.9679 4.31778 19.695 4.3829 19.6981 4.44958ZM19.8531 2.68956L20.1369 2.68491L20.1431 2.96403L20.3726 2.95938L20.3664 2.68026L20.6409 2.67561L20.6378 2.47402L20.3633 2.47867L20.3571 2.16543L20.1276 2.17008L20.1338 2.48332L19.85 2.48797L19.8531 2.68956ZM20.368 4.18287L20.7076 4.20303C20.7556 4.1348 21.1169 3.59051 21.1433 3.47576C21.2084 3.18888 20.72 3.39047 20.6052 3.50522L20.3664 4.18287H20.368ZM20.0191 3.35946C20.0222 3.49126 20.2144 3.89599 20.2703 4.04486C20.3292 3.89289 20.4936 3.48971 20.5153 3.35946C20.5587 3.09274 20.0128 3.05242 20.0191 3.35946ZM17.2433 3.88359C17.3085 4.0402 17.5504 4.33328 17.8016 4.45269C18.0559 4.56744 18.38 4.6 18.5816 4.6031C18.5319 4.44493 18.3614 4.28211 18.2621 4.20303C18.4761 4.20303 18.8731 4.57829 18.8731 4.57829C18.3986 3.56725 17.2433 3.88359 17.2433 3.88359ZM19.8407 4.21853L20.1803 4.18752L19.8981 3.46645C19.7802 3.35635 19.3042 3.22455 19.3802 3.50832C19.4096 3.62152 19.7911 4.1534 19.8407 4.22008V4.21853ZM25.4278 15.4455C25.3844 15.4051 25.2448 15.2935 25.189 15.2749C24.9781 15.2036 24.913 15.1943 24.7021 15.126C24.7781 15.1508 26.1551 17.5249 26.1551 17.5249C25.679 16.8566 24.3904 15.0516 24.3904 15.0516C24.3501 15.309 24.3424 15.7044 24.3765 15.8114C24.4664 16.0983 24.7486 16.4922 25.1844 17.3559C25.6201 18.2103 26.7397 18.6166 26.7397 18.6166C26.7397 18.6166 27.0622 16.9465 25.4263 15.447L25.4278 15.4455ZM29.0084 3.76884C27.9818 6.51509 26.3691 7.90605 26.183 8.11074C26.335 8.03941 26.9025 7.83627 26.9025 7.83627C28.2842 6.99735 29.4224 5.64361 29.9837 4.56589C30.5559 3.47576 30.3947 2.24452 30.2458 1.57152C29.6054 2.11736 28.6672 3.19198 28.2656 3.77194C27.9182 4.28056 27.3321 4.99697 26.9785 5.625C26.7133 6.09796 26.9289 6.18169 26.7924 7.01286C27.377 6.33676 27.8655 5.07296 29.0068 3.76884H29.0084ZM24.6478 10.7004C24.6478 10.7004 25.2511 10.826 26.2916 10.7159C27.1661 10.6228 27.4608 9.78082 27.4608 9.78082C26.7133 9.61955 25.5379 9.77772 25.1285 10.0119C25.9349 9.90798 26.1458 9.91728 26.6777 9.98551C26.0264 9.99482 25.1285 10.0119 24.6478 10.7004ZM26.732 10.9919C26.2823 10.8322 25.8279 10.9237 25.3999 11.1005C25.3999 11.1005 26.2171 11.0524 26.7723 11.2803C25.3007 11.0043 25.1084 11.6944 25.1084 11.6944C25.3363 11.8665 25.7798 11.9704 26.3458 11.9657C26.9118 11.9487 27.4096 11.5269 27.4096 11.5269C27.2917 11.3687 27.1754 11.1718 26.732 10.9935V10.9919ZM24.5641 12.0386C24.5641 12.0386 25.3627 11.9673 26.4296 12.6093C25.4868 12.248 24.7207 12.2526 24.7207 12.2526C24.9797 12.7984 25.5069 13.0093 26.0016 13.1148C26.597 13.2342 27.1801 12.7395 27.1801 12.7395C25.7038 11.7797 24.9254 11.975 24.5641 12.0386ZM26.4978 13.6761C25.5271 13.107 25.0898 13.0373 24.7998 13.0404C24.7998 13.0404 25.2433 13.197 25.6093 13.4683C24.4276 12.9721 23.9888 12.9783 23.9888 12.9783C23.9888 12.9783 23.9888 12.9799 23.9888 12.9814C25.386 14.65 26.4962 13.6761 26.4962 13.6761H26.4978ZM23.9113 13.7769C23.8942 14.8717 24.9425 14.8035 25.3596 15.1322C25.3596 15.1322 25.5178 13.8452 23.9547 13.5397C24.5486 13.8777 24.8401 14.0855 24.9952 14.5026C24.7564 14.1243 24.2617 13.8126 23.9113 13.7785V13.7769ZM22.6785 13.8901C22.6102 13.9677 22.5715 14.0654 22.6288 14.2545C22.8335 14.943 23.4368 14.9291 24.0648 15.4827C24.0648 15.4827 24.4137 14.8485 23.5562 14.2313C23.4554 14.1584 23.3654 14.0731 23.2507 14.0281L23.2429 14.025C23.2429 14.025 23.536 14.1925 23.6538 14.5926C23.2305 14.0374 23.0181 13.9816 22.6785 13.8901ZM21.4938 14.2034C21.334 14.6779 21.6953 15.2191 21.9667 15.43C22.2892 15.6812 22.4288 15.8688 22.4288 15.8688C22.466 15.7137 22.6552 15.2346 22.5854 14.9275C22.435 14.2638 22.1342 14.2096 21.9434 14.0964C21.9434 14.0964 22.2412 14.4453 22.2365 14.9942C21.9078 14.3352 21.4953 14.2034 21.4953 14.2034H21.4938ZM28.0717 7.42844C27.743 7.7851 27.6453 8.09989 27.5057 8.38366C27.9105 7.91536 28.6982 7.29974 30.3202 6.11502C29.4255 6.82368 27.1972 9.0303 27.1972 9.0303C29.1185 8.42708 30.9669 7.1152 31.5747 6.23132C32.181 5.35673 32.0647 4.20148 32.0647 4.20148C31.46 4.32863 28.6129 6.84073 28.0702 7.42844H28.0717ZM30.8149 11.302C32.1826 11.0074 33.3797 10.1638 33.3797 10.1638C32.8913 10.0305 31.9376 9.95915 30.6304 10.0475C28.8424 10.1638 27.7694 10.5221 26.9025 10.7857L27.0467 10.8647C27.0995 10.8942 27.1584 10.9051 27.2173 10.8958C27.9616 10.7733 29.4162 10.3468 30.7622 10.443C29.5387 10.5825 27.9616 10.8849 27.3739 11.1873C27.3739 11.1873 27.3755 11.1888 27.377 11.1904C27.5306 11.3439 27.6872 11.4121 27.9043 11.4214C28.6703 11.4525 29.6488 11.5517 30.8164 11.3005L30.8149 11.302ZM27.2716 11.8091C27.2716 11.8091 27.2685 11.8122 27.2669 11.8122C28.0702 11.8138 28.8688 11.8867 30.5203 12.2433C30.5203 12.2433 28.1679 12.0231 26.977 12.0138C26.9273 12.0138 26.8808 12.0185 26.8327 12.0293L26.5009 12.1006C27.0731 12.4744 28.4377 12.8791 30.145 12.9985C31.8616 13.1272 32.7734 12.7101 32.7734 12.7101C31.3995 11.2137 27.4484 11.7083 27.2731 11.8091H27.2716ZM29.2937 13.1505C27.7151 12.7767 27.3135 12.9613 27.3135 12.9613C29.4844 13.1706 30.1202 13.8436 30.1202 13.8436C29.3278 13.4342 27.7601 13.0186 27.0281 13.2016C26.8079 13.2575 26.6265 13.3334 26.4389 13.4001C26.763 13.487 27.3135 13.6529 29.0456 14.4329C30.7777 15.2113 31.8259 14.8236 31.8259 14.8236C31.1871 13.656 29.886 13.2916 29.2937 13.152V13.1505ZM28.5912 14.4949C27.163 13.8591 26.7226 13.8793 26.656 13.8607C26.656 13.8607 28.157 14.2576 28.951 15.1974C27.6422 14.284 26.3365 13.8079 26.1303 14.0498C27.0762 14.5848 27.484 15.1772 28.3881 15.8797C29.2921 16.5697 30.3574 16.4425 30.3574 16.4425C29.9186 15.2439 29.1169 14.7306 28.5912 14.4964V14.4949ZM26.4668 14.5647C26.2295 14.3801 25.9473 14.2638 25.6496 14.2173C25.648 14.2173 25.6449 14.2173 25.6434 14.2173C25.6279 14.2173 26.9925 15.0857 27.7011 16.5216C27.7011 16.5216 26.366 14.8267 25.5441 14.5042C25.5441 14.5042 25.5829 14.7725 25.6093 14.8903C25.6759 15.1865 26.2342 15.8812 26.8172 16.7542C27.4763 17.7172 28.5478 17.7916 28.5478 17.7916C28.4672 17.0272 28.2811 16.4162 27.7244 15.7494C27.2809 15.216 26.8839 14.8872 26.4668 14.5647ZM22.9933 15.1384C22.9964 15.1958 23.429 17.5451 23.812 18.094C24.1857 18.6337 24.7331 18.9097 24.7331 18.9097C25.2154 17.8893 24.5563 16.6689 23.9314 15.7463C23.8632 15.6455 23.767 15.5695 23.6554 15.523C23.6554 15.523 23.6539 15.523 23.6523 15.523C24.1423 16.348 24.2633 16.9961 24.3827 17.7281C23.8151 15.937 23.2848 15.3416 23.2848 15.3416C23.215 15.2749 23.0227 15.1617 22.9917 15.1384H22.9933ZM22.0179 15.8471C22.1357 17.6226 22.8351 18.4972 22.8351 18.4972C23.4972 17.635 22.9529 16.258 22.7157 15.6843C22.7157 15.6843 22.6413 15.9572 22.6676 16.0549C22.832 16.6565 22.8956 17.3714 22.8956 17.3714C22.8196 16.8969 22.221 15.9355 22.0179 15.8471ZM20.4176 14.1553L20.109 14.1925C20.5633 14.6236 20.5711 16.32 21.5558 17.221C21.5558 17.221 21.9155 16.8054 21.6845 15.7339C21.5604 15.1586 20.996 14.4794 20.9696 14.4623C20.9696 14.4623 21.5124 15.5385 21.5015 16.4503C21.5015 16.4503 21.1728 14.6763 20.4176 14.1537V14.1553ZM22.2768 10.4445C22.8149 11.0524 22.9809 11.8556 22.7048 12.1704C22.4645 12.4635 21.7434 12.6496 21.0239 12.4697C20.8812 12.434 20.7494 12.5302 20.7029 12.6697C20.5494 13.1272 20.4284 13.5707 19.6376 14.0312C19.6376 14.0312 20.4129 14.1227 20.8642 13.6777C20.8642 13.6777 20.8394 13.963 21.1557 14.3011C21.1557 14.3011 21.5155 14.1196 21.6519 13.5924C21.6519 13.5924 21.8349 13.9754 22.2629 14.1119C22.2629 14.1119 22.618 13.9289 22.5451 13.2218C22.5451 13.2218 22.7994 13.8467 23.5996 13.9553C23.5996 13.9553 24.0601 13.3738 23.46 12.5922C23.46 12.5922 23.8942 12.9721 24.6711 12.7938C24.6711 12.7938 24.8045 12.3922 24.0896 11.8386C24.0896 11.8386 24.8928 11.806 25.1983 11.1377C25.1983 11.1377 24.8572 10.7159 24.0276 10.8074C24.0276 10.8074 24.8029 10.6446 24.9719 9.7157C24.9719 9.7157 24.423 9.373 23.5329 9.93279C23.5329 9.93279 24.9766 9.01789 24.7161 7.05008C24.4959 7.82387 23.2646 8.79924 22.6552 9.23964C22.3668 9.44898 21.8597 9.97001 22.2784 10.443L22.2768 10.4445ZM27.6313 9.51256C28.0981 9.30787 29.731 8.67054 31.5174 8.3635C31.5174 8.3635 29.1153 9.21328 28.2702 9.63816C27.6686 9.94055 27.667 9.9607 27.4608 10.353C28.4548 10.0972 30.0535 9.91884 31.3313 9.38385C33.0711 8.66434 33.2743 7.5494 33.2743 7.5494C30.6955 7.65949 27.4111 9.17916 26.9816 9.52806C27.0049 9.52806 27.543 9.55132 27.6298 9.51256H27.6313ZM24.4214 9.22103C25.2852 8.78994 25.9907 8.05647 26.3257 7.4548C26.7226 6.7539 26.5024 5.62655 26.5024 5.62655C26.3024 5.87156 25.3674 6.75235 25.1239 7.27803C25.0278 7.48582 24.9719 7.92776 24.8835 8.2379C24.8835 8.2379 25.3767 7.69361 25.6992 7.08264C25.3177 8.22549 24.4214 9.22258 24.4214 9.22258V9.22103ZM26.6963 9.21793C27.1754 8.85972 27.391 7.89365 27.391 7.89365C26.2047 8.23635 25.0091 9.03495 24.7176 9.43347C25.2448 9.08922 26.1722 8.69535 26.1629 8.70155C25.4511 9.08922 24.9115 9.4955 24.9115 9.4955C25.5395 9.56528 26.2419 9.55753 26.6947 9.21793H26.6963ZM18.8855 14.1739C18.9367 13.6684 18.8809 13.3179 18.6048 13.0016C18.4606 13.183 18.1086 13.5583 18.2792 14.0731C18.3753 14.3646 18.6498 14.5538 18.6777 14.7601C18.8824 14.543 19.115 14.3429 19.2251 14.0002C19.4143 13.4156 18.794 12.7302 18.794 12.7302C18.9568 13.0264 19.1925 13.6451 18.8855 14.1739ZM22.0923 19.5377C21.8427 19.592 21.3821 18.8027 20.3478 19.0012C20.2997 19.0105 20.9572 18.995 21.1821 19.3129C20.6719 19.1268 20.0935 19.0663 20.0377 19.0849C20.8347 20.5953 22.0923 19.5362 22.0923 19.5362V19.5377ZM18.625 15.9045C18.625 15.9045 18.8809 16.2921 18.8297 16.641C18.6839 16.2518 18.5009 16.0812 18.4653 16.1572C18.3195 16.4736 18.3149 17.1838 19.1181 17.5994C19.1057 17.3621 19.0979 17.4769 19.1801 17.0117C19.2251 16.7558 19.2111 16.1805 18.625 15.9029V15.9045ZM19.6019 21.7087C19.6019 21.7087 19.6283 21.2295 19.3011 21.0078C18.9987 20.8031 18.5661 20.6883 18.4187 20.3673C18.2482 19.9967 18.3164 19.7424 17.9287 19.5284C18.1071 20.0293 17.7411 20.5534 17.9024 21.1458C18.1582 22.0808 19.2685 21.8591 19.529 22.5166C19.529 22.5166 19.481 21.8513 19.0933 21.6497C18.7351 21.4652 18.3443 21.4326 18.2714 20.7767C18.7599 21.8048 19.3895 21.2233 19.6019 21.7071V21.7087ZM18.656 18.1359C18.5599 17.7947 18.2327 17.4536 18.2327 17.4536C18.2327 17.4536 17.7054 18.5391 18.9429 18.7624C18.7211 18.4522 19.1119 18.1126 18.4001 17.2241C18.4001 17.2241 18.7165 17.711 18.656 18.1359ZM19.9322 19.5362C19.4298 18.4832 18.7444 19.4478 18.0698 18.4507C18.0621 18.6042 18.1551 18.8337 18.4901 19.0523C17.9241 18.905 17.8434 18.4073 17.7582 18.2708C17.7318 18.4181 17.7411 18.5949 17.7721 18.7143C18.1629 20.2138 19.5166 19.2694 19.9338 19.5362H19.9322ZM18.2404 9.80874C18.5986 10.3282 18.6389 10.6849 18.6389 10.6849C18.6389 10.6849 18.2497 10.0537 18.1024 9.91108C17.8217 10.2011 17.9753 10.6306 18.1551 10.9004C18.3846 11.2462 18.7196 11.5083 18.794 11.8541C18.794 11.8541 19.1026 11.516 18.8514 10.7733C18.732 10.4213 18.5521 9.98862 18.2404 9.80874ZM19.4794 15.3385C19.4686 15.3695 19.405 14.6189 19.2018 14.4391C18.9832 14.7895 18.6932 15.4951 19.2995 16.1758C19.4003 15.7571 20.2253 15.0609 19.3678 14.2127C19.3678 14.2127 19.6655 14.8035 19.481 15.3385H19.4794ZM19.9338 18.3716C19.3259 18.0242 18.9429 17.6955 18.9429 17.6955C18.9429 17.6955 18.9785 18.798 19.6484 18.8554C20.0671 18.8911 20.2532 18.7407 20.492 18.781C20.3726 18.3623 19.7136 17.8754 19.3554 17.7544C19.4686 17.9498 19.695 17.9235 19.9353 18.3716H19.9338ZM17.6295 11.1237C17.8512 12.8279 18.1629 12.5457 18.1846 13.1287C18.4405 12.8992 18.6157 12.6589 18.6265 12.2557C18.642 11.6742 18.014 10.9516 17.7008 10.8105C17.8248 10.9904 18.0187 11.1191 18.1288 11.6618C17.9954 11.4478 17.8357 11.1563 17.631 11.1237H17.6295ZM17.4697 14.8516C17.4697 14.8516 17.9427 14.4716 18.028 14.0297C18.0667 13.8498 18.0435 13.3722 17.8326 13.0217C18.0032 13.7428 17.7752 14.132 17.7752 14.132C17.7039 13.6017 17.6403 13.2776 17.4992 12.983C16.806 13.8421 17.3038 14.3972 17.4682 14.8516H17.4697ZM19.7973 19.6757C19.9586 19.7067 20.0454 19.7641 20.1493 19.8882C19.7849 19.7331 19.4887 19.7315 19.4375 19.7455C19.2127 19.806 19.0995 19.8758 19.0995 19.8758C19.2344 19.8075 20.3928 20.0448 20.0066 20.5519C19.9043 20.6852 19.6795 20.6589 19.6795 20.6589C20.2206 21.2093 20.7339 20.5348 20.6006 20.1549C20.4548 19.7393 20.1152 19.6509 19.7973 19.6757ZM24.468 22.6995C24.6944 22.3103 23.9841 21.7862 23.3422 21.7567C23.3422 21.7567 24.0229 21.5086 24.0462 21.659C24.1733 21.8978 24.5641 22.0374 24.6773 21.6963C24.6773 21.6963 25.02 21.6932 24.9363 21.9382C24.9363 21.9382 25.2154 21.5396 24.7548 21.4249C24.7719 21.2497 24.5486 21.0481 23.6802 21.2031C23.1111 21.3055 22.4769 21.0853 22.0706 20.5022C21.8938 20.2743 21.6752 20.1952 21.4658 20.189C21.4302 20.189 21.8365 20.2913 21.9279 20.5612C21.6163 20.3068 21.2007 20.2185 21.1604 20.2262C20.8425 20.2898 20.675 20.4542 20.737 20.4325C20.9417 20.3627 21.3325 20.4697 21.4891 20.6868C21.5852 20.8217 21.8147 21.1101 22.0225 21.3675C21.5062 21.3908 20.6812 21.7893 21.3061 22.2421C21.3061 22.2421 21.4984 22.6282 21.7295 22.4731C21.7295 22.4731 21.548 22.4065 21.5992 22.2576C21.5992 22.2576 21.8008 22.194 21.7574 21.9118C22.1652 21.6451 23.0212 21.994 22.9467 22.7941C22.832 22.8701 22.711 23.4516 23.1204 23.4594C23.1204 23.4594 23.2367 23.6439 22.9731 23.7339C22.9731 23.7339 23.4228 23.9044 23.3499 23.4439C23.5469 23.4935 23.7608 22.6205 23.046 22.07C23.046 22.07 23.6988 22.0979 23.7422 22.4204C23.7453 22.4685 23.7205 23.0485 24.2416 22.8996C24.2416 22.8996 24.5207 22.9585 24.3703 23.2516C24.606 23.1694 24.6354 22.8562 24.468 22.6964V22.6995ZM18.1365 14.3414C18.2017 14.5507 18.5521 15.1167 18.3288 15.6408C18.3025 15.3245 18.1024 14.7337 17.9629 14.5833C17.3317 15.5633 18.0838 15.9339 18.1319 16.2425C19.0359 15.109 18.1722 14.4236 18.1381 14.3429L18.1365 14.3414ZM17.6636 19.2725C17.6605 19.1904 17.507 19.5625 17.5256 19.4741C17.6093 19.0616 17.5535 18.8477 17.5147 18.7562C17.3767 19.7796 16.9161 19.8385 16.9673 20.8806C16.9921 21.4016 17.3782 21.7629 18.0869 21.8234C17.0355 20.9721 17.7178 20.5441 17.662 19.2741L17.6636 19.2725ZM18.0016 8.76513C17.9706 7.8983 17.7783 7.38347 17.7783 7.38347C17.7783 7.38347 17.3596 8.30303 17.5085 8.90469C17.6341 9.40711 17.7318 9.47999 17.8171 9.88627C17.8171 9.88627 18.642 9.37455 18.0605 8.0146C18.0745 8.28287 18.0838 8.41623 18.0016 8.76513ZM17.676 15.968C17.9411 16.4813 17.8745 16.8473 17.8915 17.0163C17.7907 16.6534 17.617 16.4596 17.4403 16.0564C16.851 16.8907 17.8264 17.987 17.8264 17.987C17.8 17.5807 18.6824 17.2225 17.6744 15.9665L17.676 15.968ZM20.8254 10.0088C20.8254 10.0088 20.6827 10.5298 20.2842 10.5515C19.9617 10.5686 19.16 10.4972 18.7289 8.95741C18.7289 8.95741 18.6855 9.30787 18.9212 9.86456C18.5707 9.21638 18.4017 8.63642 18.4017 8.63642C18.4017 8.63642 18.7568 11.3129 20.2548 11.3222C20.6424 11.3253 21.2984 10.8446 20.8239 10.0088H20.8254ZM20.4098 11.4571C20.4098 11.4571 20.5339 11.8898 20.3695 12.2387C20.3897 11.8091 19.8144 11.4773 19.8144 11.4773C20.1726 12.5829 19.7864 13.1179 19.5104 13.7056C20.233 13.4916 20.8704 12.2619 20.4098 11.4571ZM19.1445 11.5191C19.1507 11.6509 18.9398 12.0991 18.9723 12.3968C19.0049 12.6977 19.4469 13.3009 19.4469 13.3009C20.1571 11.8929 19.2484 11.3718 19.2484 11.3718C19.3972 11.4928 19.5554 11.8262 19.5197 12.2542C19.4065 11.9192 19.146 11.5191 19.146 11.5191H19.1445ZM17.3906 10.9562C17.8047 10.5515 17.5953 9.31872 17.3286 9.1497C17.3131 9.29701 17.3131 9.37144 17.2511 9.58544C17.2077 9.11093 17.1953 9.21017 17.2015 8.83956C17.0309 9.30942 16.8014 10.5515 17.3906 10.9562ZM16.2726 9.89868C16.1501 10.7717 16.2866 10.9609 16.2866 10.9609C16.8278 10.536 17.0293 9.32803 16.7285 8.8132C16.7006 9.16676 16.7192 9.41176 16.5378 9.68158C16.7719 8.9202 16.3641 9.25049 16.2742 9.89868H16.2726ZM15.9051 3.54864C15.9051 3.65564 16.3781 3.76418 16.9627 3.76418C17.5473 3.76418 18.0202 3.65564 18.0202 3.54864C18.0202 3.44164 17.5473 3.33464 16.9627 3.33464C16.3781 3.33464 15.9051 3.44164 15.9051 3.54864ZM17.1332 4.04486C17.1332 3.95026 17.0573 3.87428 16.9627 3.87428C16.8681 3.87428 16.7921 3.95026 16.7921 4.04486C16.7921 4.13945 16.8681 4.21543 16.9627 4.21543C17.0573 4.21543 17.1332 4.13945 17.1332 4.04486ZM8.30831 25.7482C7.92374 25.5016 7.90358 25.3062 8.13308 24.948C8.20131 24.841 8.27575 24.7387 8.34553 24.6534L7.76712 24.2828L7.9439 24.0052L9.46047 24.9759C9.36743 25.1605 9.29454 25.2783 9.12862 25.5373C8.87741 25.9281 8.68978 25.9901 8.30676 25.7451L8.30831 25.7482ZM8.90687 25.3884L9.07435 25.1217L8.55177 24.7868L8.38119 25.0519C8.26024 25.2442 8.27575 25.3373 8.48354 25.4722C8.69288 25.6055 8.78282 25.5807 8.90532 25.3884H8.90687ZM7.29262 27.2167C6.63203 26.9407 6.50487 26.6786 6.71731 26.17C6.92821 25.6644 7.20578 25.5699 7.86482 25.8459C8.52541 26.1219 8.65256 26.384 8.44167 26.8895C8.22923 27.3981 7.95165 27.4911 7.29262 27.2151V27.2167ZM8.18271 26.784C8.29901 26.5049 8.19356 26.3592 7.73146 26.1653C7.26936 25.9715 7.09103 25.9994 6.97473 26.2785C6.85687 26.5607 6.96232 26.7065 7.42442 26.9003C7.88653 27.0942 8.06485 27.0663 8.18271 26.784ZM7.52832 28.9023L7.76247 28.9876C7.83846 28.8449 7.88032 28.7301 7.93305 28.496C8.054 27.9688 7.85706 27.7269 7.18872 27.5733C6.51883 27.4198 6.2366 27.5547 6.1172 28.0804C6.06137 28.3223 6.04742 28.4681 6.05982 28.6356L6.30483 28.6619C6.31879 28.5068 6.34515 28.3688 6.39632 28.144C6.463 27.854 6.63047 27.7982 7.11119 27.9083C7.5919 28.0184 7.71905 28.1409 7.65237 28.4309C7.6043 28.6418 7.57484 28.7457 7.52677 28.9007L7.52832 28.9023ZM6.15131 30.3118C6.14201 30.1568 6.14666 30.0157 6.16372 29.7862C6.18543 29.49 6.3436 29.4093 6.83516 29.4466C7.32673 29.4838 7.47094 29.5861 7.44923 29.8823C7.43373 30.0978 7.41977 30.2048 7.39496 30.3646L7.63997 30.4142C7.69424 30.2607 7.7175 30.1428 7.73611 29.9025C7.77643 29.3628 7.54538 29.1535 6.86153 29.1008C6.17613 29.0496 5.91716 29.2248 5.87684 29.7629C5.85824 30.0095 5.86599 30.1568 5.90321 30.3196L6.14976 30.3087L6.15131 30.3118ZM7.77178 31.7571L6.52813 31.2004C6.4537 31.1678 6.38082 31.1415 6.30328 31.1228V31.1042C6.38082 31.112 6.4599 31.1089 6.53743 31.1011L7.69579 30.9848L7.66478 30.6731L5.87374 30.853L5.90631 31.1833L7.15616 31.7416C7.22284 31.771 7.30657 31.7974 7.38411 31.8176V31.8331C7.30967 31.8269 7.23369 31.8269 7.15771 31.8346L5.98384 31.9525L6.01485 32.2672L7.80589 32.0874L7.77178 31.7555V31.7571ZM8.18271 33.4582L6.85687 33.1496C6.77779 33.1294 6.70026 33.117 6.61962 33.1139L6.61497 33.0984C6.69405 33.0891 6.77004 33.0705 6.84447 33.0488L7.95941 32.7154L7.86947 32.4161L6.14356 32.9309L6.23815 33.2488L7.57174 33.5621C7.64152 33.5791 7.72991 33.5915 7.81054 33.5946L7.8152 33.6101C7.73921 33.6194 7.66478 33.6334 7.5919 33.6551L6.46145 33.9932L6.55139 34.2955L8.2773 33.7792L8.18116 33.4597L8.18271 33.4582ZM8.69133 33.3527L8.62775 33.1372C8.48819 33.1821 8.3998 33.1403 8.36414 33.0224C8.32692 32.8999 8.37809 32.8162 8.5192 32.7774L8.45563 32.5619C8.24939 32.6022 8.12843 32.8069 8.20752 33.069C8.28505 33.3295 8.49749 33.4318 8.69288 33.3512L8.69133 33.3527ZM7.73611 34.7421C8.17805 34.5219 8.35328 34.5359 8.48664 34.8026C8.58278 34.9964 8.6262 35.0941 8.68668 35.2446L8.92238 35.1624C8.88982 35.0042 8.8495 34.8895 8.7425 34.6739C8.5006 34.1901 8.19511 34.1265 7.58104 34.4335C6.96697 34.7406 6.83361 35.0228 7.07397 35.5066C7.18407 35.7284 7.26625 35.8509 7.38256 35.9718L7.5888 35.8369C7.50196 35.7082 7.43373 35.5842 7.33138 35.3795C7.19802 35.1127 7.29262 34.9639 7.73456 34.7437L7.73611 34.7421ZM8.80763 36.4727L8.81693 36.4665C9.04023 36.7099 9.30695 36.603 9.84659 36.4324L9.65275 36.1641C9.18445 36.3176 8.92083 36.4122 8.75491 36.1812L8.66652 36.0587C8.727 36.0276 8.78902 35.992 8.8464 35.9517L9.27594 35.6415L9.0852 35.3764L7.62446 36.4293L7.8152 36.6944L8.33002 36.3238C8.37654 36.2897 8.41996 36.2494 8.46338 36.206L8.55177 36.3285C8.727 36.5719 8.57193 36.7549 8.21372 37.248L8.41376 37.5256C8.79988 36.9844 8.98131 36.7813 8.80918 36.4758L8.80763 36.4727ZM10.7878 37.3752L9.47752 37.752C9.39999 37.7753 9.32711 37.8032 9.25578 37.8388L9.24337 37.8264C9.3085 37.7815 9.36743 37.7287 9.4217 37.6714L10.2312 36.8356L10.0063 36.6169L8.75336 37.9117L8.99216 38.1428L10.3071 37.7629C10.3769 37.7427 10.4576 37.7086 10.5304 37.6745L10.5413 37.6853C10.4793 37.7303 10.4203 37.7799 10.3676 37.8342L9.54731 38.6824L9.7737 38.9026L11.0267 37.6078L10.7863 37.3752H10.7878ZM12.0548 37.9598C11.9478 37.89 11.9323 37.7923 12.0144 37.6714L11.8268 37.5489C11.695 37.7117 11.7353 37.9474 11.9648 38.0978C12.1928 38.2467 12.4207 38.1862 12.5184 38.0001L12.3308 37.8776C12.2532 38.0017 12.1587 38.0265 12.0563 37.9598H12.0548ZM10.9863 39.0298C10.9135 39.0654 10.8452 39.1058 10.7832 39.1554L10.7692 39.1476C10.8235 39.0887 10.87 39.0267 10.9135 38.9615L11.5492 37.9862L11.2872 37.8156L10.3025 39.3244L10.5801 39.5058L11.8004 38.884C11.8656 38.8514 11.94 38.8034 12.0036 38.7537L12.016 38.7631C11.9633 38.8189 11.9152 38.8778 11.8749 38.9414L11.2298 39.9292L11.495 40.1013L12.4796 38.5925L12.2005 38.4095L10.9879 39.0298H10.9863ZM14.9297 40.4331C14.7731 40.9418 14.5079 41.0658 13.928 40.92L13.8582 41.1496L13.5434 41.0534L13.6132 40.8239C13.0441 40.6208 12.8952 40.3742 13.0518 39.8625C13.2116 39.3384 13.4736 39.2096 14.0598 39.357L14.1296 39.1275L14.4413 39.2221L14.3746 39.4531C14.939 39.6547 15.0879 39.9075 14.9313 40.4331H14.9297ZM13.9931 39.6144C13.6147 39.5213 13.4752 39.6051 13.3666 39.9586C13.2627 40.3013 13.3341 40.4424 13.7 40.5758L13.9916 39.6144H13.9931ZM14.2815 39.7012L13.99 40.6626C14.3653 40.7541 14.5048 40.6766 14.6103 40.3354C14.7157 39.9803 14.6444 39.8361 14.2815 39.7012ZM15.902 40.6735L15.8183 40.6642C15.795 40.6611 15.7779 40.6471 15.7748 40.6254L15.5624 39.6113L15.2305 39.5741L15.4957 40.7433C15.519 40.8487 15.5701 40.9045 15.6865 40.9169L15.7795 40.9278L15.7485 40.9898C15.6399 41.193 15.6136 41.1899 15.2786 41.1356L15.2166 41.3682C15.3096 41.4054 15.4833 41.4442 15.5888 41.4488C15.8307 41.455 15.9563 41.2798 16.0803 41.0224L16.6866 39.7369L16.3517 39.6997L15.9004 40.675L15.902 40.6735ZM18.2296 39.6485L16.7967 39.7353L16.8138 40.0145L17.3627 39.9803L17.4558 41.4985L17.7845 41.4783L17.6915 39.9602L18.2466 39.9261L18.2296 39.6469V39.6485ZM19.895 40.5991C20.0004 41.0736 19.7927 41.1697 19.36 41.2659C19.177 41.3062 18.9847 41.3449 18.7739 41.3728H18.7661L18.3738 39.6175C18.5645 39.5648 18.7552 39.5136 18.9429 39.4717C19.1336 39.4298 19.3212 39.3957 19.5104 39.3647L19.543 39.6283L18.7537 39.8036L18.8591 40.275L19.1646 40.2067C19.6236 40.1044 19.8082 40.2005 19.8965 40.5991H19.895ZM19.5709 40.658C19.5228 40.444 19.4639 40.3851 19.2158 40.4409L18.9103 40.5091L19.0328 41.0674L19.3414 40.9991C19.5864 40.9449 19.6221 40.8797 19.5725 40.658H19.5709ZM21.4627 39.5756C21.7326 40.2377 21.638 40.5138 21.1278 40.7216C20.6207 40.9294 20.3587 40.7991 20.0873 40.137C19.8159 39.4748 19.9121 39.1988 20.4207 38.991C20.9309 38.7832 21.1929 38.9119 21.4627 39.5741V39.5756ZM21.1433 39.7059C20.9541 39.2422 20.8083 39.1352 20.5261 39.25C20.2455 39.3647 20.2175 39.543 20.4067 40.0067C20.5959 40.4703 20.7417 40.5773 21.0223 40.4626C21.3046 40.3463 21.334 40.1695 21.1448 39.7043L21.1433 39.7059ZM21.8287 38.3118C21.6209 38.4421 21.5728 38.6204 21.6814 38.8344C21.9434 39.3321 22.0318 39.5322 22.0737 39.7508C22.1001 39.8811 22.052 39.971 21.9636 40.061L22.1202 40.261C22.3482 40.1432 22.4319 39.9478 22.3807 39.6593C22.3389 39.4143 22.221 39.1771 21.9791 38.7088C21.9279 38.608 21.9465 38.5351 22.0396 38.4762L22.2768 38.3273L23.0987 39.6392L23.3778 39.4655L22.4211 37.9396L21.8287 38.3118ZM24.4711 37.8249C24.7641 38.1521 24.7238 38.3521 24.4199 38.625C24.1842 38.8359 24.0648 38.9398 23.8973 39.0654L23.8911 39.0701L22.6893 37.7287L22.9328 37.5117L23.3933 38.0249L23.6244 37.8171C23.9748 37.5039 24.1857 37.5039 24.4726 37.8249H24.4711ZM24.2229 38.0404C24.0694 37.8699 23.981 37.8373 23.7919 38.0063L23.5608 38.2141L23.9671 38.6669L24.1981 38.4591C24.3827 38.2932 24.3811 38.2172 24.2229 38.0404ZM24.4369 35.8943L24.9936 36.3316L24.5548 36.8898L23.9981 36.4525L23.7965 36.7084L25.2123 37.8233L25.4139 37.5675L24.7657 37.0573L25.2045 36.4991L25.8527 37.0092L26.0559 36.7503L24.6401 35.6353L24.4369 35.8943ZM26.7707 35.5655C26.6327 35.8462 26.5598 35.9889 26.4528 36.1688L26.4497 36.175L24.8324 35.3826L24.9766 35.0895L25.5953 35.3934L25.7302 35.1174C25.9365 34.6956 26.1318 34.6165 26.5195 34.8057C26.9134 34.9995 26.9506 35.1996 26.7723 35.5655H26.7707ZM26.3691 35.0988C26.1628 34.998 26.0683 35.0011 25.9566 35.2275L25.8217 35.5035L26.3675 35.7718L26.504 35.4958C26.6125 35.2725 26.5831 35.2027 26.3706 35.0988H26.3691ZM25.5116 33.9947L27.1289 34.7871L27.2731 34.494L25.6558 33.7016L25.5116 33.9947ZM26.0202 32.306L26.9909 33.2612C27.0483 33.3202 27.1072 33.3698 27.1739 33.4147L27.1708 33.4303C27.0979 33.3977 27.0235 33.3729 26.949 33.3527L25.8233 33.0565L25.7442 33.3589L27.4856 33.8179L27.5693 33.4969L26.5939 32.5355C26.5428 32.4843 26.473 32.4285 26.4079 32.3835L26.4125 32.368C26.4823 32.4006 26.5536 32.427 26.6265 32.4456L27.7678 32.7464L27.8484 32.4409L26.107 31.9819L26.0217 32.3045L26.0202 32.306ZM25.3798 32.7123L25.3224 32.9294C25.5193 33.0023 25.7287 32.8906 25.7984 32.6255C25.8682 32.3634 25.7395 32.1649 25.5317 32.1308L25.4743 32.3479C25.617 32.382 25.6697 32.4642 25.6387 32.5836C25.6062 32.7076 25.5193 32.7511 25.3782 32.7123H25.3798ZM27.712 29.7738C27.7337 29.9273 27.7383 30.0684 27.7399 30.2979C27.7399 30.5956 27.5895 30.6871 27.0964 30.6887C26.6032 30.6902 26.4513 30.5987 26.4497 30.3025C26.4497 30.0854 26.4544 29.9784 26.4668 29.8172L26.2187 29.7862C26.1768 29.9428 26.1629 30.0637 26.1629 30.3025C26.1644 30.8422 26.411 31.0345 27.0964 31.0329C27.7818 31.0298 28.0268 30.836 28.0252 30.2963C28.0252 30.0482 28.0051 29.9025 27.9554 29.7427L27.7104 29.7722L27.712 29.7738ZM26.8234 27.9982C27.5275 27.8757 27.7771 28.0292 27.8717 28.572C27.9647 29.1116 27.7818 29.3396 27.0778 29.4621C26.3722 29.5846 26.1241 29.4311 26.031 28.8899C25.938 28.3471 26.121 28.1192 26.825 27.9982H26.8234ZM26.8808 28.3378C26.3861 28.4231 26.2512 28.5425 26.3024 28.8433C26.3536 29.1411 26.5211 29.2078 27.0157 29.1225C27.5104 29.0372 27.6453 28.9178 27.5941 28.62C27.543 28.3192 27.3739 28.2525 26.8808 28.3378ZM26.5521 26.8848L26.6901 27.2213L27.436 26.9143L27.56 27.2167L25.893 27.9021L25.769 27.5997L26.4544 27.3175L26.3148 26.9794C25.7581 27.1779 25.5131 27.0694 25.3332 26.629C25.1239 26.1188 25.2526 25.8567 25.9147 25.5854C26.5769 25.314 26.8529 25.4086 27.0622 25.9188C27.2499 26.3747 27.1351 26.6259 26.5505 26.8848H26.5521ZM26.8064 26.0242C26.6916 25.7435 26.5133 25.7156 26.0481 25.9033C25.586 26.0971 25.479 26.2413 25.5938 26.522C25.7054 26.7918 25.8806 26.8166 26.3443 26.6259C26.8079 26.4351 26.9165 26.294 26.8048 26.0242H26.8064ZM24.9192 24.8581C25.0867 24.7464 25.1689 24.7759 25.2836 24.948L25.4666 25.2179L25.6682 25.0829L25.4899 24.81C25.3565 24.61 25.3674 24.5092 25.5627 24.3789C25.7457 24.2564 25.8264 24.2905 25.9551 24.4813C26.0698 24.6534 26.1629 24.8255 26.2373 24.979L26.4451 24.8721C26.383 24.6844 26.29 24.5123 26.138 24.2859C25.9101 23.9447 25.7333 23.8595 25.4263 24.0657C25.1875 24.2254 25.0975 24.3944 25.2262 24.6301L25.2185 24.6363C25.0805 24.4673 24.9223 24.4704 24.7083 24.6146C24.3997 24.8209 24.4044 25.0054 24.6525 25.376C24.775 25.559 24.8696 25.6769 24.9905 25.7963L25.1782 25.6396C25.0882 25.528 24.989 25.4117 24.8804 25.252C24.7548 25.0628 24.7533 24.9728 24.9223 24.8596L24.9192 24.8581ZM22.9979 30.9647C22.9312 30.8205 22.711 30.3661 22.3993 29.9428C22.1233 29.566 21.8039 29.2496 21.6612 29.1147L19.4825 29.8234C19.4127 30.1149 19.2515 30.7677 19.1429 31.1027C19.0344 31.4361 18.7552 32.1354 18.6296 32.444L19.9787 34.2986C20.1757 34.2707 20.6254 34.1978 21.0859 34.0521C21.5852 33.8939 22.0163 33.6582 22.1497 33.5822C22.2226 33.4706 22.5281 32.9852 22.7281 32.3386C22.9328 31.678 22.9855 31.1321 22.9979 30.9631V30.9647ZM18.946 37.0201C18.9351 37.0154 18.9258 37.0108 18.915 37.0061C18.7087 36.9162 18.5009 36.8076 18.3877 36.7456C18.1675 36.7999 17.6217 36.9162 16.941 36.9162C16.2602 36.9162 15.6849 36.789 15.4942 36.7441C15.3887 36.7983 15.1577 36.9131 14.9623 36.9922C14.9235 37.0077 14.8863 37.0232 14.8491 37.0371C15.5236 37.2511 16.2276 37.3597 16.9425 37.3597C17.265 37.3597 17.8714 37.2992 18.946 37.0201ZM11.3244 34.387C11.3414 34.1529 11.3833 33.8862 11.4019 33.7668C11.3011 33.6024 11.0034 33.0845 10.7956 32.4487C10.5863 31.8067 10.5242 31.2035 10.5087 31.0096C10.4296 30.9228 10.2094 30.6793 10.0637 30.4855C10.0559 30.4747 10.0482 30.4638 10.0389 30.453V30.4561C10.0389 31.8827 10.4932 33.2985 11.3197 34.4599C11.3197 34.4351 11.3228 34.4103 11.3244 34.387ZM22.5606 34.4754C23.3949 33.3171 23.8384 31.9463 23.8461 30.4979C23.8368 30.5088 23.8291 30.5196 23.8198 30.5289C23.6864 30.6887 23.474 30.9104 23.3778 31.0096C23.3639 31.1926 23.3065 31.7633 23.0941 32.4518C22.8878 33.117 22.5854 33.6132 22.4831 33.7714C22.5017 33.9001 22.5405 34.1792 22.5529 34.3467C22.556 34.3855 22.5575 34.4289 22.5606 34.4739V34.4754ZM19.1305 23.906C19.1445 23.9261 19.1569 23.9463 19.1693 23.9649C19.2809 24.1386 19.4143 24.3882 19.4732 24.503C19.6391 24.5697 20.1478 24.7899 20.7277 25.207C21.2984 25.6179 21.6953 26.063 21.8178 26.2087C21.945 26.2304 22.2241 26.2785 22.418 26.3297C22.4412 26.3359 22.4676 26.3421 22.4939 26.3498C21.6426 25.1977 20.4858 24.3557 19.1305 23.906ZM13.1681 25.2054C13.745 24.7992 14.218 24.5821 14.4087 24.503C14.4692 24.3882 14.6087 24.1308 14.7405 23.9354C14.7467 23.9246 14.7545 23.9153 14.7607 23.9044C13.4225 24.3526 12.2331 25.2179 11.3895 26.3545C11.4174 26.3467 11.4469 26.339 11.4764 26.3312C11.709 26.2692 11.9416 26.2273 12.0687 26.2072C12.199 26.0552 12.6161 25.5931 13.1681 25.2039V25.2054ZM11.574 26.7019C11.3476 26.7623 11.1492 26.829 11.0437 26.8678C10.501 27.7579 10.1645 28.7751 10.0683 29.8141C10.1211 29.8978 10.2389 30.0839 10.3692 30.256C10.4343 30.3429 10.5304 30.4592 10.6467 30.591C10.7708 30.3522 10.96 30.0172 11.2034 29.6838C11.4841 29.3008 11.8175 28.9705 11.9648 28.8309C11.9276 28.6325 11.8516 28.1672 11.8516 27.6292C11.8516 27.2167 11.8919 26.8631 11.9292 26.6228C11.7989 26.6476 11.6795 26.6755 11.574 26.7034V26.7019ZM14.2784 36.8262C14.3978 36.789 14.6118 36.7193 14.8196 36.6355C14.9266 36.5921 15.0476 36.5363 15.1437 36.4897C14.9499 36.2944 14.6878 36.009 14.4645 35.6974C14.1606 35.2709 13.9497 34.8584 13.8628 34.6801C13.6489 34.6506 13.1557 34.57 12.6921 34.418C12.3184 34.2955 11.9803 34.1405 11.7493 34.0226C11.7338 34.1374 11.7152 34.2831 11.7043 34.4149C11.6903 34.6041 11.6903 34.8336 11.6919 34.9391C12.3928 35.7594 13.286 36.4107 14.2784 36.8262ZM19.5678 36.8433C20.5726 36.4293 21.4782 35.7733 22.1869 34.9453C22.1869 34.7964 22.1823 34.5405 22.1698 34.3777C22.1636 34.3017 22.1512 34.1823 22.1311 34.0304C21.9031 34.1482 21.5713 34.3033 21.2007 34.4196C20.6998 34.5778 20.2237 34.6537 20.0191 34.6817C19.926 34.8755 19.7027 35.3174 19.4189 35.702C19.1848 36.0199 18.9243 36.3037 18.732 36.496C18.8514 36.5564 18.9646 36.6107 19.0669 36.6572C19.2344 36.7317 19.4453 36.8045 19.5647 36.8433H19.5678ZM22.7079 29.7164C22.9405 30.0327 23.1235 30.3615 23.2445 30.5972C23.336 30.501 23.4476 30.3801 23.5251 30.2855C23.612 30.1816 23.7562 29.9831 23.8229 29.8885C23.736 28.817 23.3933 27.7703 22.8351 26.8554C22.7405 26.8244 22.4893 26.7422 22.3218 26.6988C22.2117 26.6708 22.0691 26.6414 21.9512 26.6197C21.99 26.8724 22.0334 27.2244 22.0334 27.5718C22.0334 28.1238 21.9559 28.6185 21.9186 28.8278C22.0675 28.9689 22.4071 29.3039 22.7095 29.7148L22.7079 29.7164ZM16.9425 25.2163C17.127 25.1171 17.5659 24.8938 18.0916 24.7232C18.4575 24.6053 18.7987 24.5371 19.039 24.4999C18.9816 24.3944 18.9103 24.2673 18.8483 24.1711C18.763 24.0378 18.6141 23.8331 18.5444 23.7385C18.0202 23.6144 17.4821 23.5509 16.9425 23.5509C16.4029 23.5509 15.8803 23.6129 15.3624 23.7339C15.3096 23.8005 15.1918 23.9525 15.0584 24.1494C14.984 24.258 14.9065 24.3929 14.846 24.4999C15.0925 24.5387 15.443 24.6084 15.8214 24.7294C16.3067 24.8845 16.7533 25.1124 16.9441 25.2163H16.9425ZM15.5639 32.6704L14.2149 34.525C14.297 34.6941 14.4955 35.0786 14.7778 35.4741C15.0724 35.8865 15.4445 36.2525 15.5655 36.3657C15.7066 36.3998 16.3036 36.5332 16.9425 36.5332C17.6139 36.5332 18.1505 36.4107 18.3164 36.3688C18.4358 36.2556 18.8033 35.8927 19.1119 35.4741C19.3709 35.1236 19.5802 34.7096 19.6686 34.525L18.3195 32.6704C18.0264 32.6921 17.3612 32.7387 16.972 32.7387C16.5517 32.7387 15.8632 32.6921 15.5608 32.6704H15.5639ZM12.813 34.0552C13.2379 34.1947 13.7016 34.2707 13.9063 34.3002L15.2554 32.4456C15.1375 32.1556 14.8739 31.4981 14.7576 31.1337C14.6382 30.7553 14.463 30.0637 14.404 29.8234L12.2238 29.1132C12.0827 29.2465 11.771 29.5567 11.5136 29.9087C11.1833 30.3599 10.9584 30.8189 10.8886 30.9647C10.9026 31.1461 10.9615 31.723 11.16 32.3293C11.3585 32.9387 11.6454 33.4318 11.7384 33.5838C11.8749 33.6598 12.3091 33.8893 12.813 34.0536V34.0552ZM14.5219 29.459C14.8041 29.2202 15.2988 28.8061 15.5748 28.6092C15.8927 28.3812 16.4882 28.0044 16.7518 27.8401V25.5497C16.5703 25.452 16.1501 25.238 15.7035 25.0953C15.1902 24.931 14.7204 24.8674 14.5715 24.8488C14.4257 24.9093 13.9574 25.1155 13.3883 25.5171C12.8627 25.8877 12.4657 26.3312 12.3447 26.4724C12.3168 26.6135 12.2346 27.0647 12.2346 27.6261C12.2346 28.1254 12.3044 28.5596 12.3401 28.7472L14.5219 29.4574V29.459ZM21.5434 28.7519C21.579 28.5503 21.6504 28.082 21.6504 27.5733C21.6504 27.1128 21.5666 26.6259 21.5372 26.4708C21.424 26.3359 21.0472 25.9095 20.5029 25.5187C19.9431 25.1155 19.4593 24.9108 19.3104 24.8519C19.1662 24.8674 18.7134 24.9263 18.2094 25.0907C17.7271 25.2473 17.3116 25.4567 17.1348 25.5513V27.8416C17.3937 27.9998 17.9753 28.3595 18.29 28.5906C18.6048 28.8232 19.1321 29.2651 19.3647 29.4621L21.5434 28.755V28.7519ZM19.1088 29.7443C18.9196 29.583 18.38 29.1287 18.0636 28.8961C17.7582 28.6728 17.158 28.3006 16.9441 28.1703C16.727 28.3053 16.1113 28.6929 15.7981 28.9193C15.5143 29.1225 14.9716 29.5799 14.7793 29.7427C14.8506 30.0281 15.0135 30.6654 15.1236 31.0174C15.2337 31.3663 15.4895 32.0036 15.6058 32.289C15.9051 32.3107 16.5781 32.3556 16.9766 32.3556C17.3441 32.3556 17.9923 32.3107 18.2823 32.289C18.3846 32.0346 18.6762 31.3105 18.7816 30.9833C18.884 30.6685 19.0406 30.0312 19.1104 29.7427L19.1088 29.7443Z" fill="#2B2D4D"/>
</g>
<defs>
<clipPath id="clip0_1368_20725">
<rect width="32.8744" height="41" fill="white" transform="translate(0.505371 0.5)"/>
</clipPath>
</defs>
</svg>
