<svg width="42" height="42" viewBox="0 0 42 42" fill="none" xmlns="http://www.w3.org/2000/svg">
<g clip-path="url(#clip0_1368_20728)">
<path fill-rule="evenodd" clip-rule="evenodd" d="M0.379883 20.1983C0.379883 10.9056 0.379883 6.25906 3.25942 3.37953C6.13895 0.5 10.7855 0.5 20.0782 0.5H21.7144C30.9746 0.5 35.6211 0.5 38.5004 3.37953C41.3796 6.25906 41.3799 10.9056 41.3799 20.1983V21.8345C41.3799 31.0947 41.3799 35.7413 38.5004 38.6205C35.6208 41.4997 30.9743 41.5 21.7144 41.5H20.0782C10.7851 41.5 6.13895 41.5 3.25942 38.6205C0.379883 35.7409 0.379883 31.0947 0.379883 21.8345V20.1983Z" fill="#0077FF"/>
<path fill-rule="evenodd" clip-rule="evenodd" d="M22.2051 30.0474C12.8469 30.0474 7.51319 23.6339 7.31689 12.9668H11.9962C12.1269 20.7871 15.5957 24.1248 18.3114 24.812V12.9668H22.7288V19.7401C25.4448 19.4455 28.2588 16.3697 29.2403 12.9668H33.625C32.905 17.1552 29.8292 20.231 27.6368 21.4743C29.8292 22.5213 33.3303 25.2046 34.672 30.0474H29.7964C28.7821 26.808 26.1644 24.2883 22.7285 23.9613V30.0474H22.2048H22.2051Z" fill="white"/>
</g>
<defs>
<clipPath id="clip0_1368_20728">
<rect width="41" height="41" fill="white" transform="translate(0.379883 0.5)"/>
</clipPath>
</defs>
</svg>
