<svg width="369" height="672" viewBox="0 0 369 672" fill="none" xmlns="http://www.w3.org/2000/svg">
<path d="M108.158 151.721C109.533 150.778 111.344 150.384 112.957 150.631C112.098 150.262 111.332 150.347 110.464 150.081C109.499 149.785 108.644 149.162 107.764 148.692C106.298 147.907 104.698 147.412 103.088 146.999C100.137 146.248 97.5442 145.689 94.5265 146.04C91.5088 146.392 88.4147 146.951 85.5864 148.191C84.722 148.569 83.8882 149.009 83.0543 149.449C81.3531 150.344 79.6518 151.239 77.9505 152.137C76.6982 152.797 75.4368 153.462 74.3494 154.37C72.8436 155.625 71.744 157.29 70.6628 158.924C69.1234 161.26 68.372 163.56 67.1686 166.016C65.7972 168.814 64.4258 171.615 63.0574 174.412C61.6036 177.381 59.9695 180.542 57.0373 182.076C53.6897 183.826 49.5114 182.989 46.0141 184.415C43.0422 185.628 41.7716 188.038 40.4094 190.735C38.8517 193.82 37.6146 197.063 36.8999 200.451C36.1547 203.975 37.0649 207.146 33.9219 209.751C32.184 211.193 30.0276 212.005 27.969 212.937C24.9696 214.293 22.0435 216 19.936 218.526C17.8285 221.055 16.6526 224.531 17.5139 227.708C18.0148 225.109 20.0521 222.983 22.4498 221.862C23.641 221.306 25.0246 220.967 26.2616 221.407C26.7869 221.593 27.2543 221.914 27.6697 222.283C29.5053 223.92 30.1376 226.675 29.4687 229.006C28.6287 231.926 25.3209 232.32 22.633 232.628C19.9818 232.931 17.236 232.974 14.7894 234.036C11.3075 235.551 8.95254 238.978 7.82243 242.601C6.6801 246.269 7.04357 251.006 3.10345 253.019C2.18714 253.49 1.17615 253.74 0.174316 253.988C0.904308 254.443 1.8084 254.522 2.66667 254.482C5.5958 254.351 8.40887 252.894 10.3148 250.683C11.1883 249.669 11.7778 248.484 12.633 247.485C13.6899 246.248 14.7803 245.032 15.8432 243.798C16.2219 243.358 16.6037 242.915 17.0863 242.592C18.5432 241.611 20.5622 241.987 22.0619 242.9C23.1156 243.542 24.0502 244.47 24.4229 245.646C25.1773 248.022 23.3538 248.923 21.7381 250.081C18.1828 252.628 14.8749 255.264 11.5579 258.126C10.5744 258.975 9.58785 259.827 8.72041 260.796C5.90429 263.948 4.52678 268.184 4.18163 272.396C3.83344 276.608 4.44126 280.838 5.17736 284.998C5.83099 281.523 8.43636 278.713 11.3411 276.697C14.2457 274.681 17.5292 273.261 20.4736 271.303C25.1284 268.206 28.8731 263.758 31.1302 258.642C32.6941 255.093 34.7619 250.704 39.4106 250.942C43.0422 251.129 45.2566 255.05 46.0416 258.603C46.8266 262.152 47.019 266.101 49.4289 268.823C51.0905 270.698 53.5798 271.66 56.0569 272.03C59.3433 272.518 63.5523 271.358 64.1234 268.086C64.3739 266.645 63.8149 265.142 64.1448 263.716C64.9023 260.435 69.383 259.916 72.6787 260.615C75.9743 261.315 79.89 262.335 82.3305 260.017C84.5724 257.885 84.0898 254.269 83.6225 251.211C83.0177 247.243 83.2071 242.937 85.058 239.281C85.3421 238.719 85.6689 238.172 85.8582 237.57C86.2156 236.459 86.0873 235.255 85.959 234.091C85.5039 230.017 84.5815 226.291 80.5284 224.452C78.3018 223.441 75.7544 222.769 74.2303 220.857C72.5015 218.688 72.639 215.597 73.146 212.87C73.3232 211.923 73.5583 210.936 74.212 210.228C75.2566 209.098 77.025 209.043 78.5339 209.336C81.5149 209.913 84.2791 211.559 86.2064 213.908C87.7703 215.814 88.8026 218.163 90.6261 219.825C91.634 220.744 92.8375 221.41 94.0317 222.069C95.9285 223.117 97.7641 223.881 99.9511 223.954C101.267 223.997 102.404 223.798 103.693 224.165C106.176 224.873 108.332 226.446 110.876 226.981C112.547 227.332 114.178 227.378 115.605 226.394C116.316 225.903 117.187 225.686 117.902 225.2C118.262 224.956 118.577 224.641 118.827 224.284C119.377 223.49 119.584 222.506 119.646 221.541C119.725 220.273 119.786 219.11 119.954 217.873C120.104 216.773 119.872 215.64 119.401 214.647C118.796 213.365 117.483 212.433 117.083 211.107C114.6 202.888 118.241 193.985 116.976 185.494C116.811 184.394 116.567 183.31 116.252 182.244C115.938 181.175 115.55 180.124 115.067 179.119C113.659 176.19 111.503 173.969 108.909 172.073C106.741 170.487 106.109 167.522 104.374 165.436C103.983 164.968 103.558 164.489 103.424 163.896C103.222 162.992 104.242 160.674 104.465 159.733C104.93 157.751 105.55 155.805 106.326 153.924C106.701 153.01 107.355 152.268 108.158 151.718V151.721Z" fill="#3D2620"/>
<path d="M51.1728 554.745C51.8539 554.73 52.5686 554.754 53.152 555.108C53.6499 555.411 53.9828 555.912 54.3004 556.397C56.353 559.534 58.4238 562.705 59.7128 566.223C61.0017 569.742 61.4538 573.694 60.2198 577.234C60.8551 578.517 59.838 580.035 58.6529 580.838C57.4648 581.642 56.02 582.143 55.1465 583.276C53.4788 585.441 54.6059 588.914 52.871 591.025C51.7714 592.363 49.8869 592.692 48.1673 592.882C45.006 593.23 41.8264 593.404 38.6438 593.407C35.0122 593.407 30.8552 592.912 28.7752 589.931C26.5699 586.773 27.8008 582.466 29.105 578.841C31.0904 573.325 33.1001 567.757 36.2247 562.796C39.6701 557.332 44.725 554.892 51.1697 554.742L51.1728 554.745Z" fill="#EDEDED"/>
<path d="M140.204 586.417C142.251 590.736 145.653 594.398 149.807 596.756C152.272 598.155 155.253 599.386 156.179 602.068C157.321 605.382 154.627 608.677 152.144 611.154C152.975 612.327 152.11 614.261 150.681 614.422C151.503 615.461 151.692 616.961 151.157 618.17C146.793 619.184 143.271 622.907 138.803 623.231C137.947 623.292 137.062 623.216 136.292 622.843C135.666 622.538 135.146 622.052 134.667 621.548C130.873 617.538 129.123 611.897 129.026 606.374C128.94 601.664 129.954 596.979 131.417 592.523C132.12 590.382 132.578 589.587 134.603 588.421C135.119 588.124 139.933 585.843 140.208 586.42L140.204 586.417Z" fill="#EDEDED"/>
<path d="M184.902 377.704C184.514 381.995 185.623 386.262 186.533 390.474C187.971 397.132 188.931 403.898 189.404 410.694C189.465 411.567 189.52 412.462 189.853 413.275C190.314 414.399 191.255 415.251 192.205 416.011C198.13 420.773 205.421 423.635 212.883 425.068C220.348 426.5 228.011 426.561 235.601 426.164C239.529 425.96 243.503 425.62 247.217 424.319C250.931 423.018 254.401 420.645 256.297 417.2C257.37 415.254 257.895 413.061 258.408 410.901C259.037 408.266 259.663 405.627 260.293 402.991C261.099 399.606 261.884 395.935 260.497 392.743C260.244 392.16 259.917 391.589 259.874 390.953C259.819 390.126 260.256 389.356 260.662 388.635C264.914 381.128 267.672 372.777 268.735 364.216C262.354 367.478 255.516 369.839 248.484 371.21C243.335 372.212 238.097 372.682 232.864 373.073C226.774 373.528 220.571 373.87 214.624 372.472C209.321 371.225 204.474 368.66 199.569 366.378C197.101 365.23 194.593 364.127 191.994 363.312C190.488 362.838 190.326 363.632 189.633 364.881C188.952 366.106 188.289 367.343 187.684 368.605C186.307 371.47 185.195 374.512 184.905 377.701L184.902 377.704Z" fill="#194BBC"/>
<path d="M116.426 252.685C113.537 250.306 111.203 247.258 109.661 243.852C111.875 233.11 123.378 227.453 130.668 219.258C133.799 215.74 136.255 211.586 139.874 208.571C146.863 202.753 157.29 201.919 163.475 195.254C165.302 193.287 166.643 190.917 168.365 188.858C172.412 184.02 178.301 181.183 184.004 178.483C185.897 177.585 187.87 176.723 189.954 176.39C192.095 176.051 193.604 176.244 195.528 177.307C196.044 177.594 196.566 177.884 197.003 178.278C197.812 179.011 198.274 180.043 198.704 181.048C201.3 187.133 203.555 193.354 205.809 199.573C206.004 200.117 206.203 200.66 206.346 201.222C206.462 201.671 206.542 202.133 206.627 202.588C206.777 203.357 206.948 204.121 207.143 204.878C208.222 209.054 209.837 212.808 212.712 216.057C217.192 221.121 223.493 224.414 227.537 229.833C232.327 236.253 233.31 244.774 237.397 251.665C239.679 255.511 242.861 258.733 245.457 262.371C250.528 269.469 253.24 277.942 255.818 286.277C263.582 311.402 270.772 336.705 277.385 362.16C273.78 361.738 270.586 364.23 267.525 366.182C258.793 371.756 248.243 373.647 237.941 374.713C220.903 376.475 201.658 375.504 189.67 363.271C193.13 361.127 191.331 355.718 192.73 351.897C193.79 348.995 196.67 347.215 198.512 344.737C200.354 342.257 200.491 337.795 197.528 336.915C197.299 332.606 194.822 328.72 191.905 325.541C189.12 322.508 185.861 319.909 182.284 317.865C177.266 315.003 171.701 313.265 166.185 311.552C159.55 309.49 152.916 307.428 146.279 305.364C141.976 304.026 137.486 302.578 134.325 299.368C137.4 300.29 140.308 297.425 141.753 294.557C147.367 283.418 141.85 268.098 130.424 263.094C126.896 261.549 123.048 260.917 119.248 260.294C117.776 260.052 116.285 259.945 114.804 259.784C113.378 259.628 111.728 259.044 110.333 259.445C108.912 259.851 107.495 260.254 106.075 260.66C105.684 260.245 105.745 259.548 106.059 259.072C106.374 258.595 106.881 258.284 107.373 257.991C108.106 257.551 108.854 257.102 109.685 256.894C110.006 256.815 110.339 256.769 110.653 256.674C111.273 256.488 116.844 253.104 116.426 252.682V252.685Z" fill="#DA1C5C"/>
<path d="M145.714 295.844C146.701 293.242 146.716 290.383 146.6 287.603C146.2 277.845 143.659 267.02 135.421 261.773C151.371 264.399 168.286 260.771 183.534 266.146C186.686 267.258 189.743 268.749 193.048 269.231C199.447 270.163 205.717 267.215 211.444 264.21C213.265 263.254 215.357 261.794 215.131 259.748C214.862 257.335 211.792 256.611 209.413 256.125C207.034 255.639 204.169 253.587 205.281 251.428C205.601 250.804 206.203 250.38 206.802 250.019C209.114 248.621 211.756 247.771 214.45 247.561C217.437 247.329 220.549 247.854 223.372 246.843C227.51 245.362 229.987 240.334 228.643 236.15C231.884 242.594 235.125 249.036 238.365 255.481C234.63 256.767 230.733 258.153 228.054 261.055C226.453 262.787 225.403 264.943 224.373 267.066C221.563 272.863 218.753 278.663 215.943 284.46C219.804 287.845 227.382 284.824 230.067 289.201C231.151 290.972 230.876 293.342 232.021 295.074C233.106 296.711 235.177 297.356 237.107 297.722C239.037 298.089 241.096 298.33 242.66 299.525C244.224 300.716 244.938 303.281 243.518 304.638C242.932 305.196 242.116 305.438 241.328 305.636C234.682 307.313 227.583 307.417 221.356 310.279C215.128 313.138 209.935 320.236 212.4 326.632C216.524 324.143 220.644 321.65 224.767 319.161C222.211 323.431 218.149 326.776 213.466 328.458C218.237 329.216 223.152 329.045 227.861 327.964C227.4 330.936 223.885 332.111 221.108 333.257C218.332 334.402 215.418 337.548 217.159 339.998C222.08 340.578 227 341.158 231.921 341.742C233.686 341.95 235.488 342.157 237.223 341.766C239.004 341.366 240.632 340.319 241.737 338.868C242.736 341.965 241.188 345.676 238.286 347.145C235.858 348.373 232.055 349.069 232.299 351.778C237.718 353.043 243.475 354.295 248.753 352.533C251.875 351.491 254.807 349.411 258.09 349.628C259.7 351.204 257.968 353.92 256.05 355.102C254.132 356.284 251.664 357.496 251.551 359.747C258.478 361.143 265.748 360.792 272.51 358.739C265.723 366.94 254.26 369.161 243.75 370.853C235.372 372.203 226.899 373.559 218.436 372.924C210.913 372.359 203.515 370.202 196.869 366.635C195.806 366.064 194.7 365.392 194.193 364.298C193.588 362.988 194.007 361.458 194.431 360.08C195.644 356.149 196.857 352.218 198.072 348.29C199.38 344.057 200.702 339.625 199.923 335.261C199.279 331.638 197.223 328.403 194.777 325.655C188.182 318.254 178.787 313.959 169.328 310.988C162.917 308.975 156.359 307.481 149.911 305.587C148.32 305.12 141.683 303.966 141.179 302.362C140.705 300.862 145.091 297.493 145.717 295.85L145.714 295.844ZM134.059 243.923C128.906 244.775 123.958 246.858 119.746 249.946C123.894 251.611 128.167 252.955 132.523 253.963C131.729 251.818 133.045 249.14 135.226 248.459C136.466 248.071 137.828 248.272 139.083 247.924C141.68 247.206 143.152 243.856 141.924 241.458C160.641 233.938 182.147 234.448 199.972 225.004C194.044 223.886 188.219 226.822 182.519 228.795C176.915 230.734 171.001 231.791 165.07 231.907C165.626 230.676 166.182 229.445 166.738 228.214C162.755 229.934 158.634 231.342 154.432 232.417C150.226 233.495 145.94 234.241 141.637 234.824C138.925 235.194 136.649 235.801 135.162 238.278C134.746 238.972 133.537 244.005 134.056 243.92L134.059 243.923ZM149.523 207.078C146.787 207.765 141.982 209.522 143.43 213.44C143.842 214.558 144.853 215.322 145.815 216.024C147.712 217.408 149.606 218.792 151.502 220.175C153.121 221.357 154.768 222.555 156.655 223.233C159.438 224.235 162.498 224.024 165.427 223.627C169.41 223.086 173.417 222.191 176.906 220.194C180.394 218.196 183.329 214.962 184.218 211.043C182.049 210.783 179.777 211.66 178.341 213.306C177.422 214.36 176.099 215.86 174.984 215.017C174.621 214.742 174.453 214.287 174.306 213.856C173.662 212.002 173.02 210.148 172.376 208.294C170.763 207.436 168.949 208.917 167.654 210.206C166.356 211.492 164.248 212.735 162.88 211.525C161.976 210.728 162.031 209.329 162.156 208.132C162.403 205.802 162.648 203.474 162.895 201.144C158.692 203.578 154.245 205.896 149.526 207.081L149.523 207.078ZM172.465 197.478C170.574 198.34 168.219 199.091 166.524 200.307C166.121 200.597 162.813 204.934 163.683 205.047C173.469 206.324 183.161 202.17 193.03 201.968C195.189 201.922 197.416 202.087 199.355 203.04C200.235 203.474 201.102 204.079 202.083 204.042C201.53 201.968 200.974 199.891 200.421 197.817C200.003 196.254 199.471 194.534 198.075 193.718C197.171 193.19 196.066 193.147 195.091 192.769C194.108 192.39 193.277 191.675 192.278 191.339C190.733 190.82 189.044 191.272 187.486 191.755C182.367 193.343 177.345 195.255 172.468 197.475L172.465 197.478ZM118.885 248.908C119.991 247.225 121.732 245.972 123.677 245.456C124.163 245.328 124.725 245.194 124.945 244.745C125.091 244.445 125.033 244.094 125 243.764C124.792 241.855 125.394 239.87 126.625 238.398C127.01 237.939 127.468 237.494 127.581 236.907C127.694 236.321 127.211 235.591 126.631 235.743C126.087 234.677 127.223 233.556 128.219 232.894C129.716 231.898 131.212 230.902 132.709 229.91C133.641 229.29 134.594 228.648 135.226 227.726C135.858 226.803 136.099 225.52 135.516 224.567C133.61 225.6 131.701 226.629 129.795 227.662C125.357 230.062 120.861 232.503 117.178 235.948C114.783 238.187 111.42 240.615 113.103 243.77C113.76 244.998 114.81 246.079 115.479 247.371C116.243 248.844 117.138 251.574 118.888 248.911L118.885 248.908ZM241.52 317.246C235.714 316.186 240.271 323.202 242.024 325.554C245.955 330.832 251.801 334.265 257.305 337.872C262.809 341.479 268.344 345.667 271.023 351.675C270.436 345.737 269.526 339.833 268.292 333.993C266.441 333.342 264.59 332.695 262.739 332.044C260.326 331.198 257.843 330.312 255.934 328.611C254.615 327.435 253.64 325.933 252.519 324.57C249.917 321.412 245.674 318 241.524 317.243L241.52 317.246ZM203.433 234.387C200.736 235.212 198.017 235.972 195.281 236.669C190.843 237.796 186.325 238.55 181.881 239.635C185.409 238.999 188.946 238.446 192.522 238.12C195.888 237.814 199.294 237.668 202.574 236.849C205.855 236.03 209.068 234.464 211.172 231.819C210.1 233.169 205.116 233.871 203.436 234.384L203.433 234.387ZM203.28 243.987C205.015 243.633 206.728 243.159 208.353 242.463C210.253 241.647 212.009 240.539 213.756 239.433C213.998 239.28 214.273 239.045 214.196 238.773C214.12 238.495 213.756 238.44 213.469 238.437C210.317 238.413 207.031 238.419 204.215 239.833C203.362 240.261 202.574 240.811 201.716 241.232C200.317 241.919 198.772 242.249 197.245 242.57C194.856 243.074 192.385 243.468 190.052 244.146C193.75 245.649 199.465 244.867 203.28 243.984V243.987Z" fill="#A71943"/>
<path d="M51.8571 567.092C50.84 563.097 50.2077 558.83 49.7954 554.738C63.0758 548.189 75.7514 540.419 87.6175 531.561C96.0903 525.236 104.285 518.272 114.004 514.108C120.513 511.32 127.504 509.875 134.441 508.449C141.133 507.071 147.825 505.697 154.517 504.319C155.699 504.075 156.903 503.824 157.959 503.244C160.415 501.897 161.506 499.185 162.645 496.787C163.25 495.514 163.903 494.322 164.682 493.146C165.562 491.815 165.8 490.813 166.176 489.209C166.967 485.822 167.798 482.441 168.702 479.081C170.458 472.539 172.489 466.063 175 459.768C176.997 454.765 179.291 449.888 181.322 444.9C185.351 435.004 188.326 424.677 190.183 414.152C190.116 414.536 194.318 416.601 194.795 416.858C196.429 417.737 198.097 418.556 199.792 419.31C203.182 420.822 206.686 422.081 210.262 423.082C217.416 425.089 224.856 426.067 232.284 425.972C237.981 425.899 244.334 425.108 249.758 423.278C250.109 423.159 250.476 423.024 250.714 422.74C251.035 422.365 251.053 421.824 251.059 421.329C251.059 418.715 251.099 416.1 251.12 413.486C251.139 410.987 250.763 408.623 252.064 406.442C254.514 402.34 257.66 398.657 261.331 395.599C261.997 406.699 262.51 417.866 261.227 428.91C259.679 442.224 255.552 455.086 251.45 467.844C250.757 470 250.064 472.154 249.37 474.31C247.11 481.335 244.85 488.363 242.4 495.327C239.621 503.229 235.051 510.33 230.207 517.108C228.307 519.765 225.949 522.413 223.326 524.38C220.626 526.405 217.562 527.969 215.183 530.4C213.876 531.735 212.819 533.299 211.469 534.585C209.566 536.396 207.037 537.667 205.54 539.878C203.918 542.276 202.513 544.869 200.888 547.294C197.245 552.734 193.259 557.942 188.958 562.874C177.584 575.926 163.802 587.383 156.249 602.96C155.907 603.662 155.427 604.478 154.645 604.499C154.254 604.508 153.894 604.304 153.561 604.102C149.426 601.598 145.69 598.43 142.547 594.759C141.078 593.042 139.697 591.124 139.316 588.898C138.839 586.103 140.003 583.317 141.142 580.721C144.093 573.995 147.04 567.27 149.991 560.544C152.529 554.756 155.104 548.913 158.298 543.479C156.386 544.169 154.459 544.808 152.486 545.297C149.08 546.14 145.55 546.063 142.245 547.3C138.552 548.684 135.082 550.59 131.625 552.49C128.152 554.399 124.163 555.742 120.4 557.068C117.055 558.247 113.677 559.337 110.302 560.428C105.806 561.879 101.31 563.333 96.8173 564.783C92.6725 566.121 88.4239 566.643 84.3249 568.094C83.1521 568.51 81.9945 568.965 80.8552 569.463C78.6255 570.44 76.3805 571.338 74.1356 572.239C69.9389 573.922 65.8613 575.883 61.6555 577.544C61.0232 577.795 60.3329 578.048 59.6793 577.862C59.2914 577.752 58.9646 577.496 58.6561 577.236C57.2236 576.026 56.5181 575.101 55.2108 573.614L51.8663 567.092H51.8571Z" fill="#D5AC8F"/>
<path d="M152.407 503.147C153.301 502.948 154.288 502.762 155.088 503.205C156.182 503.81 156.402 505.242 156.814 506.421C157.495 508.373 159.257 510.095 161.325 510.089C160.95 507.133 158.836 504.5 158.964 501.519C159.053 499.503 160.158 497.692 161.276 496.012C162.541 494.106 163.857 492.237 165.226 490.404C165.821 494.39 167.843 498.15 170.837 500.847C172.385 502.243 174.169 503.348 175.94 504.448C179.221 506.482 182.501 508.516 185.818 510.49C187.678 511.595 189.483 512.799 191.444 513.724C193.274 514.585 195.36 514.76 197.345 514.46C198.436 514.295 199.508 513.99 200.525 513.562C201.142 513.303 202.101 512.325 202.764 512.826C202.849 512.89 202.935 512.976 203.042 512.982C203.32 512.997 203.317 512.579 203.378 512.307C203.567 511.442 205.158 510.315 205.678 509.582C208.304 505.859 211.081 502.243 213.998 498.742C214.117 498.602 214.242 498.452 214.413 498.385C214.697 498.275 215.015 498.413 215.29 498.547C217.504 499.622 219.831 500.517 222.26 500.914C224.227 501.235 226.233 501.223 228.222 501.116C230.91 500.972 233.628 500.642 236.117 499.619C238.607 498.596 240.867 496.803 241.988 494.356C242.272 495.871 243.31 497.221 244.7 497.89C245.607 498.327 246.768 498.599 247.119 499.543C247.244 499.882 247.235 500.251 247.195 500.609C246.988 502.42 246.02 504.057 244.905 505.499C243.973 506.699 242.904 507.851 242.412 509.289C241.963 510.603 242.046 512.026 242.049 513.416C242.055 515.435 241.85 517.557 240.714 519.228C240.134 520.083 239.343 520.767 238.555 521.433C231.472 527.42 223.833 532.75 215.766 537.328C214.761 537.899 213.747 538.458 212.669 538.877C208.301 540.572 203.02 539.628 199.508 536.528C198.225 535.398 197.138 533.959 195.61 533.135C194.502 532.536 194.318 532.737 193.552 533.648C192.962 534.347 192.361 535.031 191.737 535.7C189.276 538.348 186.496 540.734 183.304 542.46C179.282 544.637 174.761 545.694 170.278 546.598C167.367 547.185 164.548 547.6 161.573 547.6C155.998 547.6 150.424 547.597 144.85 547.594C144.41 547.594 143.943 547.588 143.567 547.356C142.846 546.913 143.03 543.929 142.895 543.028C142.648 541.384 142.364 539.747 142.04 538.116C141.396 534.854 140.601 531.623 139.664 528.434C137.807 522.13 135.382 515.99 132.416 510.123C131.606 508.523 132.101 507.689 133.653 507.322C135.727 506.833 137.816 506.397 139.899 505.932C144.068 505.004 148.24 504.078 152.41 503.15L152.407 503.147Z" fill="#DADADA"/>
<path d="M147.199 534.486C147.663 532.405 147.932 530.283 147.996 528.154C149.221 530.09 150.84 532.256 153.131 532.244C154.084 528.804 155.055 525.326 156.811 522.216C158.024 526.355 159.236 530.493 160.449 534.629C160.568 535.032 160.708 535.469 161.054 535.707C161.719 536.165 162.669 535.552 162.932 534.788C163.195 534.024 163.033 533.19 163.063 532.384C163.137 530.252 164.536 528.386 166.112 526.95C168.466 524.806 171.411 523.249 174.566 522.809C177.721 522.369 181.078 523.102 183.595 525.057C184.807 526 185.855 527.302 186.02 528.829C186.591 529.024 187.077 528.355 187.214 527.769C187.703 525.689 186.582 523.511 185 522.073C183.418 520.634 181.423 519.76 179.535 518.753C176.246 516.993 173.146 514.702 171.093 511.59C174.92 513.963 178.744 516.333 182.571 518.707C182.953 518.945 183.36 519.186 183.809 519.205C184.258 519.22 184.752 518.914 184.774 518.465C184.795 518.013 184.367 517.683 183.986 517.439C179.551 514.589 175.113 511.74 170.678 508.89C168.347 507.393 165.779 505.521 165.525 502.763C171.167 504.33 174.896 509.562 179.728 512.864C182.095 514.479 184.737 515.637 187.364 516.782C188.836 517.424 190.36 518.081 191.967 518.093C193.155 518.102 194.474 517.641 194.966 516.559C190.656 515.744 186.542 513.908 183.057 511.242C186.429 511.77 189.279 514.061 192.59 514.895C195.107 515.53 197.84 515.277 200.195 514.183C200.769 514.834 200.378 515.86 199.884 516.575C199.389 517.289 198.775 518.09 198.992 518.93C199.178 519.644 199.896 520.069 200.317 520.671C201.243 521.987 200.614 523.817 199.764 525.182C196.585 530.298 190.974 533.31 186.722 537.573C185.455 538.844 184.294 540.24 182.856 541.312C180.305 543.215 177.095 543.954 173.983 544.611C169.841 545.481 165.684 546.285 161.496 546.917C156.658 547.65 151.582 548.135 146.979 546.474C146.307 546.233 145.629 545.93 145.146 545.405C144.517 544.721 144.307 543.762 144.123 542.848C143.277 538.704 142.434 534.559 141.588 530.417C141.066 527.87 142.175 528.746 143.292 530.206C144.468 531.74 145.776 533.172 147.199 534.482V534.486Z" fill="#B2B2B2"/>
<path d="M201.542 526.069C201.872 525.235 202.055 524.484 202.024 523.586C202.006 523.009 202.196 522.288 202.761 522.175C203.225 522.08 203.643 522.465 203.937 522.837C204.767 523.894 205.348 525.122 206.084 526.249C206.82 527.376 207.767 528.439 209.031 528.9C209.401 529.035 209.844 529.105 210.161 528.873C210.335 528.745 210.439 528.549 210.522 528.351C211.395 526.209 209.969 523.8 210.201 521.5C210.448 519.038 212.617 517.114 214.978 516.371C217.339 515.632 219.88 515.834 222.345 516.045C223.048 515.211 222.608 513.711 221.566 513.39C221.334 513.317 221.078 513.293 220.885 513.143C220.516 512.853 220.604 512.23 220.937 511.897C221.27 511.567 221.756 511.451 222.217 511.353C222.269 511.075 222.318 510.797 222.37 510.516C219.214 510.476 215.152 509.429 212.33 508.018C211.805 507.776 211.276 507.495 210.916 507.046C210.555 506.597 210.396 505.935 210.681 505.434C213.946 506.567 217.434 507.043 220.882 506.833C221.059 506.393 220.412 506.115 219.941 506.069C218.319 505.916 216.725 505.559 215.134 505.205C214.398 505.04 213.622 504.856 213.066 504.343C212.51 503.833 212.281 502.88 212.788 502.321C213.292 501.765 214.175 501.872 214.914 502.004C221.398 503.164 228.139 502.886 234.508 501.194C236.154 500.758 237.803 500.211 239.187 499.218C239.767 498.8 240.305 498.302 240.961 498.021C241.618 497.737 242.458 497.721 242.977 498.213C243.536 498.742 243.661 499.762 244.407 499.945C245.167 501.756 243.833 503.69 242.828 505.379C241.401 507.783 240.543 510.519 240.348 513.308C240.28 514.267 240.286 515.244 240.012 516.164C239.608 517.511 238.64 518.604 237.672 519.624C235.65 521.747 233.503 523.751 231.233 525.605C229.049 527.388 226.746 529.041 224.285 530.421C222.476 531.436 220.589 532.303 218.704 533.167C216.713 534.081 214.721 534.994 212.73 535.907C210.137 537.095 207.339 538.314 204.529 537.828C202.574 537.489 200.864 536.362 199.214 535.263C198.552 534.82 197.874 534.365 197.397 533.723C196.084 531.955 197.559 531.872 198.573 530.84C199.804 529.585 200.891 527.697 201.536 526.075L201.542 526.069Z" fill="#B2B2B2"/>
<path d="M267.694 369.729C267.797 369.378 267.895 369.024 267.959 368.66C268.002 368.416 268.036 368.172 268.069 367.927C268.133 367.457 268.201 366.987 268.265 366.519C268.301 366.26 268.332 365.973 268.182 365.759C268.011 365.508 267.669 365.453 267.367 365.42C266.973 365.377 266.771 365.731 266.423 365.878C265.895 366.098 265.381 366.293 264.899 366.614L266.173 366.089C261.906 368.266 257.092 369.073 252.361 369.821C247.51 370.588 242.654 371.318 237.791 372.014C227.471 373.492 216.643 374.763 206.857 371.165C204.923 370.453 203.06 369.561 201.222 368.633C198.686 367.356 196.188 366.012 193.723 364.604C193.097 364.244 192.425 363.871 191.704 363.899C190.275 363.957 189.423 365.472 188.854 366.785C187.437 370.047 186.005 373.379 185.663 376.919C185.397 379.674 185.806 382.445 186.216 385.184C186.774 388.941 187.336 392.698 187.895 396.455C188.644 401.483 189.395 406.507 190.143 411.534C190.354 412.943 191.032 414.748 192.449 414.619C192.144 414.137 191.836 413.651 191.53 413.169C192.859 412.072 194.829 412.255 196.46 412.805C198.094 413.355 199.658 414.216 201.377 414.32C200.922 412.139 198.952 410.365 196.735 410.139C196.634 409.586 197.089 409.088 197.55 408.77C199.557 407.384 202.245 407.442 204.612 408.037C206.979 408.636 209.212 409.708 211.6 410.206C215.192 410.957 219.19 410.444 222.287 412.414C221.869 411.116 220.537 410.377 219.309 409.787C215.079 407.759 210.724 405.997 206.273 404.512C204.557 403.941 202.795 403.395 201.31 402.356C200.302 401.651 198.112 399.809 199.441 398.495C200.278 397.665 202.11 397.994 203.161 398.046C204.829 398.126 206.496 398.23 208.158 398.382C210.773 398.621 213.393 398.706 216.02 398.822C216.539 398.847 217.065 398.868 217.581 398.804C217.966 398.755 218.344 398.66 218.732 398.611C219.355 398.532 219.985 398.572 220.614 398.587C220.8 398.59 221.002 398.587 221.148 398.474C221.295 398.361 221.328 398.092 221.163 398.007C220.849 397.903 220.534 397.802 220.223 397.698C218.427 397.109 216.661 396.501 214.817 396.092C210.049 395.035 205.693 392.665 201.408 390.319C209.688 390.02 217.785 392.445 225.892 394.155C230.724 395.172 236.035 395.878 240.366 393.508C228.906 390.695 217.324 388.376 205.666 386.556C206.225 384.134 209.245 383.376 211.716 383.126C215.421 382.75 219.135 382.475 222.85 382.21C224.713 382.075 226.573 381.944 228.436 381.803C231.976 381.538 235.375 380.914 238.903 380.817C240.229 380.78 241.557 380.753 242.88 380.673C243.647 380.627 245.534 380.004 246.139 380.579C246.423 380.85 246.46 381.376 246.151 381.617C244.499 382.909 242.153 383.419 240.119 383.679C237.248 384.042 234.297 383.966 231.533 384.815C233.772 385.224 236.066 385.068 238.341 385.105C240.617 385.142 242.965 385.395 244.942 386.522C245.44 386.806 245.91 387.145 246.276 387.588C246.542 387.909 246.747 388.275 246.948 388.639C247.486 389.604 248.137 390.646 248.137 391.797C248.799 394.558 249.352 397.338 250.299 400.023C250.412 400.346 250.519 401.693 250.867 401.785C251.298 401.895 251.811 400.746 252.006 400.478C252.541 399.738 253.112 399.039 253.644 398.297C254.493 397.112 255.104 395.808 255.956 394.629C256.835 393.749 257.513 392.484 258.243 391.476C258.946 390.505 259.865 389.739 260.546 388.731C260.95 388.135 261.282 387.494 261.597 386.846C262.284 385.429 262.886 383.972 263.396 382.484C263.906 380.997 264.493 379.693 264.978 378.248C265.491 376.718 266.005 375.188 266.518 373.654C266.786 372.848 267.153 371.984 267.309 371.159C267.4 370.679 267.547 370.215 267.687 369.748L267.694 369.729Z" fill="#001E72"/>
<path d="M36.0476 574.389C35.2718 577.09 36.799 579.475 38.3537 581.595C39.7159 583.458 41.0812 585.318 42.4435 587.181C43.0727 588.042 43.7416 588.934 44.7037 589.396C47.5259 590.749 51.2858 587.774 53.8393 589.585C55.6108 590.84 55.061 594.136 52.978 594.75C52.3976 594.921 51.7807 594.906 51.1759 594.927C43.6316 595.193 37.5657 600.947 32.2847 606.338C30.223 608.443 28.146 610.565 26.5516 613.045C24.7954 615.776 23.6744 618.858 22.5963 621.918C21.6463 624.618 20.7056 627.508 21.3776 630.29C21.6036 631.222 22.0068 632.181 21.7441 633.1C21.6036 633.589 21.289 634.008 20.9408 634.377C19.6488 635.752 17.807 636.598 15.9225 636.683C13.2224 636.805 10.6201 635.4 8.77833 633.421C6.93961 631.442 5.76979 628.937 4.82905 626.405C1.67695 617.914 0.809509 608.586 2.34585 599.661C3.16442 594.9 4.65189 590.229 4.84432 585.4C4.92984 583.275 4.7588 581.149 4.7985 579.023C4.85959 575.633 5.44908 572.276 6.03857 568.934C7.37638 561.338 8.74168 553.641 11.9762 546.638C12.3061 545.926 12.7276 545.153 13.479 544.921C14.1693 544.707 14.9023 545.025 15.556 545.336C16.4478 545.764 17.3397 546.189 18.2346 546.616C20.5193 547.707 22.8192 548.806 25.2627 549.478C25.2994 549.924 25.333 550.37 25.3696 550.813C27.7459 551.326 30.2413 550.614 32.639 551.015C33.9585 551.237 35.1985 551.787 36.4203 552.337C38.9921 553.489 41.5638 554.64 44.1356 555.792C43.7935 558.003 43.4484 560.214 43.1063 562.426C42.9413 563.485 42.7459 564.609 42.025 565.401C40.9804 566.546 39.1356 566.662 38.0788 567.798C36.7563 569.222 36.5883 572.548 36.0599 574.389H36.0476ZM105.47 593.064C104.566 598.537 103.943 604.053 103.604 609.591C103.531 610.794 103.476 612.041 103.928 613.158C104.377 614.276 105.479 615.226 106.677 615.104C100.919 630.037 100.116 646.833 104.423 662.248C105.101 664.67 105.941 667.132 107.599 669.023C109.261 670.913 111.93 672.117 114.337 671.387C117.889 670.315 119.105 665.996 119.762 662.346C120.18 660.022 120.598 657.694 121.017 655.37C121.249 654.072 121.503 652.728 122.245 651.634C122.923 650.639 123.949 649.939 124.78 649.066C127.578 646.118 127.88 641.5 130.455 638.351C132.162 636.265 134.679 635.049 136.835 633.433C139.706 631.28 141.942 628.406 144.538 625.926C147.135 623.446 150.32 621.274 153.906 621.103C152.999 619.276 150.983 618.064 148.946 618.119C146.909 618.174 144.96 619.493 144.151 621.362C143.39 619.24 144.722 616.573 143.384 614.759C142.993 614.231 142.428 613.864 141.893 613.479C135.491 608.846 133.146 599.392 136.643 592.303C137.675 590.211 139.163 587.774 137.996 585.755C137.507 584.909 136.634 584.362 135.769 583.904C132.562 582.209 128.97 581.247 125.345 581.118C124.719 581.097 124.086 581.097 123.479 580.956C122.846 580.81 122.263 580.52 121.683 580.229C119.297 579.038 116.915 577.844 114.529 576.653C113.741 576.259 112.868 575.856 112.016 576.072C110.864 576.366 110.287 577.624 109.868 578.739C108.039 583.604 106.319 587.911 105.47 593.064Z" fill="#DADADA"/>
<path d="M52.7915 591.846C51.9211 590.847 50.4794 590.572 49.1569 590.603C47.8343 590.633 46.5087 590.905 45.1954 590.746C43.094 590.49 41.298 589.17 39.6059 587.897C38.7629 587.261 37.9046 586.608 37.3212 585.731C36.3438 584.256 36.1789 582.209 34.7678 581.143C33.0757 579.867 30.5253 580.7 28.6529 579.705C27.3732 579.024 26.6126 577.588 25.3054 576.965C24.1508 576.415 22.7672 576.605 21.5791 577.078C20.3909 577.555 19.328 578.294 18.1857 578.865C17.3885 579.265 16.5455 579.583 15.6719 579.766C15.0458 579.897 14.4044 579.955 13.7965 580.16C13.5827 580.23 13.3781 580.322 13.1826 580.429C13.3414 578.486 13.4606 576.528 13.7813 574.635C14.0501 573.046 16.5455 568.074 13.6469 567.793C12.2022 567.655 10.6933 567.524 9.34024 568.046C5.9896 569.341 6.37751 575.423 5.95295 578.349C5.3207 582.692 4.59682 587.035 4.05314 591.391C3.82712 592.952 3.59804 594.512 3.37202 596.073C2.76115 600.261 2.15028 604.46 2.08003 608.691C2.00977 612.927 2.48625 617.17 3.4606 621.29C4.60903 626.146 6.63713 631.091 10.6383 634.075C12.2052 635.242 14.3158 636.07 16.0873 635.248C16.0873 635.12 16.0659 634.998 16.0507 634.87C16.9242 634.857 17.7733 634.61 18.4514 634.06C20.2748 632.591 20.1466 629.851 20.2779 627.512C20.5345 622.829 22.4557 618.419 24.3463 614.127C24.9388 612.783 26.6004 611.36 27.6145 610.309C28.3689 609.531 29.16 608.788 29.9541 608.046C33.4025 604.818 36.8539 601.589 40.2992 598.358C43.0756 595.755 47.1013 594.567 50.8856 594.253C51.8691 594.17 53.1489 593.892 53.2314 592.909C53.2619 592.515 53.0603 592.136 52.8007 591.84L52.7915 591.846ZM16.2034 595.957C15.9957 597.991 15.1954 599.909 14.4074 601.794C14.0898 602.551 13.766 603.318 13.2407 603.95C12.6786 604.628 11.9151 605.111 11.1393 605.529C9.88391 606.211 8.56137 606.76 7.19302 607.167C6.10262 607.493 4.89004 607.796 4.23946 608.727C3.48198 609.818 3.82406 611.152 4.28222 612.478C3.79963 611.944 3.27123 611.44 2.9047 610.823C2.11057 609.491 2.17471 607.835 2.26634 606.287C2.34575 604.943 2.42517 603.593 2.57178 602.252C2.7306 600.801 2.96884 599.363 3.36591 597.961C3.82406 596.342 4.49908 594.769 4.68539 593.098C4.76175 592.426 4.76481 591.711 5.10995 591.128C5.45509 590.545 6.3042 590.193 6.82039 590.63C7.05252 591.305 7.89247 591.611 8.59803 591.482C9.71287 591.278 10.3482 590.56 10.8857 589.65C11.2523 589.033 11.5516 588.391 11.8051 587.732C12.0739 588.123 12.3793 588.483 12.7306 588.801C13.2956 589.317 13.9493 589.729 14.4929 590.27C15.9407 591.714 16.4111 593.917 16.2034 595.948V595.957ZM105.537 602.527C105.815 600.838 105.861 598.434 106.768 596.944C108.601 593.932 112.862 599.415 114.016 601.186C114.746 602.31 115.262 603.596 116.206 604.546C117.544 605.89 119.697 606.351 121.469 605.67C123.298 604.964 124.52 603.269 126.026 602.014C127.532 600.758 129.884 599.973 131.368 601.25C132.712 602.405 132.605 604.625 133.857 605.875C134.291 606.305 134.859 606.589 135.268 607.044C135.931 607.777 136.081 608.828 136.481 609.732C137.391 611.794 139.636 613.159 140.131 615.358C140.476 616.898 139.88 618.584 140.464 620.047C141.026 621.464 142.608 622.438 142.718 623.956C142.862 625.939 140.555 627.038 138.744 627.86C133.564 630.206 129.438 634.778 127.639 640.172C127.125 641.708 126.777 643.342 125.846 644.671C125.235 645.538 124.407 646.226 123.65 646.971C120.238 650.318 118.182 655.01 118.03 659.79C117.987 661.195 118.091 662.649 117.584 663.959C117.031 665.383 115.779 666.568 115.699 668.095C115.681 668.443 115.702 668.849 115.433 669.066C115.21 669.246 114.887 669.21 114.603 669.161C113.137 668.91 111.673 668.654 110.214 668.385C109.554 668.263 108.86 668.125 108.347 667.695C107.859 667.285 107.602 666.668 107.364 666.076C106.383 663.639 105.4 661.201 104.419 658.767C103.983 657.683 103.543 656.586 103.353 655.428C103.164 654.277 103.231 653.104 103.301 651.94C103.534 647.985 103.784 644.03 104.047 640.074C104.102 639.234 104.166 638.367 104.548 637.615C104.926 636.867 105.583 636.308 106.191 635.731C108.476 633.553 110.238 630.829 111.292 627.854C111.829 626.333 112.187 624.68 111.832 623.107C111.478 621.531 110.265 620.065 108.671 619.83C108.375 619.787 108.063 619.781 107.81 619.622C107.324 619.317 107.303 618.63 107.336 618.055C107.403 616.91 107.471 615.765 107.538 614.622C107.559 614.277 107.565 613.889 107.327 613.636C107.095 613.388 106.722 613.364 106.396 613.266C104.673 612.759 104.487 610.416 104.688 608.63C104.893 606.586 105.201 604.549 105.537 602.527Z" fill="#B2B2B2"/>
<path d="M16.1701 592.934C16.0968 592.598 15.9777 592.268 15.825 591.953C15.9838 591.742 16.1365 591.525 16.2984 591.318C16.2617 592.717 18.1096 594.302 18.8732 595.441C19.8873 596.953 20.8219 598.52 21.8451 600.023C23.2013 602.014 24.7101 603.899 26.3503 605.661C24.8964 606.122 23.7297 607.399 23.3998 608.89C21.106 605.362 17.2544 602.86 14.9728 599.445C15.266 598.74 15.5226 598.022 15.7364 597.304C16.161 595.884 16.4847 594.378 16.1701 592.931V592.934ZM4.65213 614.393C4.93618 619.861 7.06507 625.056 9.43831 629.989C7.88669 623.938 6.32286 617.79 6.51223 611.544C6.55499 610.178 6.68633 608.816 6.88486 607.466C6.27399 607.607 5.6509 607.689 5.02476 607.738C4.73154 609.949 4.53606 612.167 4.65213 614.39V614.393ZM32.6331 596.629C32.737 596.596 32.8103 596.501 32.8775 596.412C33.5739 595.481 34.2733 594.546 34.9697 593.612C31.4327 589.296 28.2135 584.723 25.3454 579.937C24.8353 580.747 23.2898 581.538 22.9905 582.31C22.6362 583.224 23.4517 584.253 23.8976 585.032C25.1255 587.176 26.6313 589.149 28.1279 591.11C29.4505 592.848 30.7761 594.586 32.0986 596.324C32.233 596.498 32.4254 596.693 32.6331 596.626V596.629ZM23.0974 590.047C21.897 588.483 20.4554 586.974 20.0461 585.047C19.1237 586.199 17.4102 587.216 18.3234 588.688C18.5983 589.128 19.3864 589.339 19.7376 589.836C20.0675 590.304 20.1866 590.963 20.3576 591.498C21.7962 596.009 26.3381 598.938 27.9966 603.37C28.6991 603.001 29.3588 602.539 29.9453 602.005C30.0797 601.883 30.2202 601.739 30.2354 601.559C30.2507 601.394 30.1621 601.235 30.0736 601.095C28.6533 598.78 27.2299 596.461 25.8097 594.146C24.9514 592.747 24.0931 591.348 23.0943 590.047H23.0974ZM10.602 592.579C10.2447 591.168 11.7566 589.794 13.2043 589.925C14.4627 587.885 15.9013 585.97 17.5843 584.256C18.751 583.068 20.0156 581.984 21.2159 580.829C25.2935 576.898 28.5006 572.234 31.3228 567.301C30.0888 566.605 28.8488 565.909 27.5965 565.227C24.4963 570.576 21.0663 575.679 16.613 579.934C15.7456 580.762 14.7957 581.58 13.635 581.883C13.409 581.941 13.1555 581.975 12.9569 581.852C12.6545 581.666 12.6484 581.232 12.679 580.878C13.1096 575.957 13.409 571.211 15.1377 566.513C15.8647 564.531 16.6741 562.582 17.5263 560.652C16.4664 560.298 15.3913 559.992 14.3039 559.739C11.1426 569.763 9.3253 580.243 7.67289 590.679C9.13287 591.08 10.3791 591.69 10.602 592.573V592.579ZM111.09 623.514C115.131 614.1 121.066 605.627 126.558 596.95C126.466 596.944 126.374 596.938 126.286 596.932C124.74 596.816 123.213 596.593 121.698 596.309C121.619 596.446 121.542 596.583 121.463 596.718C119.465 600.038 116.71 603.163 113.012 604.311C111.741 601.84 112.605 598.859 113.491 596.226C113.693 595.624 113.897 595.02 114.099 594.418C113.064 594.116 112.028 593.81 110.993 593.502C110.095 597.946 109.575 602.506 109.114 607.011C108.674 611.299 108.271 615.591 107.865 619.882C109.325 620.753 110.513 622.026 111.093 623.514H111.09ZM119.438 635.343C118.754 634.616 118.25 633.74 117.584 632.998C116.689 631.999 113.467 630.609 113.564 633.065C113.629 634.714 117.007 635.685 118.158 636.257C119.178 636.76 120.278 637.344 120.73 638.389C121.164 639.384 120.886 640.533 120.605 641.583C120.238 642.952 119.872 644.32 119.505 645.688C119.099 647.206 118.406 649.002 116.854 649.262C116.659 649.296 116.448 649.299 116.268 649.213C115.904 649.039 115.788 648.587 115.727 648.187C115.354 645.792 115.425 643.33 115.932 640.963C116.268 639.396 116.68 637.466 115.458 636.431C114.756 635.838 113.757 635.795 112.841 635.78C112.523 635.774 112.156 635.792 111.961 636.043C111.848 636.189 111.82 636.385 111.799 636.571C110.684 646.26 109.603 656.305 112.636 665.575C113.122 665.725 113.604 665.358 113.949 664.986C117.605 661.043 116.762 654.65 119.45 649.992C120.452 648.257 121.909 646.828 122.96 645.123C124.01 643.419 124.621 641.22 123.735 639.427C122.853 637.643 120.803 636.8 119.438 635.349V635.343ZM124.319 622.564C123.567 621.608 122.963 620.542 122.175 619.613C121.072 618.312 119.505 616.916 119.927 615.267C119.646 616.364 118.39 617.268 118.421 618.52C118.445 619.54 119.227 620.337 119.789 621.147C121.344 623.389 122.99 625.582 125.229 627.191C126.042 627.775 126.918 628.272 127.673 628.932C128.735 629.861 129.511 631.07 130.269 632.261C130.831 631.73 131.39 631.199 131.952 630.664C132.15 630.475 132.37 630.23 132.306 629.962C132.275 629.833 132.184 629.726 132.095 629.629C129.719 627.045 126.481 625.328 124.316 622.564H124.319ZM11.1182 629.045C13.1005 630.508 15.3699 631.577 17.7614 632.176C17.4468 628.608 17.1322 625.044 16.8146 621.477C16.6405 619.5 16.4572 617.494 15.712 615.655C14.5391 612.762 12.1933 609.604 10.4065 607.1C9.5727 608.725 9.31003 610.884 8.98626 612.683C10.77 613.468 12.0467 615.136 12.7828 616.941C13.5189 618.746 13.7786 620.704 14.0321 622.634C14.2062 623.963 14.3772 625.34 13.9832 626.623C13.5892 627.903 12.4621 629.064 11.1213 629.045H11.1182ZM109.227 660.627C109.032 659.726 109.026 658.795 109.017 657.872C108.958 649.971 108.904 642.066 108.845 634.164C108.839 633.126 108.839 632.084 108.91 631.049C108.867 631.101 108.827 631.153 108.784 631.205C108.094 632.051 107.376 632.872 106.646 633.682C105.98 642.683 105.703 651.815 107.553 660.649C108.115 663.327 109.047 666.214 111.374 667.655C111.714 666.009 110.562 664.296 109.951 662.771C109.667 662.069 109.383 661.363 109.224 660.621L109.227 660.627ZM131.234 617.897C129.872 616.599 128.558 615.236 127.395 613.755C126.848 613.059 125.058 609.445 124.249 609.54C123.861 609.586 123.039 611.235 122.712 611.583C122.129 612.207 121.445 612.741 120.696 613.15C122.389 614.598 123.378 616.681 124.728 618.453C126.845 621.229 129.817 623.199 132.413 625.533C133.063 626.116 133.742 626.84 133.702 627.714C134.294 625.698 134.887 623.685 135.479 621.669C135.574 621.348 131.665 618.3 131.234 617.891V617.897ZM116.005 622.918C115.904 622.836 115.797 622.75 115.669 622.729C115.327 622.671 115.098 623.065 115.003 623.398C114.194 626.235 115.131 627.775 117.074 629.549C118.958 631.272 120.464 633.367 122.41 635.026C123.876 636.275 125.599 637.295 126.68 638.889C127.007 638.166 127.334 637.439 127.663 636.715C127.841 636.324 128.021 635.911 127.999 635.481C127.969 634.907 127.584 634.424 127.214 633.984C123.818 629.971 120.064 626.26 116.008 622.912L116.005 622.918Z" fill="#1D71B8"/>
<path d="M17.5264 560.656C16.4665 560.302 15.3914 559.997 14.304 559.743C15.4983 555.956 16.8819 552.233 18.5252 548.604C19.5667 548.928 20.6082 549.252 21.6498 549.575C21.9399 549.667 22.2545 549.774 22.4164 550.03C22.6638 550.424 22.4286 550.938 22.1996 551.341C20.4769 554.358 18.9283 557.474 17.5294 560.653L17.5264 560.656ZM118.794 580.424C117.746 580.192 116.695 579.957 115.648 579.725C113.369 584.044 111.958 588.705 110.99 593.497C112.025 593.805 113.061 594.114 114.096 594.413C115.663 589.749 117.227 585.085 118.794 580.421V580.424ZM36.7841 553.561C36.3748 553.369 35.8648 553.46 35.4799 553.222C35.2356 553.073 35.0401 552.795 34.756 552.798C34.4689 552.798 34.2765 553.085 34.136 553.335C31.9521 557.275 29.8599 561.319 27.5905 565.232C28.8428 565.913 30.0829 566.609 31.3168 567.306C33.3388 563.772 35.1623 560.101 36.9582 556.463C37.4378 555.489 37.7676 554.022 36.7841 553.564V553.561ZM131.045 584.331C129.496 583.882 128.042 585.25 127.12 586.576C124.994 589.624 123.571 593.1 121.695 596.31C123.21 596.594 124.737 596.817 126.283 596.933C126.375 596.939 126.466 596.945 126.555 596.951C126.9 596.405 127.245 595.861 127.584 595.311C129.661 591.976 131.735 588.201 131.039 584.334L131.045 584.331ZM13.4336 595.583C13.3816 595.922 13.4672 596.267 13.571 596.594C13.8948 597.63 14.3835 598.567 14.9729 599.447C15.2662 598.741 15.5227 598.024 15.7365 597.306C16.1611 595.885 16.4849 594.38 16.1703 592.932C16.097 592.596 15.9778 592.266 15.8251 591.951C15.199 592.788 14.5942 593.647 13.9833 594.493C13.742 594.826 13.4946 595.177 13.4336 595.583ZM108.913 631.047C108.956 630.436 109.014 629.829 109.127 629.227C109.389 627.81 109.887 626.45 110.422 625.113C110.639 624.575 110.861 624.044 111.091 623.512C110.513 622.022 109.322 620.751 107.862 619.881C107.829 620.235 107.795 620.589 107.761 620.943C107.367 625.146 106.97 629.349 106.659 633.558C106.656 633.601 106.653 633.643 106.65 633.686C107.38 632.877 108.097 632.055 108.788 631.209C108.83 631.157 108.87 631.105 108.913 631.053V631.047ZM5.5136 604.438C5.34256 605.534 5.17151 606.637 5.0249 607.739C5.65105 607.691 6.27413 607.608 6.88501 607.468C7.3004 604.633 8.02123 601.838 8.9467 599.123C10.0371 595.925 11.4329 592.801 13.2045 589.926C11.7598 589.792 10.2448 591.17 10.6022 592.581C10.3792 591.698 9.13302 591.087 7.67303 590.687C7.48672 591.857 7.30345 593.027 7.12019 594.196C6.58568 597.611 6.05117 601.026 5.51665 604.441L5.5136 604.438Z" fill="#6699D1"/>
<path d="M21.5335 285.931C23.4761 280.06 26.393 274.565 29.2946 269.104C31.5701 264.822 33.8456 260.543 36.1211 256.261C37.6849 253.319 39.2488 250.378 40.9531 247.516C42.3123 245.237 43.757 243.014 45.2078 240.796C50.7759 232.269 56.402 223.771 62.4588 215.583C63.2072 214.569 63.9952 213.475 64.0379 212.217C64.0807 210.931 63.3385 209.767 62.6238 208.698C60.5071 205.534 58.3599 202.33 57.132 198.726C56.0386 195.516 55.6904 192.024 54.041 189.062C52.4344 186.172 49.6825 183.961 48.5279 180.864C47.9018 179.184 47.7949 177.36 47.8071 175.568C47.8162 174.312 48.2255 172.681 49.4778 172.596C50.3361 172.538 51.005 173.295 51.4998 173.998C53.3324 176.597 54.8291 179.431 55.95 182.406C56.4326 183.689 56.8663 185.039 57.7948 186.044C58.7234 187.052 60.3208 187.599 61.4906 186.884C62.3428 185.054 61.7014 182.706 61.2279 180.742C59.9634 175.503 60.6079 170.018 61.2554 164.67C61.3868 163.588 61.5547 162.425 62.3 161.63C63.0453 160.836 64.5877 160.723 65.0978 161.685C65.1558 160.51 66.176 159.459 67.3489 159.364C68.5217 159.269 69.6977 160.143 69.942 161.291C70.0428 161.762 70.0062 162.257 70.1467 162.718C70.3574 163.414 70.9408 163.921 71.4692 164.416C75.782 168.457 78.2926 174.352 78.2224 180.262C79.4197 180.076 80.1955 181.459 80.5987 182.605C81.57 185.372 82.5443 188.142 83.2773 190.98C84.8015 196.881 85.6292 203.671 84.5816 209.731C84.1967 211.948 82.7887 214.004 82.077 216.169C81.1576 218.958 80.0428 221.691 78.6103 224.26C77.5077 226.233 76.2218 228.096 74.9389 229.956C73.2407 232.421 71.2615 234.81 69.7618 237.4C68.2071 240.085 67.0984 243.151 65.8522 245.992C63.2285 251.972 60.7453 258.014 58.4027 264.11C57.6482 266.077 56.903 268.053 56.3257 270.079C55.8553 271.737 55.8309 274.208 54.1754 275.228C55.1345 275.469 56.0569 274.813 56.8907 274.281C59.0807 272.892 61.6281 272.201 64.1326 271.529C66.7746 270.821 69.4197 270.112 72.0617 269.404C74.7893 268.67 77.529 267.937 80.3329 267.586C84.2486 267.094 88.2376 267.357 92.138 266.761C97.3304 265.97 101.374 263.637 105.513 260.601C107.48 259.159 110.147 258.939 112.508 259.01C113.821 259.049 115.174 258.994 116.475 259.104C117.899 259.226 119.27 259.688 120.666 259.966C121.875 260.207 123.109 260.314 124.328 260.515C130.406 261.526 136.029 265.036 139.606 270.051C141.106 272.155 142.697 274.541 143.47 277.021C144.765 281.166 143.964 285.644 144.288 289.972C144.447 292.107 144.05 294.199 143.186 296.16C142.321 298.118 140.522 299.816 138.384 299.92C136.49 300.011 134.783 298.887 133.118 297.98C131.426 297.061 129.624 296.325 127.734 295.946C120.235 294.44 112.792 298.649 105.153 298.994C100.284 299.214 95.4062 297.858 90.5712 298.45C87.8314 298.786 85.2077 299.736 82.5138 300.341C76.8876 301.606 71.0477 301.346 65.2872 301.08C61.2829 300.894 57.2786 300.711 53.2713 300.524C45.9256 300.185 38.3997 299.807 31.6312 296.939C26.7412 294.868 19.8689 290.958 21.5335 285.915V285.931ZM208.543 173.414C207.712 173.805 206.884 174.214 206.001 174.465C204.942 174.767 203.83 174.831 202.73 174.892C200.708 175.009 198.61 174.972 196.603 175.238C195.241 175.418 194.135 176.035 192.816 176.438C197.04 176.811 199.025 181.395 200.265 184.88C202.208 190.329 204.151 195.775 206.093 201.224C214.691 199.712 222.199 194.724 229.954 190.711C241.423 184.773 254.013 180.787 266.908 180.033C271.484 179.767 276.102 179.902 280.613 179.095C284.505 178.399 288.24 177.052 292.113 176.291C295.836 175.561 299.712 175.506 303.491 175.256C309.563 174.853 315.949 174.758 321.942 175.977C324.504 176.499 327.171 176.389 329.66 177.357C331.859 178.213 333.735 179.721 335.793 180.876C338.081 182.162 340.586 183.005 343.075 183.839C344.483 184.312 345.977 185.021 347.446 185.17C348.942 185.326 350.592 184.532 352.024 185.158C351.551 184.95 353.109 187.253 353.032 187.098C353.448 187.922 353.405 189.12 353.506 190.085C355.766 190.155 357.085 188.002 359.12 188.197C360.5 188.329 362.058 189.095 362.938 190.201C363.081 190.381 363.197 190.583 363.374 190.729C363.942 191.2 364.99 191.01 365.302 191.676C366.001 190.509 366.377 189.99 367.278 188.955C368.939 187.043 368.835 184.495 367.632 182.327C366.468 180.222 364.599 178.591 363.316 176.557C361.27 173.316 360.861 169.337 359.599 165.717C358.649 162.996 356.768 159.3 353.402 159.651C349.617 160.048 346.025 159.566 342.293 159.48C338.634 159.395 334.697 160.274 331.053 160.656C330.87 160.674 329.144 159.676 328.61 159.599C327.586 159.453 326.548 159.269 325.54 159.126C323.063 158.775 320.338 159.257 317.828 159.309C312.253 159.422 306.676 159.205 301.129 158.659C299.053 158.454 296.982 158.203 294.911 157.95C289.553 157.299 284.422 156.585 279.065 156.811C273.341 157.052 267.638 157.696 261.982 158.607C250.739 160.418 239.697 163.292 228.729 166.313C223.307 167.806 217.761 169.529 212.486 171.692C211.154 172.238 209.841 172.812 208.552 173.417L208.543 173.414ZM101.261 156.517C98.5675 158.665 96.2248 160.806 93.9279 163.381C92.9872 164.437 91.9914 165.619 91.9578 167.034C91.9151 168.848 93.5217 170.326 95.2352 170.925C96.9487 171.52 98.8088 171.49 100.599 171.801C102.385 172.113 104.267 172.901 105.082 174.523C105.681 175.711 105.589 177.113 105.764 178.432C106.051 180.619 105.98 182.898 106.338 185.057C106.6 186.643 107.563 188.103 108.913 188.97C109.826 189.556 110.904 189.886 111.716 190.607C112.529 191.325 112.966 192.675 112.239 193.481C110.932 193.356 109.624 193.231 108.314 193.106C107.654 193.041 106.943 192.99 106.371 193.329C105.29 193.97 106.121 195.134 105.58 195.693C105.183 196.102 103.598 196.044 103.045 196.142C101.28 196.453 99.6426 196.979 98.9645 198.814C98.2712 200.693 99.2914 202.727 100.281 204.465C100.87 205.503 101.466 206.539 102.104 207.547C102.358 207.95 102.611 208.53 102.963 208.854C103.274 209.141 103.671 209.285 103.989 209.624C104.878 210.574 106.225 210.949 107.523 211.044C108.821 211.139 110.125 210.995 111.42 211.105C111.655 211.126 111.903 211.157 112.101 211.285C112.358 211.447 112.498 211.74 112.584 212.033C112.92 213.179 112.642 214.437 112.807 215.61C112.944 216.584 113.234 217.534 113.616 218.448C114.377 220.274 115.602 222.318 117.202 223.536C118.946 224.865 120.516 226.007 121.851 227.812C123.769 230.402 125.134 233.359 126.906 236.053C127.193 236.49 127.624 236.978 128.134 236.859C128.402 236.798 128.601 236.575 128.812 236.395C129.481 235.815 130.373 235.58 131.234 235.366C137.092 233.915 143.027 232.782 149.007 231.975C151.652 231.618 154.346 231.316 156.817 230.302C158.644 229.553 160.293 228.442 162.071 227.589C165.785 225.812 170.327 224.963 172.636 221.551C174.041 219.474 174.297 216.832 174.242 214.324C174.224 213.435 174.086 212.406 173.326 211.948C172.413 211.398 171.283 212.034 170.308 212.464C168.628 213.206 166.753 213.325 164.92 213.435C162.153 213.6 159.389 213.768 156.622 213.933C156.051 213.967 155.461 214.001 154.923 213.805C154.181 213.536 153.665 212.516 153.152 211.924C152.416 211.071 151.771 210.158 151.249 209.159C150.177 207.11 149.603 204.798 149.642 202.483C149.71 198.631 151.469 194.841 154.371 192.305C156.139 190.76 158.488 189.364 158.751 187.027C158.931 185.43 157.984 183.875 156.716 182.889C155.449 181.902 153.891 181.38 152.367 180.876C153.076 179.3 152.394 177.232 150.886 176.389C150.449 176.145 149.942 175.977 149.633 175.583C148.919 174.663 149.704 173.115 148.925 172.25C148.152 171.392 146.606 172.031 145.647 171.383C144.252 170.439 145.464 168.313 145.519 166.63C145.586 164.593 143.638 162.977 141.646 162.538C139.655 162.101 137.59 162.495 135.553 162.593C133.097 162.709 130.553 162.354 128.424 161.12C125.528 159.447 123.745 156.392 121.28 154.135C117.77 150.919 113.048 148.988 108.729 151.533C106.118 153.069 103.598 154.654 101.258 156.521L101.261 156.517Z" fill="#F0BFA2"/>
<path d="M29.5755 289.66C31.6158 290.858 33.7416 292.357 36.0935 292.11C38.1215 291.896 39.7495 290.43 41.4997 289.382C44.3616 287.669 47.8375 287.012 51.127 287.565C51.0354 288.524 51.2522 289.511 51.7348 290.344C59.4562 290.399 67.0158 288.322 74.4562 286.264C77.9107 285.308 81.3682 284.349 84.8227 283.393C96.1788 280.247 107.782 276.988 117.443 270.241C117.819 271.734 117.853 273.313 117.544 274.825C121.78 273.719 126.017 272.614 130.25 271.508C132.529 270.913 134.997 270.195 136.371 268.283C130.647 267.632 124.92 266.982 119.196 266.331C118.735 266.279 118.182 266.16 118.024 265.723C117.807 265.137 118.482 264.63 119.062 264.398C126.078 261.6 134.474 264.892 139.276 270.723C144.38 276.924 145.992 285.818 143.39 293.414C142.633 295.631 141.078 298.041 138.735 298.06C137.602 298.069 136.557 297.495 135.54 296.994C132.171 295.338 128.469 294.367 124.722 294.153C120.992 293.939 117.269 294.468 113.567 294.969C104.419 296.206 95.2533 297.287 86.075 298.277C75.6535 299.401 65.1648 300.412 54.7037 299.758C49.0256 299.404 43.3598 298.548 37.8833 296.988C35.1833 296.218 32.5321 295.28 29.9634 294.147C28.424 293.466 23.6378 291.92 23.1399 290.094C22.2114 286.691 28.4759 289.022 29.5693 289.663L29.5755 289.66ZM66.8142 216.294C67.2326 216.401 67.6908 216.331 68.0817 216.511C68.6926 216.792 68.9003 217.547 68.9797 218.216C69.5845 223.289 66.9486 228.093 65.0182 232.825C62.2235 239.673 60.8093 246.997 58.546 254.037C57.8985 256.053 57.0036 258.035 56.1484 259.984C53.9706 264.947 51.4752 269.972 47.3549 273.493C44.4532 275.974 40.9132 277.556 37.6451 279.526C36.7257 280.082 35.7117 280.879 35.788 281.951C38.2346 282.748 40.9377 282.733 43.3781 281.911C44.16 281.649 44.9144 281.307 45.6994 281.062C46.8142 280.717 47.9841 280.573 49.0897 280.204C53.1246 278.854 53.5522 274.95 54.6884 271.42C55.452 269.046 56.1056 266.636 56.9486 264.291C57.6267 262.403 58.4239 260.558 59.2211 258.72C60.4581 255.858 61.6981 252.993 62.9352 250.131C65.7055 243.729 68.4819 237.312 71.9608 231.267C74.2882 227.226 76.918 223.368 79.334 219.379C80.1342 218.057 80.9223 216.692 81.2582 215.183C81.5148 214.031 81.4995 212.837 81.6889 211.673C81.9027 210.372 82.367 209.126 82.7335 207.858C83.8972 203.827 84.0408 199.505 83.1489 195.403C81.3926 194.291 80.3969 192.241 80.0823 190.186C79.7677 188.13 80.0396 186.035 80.3144 183.973C79.3432 182.999 77.5197 183.665 76.9027 184.893C76.2858 186.12 76.5332 187.596 76.8844 188.924C77.2357 190.253 77.6846 191.624 77.4311 192.974C77.0707 194.877 75.4275 196.237 74.4898 197.932C73.32 200.042 73.3016 202.681 74.1538 204.938C74.279 205.268 74.4195 205.641 74.2729 205.962C74.0836 206.377 73.546 206.459 73.0939 206.527C70.6779 206.878 68.5094 208.433 67.254 210.51C66.5668 211.643 64.5631 215.726 66.8142 216.298V216.294ZM50.8827 183.857C51.3255 184.303 51.8356 184.688 52.1899 185.207C52.9535 186.328 52.923 187.971 54.0042 188.79C54.3219 189.031 54.7128 189.178 54.9785 189.471C55.3634 189.896 55.4734 190.598 56.0079 190.803C56.4813 190.983 57.0066 190.626 57.2632 190.189C57.5198 189.752 57.6175 189.236 57.8649 188.793C58.0054 188.543 58.2009 188.268 58.1123 187.993C58.0207 187.706 57.6542 187.596 57.3579 187.645C57.0616 187.693 56.7928 187.858 56.4996 187.932C55.5375 188.182 54.5876 187.474 53.9706 186.695C51.5821 183.692 51.6279 179.386 49.6701 176.087C49.5907 175.956 49.4777 175.806 49.3249 175.818C49.1631 175.833 49.0775 176.014 49.0256 176.169C48.1948 178.643 49.047 181.991 50.8857 183.851L50.8827 183.857ZM61.3805 189.465C60.7482 190.226 60.1099 191.252 60.5497 192.141C60.7085 192.461 60.9895 192.7 61.2553 192.938C64.1141 195.464 66.4416 198.588 68.0481 202.049C68.5827 203.204 69.0866 204.456 70.1098 205.21C70.8887 203.992 70.849 202.446 70.9467 201.004C71.0842 199.013 71.5362 197.046 72.2845 195.198C72.5747 194.483 72.9382 193.75 73.5796 193.323C73.9553 193.072 74.4195 192.932 74.6944 192.574C75.3084 191.78 74.5875 190.696 74.2118 189.77C73.5949 188.249 73.9767 186.505 74.615 184.99C75.2534 183.478 76.1361 182.061 76.5576 180.473C77.3395 177.538 76.4446 174.431 75.342 171.6C75.0487 170.846 74.728 170.076 74.1569 169.499C73.5888 168.921 72.7091 168.579 71.9486 168.863C71.4568 169.047 70.9803 169.48 70.4794 169.315C70.3236 169.679 70.1679 170.045 70.009 170.409C69.2668 169.939 69.7433 168.808 69.6731 167.935C69.615 167.214 69.1202 166.512 69.3371 165.818C69.4165 165.565 69.5845 165.348 69.6914 165.103C70.0976 164.16 69.2638 162.932 68.2375 162.962C68.0543 163.454 67.532 163.796 67.0097 163.766C66.4874 163.735 66.0048 163.338 65.8796 162.828C65.3725 163.176 65.849 164.025 65.5711 164.575C65.2901 165.131 64.4532 165.036 63.9095 164.725C63.3658 164.413 62.8221 163.958 62.2052 164.062C61.9639 168.1 61.8814 172.147 61.9516 176.194C61.9639 176.875 61.9791 177.562 62.1135 178.231C62.2785 179.062 62.6236 179.847 62.7733 180.681C62.9168 181.487 62.8741 182.315 62.8313 183.133C62.7122 185.394 62.8954 187.642 61.3774 189.468L61.3805 189.465ZM211.637 198.378C213.83 197.147 216.368 196.667 218.64 195.586C220.25 194.819 221.701 193.762 223.243 192.868C227.498 190.4 231.899 188.152 236.502 186.42C244.48 183.417 252.534 180.394 260.971 179.184C264.544 178.671 268.157 178.488 271.749 178.13C280.864 177.223 289.831 175.189 298.921 174.068C308.011 172.947 317.409 172.77 326.151 175.504C334.758 178.194 342.601 183.653 351.59 184.367C352.143 184.41 352.748 184.459 353.139 184.853C353.53 185.247 353.579 185.861 353.838 186.353C354.629 187.834 356.758 187.577 358.438 187.568C360.973 187.556 363.493 188.662 365.198 190.54C364.706 187.944 362.748 185.794 360.411 184.56C358.075 183.326 355.396 182.904 352.757 182.776C351.386 182.709 349.443 181.915 350.011 180.665C354.51 180.742 359.538 181.041 362.601 184.337C363.933 185.769 365.387 187.895 367.244 187.29C368.206 185.901 366.731 184.147 365.393 183.112C363.154 181.383 360.918 179.654 358.68 177.926C357.73 177.193 356.74 176.438 355.573 176.169C354.504 175.922 353.392 176.102 352.302 176.23C344.767 177.113 336.951 175.378 330.5 171.383C329.636 170.849 328.774 170.265 327.791 170.009C325.851 169.523 323.973 170.314 322.082 170.644C320.088 170.995 318.68 170.803 316.749 170.241C316.505 170.171 316.248 170.088 316.08 169.896C316.016 169.822 315.967 169.731 315.888 169.673C315.775 169.593 315.622 169.596 315.485 169.569C314.746 169.404 314.477 167.895 313.533 167.529C312.492 167.125 311.328 167.275 310.222 167.434C308.545 167.672 294.217 170.308 293.967 169.431C293.75 168.668 295.146 167.843 294.62 167.043C293.842 165.855 290.216 166.429 289.013 166.402C286.875 166.35 284.733 166.301 282.595 166.249C280.372 166.197 278.148 166.145 275.925 166.09C275.653 166.084 270.683 166.27 270.778 166.414C271.016 166.774 271.01 167.159 271.267 167.504C271.554 167.892 272.143 168.216 272.519 168.524C273.42 169.26 273.897 170.363 272.22 170.449C269.66 170.583 267.021 170.617 264.449 170.65C259.679 170.711 254.908 170.775 250.137 170.836C249.101 170.849 248.011 170.879 247.128 171.417C246.246 171.954 245.702 173.197 246.273 174.062C246.575 174.523 247.11 174.77 247.51 175.149C248.778 176.35 248.341 178.601 247.092 179.819C245.842 181.038 244.065 181.508 242.379 181.976C233.756 184.37 225.454 187.91 217.754 192.471C214.81 194.215 211.459 196.185 208.185 195.195C208.371 193.469 208.133 191.741 208.194 189.99C207.813 189.813 207.342 189.896 207.003 190.143C205.992 190.882 205.748 192.99 205.659 194.117C205.574 195.222 204.993 197.727 205.818 198.585C206.612 199.413 208.802 199.688 209.819 199.337C210.464 199.114 211.035 198.723 211.63 198.39L211.637 198.378ZM357.95 170.158C357.754 170.067 357.546 169.972 357.329 169.99C357.113 170.009 356.893 170.177 356.902 170.394C356.911 170.58 357.073 170.717 357.223 170.83C357.51 171.044 357.797 171.261 358.081 171.475C358.738 171.97 359.416 172.483 359.828 173.191C360.042 173.561 360.179 173.97 360.408 174.334C360.637 174.697 360.992 175.015 361.416 175.045C361.132 172.529 360.234 171.23 357.946 170.161L357.95 170.158ZM59.2058 576.718C60.8002 576.968 62.2418 575.857 63.5888 574.965C67.6175 572.295 72.9015 571.855 77.2265 569.705C81.7622 567.451 86.3743 565.255 91.2918 564.048C94.0652 563.367 96.9057 563.01 99.6882 562.375C102.129 561.816 104.514 561.046 106.893 560.276C111.396 558.819 115.901 557.362 120.382 555.841C125.201 554.204 130.018 552.482 134.477 550.026C137.321 548.459 140.067 546.574 143.228 545.841C144.202 545.615 145.29 545.454 145.931 544.687C146.341 544.201 146.487 543.554 146.591 542.928C146.615 542.781 147.04 538.856 146.631 539.174C143.436 541.678 139.202 542.289 135.189 542.891C120.259 545.127 105.485 548.392 91.0047 552.656C90.5465 552.79 90.0701 552.94 89.7371 553.279C89.3004 553.725 89.2087 554.394 89.0591 555.001C88.3138 558.019 85.6474 560.231 82.7793 561.425C79.9113 562.622 76.7836 563.01 73.7598 563.728C68.5796 564.959 63.6377 567.194 59.2913 570.27C58.7568 570.649 58.2223 571.144 57.7672 571.69C56.185 573.593 55.565 576.138 59.2058 576.712V576.718ZM150.598 587.259C152.474 584.803 154.541 582.381 155.213 579.384C155.87 576.458 155.149 573.144 156.756 570.612C158.231 568.285 161.148 567.448 163.732 566.495C177.776 561.321 187.422 548.529 195.503 535.93C196.499 534.378 197.293 534.678 198.677 535.606C200.378 536.749 202.177 537.393 200.43 539.617C195.754 545.56 191.078 551.504 186.401 557.448C181.533 563.636 176.634 569.858 170.788 575.133C169.083 576.672 167.293 578.135 165.806 579.885C164.264 581.697 163.078 583.777 161.771 585.762C159.309 589.5 156.386 592.937 153.091 595.967C151.783 597.17 148.741 598.844 147.232 596.889C145.513 594.659 148.842 589.617 150.091 587.931C150.256 587.708 150.424 587.485 150.595 587.262L150.598 587.259ZM254.685 405.817C257.886 417.323 257.669 429.574 255.607 441.337C253.545 453.099 249.685 464.464 245.647 475.704C244.682 478.389 243.701 481.08 242.382 483.609C240.803 486.633 238.759 489.382 236.725 492.121C235.372 493.942 233.985 495.796 232.128 497.097C226.71 500.897 221.478 497.934 215.699 497.726C218.588 494.69 220.549 490.839 222.623 487.234C224.896 483.282 227.254 479.379 229.578 475.457C234.214 467.638 238.756 459.721 242.25 451.309C244.416 446.089 246.169 440.71 247.919 435.338C249.819 429.501 251.74 423.554 251.832 417.418C251.869 414.926 250.296 405.649 254.688 405.817H254.685ZM186.866 504.629C187.7 503.035 189.535 502.228 191.304 501.935C193.072 501.642 194.896 501.743 196.652 501.382C201.658 500.35 205.112 495.875 207.971 491.639C211.771 486.01 215.366 480.197 217.974 473.924C223.35 460.991 224.303 446.703 227.84 433.151C228.82 429.391 230.787 429.312 234.15 429.104C238.02 428.866 241.896 428.16 245.638 427.158C246.157 429.418 245.558 431.77 244.963 434.015C242.809 442.122 240.632 450.298 236.844 457.781C235.708 460.02 234.434 462.189 233.164 464.354C227.473 474.033 221.783 483.713 216.09 493.389C215.14 495.005 214.178 496.636 212.919 498.025C210.977 500.173 208.378 501.682 206.606 503.969C204.523 506.663 203.515 510.463 200.442 511.935C197.18 513.499 193.387 511.599 190.281 509.742C187.104 507.845 185.064 508.074 186.86 504.626L186.866 504.629ZM166.038 218.032C166.435 218.17 166.835 218.304 167.254 218.359C168.57 218.533 169.871 217.855 170.83 216.933C171.731 216.065 172.425 214.914 172.486 213.665C172.489 213.582 172.492 213.497 172.458 213.42C172.391 213.268 172.214 213.203 172.055 213.155C171.505 212.984 170.946 212.813 170.369 212.813C169.132 212.813 168.048 213.588 166.89 214.025C165.833 214.425 160.198 214.175 159.929 214.877C159.309 216.481 165.1 217.712 166.041 218.032H166.038ZM138.729 172.089C139.267 172.315 139.856 172.373 140.439 172.406C140.611 172.416 140.788 172.425 140.947 172.364C141.142 172.287 141.286 172.119 141.441 171.979C142.275 171.218 143.518 171.182 144.648 171.185C144.233 170.223 144.16 169.117 144.438 168.106C144.572 167.617 144.789 167.132 144.737 166.628C144.676 166.035 144.26 165.549 143.863 165.107C142.193 166.652 141.472 169.059 139.679 170.461C139.132 170.888 138.439 170.974 137.914 171.377C138.057 171.731 138.356 171.933 138.729 172.092V172.089ZM104.777 172.712C104.997 172.678 105.351 172.807 105.889 173.155C107.547 174.236 110.082 174.584 111.958 175.36C112.459 175.568 112.993 175.8 113.286 176.255C113.497 176.579 113.558 176.973 113.616 177.354C113.787 178.491 113.955 179.645 113.815 180.788C113.561 182.834 112.327 184.917 113.094 186.832C113.619 188.142 115.116 188.985 116.506 188.753C117.776 188.543 118.601 187.55 119.972 187.449C121.386 187.345 122.862 187.837 124.065 188.549C126.139 189.78 127.834 191.621 130.033 192.611C132.168 193.57 134.584 193.634 136.924 193.683C140.406 193.756 144.031 193.799 147.19 192.33C149.007 191.484 150.76 190.122 152.758 190.296C153.136 191.099 152.587 192.018 152.04 192.721C148.842 196.847 144.642 200.653 139.474 201.398C138.573 201.53 137.364 201.887 137.455 202.794C139.874 203.219 142.382 202.046 144.78 202.568C146.072 202.849 147.248 203.634 148.002 204.718C148.204 206.762 148.998 208.86 149.847 210.714C151.441 214.19 153.763 217.278 156.121 220.29C157.391 221.911 158.735 223.457 160.07 225.024C160.339 225.338 161.148 225.888 161.304 226.151C161.707 226.823 161.374 227.18 160.372 227.137C159.728 227.11 158.906 227.211 158.286 227.046C157.666 226.881 157.797 226.759 157.333 226.432C156.35 225.739 155.394 224.987 154.435 224.26C149.444 220.473 143.216 219.544 137.18 218.243C136.689 218.136 136.163 218.035 135.699 218.228C135.235 218.42 134.914 219.031 135.204 219.44C135.305 219.584 135.458 219.679 135.607 219.767C137.184 220.714 138.766 221.667 140.446 222.409C141.597 222.919 142.788 223.329 143.958 223.799C146.86 224.969 149.346 226.89 152.202 228.078C152.797 228.326 153.555 228.515 154.089 228.872C154.019 228.827 155.293 229.468 154.706 229.505C150.397 229.773 146.121 230.586 142.009 231.914C140.748 232.321 139.502 232.779 138.243 233.191C137.287 233.506 136.322 233.793 135.339 234.007C132.303 234.67 128.949 236.175 126.857 233.014C125.47 230.919 124.288 228.686 122.743 226.707C121.267 224.819 119.551 223.585 117.685 222.186C115.98 220.913 115.342 219.095 114.45 217.229C113.751 215.766 113.179 214.376 113.182 212.718C113.182 212.464 113.192 212.189 113.054 211.976C112.917 211.759 112.666 211.649 112.425 211.566C111.142 211.145 109.752 211.301 108.405 211.212C107.058 211.123 105.586 210.687 104.911 209.517C109.78 210.729 115.009 210.32 118.155 205.882C118.405 205.528 118.644 205.122 118.616 204.688C118.592 204.315 118.375 203.988 118.161 203.68C117.306 202.443 116.423 201.23 115.507 200.036C115.003 199.376 114.462 198.704 113.717 198.341C112.972 197.978 111.961 198.02 111.432 198.662C110.51 199.783 111.713 201.411 112.941 202.183C113.338 202.434 113.787 202.709 113.906 203.167C114.071 203.802 113.518 204.383 112.984 204.767C111.634 205.745 109.908 206.456 108.314 205.971C106.719 205.482 105.656 203.344 106.707 202.046C105.363 201.768 103.882 202.364 103.103 203.494C101.851 202.605 101.325 200.821 101.89 199.395C103.503 197.993 106.182 200.855 107.984 199.709C108.717 199.242 108.952 198.252 108.827 197.391C108.705 196.542 107.141 194.288 108.353 193.61C108.503 193.527 108.68 193.503 108.848 193.488C109.89 193.378 110.941 193.362 111.985 193.436C112.049 193.787 112.208 194.12 112.437 194.395C113.247 193.252 112.336 191.279 111.643 190.241C111.393 189.868 111.105 189.508 110.73 189.263C110.088 188.848 109.273 188.821 108.567 188.53C107.196 187.965 106.42 186.496 106.023 185.064C105.272 182.373 105.837 179.444 105.397 176.686C105.238 175.693 103.864 172.852 104.771 172.718L104.777 172.712ZM120.061 164.853C119.615 165.308 119.001 165.565 118.546 166.008C118.014 166.524 117.312 167.516 116.551 166.524C116.264 166.148 116.218 165.641 116.228 165.168C116.252 163.94 116.57 162.718 117.147 161.631C117.471 161.02 117.886 160.421 117.95 159.731C117.962 159.612 117.959 159.486 117.914 159.373C117.816 159.135 117.541 159.016 117.284 158.989C116.729 158.934 116.182 159.212 115.791 159.609C115.4 160.006 115.143 160.516 114.92 161.023C114.019 163.066 113.506 165.281 113.424 167.51C113.418 167.678 113.415 167.852 113.491 168.002C113.567 168.155 113.711 168.259 113.854 168.35C114.499 168.76 115.232 169.028 115.989 169.129C117.208 169.291 118.225 169.541 118.659 170.785C118.839 171.301 119.792 174.972 118.13 174.557C119.148 174.81 120.375 173.796 121.145 173.173C121.304 173.042 121.444 172.889 121.603 172.758C122.174 172.278 122.929 172.089 123.613 171.792C124.297 171.496 124.991 170.998 125.122 170.262C124.853 170.134 124.526 170.223 124.273 170.372C124.019 170.522 123.799 170.736 123.537 170.879C123.106 171.114 122.596 171.148 122.144 171.34C121.829 171.475 121.539 171.686 121.197 171.722C120.36 171.814 120.443 170.907 120.724 170.415C120.843 170.204 121.02 170.036 121.176 169.853C121.9 168.998 121.97 167.92 122.544 167.025C122.626 166.899 122.709 166.768 122.831 166.683C123.106 166.49 123.503 166.585 123.757 166.802C124.01 167.022 124.154 167.339 124.288 167.645C124.331 167.739 126.493 165.98 126.225 165.082C126.142 164.798 125.849 164.554 125.565 164.633C125.473 164.486 125.687 164.34 125.855 164.3C127.202 163.998 128.405 164.26 129.642 164.798C131.664 165.678 133.775 166.621 135.119 168.372C135.427 168.775 135.702 169.224 136.13 169.499C136.557 169.774 137.202 169.801 137.51 169.398C137.639 169.23 137.688 169.019 137.758 168.821C138.243 167.425 139.676 166.646 140.846 165.745C140.968 165.65 141.093 165.546 141.145 165.4C141.228 165.155 141.056 164.884 140.827 164.767C140.598 164.648 140.33 164.645 140.073 164.642C137.361 164.618 134.624 164.535 131.991 163.876C130.082 163.396 128.222 162.749 126.38 162.052C125.766 161.82 124.251 160.885 123.616 161.099C123.298 161.206 122.773 162.422 122.404 162.73C121.732 163.295 121.139 163.796 120.537 164.37C120.378 164.523 120.22 164.679 120.058 164.844L120.061 164.853ZM144.404 180.329C144.523 180.559 144.859 180.586 145.085 180.458C145.311 180.329 145.452 180.1 145.592 179.883C146.35 178.717 147.361 177.712 148.537 176.964C148.674 176.875 148.821 176.786 148.906 176.646C149.511 175.672 148.335 173.961 147.29 175.103C146.072 176.438 145.281 178.741 144.404 180.329ZM148.323 181.218C148.604 181.658 150.611 181.389 151.121 181.392C151.227 181.392 151.35 181.392 151.426 181.313C151.487 181.255 151.505 181.169 151.521 181.087C151.692 180.256 151.857 179.373 151.557 178.582C151.527 178.503 151.484 178.417 151.402 178.393C151.337 178.375 151.27 178.405 151.209 178.436C150.574 178.747 149.978 179.144 149.45 179.615C149.135 179.896 147.996 180.705 148.323 181.218Z" fill="#B6835E"/>
<path d="M146.224 176.059C146.603 175.396 146.985 174.73 147.364 174.067C147.52 173.799 147.694 173.508 147.981 173.392C148.317 173.252 148.726 173.405 148.961 173.683C149.728 174.587 149.144 176.059 148.503 176.835C148.201 177.204 147.856 177.598 147.846 178.075C147.846 178.133 147.849 178.194 147.88 178.246C147.91 178.304 147.969 178.341 148.027 178.371C148.494 178.612 149.068 178.417 149.52 178.154C149.975 177.892 150.415 177.549 150.937 177.488C151.035 177.476 151.142 177.476 151.228 177.525C151.618 177.736 149.664 179.492 149.389 179.721C149.038 180.017 148.595 180.185 148.152 180.308C147.721 180.427 147.281 180.631 146.86 180.732C146.286 180.873 145.69 180.64 145.113 180.589C144.923 180.573 144.722 180.576 144.566 180.683C144.462 180.757 144.389 180.866 144.279 180.931C144.129 181.013 143.943 180.986 143.775 180.955C143.876 180.381 144.038 179.819 144.257 179.281C144.728 178.142 145.611 177.134 146.224 176.059Z" fill="#3D2620"/>
<path d="M123.201 164.195C123.375 163.856 123.626 163.471 123.919 163.547C124.203 163.621 124.298 164.119 124.191 164.488C124.084 164.858 123.852 165.142 123.668 165.456C123.485 165.771 123.342 166.192 123.458 166.541C123.549 166.816 123.772 166.959 123.983 167.066C124.365 167.258 124.783 167.399 125.196 167.277C125.599 167.158 125.947 166.809 126.335 166.62C126.723 166.431 127.239 166.473 127.407 166.947C127.483 167.161 127.471 167.417 127.419 167.652C127.263 168.37 126.775 168.914 126.246 169.207C125.721 169.497 125.15 169.577 124.594 169.677C122.975 169.968 121.255 170.545 120.116 172.148C120.037 171.434 120.394 170.743 120.69 170.105C121.579 168.19 122.202 166.147 123.198 164.201L123.201 164.195Z" fill="#3D2620"/>
<path d="M206.456 77.2129C228.13 77.2129 245.702 60.0626 245.702 38.9081C245.702 35.8752 245.329 32.9277 244.648 30.0994C244.446 32.0419 244.135 33.9662 243.637 35.8568C242.256 41.1103 239.3 46.1745 234.621 48.9325C232.452 50.2123 230.008 50.9484 227.58 51.6112C222.959 52.8727 218.261 53.8623 213.487 54.354C208.219 54.8946 203.494 54.519 198.536 52.7291C192.131 50.42 185.757 47.9124 179.92 44.406C175.259 41.6051 170.946 38.1109 167.562 33.8776C167.339 35.5239 167.214 37.2008 167.214 38.9081C167.214 60.0626 184.786 77.2129 206.459 77.2129H206.456Z" fill="#DADADA"/>
<path d="M206.456 0.603516C186.53 0.603516 170.085 15.1026 167.559 33.8777C170.946 38.111 175.256 41.6052 179.917 44.4061C185.754 47.9125 192.128 50.4201 198.533 52.7292C203.491 54.516 208.216 54.8947 213.484 54.3541C218.258 53.8624 222.956 52.8728 227.577 51.6113C230.008 50.9485 232.449 50.2124 234.618 48.9326C239.297 46.1715 242.253 41.1104 243.634 35.8569C244.132 33.9663 244.443 32.039 244.645 30.0995C240.567 13.1905 225.024 0.603516 206.456 0.603516ZM218.689 22.2986C217.388 23.7067 215.574 24.5558 213.71 25.014C211.847 25.4721 209.92 25.5729 208.005 25.6981C205.903 25.8356 203.753 25.9913 201.637 25.9394C201.637 24.4642 201.667 22.992 201.771 21.5198C201.817 20.8722 201.856 20.2064 201.679 19.5864C202.199 19.5039 202.69 19.2565 203.161 19.006C207.464 16.587 212.638 15.408 217.336 13.945C217.296 13.3341 216.789 12.8668 216.301 12.4972C214.266 10.9517 211.945 9.84906 209.596 8.86556C207.345 7.92176 205.122 6.80692 202.754 6.18078C202.565 6.13191 202.373 6.09525 202.18 6.05249C203.717 5.64321 205.308 5.4294 206.896 5.43246C208.836 5.43857 210.778 5.76538 212.605 6.42818C213.533 6.76721 214.443 7.19177 215.201 7.82707C216.145 8.62426 216.811 9.71772 217.776 10.4874C218.784 11.2907 220.155 11.7916 220.665 12.9767C220.83 13.3616 220.885 13.7831 220.922 14.2015C221.178 17.0726 220.644 20.1758 218.689 22.2956V22.2986Z" fill="#EDEDED"/>
<path d="M220.668 12.9809C220.158 11.7958 218.787 11.2949 217.779 10.4916C216.814 9.72191 216.148 8.62845 215.204 7.83127C214.45 7.19596 213.537 6.76835 212.608 6.43237C210.782 5.76652 208.842 5.4397 206.899 5.43665C205.311 5.43054 203.723 5.6474 202.184 6.05668C202.376 6.09945 202.568 6.13304 202.758 6.18497C205.125 6.81111 207.348 7.92901 209.599 8.86975C211.945 9.85325 214.267 10.9559 216.304 12.5014C216.792 12.871 217.3 13.3383 217.339 13.9491C212.642 15.4122 207.464 16.5912 203.164 19.0102C202.694 19.2607 202.202 19.5081 201.683 19.5905C201.86 20.2106 201.82 20.8764 201.774 21.524C201.67 22.9962 201.637 24.4684 201.64 25.9436C203.757 25.9955 205.907 25.8398 208.008 25.7023C209.923 25.5771 211.851 25.4763 213.714 25.0181C215.577 24.56 217.391 23.7109 218.692 22.3028C220.647 20.1831 221.182 17.0799 220.925 14.2088C220.888 13.7903 220.833 13.3688 220.668 12.984V12.9809Z" fill="white"/>
<path d="M194.303 24.4448C193.424 24.0355 192.569 23.5101 191.973 22.7435C191.445 22.0624 191.148 21.2347 190.895 20.41C190.44 18.9103 190.113 17.3251 190.238 15.7735C191.072 15.9934 191.9 16.2438 192.724 16.5035C195.073 17.2396 197.419 18.0215 199.639 19.0813C200.177 19.3379 200.73 19.6158 201.322 19.622C201.445 19.622 201.561 19.6036 201.68 19.5853C201.661 19.5181 201.652 19.4509 201.628 19.3868C201.112 18.0306 199.554 17.4442 198.167 17.0135C195.519 16.195 192.843 15.3 190.113 14.8022C188.595 14.5273 187.233 14.2249 185.831 14.1608C184.829 14.1149 183.809 14.1913 182.697 14.4845C180.507 15.0618 178.479 16.1155 176.469 17.1632C174.911 17.9726 173.314 18.8156 172.178 20.1534C171.384 21.088 170.858 22.2151 170.394 23.3483C167.446 30.5291 166.579 38.5254 167.728 46.201C168.033 48.2413 168.479 50.2663 169.236 52.1845C170.018 54.1606 171.115 55.9933 172.227 57.8045C174.035 60.755 175.913 63.7147 178.418 66.1032C179.899 67.5143 181.576 68.6994 183.247 69.8814C185.858 71.7293 188.613 73.6322 191.787 74.0323C194.087 74.3225 196.377 73.8002 198.665 73.6261C199.759 73.5436 201.142 73.4062 202.196 73.7849C203.195 74.1453 203.897 74.6279 205.052 74.5363C206.203 74.4446 207.266 73.8949 208.237 73.2718C210.782 71.6346 212.935 69.3958 214.468 66.7874C214.743 66.32 215.006 65.8008 214.942 65.2632C214.884 64.7929 214.584 64.3897 214.3 64.0109C206.136 53.1191 201.664 39.5394 201.64 25.9384C199.096 25.8773 196.6 25.5138 194.303 24.4448Z" fill="#F9B233"/>
<path d="M169.835 32.35C169.929 33.1716 170.064 33.9871 170.259 34.7904C170.815 37.0751 171.903 39.2986 173.702 40.8136C174.395 41.397 175.183 41.8673 175.855 42.4752C176.515 43.0738 177.052 43.7916 177.636 44.4635C181.093 48.4342 186.182 50.6303 191.301 51.8673C196.417 53.1043 201.701 53.5106 206.854 54.601C208.225 54.8911 208.668 55.3676 209.315 56.5771C210.699 59.1581 211.96 61.8001 213.219 64.4452C213.708 65.4745 214.205 66.5252 214.346 67.6553C214.654 70.1293 213.228 72.469 211.704 74.4451C211.148 75.166 210.54 75.8929 209.709 76.2625C208.982 76.5862 208.161 76.5984 207.367 76.5832C201.438 76.4641 196.16 74.5917 190.54 72.8874C189.544 72.585 188.537 72.2765 187.645 71.739C186.945 71.3175 186.337 70.7646 185.733 70.2148C183.482 68.1654 181.227 66.1128 178.976 64.0634C177.538 62.753 176.09 61.4336 174.908 59.8819C173.753 58.3639 172.88 56.6565 172.031 54.9522C170.409 51.6932 168.628 48.4098 167.788 44.8453C167.596 44.0268 167.596 43.1807 167.596 42.3408C167.596 40.4012 167.116 28.0555 169.575 27.7837C169.615 29.3078 169.658 30.8411 169.835 32.353V32.35Z" fill="#A71943"/>
<path d="M225.989 9.87305C226.102 10.0044 226.227 10.1449 226.395 10.1907C226.579 10.2396 226.768 10.1632 226.939 10.0869C227.889 9.67452 228.842 9.26218 229.792 8.85289C229.945 8.7857 230.131 8.66047 230.082 8.49859C230.064 8.4375 230.015 8.39169 229.966 8.34892C228.311 6.86756 226.628 5.36176 224.615 4.42102C223.613 3.9537 222.547 3.63299 221.487 3.31534C220.275 2.95187 214.939 0.59696 214.123 1.66599C216.145 2.88773 218.466 3.59329 220.473 4.95859C222.48 6.32388 224.377 8.00073 225.986 9.87305H225.989Z" fill="#3AAA35"/>
<path d="M209.254 51.1228C210.665 51.1228 212.11 50.7197 213.475 50.4906C215.412 50.1638 217.348 49.84 219.285 49.5132C221.181 49.1925 223.084 48.8748 224.932 48.3373C226.02 48.0227 227.083 47.6348 228.142 47.2469C230.036 46.5535 231.933 45.8632 233.827 45.1699C235.149 44.6873 236.472 44.2047 237.757 43.6366C239.361 42.931 240.91 42.0972 242.379 41.1473C243.21 40.6097 244.04 40.0111 244.544 39.1589C245.311 37.8669 245.186 36.2573 245.036 34.7606C244.899 33.3831 244.761 31.9964 244.373 30.6678C244.123 29.8095 243.775 28.9848 243.5 28.1327C242.687 25.6067 242.458 22.7051 240.574 20.8389C238.79 21.2848 237.37 22.586 235.775 23.4962C233.878 24.5805 231.743 25.1119 229.691 25.8114C227.455 26.5719 225.503 27.87 223.258 28.6458C221.127 29.3819 218.924 29.9683 216.936 31.0618C214.804 32.2347 212.629 33.3373 210.424 34.3605C209.303 34.8828 208.173 35.3837 207.034 35.8663C206.258 36.1931 204.679 36.4986 204.221 37.2499C203.527 38.3831 203.784 40.0355 204.047 41.245C204.383 42.7905 204.935 44.275 205.482 45.7533C206.078 47.3599 206.676 48.9695 207.464 50.4906C207.541 50.6402 207.626 50.793 207.764 50.8907C207.886 50.9793 208.042 51.0098 208.191 51.0373C208.539 51.0953 208.894 51.1198 209.251 51.1198L209.254 51.1228Z" fill="#F9B233"/>
<path d="M238.802 57.7062C238.674 57.6054 238.487 57.6757 238.344 57.749C237.382 58.2377 236.459 58.8027 235.589 59.4411C235.714 59.212 235.937 59.0562 236.151 58.9096C236.679 58.5431 237.211 58.1735 237.739 57.807C238.24 57.4619 238.738 57.1137 239.239 56.7685C239.514 56.5792 239.786 56.6433 240.036 56.5211C240.308 56.3898 240.552 56.0905 240.757 55.8736C241.142 55.4674 241.737 54.8809 241.948 54.3586C240.9 56.9762 239.321 59.49 237.623 61.7349C237.415 61.2309 238.06 60.3238 238.261 59.8321C238.387 59.5236 239.153 58.0208 238.805 57.7123L238.802 57.7062Z" fill="#4C9437"/>
<path d="M178.699 44.1281C181.869 47.213 185.531 49.7848 189.493 51.7518C188.598 49.3877 187.834 46.9748 187.196 44.5282C186.893 43.3676 186.618 42.2008 186.408 41.0188C186.118 39.3817 185.959 37.7231 185.803 36.0707C185.485 32.7659 185.171 29.4519 185.229 26.1288C185.262 24.2107 185.421 22.2986 185.705 20.4019C185.84 19.51 187.028 16.2724 186.111 15.7043C185.809 15.5179 185.433 15.5149 185.079 15.5271C182.046 15.6523 179.059 16.6878 176.591 18.4532C175.265 19.4 175.189 20.7531 174.752 22.2834C174.752 23.1508 174.141 24.51 173.839 25.3316C173.509 26.2296 173.356 27.0573 173.216 28.0194C172.895 30.2186 172.575 32.4208 172.257 34.6199C172.077 35.8508 171.903 37.097 171.896 38.3371C173.326 39.3053 174.722 40.3132 175.998 41.4739C176.933 42.323 177.801 43.2454 178.705 44.1251L178.699 44.1281Z" fill="#3AAA35"/>
<path d="M172.358 43.939C172.453 45.231 172.941 46.6176 173.286 47.8638C174.004 50.4631 174.908 53.0043 175.913 55.5058C176.701 57.4667 177.535 59.4154 178.607 61.2358C180.434 64.339 182.911 67.0055 185.483 69.5284C187.456 71.4618 189.545 73.3616 192.071 74.4765C193.772 75.2278 195.525 75.182 197.291 75.6921C199.45 76.3182 201.655 76.8497 203.909 76.9719C205.556 77.0635 207.205 76.9352 208.848 76.81C212.474 76.532 216.237 76.2113 219.38 74.3879C220.348 73.8259 221.234 73.1325 222.11 72.43C222.84 71.8436 223.573 71.2449 224.12 70.4844C224.432 70.0507 224.682 69.5712 225.027 69.1649C225.406 68.722 225.886 68.38 226.313 67.9859C226.897 67.4514 227.379 66.8192 227.862 66.19C228.515 65.3378 229.169 64.4826 229.731 63.5632C230.201 62.7905 230.351 61.9872 231.231 61.6054C231.655 61.4221 232.077 61.2389 232.501 61.0556C233.118 60.7868 233.796 60.46 234.035 59.8308C232.932 60.0599 231.918 60.5944 230.852 60.9609C230.562 61.0617 230.266 61.1503 229.969 61.2358C226.203 62.3537 222.382 63.3097 218.576 64.3085C217.535 64.5803 216.484 64.8583 215.513 65.3225C214.233 65.9365 213.131 66.8558 212.062 67.7905C210.77 68.9175 209.508 70.0812 208.274 71.2724C207.294 72.2223 206.051 72.9676 205.205 73.9603C204.847 74.3787 204.175 74.6383 203.732 74.9682C203.598 75.069 202.272 75.8051 202.272 75.8173C202.327 75.4447 202.581 75.1362 202.746 74.8002C203.299 73.6854 202.288 72.2804 201.564 71.5107C200.944 70.854 200.345 70.179 199.759 69.4887C195.867 64.8919 192.773 59.6506 190.437 54.1069C190.107 53.325 189.792 52.5401 189.493 51.7459C185.531 49.7789 181.869 47.2071 178.699 44.1222C177.795 43.2395 176.927 42.3202 175.993 41.4711C174.716 40.3135 173.32 39.3025 171.891 38.3342C171.891 38.9329 171.921 39.5315 172.019 40.1241C172.236 41.4375 172.263 42.65 172.358 43.9329V43.939Z" fill="#4C9437"/>
<path d="M244.001 39.0585C244.327 38.524 244.41 37.8795 244.447 37.2534C244.477 36.7433 244.48 36.2332 244.486 35.7201C244.495 34.6419 244.508 33.5637 244.517 32.4855C244.517 32.2442 244.471 31.9327 244.233 31.8777C244.068 32.5466 243.903 33.2155 243.738 33.8844C243.393 35.2833 243.048 36.6852 242.623 38.0628C242.431 38.6859 242.22 39.3059 241.896 39.8709C241.634 40.326 240.962 41.0988 241.163 41.6638C241.615 41.4623 242.009 40.775 242.434 40.4574C242.993 40.0389 243.625 39.6694 243.998 39.0585H244.001Z" fill="#A71943"/>
<path d="M193.222 11.0144C194.701 10.3332 195.779 9.11759 197.184 8.22572C198.723 7.24833 200.421 6.52444 202.184 6.05713C200.589 5.69671 198.961 5.54705 197.361 5.25383C195.733 4.95756 194.062 4.9881 192.41 5.0217C190.947 5.05224 189.545 5.21412 188.115 5.56232C184.377 6.47252 181.316 9.084 178.454 11.6558C177.712 12.3216 176.973 12.9936 176.313 13.7419C175.58 14.5757 174.957 15.4951 174.334 16.4145C173.598 17.5018 172.862 18.5861 172.126 19.6735C171.787 20.1774 169.551 23.5678 171.335 22.4896C171.967 22.1078 172.535 21.0571 173.06 20.5104C173.644 19.9025 174.255 19.3253 174.908 18.7999C178.415 15.9685 183.106 14.6521 187.575 15.2416C188.473 15.3607 189.358 15.5531 190.235 15.7822C190.266 15.4157 190.311 15.0522 190.394 14.6949C190.754 13.1585 191.759 11.6924 193.216 11.0205L193.222 11.0144Z" fill="#3AAA35"/>
<path d="M199.639 19.0798C197.416 18.02 195.073 17.2381 192.724 16.502C191.899 16.2454 191.072 15.9919 190.238 15.772C190.113 17.3236 190.439 18.9057 190.895 20.4085C191.145 21.2332 191.441 22.064 191.973 22.742C192.568 23.5087 193.424 24.034 194.303 24.4433C196.6 25.5123 199.096 25.8758 201.64 25.9369C201.64 24.4616 201.67 22.9894 201.774 21.5172C201.82 20.8697 201.86 20.2038 201.683 19.5838C201.563 19.6021 201.447 19.6205 201.325 19.6205C200.73 19.6113 200.18 19.3334 199.642 19.0798H199.639Z" fill="#FDC962"/>
<path d="M199.639 19.0792C200.177 19.3358 200.73 19.6137 201.322 19.6198C201.976 19.629 202.584 19.3113 203.158 19.0029C207.461 16.5838 212.636 15.4048 217.333 13.9418C217.293 13.3309 216.786 12.8636 216.298 12.494C214.264 10.9485 211.942 9.84588 209.593 8.86238C207.342 7.91858 205.119 6.80374 202.752 6.1776C202.562 6.12873 202.37 6.09208 202.177 6.04932C200.412 6.51663 198.717 7.24052 197.177 8.21791C195.772 9.10978 194.694 10.3254 193.216 11.0065C191.759 11.6785 190.754 13.1446 190.394 14.6809C190.308 15.0413 190.262 15.4048 190.235 15.7683C191.069 15.9882 191.896 16.2387 192.721 16.4983C195.07 17.2344 197.416 18.0163 199.636 19.0762L199.639 19.0792Z" fill="#6EB748"/>
</svg>
