<svg width="389" height="564" viewBox="0 0 389 564" fill="none" xmlns="http://www.w3.org/2000/svg">
<path d="M149.162 563.097C169.86 563.097 186.64 546.318 186.64 525.619C186.64 504.921 169.86 488.141 149.162 488.141C128.463 488.141 111.684 504.921 111.684 525.619C111.684 546.318 128.463 563.097 149.162 563.097Z" fill="#C6C6C6"/>
<path d="M182.056 534.673C182.056 534.673 182.056 534.667 182.053 534.661C182.093 536.296 182.261 537.943 182.435 539.569C182.435 537.928 182.439 536.268 182.056 534.673Z" fill="#3C3C3B"/>
<path d="M123.748 506.784C123.849 506.925 123.95 507.066 124.051 507.21C124.066 507.158 124.084 507.109 124.1 507.057C123.983 506.965 123.864 506.87 123.748 506.784Z" fill="#3C3C3B"/>
<path d="M167.873 493.727C167.855 493.736 167.824 493.736 167.793 493.736C167.806 493.742 167.815 493.751 167.827 493.757C167.842 493.748 167.858 493.736 167.873 493.73V493.727Z" fill="#3C3C3B"/>
<path d="M148.335 488.089C145.003 488.172 141.795 488.735 138.772 489.721C141.746 488.414 145.065 487.973 148.335 488.089ZM139.321 553.511C139.106 553.82 138.867 554.108 138.549 554.301C137.701 554.818 136.611 554.53 135.665 554.23C134.281 553.789 132.183 552.69 130.689 553.174C133.071 554.022 135.502 554.576 137.75 555.783C139.183 556.551 140.506 557.512 141.896 558.355C143.2 559.148 144.569 559.84 145.98 560.421C146.461 560.62 146.948 560.807 147.462 560.887C147.83 560.945 148.206 560.945 148.568 561.04C149.483 561.282 150.187 562.173 150.209 563.119C150.445 562.672 150.536 562.121 150.931 561.805C151.115 561.658 151.348 561.582 151.571 561.505C154.532 560.516 157.417 559.298 160.191 557.862C160.442 557.733 160.696 557.598 160.972 557.555C161.287 557.506 161.605 557.577 161.918 557.632C163.087 557.84 164.294 557.859 165.469 557.684C164.254 557.35 163.069 556.912 161.93 556.377C161.908 555.078 161.887 553.78 161.866 552.482C157.949 554.092 153.66 554.983 149.165 554.983C145.738 554.983 142.435 554.466 139.324 553.511H139.321ZM185.583 517.937C185.213 517.545 184.588 517.622 184.046 517.603C183.434 517.582 182.861 517.401 182.322 517.126C182.512 518.568 182.619 520.034 182.619 521.526C182.619 526.02 181.728 530.301 180.121 534.217C180.433 534.162 180.742 534.11 181.055 534.055C181.294 534.012 181.563 533.978 181.765 534.119C181.937 534.242 182.004 534.459 182.053 534.661C182.01 532.895 182.12 531.14 182.555 529.428C183.005 527.656 183.795 525.981 184.227 524.202C184.49 523.115 184.619 521.997 184.61 520.879C184.6 519.783 184.6 518.418 185.586 517.937H185.583ZM123.108 499.988C124.011 498.76 125.125 497.688 126.39 496.84C126.858 496.525 127.4 496.16 127.449 495.597C126.76 495.502 126.13 495.961 125.588 496.393C124.798 497.021 124.008 497.649 123.218 498.276C122.553 498.806 121.883 499.336 121.304 499.96C120.679 500.634 120.168 501.403 119.657 502.165C119.02 503.123 118.383 504.082 117.743 505.04C116.965 506.21 116.157 507.315 115.315 508.43C115.082 508.736 114.963 509.109 114.843 509.474C114.216 511.43 113.588 513.387 112.963 515.343C113.824 513.73 114.568 512.055 115.183 510.331C115.401 509.719 115.615 509.082 116.065 508.61C116.726 507.912 117.477 507.725 118.08 506.938C118.558 506.311 119.057 505.668 119.743 505.279C119.813 505.239 119.896 505.218 119.972 505.184C120.594 504.076 121.28 503.007 122.018 501.981C122.284 501.271 122.67 500.591 123.111 499.988H123.108ZM117.584 533.182C117.425 533.228 117.265 533.271 117.1 533.265C116.766 533.256 116.469 533.06 116.215 532.842C115.223 531.994 114.522 530.702 113.267 530.338C112.997 530.258 112.703 530.228 112.47 530.068C112.296 529.949 112.173 529.771 112.063 529.591C111.497 528.66 111.209 527.558 111.252 526.471C111.246 528.491 111.521 530.454 111.855 532.441C112.914 538.724 115.67 544.554 120.183 549.104C120.882 549.806 121.626 550.491 122.091 551.364C121.601 550.7 122.269 549.815 122.887 549.267C124.562 549.894 126.237 550.519 127.912 551.147C124.89 549.87 122.382 547.423 121.035 544.432C120.683 543.651 120.41 542.84 120.141 542.028C119.412 539.821 118.72 537.601 118.074 535.369C117.991 535.087 117.911 534.787 117.988 534.502C118.025 534.373 118.092 534.26 118.175 534.153C118.034 533.81 117.896 533.464 117.768 533.115C117.706 533.133 117.645 533.164 117.584 533.182Z" fill="#1D1D1B"/>
<path d="M152.208 488.469C154.716 488.87 157.196 489.55 159.612 490.319C161.066 490.781 162.512 491.28 163.926 491.856C164.435 492.064 167.202 493.718 167.797 493.736C162.472 490.16 156.063 488.071 149.165 488.071C148.886 488.071 148.613 488.087 148.338 488.093C149.56 488.136 150.772 488.252 151.96 488.433C152.043 488.445 152.129 488.457 152.211 488.472L152.208 488.469Z" fill="#DADADA"/>
<path d="M174.527 535.312C174.279 535.489 174.141 535.777 173.958 536.019C173.56 536.54 172.953 536.843 172.43 537.235C170.856 538.417 170.069 540.401 168.562 541.665C169.64 540.058 170.715 538.45 171.793 536.843C171.955 536.601 172.12 536.35 172.197 536.068C172.433 535.189 171.765 534.36 171.272 533.594C170.17 531.886 169.815 529.822 169.334 527.847C169.006 526.493 168.572 525.113 167.837 523.949C169.588 521.717 170.844 519.175 171.474 516.444C172.044 515.657 172.586 514.849 173.116 514.037C173.572 513.339 174.04 512.614 174.172 511.787C174.389 510.415 173.685 509.114 173.263 507.852C175.118 510.654 177.402 512.96 179.858 515.244C180.608 515.942 181.42 516.665 182.32 517.124C181.04 507.399 175.596 498.988 167.825 493.755C166.388 494.466 165.706 496.407 166.401 497.855C166.989 499.083 168.336 499.836 168.835 501.101C167.684 499.53 166.294 498.137 164.723 496.986C164.487 496.811 164.236 496.64 163.951 496.575C163.755 496.529 163.553 496.542 163.351 496.56C159.107 493.477 153.614 491.615 147.607 491.615C147.062 491.615 146.52 491.636 145.984 491.667C145.699 491.41 145.42 491.143 145.117 490.908C143.969 490.014 142.444 489.762 140.99 489.759C139.523 489.759 138.01 489.998 136.764 490.77C137.41 490.369 138.081 490.026 138.77 489.723C131.96 491.946 126.118 496.29 122.012 501.983C121.598 503.088 121.485 504.264 121.96 505.323C121.415 504.873 120.622 504.901 119.966 505.189C117.254 510.023 115.701 515.593 115.701 521.53C115.701 525.606 116.433 529.509 117.765 533.12C118.68 532.841 119.562 532.455 120.38 531.956C119.743 532.581 119.106 533.205 118.472 533.83C118.368 533.934 118.264 534.041 118.175 534.158C121.941 543.386 129.703 550.56 139.318 553.515C139.45 553.328 139.575 553.132 139.701 552.943C140.497 551.73 141.522 550.671 142.711 549.835C143.647 549.173 144.796 548.484 144.912 547.342C144.952 546.941 144.851 546.54 144.75 546.148C144.379 544.724 144.012 543.3 143.641 541.88C144.284 543.046 144.927 544.21 145.567 545.376C146.112 546.369 146.734 547.428 147.781 547.86C148.185 548.025 148.623 548.083 149.055 548.141C152.405 548.573 155.764 548.928 159.129 549.213C159.472 549.241 159.821 549.268 160.151 549.179C160.464 549.094 160.736 548.91 161.006 548.729C163.011 547.379 165.02 546.026 167.025 544.675C165.617 546.31 164.074 547.829 162.414 549.21C162.212 549.378 162.001 549.556 161.9 549.798C161.82 549.994 161.82 550.214 161.826 550.429C161.838 551.115 161.848 551.803 161.86 552.489C170.124 549.094 176.726 542.492 180.115 534.225C178.498 534.507 176.882 534.788 175.265 535.07C175.005 535.116 174.735 535.165 174.521 535.318L174.527 535.312Z" fill="#DADADA"/>
<path d="M138.904 531.808C139.651 532.053 140.414 532.268 141.194 532.448C141.491 534.025 141.788 535.599 142.085 537.176C140.809 535.529 139.74 533.719 138.904 531.808ZM125.912 521.79C125.741 522.92 125.582 524.056 125.389 525.182C125.3 525.697 125.205 526.22 124.96 526.683C124.712 527.142 124.326 527.512 123.947 527.871C123.052 528.719 122.161 529.564 121.267 530.412C122.299 529.959 123.08 529.099 123.947 528.376C124.813 527.656 125.9 527.035 127.009 527.225C127.52 527.313 127.985 527.565 128.445 527.803C131.167 529.227 134.054 530.323 137.021 531.113C132.229 529.129 128.319 525.841 125.912 521.79ZM182.619 521.526C182.619 526.021 181.728 530.302 180.121 534.218C178.504 534.5 176.887 534.781 175.271 535.063C175.011 535.109 174.741 535.158 174.527 535.311C174.279 535.489 174.141 535.777 173.957 536.019C173.559 536.539 172.953 536.842 172.429 537.234C170.855 538.416 170.069 540.4 168.562 541.665C169.64 540.057 170.715 538.45 171.792 536.842C171.955 536.6 172.12 536.349 172.197 536.068C172.432 535.189 171.765 534.359 171.272 533.593C170.17 531.885 169.814 529.821 169.334 527.846C169.006 526.493 168.571 525.112 167.836 523.948C169.588 521.716 170.843 519.175 171.474 516.444C172.043 515.657 172.585 514.848 173.115 514.037C173.571 513.339 174.04 512.613 174.172 511.786C174.389 510.415 173.685 509.113 173.262 507.852C175.118 510.653 177.402 512.959 179.858 515.243C180.608 515.941 181.419 516.664 182.319 517.123C182.509 518.565 182.616 520.032 182.616 521.523L182.619 521.526ZM161.905 549.791C162.006 549.546 162.218 549.372 162.42 549.203C164.079 547.822 165.623 546.307 167.031 544.668C165.026 546.019 163.017 547.372 161.011 548.722C160.742 548.903 160.469 549.087 160.157 549.173C159.826 549.261 159.474 549.237 159.134 549.206C155.769 548.922 152.41 548.566 149.061 548.135C148.629 548.08 148.188 548.021 147.787 547.853C146.74 547.421 146.118 546.362 145.573 545.37C144.93 544.203 144.287 543.04 143.647 541.873C144.018 543.297 144.385 544.721 144.756 546.141C144.857 546.533 144.958 546.934 144.918 547.335C144.804 548.478 143.653 549.166 142.716 549.828C141.531 550.664 140.506 551.723 139.706 552.936C139.581 553.126 139.455 553.318 139.324 553.508C142.435 554.464 145.741 554.981 149.165 554.981C153.663 554.981 157.949 554.087 161.866 552.479C161.853 551.794 161.844 551.105 161.832 550.419C161.829 550.204 161.826 549.987 161.905 549.788V549.791ZM120.382 531.952C119.565 532.451 118.683 532.837 117.768 533.116C117.896 533.465 118.037 533.808 118.175 534.154C118.264 534.037 118.368 533.93 118.472 533.826C119.109 533.202 119.746 532.577 120.379 531.952H120.382ZM121.962 505.323C121.488 504.263 121.601 503.087 122.014 501.982C121.273 503.008 120.591 504.076 119.969 505.185C120.624 504.897 121.417 504.869 121.962 505.32V505.323ZM140.995 489.759C142.45 489.759 143.975 490.013 145.123 490.907C145.426 491.143 145.705 491.412 145.989 491.666C146.525 491.636 147.067 491.614 147.612 491.614C153.62 491.614 159.113 493.479 163.357 496.559C163.559 496.541 163.761 496.532 163.957 496.575C164.242 496.639 164.493 496.81 164.729 496.985C166.299 498.136 167.689 499.529 168.841 501.1C168.342 499.836 166.994 499.079 166.406 497.855C165.711 496.406 166.394 494.468 167.83 493.755C167.818 493.748 167.809 493.739 167.797 493.733C167.203 493.715 164.435 492.061 163.926 491.853C162.512 491.277 161.066 490.775 159.612 490.316C157.199 489.551 154.716 488.868 152.208 488.467C152.126 488.454 152.04 488.439 151.957 488.427C150.772 488.246 149.557 488.13 148.335 488.087C145.004 488.17 141.795 488.733 138.772 489.719C138.084 490.022 137.413 490.365 136.767 490.766C138.013 489.991 139.526 489.753 140.992 489.756L140.995 489.759Z" fill="#3C3C3B"/>
<path d="M166.615 522.504C165.598 521.638 164.303 521.172 163.008 520.839C164.545 520.992 166.183 521.13 167.552 520.413C167.962 520.199 168.332 519.914 168.681 519.611C169.75 518.686 170.644 517.593 171.474 516.445C171.777 515.134 171.939 513.784 171.939 512.397C171.939 506.05 168.605 500.37 163.357 496.558C163.271 496.564 163.185 496.573 163.103 496.579C159.799 496.882 156.725 494.843 153.421 494.534C152.949 494.491 152.462 494.482 152.012 494.628C151.473 494.803 151.026 495.186 150.613 495.575C149.272 496.842 148.111 498.303 147.177 499.898C147.79 498.073 148.764 496.374 150.025 494.919C150.203 494.714 150.402 494.46 150.325 494.2C150.291 494.087 150.209 493.992 150.123 493.909C149.125 492.941 147.56 492.837 146.427 492.035C146.271 491.925 146.133 491.793 145.989 491.665C135.438 492.259 126.727 498.597 124.1 507.057C125.37 508.058 126.727 509.396 128.402 509.384C129.648 509.375 130.781 508.713 131.923 508.214C134.486 507.094 137.306 506.729 139.991 505.955C141.476 505.526 143.117 504.767 143.509 503.272C143.448 504.17 143.387 505.067 143.326 505.964C143.304 506.267 143.289 506.591 143.439 506.855C143.592 507.127 143.889 507.28 144.131 507.483C144.504 507.795 144.746 508.233 144.982 508.661C146.369 511.2 147.756 513.735 149.146 516.273C149.492 516.907 149.857 517.562 150.441 517.991C150.827 518.273 151.28 518.438 151.731 518.6C152.946 519.038 154.159 519.476 155.374 519.914C153.699 519.798 151.939 519.697 150.42 520.413C148.301 521.408 147.187 523.705 145.744 525.551C144.465 527.189 142.854 528.53 141.32 529.933C141.164 530.074 141.005 530.227 140.934 530.426C140.861 530.637 140.9 530.87 140.943 531.09C141.029 531.543 141.115 531.993 141.201 532.446C143.246 532.924 145.395 533.181 147.618 533.181C156.051 533.181 163.476 529.516 167.842 523.95C167.506 523.414 167.111 522.921 166.621 522.504H166.615Z" fill="#EDEDED"/>
<path d="M137.021 531.116C137.633 531.37 138.264 531.6 138.904 531.808C138.867 531.725 138.827 531.649 138.79 531.566C138.196 531.434 137.609 531.272 137.018 531.116H137.021Z" fill="#EDEDED"/>
<path d="M126.96 511.529C126.828 511.115 126.571 510.757 126.32 510.405C125.563 509.343 124.804 508.277 124.048 507.215C123.549 508.874 123.282 510.61 123.282 512.405C123.282 515.785 124.231 518.976 125.909 521.796C126.341 518.957 126.727 516.113 127.024 513.256C127.082 512.68 127.137 512.083 126.96 511.532V511.529Z" fill="#EDEDED"/>
<path d="M168.685 519.614C168.332 519.917 167.965 520.202 167.555 520.416C166.186 521.133 164.548 520.998 163.011 520.842C164.306 521.173 165.601 521.641 166.618 522.508C167.105 522.924 167.5 523.417 167.839 523.953C169.591 521.721 170.846 519.179 171.477 516.448C170.647 517.596 169.756 518.689 168.685 519.614Z" fill="#706F6F"/>
<path d="M140.931 530.427C141.002 530.228 141.161 530.078 141.317 529.934C142.851 528.532 144.462 527.191 145.742 525.553C147.184 523.706 148.298 521.413 150.417 520.415C151.936 519.701 153.697 519.803 155.371 519.916C154.156 519.478 152.943 519.04 151.728 518.602C151.278 518.44 150.825 518.275 150.439 517.993C149.857 517.564 149.493 516.909 149.143 516.275C147.756 513.737 146.369 511.202 144.979 508.663C144.747 508.235 144.502 507.797 144.128 507.484C143.886 507.282 143.589 507.129 143.436 506.857C143.286 506.59 143.304 506.269 143.323 505.966C143.384 505.068 143.445 504.171 143.506 503.274C143.115 504.768 141.473 505.528 139.988 505.956C137.3 506.731 134.48 507.092 131.92 508.216C130.778 508.715 129.645 509.377 128.399 509.386C126.724 509.398 125.371 508.06 124.097 507.059C124.082 507.111 124.063 507.16 124.048 507.212C124.804 508.274 125.564 509.34 126.32 510.402C126.571 510.754 126.825 511.116 126.96 511.526C127.137 512.077 127.082 512.674 127.024 513.25C126.73 516.107 126.341 518.951 125.91 521.79C128.316 525.841 132.226 529.132 137.018 531.113C137.606 531.269 138.194 531.435 138.791 531.563C138.825 531.646 138.868 531.723 138.904 531.805C139.651 532.05 140.414 532.265 141.195 532.445C141.109 531.992 141.023 531.542 140.938 531.089C140.895 530.868 140.855 530.636 140.928 530.424L140.931 530.427Z" fill="#706F6F"/>
<path d="M150.123 493.913C150.209 493.995 150.292 494.087 150.325 494.204C150.402 494.464 150.206 494.718 150.025 494.923C148.764 496.374 147.79 498.077 147.178 499.902C148.109 498.307 149.269 496.849 150.613 495.578C151.027 495.19 151.474 494.807 152.013 494.632C152.463 494.485 152.95 494.491 153.421 494.537C156.725 494.847 159.799 496.886 163.103 496.583C163.189 496.573 163.271 496.567 163.357 496.561C159.113 493.478 153.62 491.616 147.613 491.616C147.068 491.616 146.526 491.638 145.99 491.668C146.134 491.797 146.271 491.929 146.428 492.039C147.561 492.844 149.125 492.948 150.123 493.913Z" fill="#706F6F"/>
<path d="M270.249 300.391C268.718 298.726 267.217 296.993 266.201 294.972C265.184 292.951 264.685 290.59 265.252 288.401C265.57 287.17 266.201 286.049 266.835 284.95C268.108 282.739 269.447 280.504 271.391 278.854C274.404 276.294 278.498 275.452 282.429 275.032C286.361 274.613 290.399 274.515 294.095 273.112C295.794 272.466 297.378 271.563 298.997 270.736C304.637 267.855 310.761 265.923 317.032 265.044C318.839 264.79 320.697 264.625 322.47 265.056C324.243 265.488 325.933 266.612 326.622 268.302C327.29 269.934 326.922 271.842 326.077 273.388C325.229 274.934 323.949 276.19 322.688 277.421C320.982 279.083 319.277 280.749 317.571 282.412C315.504 284.426 313.395 286.502 312.158 289.111C311.095 291.355 310.743 293.86 310.406 296.319C310.023 299.099 309.641 301.879 309.258 304.66C309.108 305.75 308.946 306.876 308.358 307.81C307.393 309.344 305.513 310.006 303.74 310.392C298.131 311.607 292.313 311.08 286.578 311.301C284.26 311.39 281.976 311.65 279.68 311.947C278.259 312.131 277.114 312.269 276.14 311.05C274.878 309.47 275.087 306.996 274.085 305.202C273.084 303.407 271.63 301.901 270.249 300.397V300.391ZM0.323522 495.29C0.164301 498.722 5.18588 500.302 7.86814 500.997C10.8229 501.763 13.94 502.228 16.5212 503.857C19.8648 505.967 21.7816 509.672 24.3138 512.706C28.8975 518.193 35.5389 521.482 42.0822 524.363C45.432 525.839 48.8369 527.256 52.4194 528.004C57.9431 529.155 63.6965 528.674 69.2386 529.724C75.0593 530.827 80.5433 533.644 84.8269 537.734C85.9047 534.988 86.86 532.122 86.8478 529.173C86.8417 527.507 86.5232 525.842 85.9108 524.292C85.6138 523.539 85.2495 522.81 84.8667 522.097C81.2383 515.321 75.9289 509.451 69.5509 505.165C67.2728 503.634 64.8018 502.28 62.0981 501.812C59.6455 501.389 57.1347 501.714 54.6484 501.659C48.6715 501.53 42.9488 499.218 37.6761 496.398C32.4035 493.578 27.4186 490.216 21.9929 487.708C16.8029 485.311 10.483 483.798 5.55025 486.686C2.56792 488.434 0.488867 491.821 0.326584 495.284L0.323522 495.29Z" fill="#1D232A"/>
<path d="M64.4069 482.696C65.0377 475.687 65.8858 468.7 66.9453 461.746C67.475 458.268 68.0598 454.799 68.6936 451.339C68.9508 449.936 69.5418 448.837 69.4652 447.392C69.2999 444.364 69.9 441.296 71.1891 438.549C72.3802 438.145 73.3907 437.266 74.4256 436.571C75.8678 435.603 77.4722 434.914 79.0706 434.253C84.582 431.969 90.118 429.676 95.9143 428.261C100.088 427.241 104.552 426.699 108.627 428.059C113.805 429.786 113.53 436.442 113.787 440.894C114.124 446.715 113.686 452.87 112.795 458.626C112.718 459.119 112.642 459.612 112.565 460.105C112.115 463.008 110.413 465.617 109.056 468.182C103.741 478.229 98.422 488.275 93.1065 498.324C91.8143 500.765 90.4855 503.367 90.6661 506.123C90.712 506.842 90.8651 507.562 90.7794 508.279C90.663 509.258 90.1211 510.125 89.6312 510.979C87.0591 515.492 85.6935 520.685 85.7119 525.879C80.9077 525.015 77.5396 520.713 75.1176 516.475C73.4795 513.612 72.0312 510.59 69.949 508.009C68.8804 506.683 67.6648 505.483 66.2349 504.549C64.2201 503.242 61.7216 502.344 59.3945 501.873C60.4723 499.674 60.9255 497.053 61.8808 494.76C63.5098 490.853 64.0334 486.879 64.41 482.693L64.4069 482.696ZM274.79 354.649C276.158 358.733 278.85 362.383 282.402 364.833C282.84 365.136 283.302 365.424 283.822 365.534C284.331 365.641 284.86 365.571 285.378 365.519C295.314 364.468 305.63 369.955 310.317 378.78C312.213 370.877 312.886 362.68 312.308 354.572C312.032 350.702 311.472 346.856 310.875 343.023C310.247 338.987 309.579 334.951 308.471 331.02C307.819 328.714 307.017 326.445 306.594 324.088C305.927 320.367 306.233 316.549 306.288 312.771C306.374 307.051 305.807 301.062 302.748 296.227C301.873 294.843 300.694 293.511 299.105 293.128C296.983 292.617 294.891 293.931 293.103 295.18C289.922 297.4 286.74 299.623 283.556 301.843C281.893 303.003 280.185 304.213 279.135 305.949C277.824 308.117 277.732 310.78 277.674 313.313C277.542 319.216 277.414 325.119 277.282 331.02C277.242 332.888 277.199 334.765 276.927 336.614C276.722 338.007 276.388 339.376 276.051 340.741C274.866 345.582 273.152 349.771 274.787 354.649H274.79ZM80.5985 365.338C82.6989 369.055 90.6477 369.196 94.4047 370.292C106.23 373.743 117.596 378.755 128.104 385.182C133.49 388.477 139.758 392.292 145.683 390.103C147.756 389.337 149.498 387.895 151.158 386.441C153.142 384.699 155.068 382.895 156.948 381.04C158.66 379.349 160.696 378.357 162.634 376.943C166.464 374.147 169.738 370.586 172.178 366.52C172.904 365.31 173.559 364.058 174.214 362.806C175.013 361.275 175.868 358.36 177.148 357.218C178.483 356.027 179.772 356.979 181.278 356.979C187.892 359.07 193.829 363.133 200.397 365.555C204.469 367.056 208.682 368.299 213.012 368.565C215.388 368.712 217.792 368.571 220.152 368.93C222.694 369.315 224.657 370.69 227.051 371.447C229.176 372.117 231.332 372.797 233.561 372.88C237.526 373.03 241.301 371.297 244.798 369.426C254.382 364.297 263.185 357.845 271.948 351.418C272.49 351.02 273.047 350.607 273.378 350.022C274.202 348.574 273.323 347.616 272.665 346.424C271.866 344.979 271.369 343.258 270.745 341.73C269.131 337.781 267.502 333.806 265.184 330.227C263.586 327.759 261.678 325.505 259.838 323.212C257.199 319.92 254.685 316.528 252.309 313.04C250.08 309.773 248.362 306.454 245.23 303.937C240.842 300.407 234.862 298.383 232.293 293.37C231.295 291.426 230.94 289.227 230.263 287.148C227.917 279.931 221.934 274.594 216.199 269.625C215.376 268.908 214.515 268.177 213.468 267.864C212.277 267.512 211 267.754 209.785 268.002C185.657 272.898 161.78 279.034 138.279 286.38C132.44 288.205 126.619 290.106 120.9 292.277C116.631 293.897 112.32 295.728 108.983 298.848C103.796 303.695 101.658 311.031 101.159 318.111C100.884 321.996 101.015 326.004 99.6223 329.639C98.4802 332.618 96.3919 335.129 94.221 337.468C90.464 341.513 86.3151 345.27 83.3848 349.946C81.0271 353.703 78.1244 360.95 80.6076 365.341L80.5985 365.338Z" fill="#2FCAE9"/>
<path d="M80.2344 520.119C78.7586 517.725 77.2674 515.294 76.456 512.602C77.4573 513 78.5045 513.279 79.57 513.432C80.905 513.625 82.3257 513.603 83.526 512.988C84.8243 512.324 85.749 511.025 87.1177 510.52C87.3473 511.42 86.8574 512.327 86.4471 513.163C84.9988 516.111 85.3693 518.894 84.61 521.883C83.8047 525.058 81.1959 521.681 80.2344 520.119ZM91.2023 498.26C92.9384 494.212 94.6776 490.155 96.7873 486.288C101.996 476.747 109.605 467.941 110.777 457.132C111.384 451.55 110.177 445.91 110.557 440.307C109.776 443.096 109.332 445.977 109.237 448.874C109.164 451.088 109.295 453.323 108.913 455.506C108.637 457.071 108.107 458.577 107.544 460.062C105.137 466.437 102.164 472.604 98.5571 478.385C97.02 480.847 95.1093 483.425 92.2801 484.089C91.4105 484.295 90.4736 484.307 89.6897 484.739C88.1128 485.605 87.8097 487.696 87.6903 489.491C87.4576 492.935 87.2218 496.38 86.9891 499.825C86.7288 503.649 86.542 507.777 88.618 511.001C88.5997 510.973 89.0957 508.312 89.1018 508.018C89.1263 507.008 89.0345 505.998 89.1233 504.987C89.3223 502.642 90.2837 500.406 91.2023 498.266V498.26ZM77.4511 507.219C75.6079 496.815 74.824 486.224 75.1088 475.66C73.5502 479.861 73.4614 484.39 73.2348 488.811C73.0909 491.6 73.3481 499.62 70.375 500.725C71.7529 502.89 76.9092 504.157 77.4511 507.219ZM279.245 309.072C279.331 310.649 280.026 312.116 280.507 313.619C281.312 316.136 281.523 318.797 281.731 321.433C281.949 324.219 282.169 327.006 282.387 329.792C282.745 323.907 283.119 317.93 285.093 312.376C285.476 311.295 285.929 310.162 285.712 309.035C285.596 308.432 285.292 307.872 285.24 307.259C285.044 304.975 288.287 303.411 287.938 301.145C285.219 303.306 279.016 304.896 279.245 309.075V309.072ZM300.103 308.493C299.837 313.102 299.579 317.783 300.614 322.281C301.616 326.623 303.725 330.65 305.082 334.887C306.607 339.658 307.73 344.557 308.432 349.517C308.891 352.757 309.154 356.149 308.012 359.217C306.87 362.282 303.955 364.91 300.691 364.723C303.989 366.098 307.112 367.883 309.972 370.023C309.598 369.744 310.544 364.6 310.593 363.899C310.753 361.713 310.841 359.521 310.838 357.328C310.829 353.25 310.483 349.15 309.76 345.136C308.312 337.064 304.855 329.413 304.564 321.13C304.448 317.786 305.1 314.464 305.259 311.121C305.419 307.777 305.008 304.234 303.033 301.531C302.908 301.359 302.752 301.175 302.54 301.151C300.158 300.866 300.167 307.321 300.1 308.493H300.103ZM277.656 357.616C278.265 358.746 278.887 359.897 279.809 360.788C281.676 362.595 284.46 363.057 287.056 363.112C289.656 363.167 292.31 362.91 294.809 363.627C293.508 362.408 291.726 361.887 290.081 361.199C282.163 357.87 277.295 349.934 276.918 341.519C274.916 347.34 274.714 352.154 277.653 357.616H277.656ZM102.173 326.035C102.234 325.683 102.721 321.139 102.654 321.173C104.405 320.368 106.16 319.559 107.911 318.754C109.81 317.881 111.705 317.009 113.619 316.17C115.122 315.511 116.889 314.881 118.334 315.652C117.538 315.894 116.742 316.136 115.946 316.378C114.669 316.767 113.38 317.159 112.213 317.808C110.9 318.54 109.782 319.578 108.683 320.603C107.507 321.696 103.652 326.409 102.173 326.032V326.035ZM109.794 325.414C116.298 326.164 122.906 326.4 129.44 326.88C133.445 327.174 137.655 327.539 140.986 329.78C142.257 330.634 143.344 331.73 144.425 332.82C151.143 339.603 157.864 346.382 164.582 353.164C163.44 349.765 162.004 346.434 159.931 343.51C156.507 338.681 151.541 335.215 146.675 331.847C152.27 332.649 155.886 338.543 161.342 340.013C158.847 337.043 156.094 334.287 153.13 331.786C151.767 330.634 150.356 329.538 148.831 328.613C143.907 325.628 138.078 324.602 132.401 323.635C130.704 323.344 128.99 323.056 127.269 323.148C125.236 323.261 123.276 323.904 121.28 324.308C119.544 324.657 109.993 324.308 109.797 325.417L109.794 325.414ZM164.643 337.426C169.266 341.712 172.769 346.281 176.682 351.263C177.255 351.994 178.566 352.83 178.948 353.614C179.49 354.719 178.942 355.044 179.821 355.907C181.514 357.57 185.893 358.483 188.11 359.423C193.63 361.768 199.148 364.113 204.669 366.459C206.267 367.139 207.871 367.818 209.558 368.241C212.1 368.878 214.745 368.905 217.366 368.927C220.511 368.954 224.161 368.489 227.226 369.16C230.113 369.79 232.875 370.966 235.928 370.966C237.226 371.049 238.779 370.908 239.422 369.778C240.169 368.471 239.14 366.869 238.056 365.822C236.075 363.908 233.745 362.402 231.43 360.911C228.441 358.982 225.453 357.056 222.465 355.127C226.473 354.147 230.484 353.167 234.492 352.187C232.192 351.909 229.893 351.627 227.593 351.348C225.269 351.067 222.945 350.782 220.64 350.39C212.281 348.969 204.24 346.131 196.245 343.308C195.749 343.133 195.213 342.925 194.947 342.472C194.561 341.82 194.947 340.935 195.575 340.509C196.202 340.083 196.992 340.007 197.746 339.943C208.686 339.006 219.672 338.614 230.652 338.776C227.606 337.129 224.078 336.66 220.637 336.274C207.256 334.768 193.786 334.051 180.323 334.131C178.171 334.143 176.009 334.177 173.887 334.538C171.492 334.945 169.187 335.763 166.897 336.577C166.14 336.847 165.375 337.101 164.643 337.423V337.426ZM152.218 380.241C151.743 386.542 160.877 376.569 162.224 375.449C164.174 373.826 166.128 372.2 167.983 370.467C168.654 369.839 169.318 369.193 169.848 368.443C170.387 367.681 170.779 366.826 171.168 365.978C171.958 364.257 172.791 362.466 172.981 360.568C168.623 359.815 165.28 358.305 161.547 355.865C158.201 353.675 154.854 351.486 151.507 349.3C154.869 352.392 158.412 355.803 159.288 360.286C159.352 360.62 159.398 360.987 159.223 361.278C159.061 361.551 158.752 361.688 158.455 361.796C155.874 362.708 152.833 362.172 150.72 360.433C152.992 362.821 155.038 365.718 155.2 369.01C155.405 373.091 152.508 376.34 152.215 380.244L152.218 380.241ZM81.6613 364.089C82.3931 365.975 85.2621 366.655 87.035 367.022C89.3162 367.494 91.6616 367.564 93.9611 367.938C100.731 369.04 106.757 372.693 112.927 375.688C119.146 378.707 125.646 381.098 132.131 383.486C135.781 384.831 139.434 386.175 143.084 387.519C144.743 388.131 147.034 388.536 147.916 387.001C148.292 386.346 148.243 385.538 148.185 384.782C148.063 383.214 147.937 381.643 147.646 380.097C145.852 370.568 137.603 363.045 128.27 360.418C126.715 359.98 125.126 359.658 123.539 359.337C119.317 358.483 115.098 357.628 110.875 356.774C108.885 356.37 106.882 355.966 104.984 355.249C103.664 354.75 102.4 354.107 101.059 353.669C97.9845 352.665 94.6684 352.79 91.4381 352.928C88.171 353.066 84.613 353.32 82.191 355.519C81.8205 355.852 81.4807 356.241 81.3184 356.716C81.15 357.215 81.1959 357.757 81.2479 358.284C81.4072 359.934 81.0673 362.549 81.6644 364.092L81.6613 364.089ZM210.22 291.126C207.93 291.068 205.639 291.046 203.352 291.083C201.784 291.108 198.78 290.661 197.559 291.653C205.501 293.56 213.928 294.111 221.969 295.786C223.628 296.132 225.294 296.494 226.889 297.066C229.865 298.135 232.799 299.966 235.934 299.534C232.394 298.352 230.909 293.836 227.449 292.437C226.347 291.99 225.138 291.904 223.953 291.824C219.378 291.521 214.804 291.245 210.22 291.129V291.126ZM183.437 281.518C186.943 280.66 190.596 280.691 194.206 280.725C197.608 280.758 201.007 280.789 204.408 280.823C206.57 280.844 208.793 280.853 210.817 280.085C209.246 278.949 207.789 277.58 206.904 275.856C206.019 274.132 205.771 272.004 206.595 270.25C204.604 270.44 202.672 271 200.758 271.576C193.425 273.783 186.178 276.273 179.034 279.034C165.886 284.065 151.627 286.87 138.096 290.875C136.155 291.451 134.213 292.029 132.272 292.608C128.876 293.622 125.481 294.638 122.085 295.652C116.953 297.186 111.797 298.726 106.953 301.013C106.564 301.197 106.117 301.475 106.123 301.907C106.126 302.183 106.325 302.415 106.53 302.596C108.178 304.044 110.664 303.744 112.841 303.487C116.084 303.104 119.452 303.022 122.523 304.133C125.374 305.165 128.35 307.213 131.145 306.047C128.23 304.605 125.312 303.163 122.397 301.72C122.1 301.573 121.754 301.325 121.834 301.004C121.877 300.829 122.042 300.713 122.195 300.618C123.738 299.681 125.557 299.35 127.327 298.986C137.125 296.974 146.541 293.524 155.962 290.229C160.616 288.6 165.283 286.999 170.02 285.621C174.478 284.322 178.942 282.623 183.437 281.524V281.518Z" fill="#2F8282"/>
<path d="M72.0651 432.675C72.2243 431.64 72.408 430.544 73.1031 429.76C73.5256 429.283 74.1013 428.973 74.6616 428.673C84.322 423.535 94.9408 419.157 105.851 419.981C106.928 420.063 108.012 420.195 109.032 420.553C110.526 421.074 111.879 422.112 112.556 423.539C113.055 424.589 113.169 425.771 113.273 426.928C113.466 429.062 113.662 431.196 113.854 433.331C113.91 433.952 113.98 434.601 113.879 435.223C113.845 435.425 113.812 435.734 113.72 435.921C113.68 435.998 113.355 436.322 113.352 436.325C113.634 433.906 112.424 431.457 110.551 429.907C108.674 428.355 106.215 427.632 103.784 427.519C101.353 427.406 98.9305 427.862 96.5698 428.453C90.0693 430.085 83.878 432.746 77.7235 435.397C75.8558 436.203 73.9696 437.017 72.31 438.196C71.8722 438.508 71.4221 438.854 70.8862 438.906C71.1894 437.917 71.5782 436.928 71.6762 435.903C71.7742 434.877 71.8997 433.744 72.0651 432.678V432.675ZM281.033 366.764C281.217 367.762 282.16 368.405 282.999 368.984C285.338 370.598 287.414 372.554 289.481 374.505C295.819 380.485 302.158 386.468 308.496 392.448C309.206 389.021 309.92 385.598 310.63 382.172C311.086 379.979 311.503 377.533 310.327 375.628C309.702 374.615 308.704 373.898 307.721 373.225C304.083 370.723 300.299 368.378 296.168 366.816C294.432 366.161 280.326 362.882 281.036 366.764H281.033ZM81.3979 136.898C80.0782 140.493 80.7885 144.826 83.3851 147.639C84.5976 148.953 86.1408 149.905 87.6656 150.839C90.2805 152.444 92.8985 154.051 95.5134 155.656C96.7382 156.406 98.0028 157.199 98.7866 158.402C99.9685 160.221 99.8093 162.563 99.6991 164.728C99.3102 172.279 100.036 179.836 100.762 187.359C101.398 193.979 102.038 200.599 102.985 207.182C104.13 215.152 105.658 223.125 107.78 230.897C109.687 237.881 108.753 246.191 108.031 253.347C106.215 271.33 100.128 289.557 104.546 307.081C103.805 303.1 108.87 300.834 112.835 300.008C131.056 296.211 149.058 291.367 166.722 285.503C173.293 283.323 179.818 281.002 186.34 278.681C196.643 275.016 206.95 271.348 217.253 267.683C213.671 257.569 208.974 247.851 203.278 238.76C202.329 237.241 201.334 235.71 200.887 233.974C200.376 231.993 200.614 229.902 200.859 227.868C203.095 209.197 205.333 190.525 207.568 171.853C216.068 169.094 224.911 180.087 233.16 176.645C235.208 175.791 236.803 174.147 238.341 172.545C242.486 168.222 246.632 163.895 250.778 159.572C251.136 159.198 251.507 158.8 251.626 158.298C251.859 157.303 251.035 156.397 250.282 155.705C242.958 148.974 235.631 142.244 228.307 135.514C223.652 131.24 219.001 126.965 214.347 122.691C210.238 118.915 206.059 115.091 201.068 112.593C190.645 107.372 177.24 108.174 168.678 100.262C167.778 99.4293 166.933 98.5015 165.84 97.9412C163.997 96.9981 161.795 97.2645 159.744 97.5554C138.445 100.577 116.475 103.835 98.113 115.045C95.691 116.524 93.1802 118.355 92.4086 121.086C91.9554 122.688 92.1667 124.421 91.6707 126.01C90.0815 131.096 83.3973 131.454 81.3979 136.901V136.898Z" fill="#DA1C5C"/>
<path d="M18.3065 171.238C16.4632 169.244 15.1068 166.81 13.0798 165.003C11.4294 163.531 9.24011 162.324 8.70733 160.178C8.43176 159.072 8.66753 157.912 8.90024 156.8C9.97804 151.678 11.0558 146.555 12.1336 141.433C12.5317 139.543 12.9451 137.608 13.9831 135.982C15.7865 133.15 19.1118 131.748 22.2472 130.547C23.3618 130.122 24.5039 129.693 25.695 129.669C26.7605 129.644 27.8016 129.944 28.8426 130.183C32.4312 131.007 36.1392 131.141 39.8166 131.27C42.8694 131.377 45.9221 131.484 48.9779 131.592C52.0062 131.699 55.0498 131.803 58.0566 131.426C60.4755 131.123 62.8424 130.508 65.2491 130.125C71.6516 129.108 78.3572 130.275 84.5944 131.919C84.7598 131.962 84.9374 132.014 85.0384 132.152C85.216 132.397 83.6207 134.604 83.4094 135.027C82.8154 136.206 82.347 137.458 82.1755 138.772C81.6703 142.654 83.8504 146.494 86.8449 149.011C89.8395 151.528 93.572 152.97 97.228 154.369C97.969 156.877 94.2793 157.168 92.8004 157.027C90.7857 156.834 88.7587 156.663 86.7347 156.745C83.3145 156.886 79.974 157.75 76.5966 158.304C72.7692 158.932 68.8775 159.167 65.0041 158.999C64.254 158.965 63.5007 158.919 62.7628 158.788C60.9348 158.463 59.2385 157.643 57.5116 156.957C56.6481 156.614 55.8857 156.574 55.01 156.139C54.1343 155.704 53.2738 155.279 52.4073 154.85C51.3418 154.32 50.4569 154.063 49.2903 153.98C48.9381 153.956 46.5498 153.892 46.4182 153.674C46.9326 154.513 46.4335 155.68 45.6037 156.21C44.7739 156.739 43.7359 156.794 42.75 156.788C41.3905 156.782 39.9789 156.681 38.7817 156.038C37.1803 155.181 36.2158 153.509 34.9481 152.211C33.6805 150.909 31.6198 149.948 30.0889 150.928C33.2549 154.097 36.4209 157.263 39.59 160.432C40.8332 161.675 42.1743 163.482 41.3109 165.016C36.522 165.273 32.2873 162.162 28.512 159.207C28.4293 160.655 28.0404 162.085 27.376 163.374C29.0723 164.284 30.6216 165.469 31.9505 166.862C33.2028 168.179 34.2439 170.343 33.0161 171.685C31.776 173.038 29.5499 172.178 27.973 171.241C29.7827 172.312 25.5572 174.56 24.6845 174.554C22.2993 174.541 19.8589 172.915 18.3126 171.241L18.3065 171.238Z" fill="#F0BFA2"/>
<path d="M234.93 177.534C244.455 182.265 256.648 185.483 262.472 194.987C262.842 195.591 263.225 196.2 263.739 196.687C264.202 197.125 264.756 197.455 265.307 197.777C275.678 203.895 286.845 206.99 298.685 209.36C303.189 210.254 307.516 211.849 311.907 213.191C318.732 215.276 325.728 216.755 332.713 218.227C336.479 219.024 340.364 219.581 343.782 221.519C346.219 222.906 347.747 225.089 350.365 226.127C353.28 227.282 356.421 227.919 359.547 227.383C362.416 226.893 365.218 225.463 368.096 225.919C366.565 225.677 367.539 230.904 368.513 231.522C368.896 231.764 369.346 231.875 369.787 231.973C370.123 232.046 370.463 232.113 370.806 232.089C371.471 232.043 372.074 231.645 372.512 231.143C372.95 230.641 373.25 230.034 373.544 229.434C373.672 229.263 373.96 229.382 374.076 229.563C374.193 229.743 374.239 229.973 374.401 230.111C375.05 230.653 378.277 228.846 379.034 228.552C380.384 228.029 381.759 227.49 382.876 226.568C383.571 225.993 384.147 225.282 384.689 224.56C386.45 222.211 387.959 219.578 388.409 216.675C388.859 213.772 388.094 210.563 385.905 208.61C384.429 207.293 382.408 206.598 381.22 205.018C379.854 203.199 379.52 200.229 377.31 199.694C376.471 199.492 375.595 199.746 374.768 200.003C370.35 201.396 366.005 203.016 361.758 204.859C359.743 205.732 357.716 206.666 355.539 206.953C352.67 207.33 349.777 206.549 347.039 205.609C331.488 200.26 318.349 189.687 303.747 182.118C294.934 177.55 285.562 174.071 275.904 171.784C271.416 170.722 266.789 169.886 262.72 167.709C258.62 165.513 255.337 162.09 252.113 158.737C251.332 157.926 250.383 157.047 249.263 157.151C248.549 157.218 247.94 157.678 247.376 158.119C242.606 161.845 237.835 165.571 233.065 169.298C231.531 170.495 229.884 171.885 229.605 173.811C229.158 176.907 232.982 176.561 234.923 177.525L234.93 177.534Z" fill="#F0BFA2"/>
<path d="M72.3832 408.77C72.766 404.639 73.5406 400.472 75.4268 396.776C76.8567 393.98 77.5059 390.303 78.6418 387.376C81.2873 380.542 82.0069 373.903 83.6848 366.772C84.432 363.597 86.1405 359.252 87.7205 356.398C88.1859 355.556 89.2484 355.669 90.0261 355.1C91.3856 354.108 95.1334 355.718 96.7991 355.963C105.587 357.262 109.598 358.355 118.031 361.141C121.821 362.393 125.606 363.799 129.271 365.314C132.266 366.555 136.442 366.965 138.8 369.341C139.856 370.406 140.404 370.532 141.886 374.093C142.186 374.816 143.68 377.884 143.68 378.668C143.68 380.217 122.562 403.273 115.495 408.43C114.491 409.165 113.447 409.942 112.905 411.06C112.519 411.856 112.164 412.383 112.351 413.323C112.461 413.874 112.663 414.407 112.721 414.964C112.844 416.121 112.342 417.26 112.345 418.424C112.345 418.865 112.421 419.306 112.473 419.743C112.62 420.977 112.599 422.227 112.577 423.47C112.406 422.83 111.717 422.496 111.098 422.263C108.927 421.452 106.671 420.901 104.42 420.356C103.973 420.249 103.526 420.138 103.07 420.074C102.023 419.927 100.957 420.019 99.9039 420.108C98.0178 420.27 96.1224 420.436 94.2792 420.873C90.7059 421.718 87.1693 423.038 83.8073 424.483C82.1202 425.209 80.4912 426.063 78.8072 426.795C77.3283 427.438 75.8922 428.014 74.496 428.844C73.8193 429.248 73.1487 429.667 72.4873 430.099C72.2087 429.41 72.2148 428.645 72.2301 427.901C72.2853 424.701 72.3128 421.544 72.2669 418.35C72.224 415.212 72.0893 411.899 72.3802 408.773L72.3832 408.77ZM227.617 372.133C231.423 376.212 236.221 379.687 240.416 383.368C241.705 384.498 242.998 385.633 244.118 386.929C246.721 389.932 248.304 393.665 250.493 396.981C256.335 405.845 266.088 411.247 275.687 415.784C277.08 416.443 278.528 417.104 280.071 417.153C281.06 417.184 282.043 416.96 283.035 416.954C285.454 416.939 287.702 418.203 290.105 418.473C293.74 418.883 297.353 416.908 299.659 414.07C301.964 411.228 303.134 407.634 303.847 404.045C304.151 402.523 304.386 400.962 305.081 399.571C305.884 397.964 307.274 396.653 307.794 394.933C308.805 391.61 306.3 388.34 303.97 385.768C302.004 383.597 300.142 381.185 298.008 379.182C296.358 377.633 294.747 376.368 293.544 374.347C293.302 373.94 293.076 373.52 292.775 373.153C292.491 372.801 292.142 372.504 291.799 372.21C288.871 369.714 285.996 367.191 283.06 364.714C281.942 363.771 280.785 362.871 279.759 361.83C276.569 358.587 274.869 354.206 273.253 349.956C271.492 349.904 270.255 351.576 269.104 352.911C266.645 355.755 263.304 357.666 260.034 359.518C255.285 362.21 250.536 364.901 245.787 367.59C242.701 369.338 239.409 371.138 235.866 371.022C233.671 370.948 222.985 367.158 227.624 372.13L227.617 372.133Z" fill="#D5AC8F"/>
<path d="M94.0984 131.473C94.8211 140.203 96.7348 148.834 99.7661 157.053C97.9075 154.649 96.052 152.242 94.1934 149.839C93.1064 148.43 91.9949 146.979 91.508 145.27C91.1314 143.954 91.1467 142.563 91.1651 141.192C91.1988 138.675 91.2325 136.161 91.2661 133.644C91.2815 132.603 91.257 131.458 90.5741 130.674C90.2863 130.346 89.873 130.049 89.8607 129.615C89.8454 129.137 90.3169 128.812 90.6997 128.521C91.903 127.6 92.644 126.102 92.644 124.584C92.644 126.834 93.8933 128.947 94.1046 131.473H94.0984ZM204.625 126.938C203.973 127.361 203.324 127.787 202.724 128.28C200.409 130.172 198.893 133.007 198.609 135.983C199.769 132.845 202.46 130.548 205.152 128.558C206.086 127.869 207.05 127.186 208.156 126.837C209.132 126.528 210.173 126.488 211.196 126.455C212.546 126.409 213.894 126.363 215.244 126.317C215.572 125.723 215.045 124.976 214.414 124.718C212.804 124.06 211.202 123.393 209.794 123.745C208.11 124.164 206.083 125.998 204.625 126.941V126.938ZM191.346 163.676C190.262 163.155 189.257 162.365 188.342 161.578C186.664 160.136 184.876 158.544 182.668 158.372C182.656 160.032 182.423 161.566 182.27 163.137C182.227 163.574 182.374 164.006 182.518 164.42C183.256 166.548 184.089 168.813 185.911 170.139C187.282 171.137 189.083 171.496 190.298 172.678C192.448 174.769 191.799 178.431 190.259 181.006C187.827 185.06 183.703 187.874 179.297 189.595C174.894 191.313 170.178 192.041 165.506 192.761C169.15 194.016 173.115 192.626 176.713 191.251C181.56 189.399 192.825 183.223 191.799 192.914C190.984 200.581 193.951 209.109 195.412 216.659C195.534 217.296 195.657 217.93 195.779 218.567C196.493 222.253 197.206 225.943 197.92 229.63C197.754 225.058 198.906 220.554 199.934 216.096C201.612 208.802 202.975 201.435 204.016 194.025C204.536 190.324 204.763 186.564 205.336 182.877C205.74 180.449 206.077 178.008 206.413 175.571C206.585 174.334 206.392 171.352 207.84 170.834C208.774 170.501 209.736 170.246 210.712 170.072C208.345 169.028 206.395 168.817 203.903 168.673C201.092 168.51 200.066 164.193 197.27 163.835C196.242 163.703 195.237 164.169 194.205 164.266C193.204 164.361 192.249 164.113 191.346 163.679V163.676ZM108.272 220.41C107.657 222.339 109.687 226.43 110.195 228.491C111.23 232.67 111.977 237.281 114.35 240.916C118.08 246.633 123.447 251.271 129.648 254.128C136.684 257.371 144.532 258.289 152.229 259.168C160.72 260.136 167.808 259.453 175.987 257.245C159.11 257.891 142.091 254.594 126.677 247.683C124.338 246.633 122.011 245.487 120.03 243.859C115.416 240.062 113.22 234.146 111.221 228.518C110.269 225.836 109.479 222.982 108.275 220.41H108.272ZM116.726 264.56C115.805 263.783 113.147 259.533 112.216 259.376C110.44 259.079 110.118 262.255 109.864 263.486C107.758 273.633 103.214 285.13 106.144 295.501C106.995 286.695 109.332 278.033 113.027 269.995C115.872 269.221 118.741 270.853 121.386 272.154C130.924 276.842 142.269 277.717 152.413 274.548C145.067 274.23 137.759 273.072 130.673 271.107C125.728 269.735 120.698 267.913 116.723 264.557L116.726 264.56ZM151.057 201.316C153.283 202.075 155.591 202.663 157.857 203.322C160.157 203.989 162.49 204.66 164.884 204.696C168.583 204.751 172.117 203.291 175.5 201.803C179.337 200.116 183.238 198.291 186.162 195.287C184.686 195.909 183.21 196.533 181.734 197.155C179.496 198.098 177.252 199.044 174.927 199.754C167.095 202.097 159.106 201.555 151.057 201.319V201.316ZM112.792 127.425C111.992 129.578 112.026 132.251 112.338 134.52C112.534 135.934 112.893 137.334 113.493 138.629C114.819 141.492 117.348 143.773 120.333 144.796C124.654 146.275 129.427 145.123 133.674 143.451C137.997 141.749 142.11 139.514 145.885 136.81C142.973 139.085 139.231 140.099 135.539 140.282C131.849 140.466 128.166 139.881 124.525 139.25C121.524 138.733 118.398 138.127 116.01 136.241C112.868 133.76 113.808 130.692 112.792 127.431V127.425ZM215.36 164.747C215.155 164.227 215.021 163.676 214.956 163.124C214.772 161.551 215.1 159.961 215.569 158.449C216.028 156.973 216.628 155.537 217.357 154.174C215.477 155.421 213.771 156.933 212.308 158.651C212.02 158.988 211.735 159.34 211.352 159.566C210.878 159.848 210.296 159.903 209.745 159.839C208.006 159.631 206.567 158.277 205.798 156.704C205.029 155.13 204.815 153.348 204.653 151.605C204.356 148.393 204.197 145.169 204.172 141.945C204.157 139.909 204.203 137.845 204.745 135.882C201.499 139.211 200.792 144.177 200.084 148.773C199.968 149.539 199.827 150.341 199.331 150.935C198.838 151.523 198.045 151.829 197.632 152.478C197.451 152.763 197.274 153.152 196.937 153.142C196.756 153.136 196.603 153.008 196.471 152.882C193.017 149.585 192.601 145.417 192.564 140.91C185.216 142.371 177.925 138.712 171.324 135.166C173.372 138.957 175.417 142.747 177.466 146.535C180.188 151.575 183.201 156.909 188.305 159.511C190.479 160.623 192.142 162.469 194.64 162.901C196.634 163.244 198.982 162.938 200.381 164.398C201.003 165.05 201.331 165.978 202.078 166.483C202.598 166.835 203.244 166.93 203.863 167.038C208.003 167.757 211.368 169.931 215.229 171.337C219.708 172.969 224.188 174.601 228.668 176.229C227.241 175.709 227.574 173.088 227.963 172.068C228.312 171.153 228.723 170.259 229.188 169.398C229.406 168.994 230.189 167.169 230.636 167.068C227.042 167.889 223.324 168.712 219.699 168.045C218.823 167.883 217.951 167.629 217.21 167.136C216.352 166.566 215.737 165.709 215.357 164.744L215.36 164.747Z" fill="#A71943"/>
<path d="M111.279 400.064C110.842 399.647 110.324 399.234 110.199 398.643C109.525 398.643 108.851 398.649 108.178 398.652C108.579 400.235 108.873 401.843 109.06 403.465C109.185 404.555 109.262 405.649 109.338 406.742C109.531 409.504 109.467 412.471 110.015 415.162C112.229 413.827 113.218 409.99 113.551 407.581C113.695 406.552 113.744 405.505 113.585 404.479C113.328 402.807 112.504 401.23 111.279 400.064Z" fill="#C49270"/>
<path d="M84.3311 402.018C84.0923 402.395 84.0586 402.86 83.9484 403.292C83.5503 404.863 82.1755 405.989 80.764 406.785C79.3524 407.582 77.8031 408.182 76.5936 409.259C74.8146 410.846 73.994 412.964 74.0981 415.239C74.1441 416.238 74.4013 420.402 76.0945 418.681C77.9746 416.767 79.8546 414.854 81.7346 412.94C82.3868 412.276 83.0421 411.608 83.5901 410.858C85.4824 408.267 85.9662 404.841 85.4641 401.675C85.1119 401.403 84.5669 401.641 84.3281 402.021L84.3311 402.018Z" fill="#C49270"/>
<path d="M88.3026 156.099C89.3192 156.108 92.574 156.675 93.2874 155.906C94.3744 154.74 92.2158 153.545 91.4135 153.227C86.6277 151.325 82.6503 147.48 80.5896 142.761C80.4273 143.726 79.1413 143.989 78.186 143.796C77.2276 143.603 76.2049 143.187 75.323 143.609C74.9617 144.963 75.0873 146.436 75.666 147.709C76.1161 148.698 76.8479 149.648 76.7591 150.731C76.6611 151.916 75.6109 152.783 74.5821 153.38C71.9427 154.917 68.8532 155.673 65.8004 155.526C62.1536 155.352 58.6875 153.937 55.3776 152.394C53.8282 151.671 52.2942 150.918 50.8122 150.07C50.3193 149.788 49.7987 149.458 49.5936 148.928C49.1465 147.774 50.4325 146.723 51.5593 146.206C52.2483 145.887 52.9525 145.603 53.666 145.339C50.5795 146.307 47.4472 147.143 44.226 147.287C42.3245 147.369 40.4261 147.21 38.5308 147.051C36.2405 146.858 33.6348 146.282 31.3628 146.488C31.7119 147.256 33.2245 147.238 33.9532 147.412C35.0769 147.682 36.1884 148.006 37.2815 148.389C39.4647 149.151 41.5713 150.137 43.5524 151.332C44.2566 151.754 44.9517 152.207 45.7263 152.486C46.6143 152.804 47.5696 152.875 48.4974 153.046C51.7308 153.646 54.7499 155.337 57.8639 156.356C61.3453 157.495 64.9645 158.221 68.6174 158.503C69.4227 158.564 70.231 158.607 71.0363 158.561C73.7339 158.411 76.2784 157.315 78.9178 156.73C81.9858 156.05 85.1641 156.071 88.3057 156.096L88.3026 156.099Z" fill="#B6835E"/>
<path d="M322.936 209.01C318.793 207.43 314.65 205.85 310.51 204.27C308.257 203.409 305.963 202.543 303.56 202.368C303.459 203.461 303.361 204.558 303.26 205.651C298.832 206.168 294.509 204.833 290.292 203.67C288.081 203.057 280.378 200.148 278.994 202.8C281.878 204.882 287.23 205.534 290.721 206.474C294.741 207.558 298.789 208.538 302.858 209.417C310.088 210.978 317.384 212.219 324.641 213.661C330.566 214.84 336.506 216.165 342.06 218.538C343.922 217.268 345.545 215.648 346.822 213.789C338.689 214.913 330.609 211.934 322.936 209.01Z" fill="#B6835E"/>
<path d="M386.624 216.206C386.082 216.503 385.372 216.142 385.069 215.603C384.766 215.064 384.766 214.415 384.772 213.799C384.463 213.824 384.15 213.845 383.841 213.87C384.3 215 383.703 216.313 382.837 217.174C381.97 218.034 380.853 218.594 379.913 219.375C378.893 220.22 378.1 221.307 377.126 222.207C376.156 223.108 374.9 223.842 373.58 223.732C373.32 223.711 373.045 223.647 372.858 223.463C372.705 223.31 372.631 223.098 372.564 222.89C372.301 222.057 372.092 221.16 372.313 220.312C372.656 218.989 374.003 217.893 373.749 216.549C372.466 216.959 371.183 217.366 369.9 217.777C368.648 218.175 367.132 219.476 366.011 219.626C366.054 218.178 368.225 217.397 369.318 216.861C370.825 216.123 372.484 215.695 374.162 215.649C374.334 215.646 374.508 215.643 374.671 215.704C375.255 215.927 375.271 216.769 375.02 217.345C374.554 218.42 373.59 219.198 373.023 220.22C372.457 221.243 372.515 222.835 373.602 223.261C374.557 223.634 375.555 222.86 376.235 222.091C377.742 220.382 379.003 218.346 381.006 217.259C381.627 216.922 382.319 216.678 382.84 216.197C384.117 215.018 383.887 212.924 383.207 211.322C382.996 210.826 382.739 210.324 382.31 209.996C381.878 209.666 381.324 209.549 380.794 209.442C378.127 208.9 375.464 208.358 372.8 207.819C372.628 208.254 373.241 208.551 373.7 208.628C376.03 209.02 378.305 209.751 380.43 210.789C380.859 211.892 381.055 213.187 380.491 214.228C379.928 215.269 378.379 215.79 377.506 214.99C377.126 214.641 376.942 214.13 376.587 213.753C376.26 213.407 375.813 213.205 375.359 213.068C371.707 211.944 368.072 214.485 364.762 216.396C360.062 219.109 352.918 221.88 347.851 218.695C347.71 221.032 348.984 223.316 350.833 224.749C352.686 226.179 355.047 226.834 357.383 226.972C357.961 227.005 358.552 227.009 359.11 226.846C359.636 226.693 360.108 226.399 360.601 226.157C363.225 224.862 366.305 225.061 369.223 225.288C369.236 226.32 368.773 227.29 368.501 228.288C368.231 229.287 368.198 230.478 368.917 231.219C369.033 231.338 369.165 231.442 369.318 231.506C371.158 232.275 373.559 227.808 374.793 226.862C375.017 226.932 375.053 227.244 374.971 227.465C374.888 227.685 374.732 227.887 374.726 228.123C374.719 228.417 374.961 228.671 375.237 228.769C375.513 228.867 375.819 228.84 376.11 228.8C378.743 228.429 380.647 227.11 382.723 225.52C383.409 224.997 384.114 224.449 384.536 223.695C384.873 223.092 385.005 222.397 385.225 221.742C386.024 219.366 388.045 217.29 387.84 214.794C387.295 215.104 387.179 215.9 386.627 216.2L386.624 216.206Z" fill="#B6835E"/>
<path d="M39.9055 150.669C39.4278 150.421 38.9042 150.286 38.3806 150.158C36.865 149.784 35.3187 149.45 33.9163 148.767C33.0682 148.354 32.2782 147.818 31.3994 147.481C30.5206 147.145 29.4949 147.022 28.6529 147.451C28.4477 149.907 28.2426 152.378 27.6179 154.76C27.4464 155.418 27.2413 156.067 27.1249 156.738C26.9933 157.488 26.9749 158.25 26.981 159.013C27.0055 161.934 27.4036 164.882 26.88 167.755C26.8034 168.18 26.6963 168.618 26.4176 168.949C25.8389 169.632 24.7948 169.586 23.9068 169.481C22.4096 169.307 20.6428 168.936 20.0702 167.54C19.8957 167.118 19.8651 166.652 19.8345 166.196C19.7028 164.212 19.5711 162.228 19.4395 160.244C19.7457 160.081 20.0121 160.519 20.0733 160.859C20.2754 161.986 20.2999 163.134 20.4867 164.264C20.6734 165.391 21.0439 166.533 21.8217 167.369C22.5994 168.205 23.8579 168.67 24.9265 168.263C25.5082 168.042 25.989 167.577 26.2339 167.004C26.5585 166.236 26.4483 165.36 26.3564 164.53C25.8512 159.91 26.2064 155.194 27.3944 150.7C26.4452 152.8 25.4746 155.005 25.6123 157.307C25.643 157.825 25.7226 158.373 25.4929 158.835C25.1316 159.558 24.2069 159.745 23.4047 159.846C22.5627 159.953 21.5492 159.993 21.0347 159.316C20.701 158.875 20.7041 158.275 20.7102 157.721C20.7316 155.24 20.4714 152.754 19.9386 150.332C19.3997 150.161 19.0108 150.837 18.8393 151.376C18.0402 153.887 16.9134 156.291 15.4988 158.514C14.9568 159.365 14.2372 160.268 13.2329 160.342C11.8765 160.44 10.9518 159.01 10.4925 157.73C10.2812 157.136 10.1557 156.529 9.99646 155.926C9.07787 156.315 9.44837 158.367 9.69333 159.111C10.0944 160.329 10.8752 161.38 11.6438 162.408C12.0541 162.96 12.4674 163.514 12.939 164.016C14.2617 165.434 16.0162 166.429 17.1859 167.975C17.786 168.771 18.2178 169.693 18.8791 170.44C19.4517 171.086 20.3336 171.582 21.047 172.075C21.935 172.693 22.8872 173.223 23.9007 173.6C24.3202 173.756 24.7703 173.888 25.2143 173.817C26.8402 173.563 26.5922 171.496 28.0221 171.236C28.8182 171.092 29.7123 171.276 30.4716 171.521C30.9769 171.683 31.5678 171.894 31.9934 171.579C32.2629 171.383 32.367 171.037 32.4527 170.715C32.6334 170.054 32.8079 169.325 32.5078 168.71C32.4129 168.511 32.2721 168.339 32.1282 168.171C31.3045 167.21 30.343 166.524 29.354 165.755C28.9162 165.415 27.425 164.059 27.6026 163.446C28.065 161.845 28.3589 160.195 28.4753 158.532C29.0417 158.305 29.4979 159.004 29.8409 159.506C30.8789 161.018 32.8171 161.328 34.2684 162.24C36.026 163.345 37.8907 164.148 39.9575 164.463C40.1382 164.491 40.328 164.512 40.4964 164.448C40.7873 164.334 40.922 163.994 40.9404 163.682C40.9925 162.718 40.2484 161.918 39.5534 161.251C37.6274 159.399 35.6769 157.577 33.6959 155.779C32.0149 154.251 29.4275 152.785 29.6694 150.182C29.6786 150.084 29.6939 149.98 29.749 149.897C29.8256 149.781 29.9695 149.726 30.1042 149.686C31.4851 149.291 32.9488 149.971 34.1031 150.828C35.4963 151.863 36.5618 153.021 37.8019 154.193C38.3868 154.747 39.0267 155.237 39.6636 155.727C39.8595 155.877 40.0555 156.027 40.2821 156.119C40.5699 156.236 40.8853 156.248 41.1915 156.26C41.7212 156.281 42.254 156.3 42.7837 156.321C44.1554 156.373 46.014 155.66 46.9265 154.588C44.9087 153.7 42.8756 152.8 41.0996 151.493C40.7077 151.202 40.325 150.892 39.8932 150.669H39.9055Z" fill="#B6835E"/>
<path d="M265.157 188.935C266.933 188.871 268.583 187.989 270.344 187.75C273.715 187.294 277.662 189.085 280.274 186.905C280.614 185.193 278.727 183.953 277.132 183.243C275.748 182.624 274.361 182.006 272.977 181.384C272.199 181.035 271.351 180.68 270.521 180.879C269.713 181.072 269.128 181.742 268.494 182.281C266.544 183.941 263.834 184.48 261.28 184.268C258.73 184.057 256.286 183.172 253.895 182.26C249.712 180.661 245.57 178.956 241.476 177.143C239.678 176.347 232.682 171.509 232.471 175.827C241.164 180.6 251.194 183.818 260.347 187.689C261.884 188.338 263.482 188.999 265.151 188.938L265.157 188.935Z" fill="#B6835E"/>
<path d="M294.763 413.573C294.775 413.517 294.8 413.465 294.809 413.41C294.827 413.3 294.83 413.178 294.754 413.095C294.683 413.021 294.57 413.012 294.466 413.018C293.315 413.076 292.381 414.121 291.229 414.145C290.583 414.157 285.739 410.455 284.043 411.405C281.802 412.66 279.377 413.879 276.811 413.753C274.618 413.646 272.594 412.565 270.76 411.359C260.959 404.923 254.431 394.478 250.049 383.605C247.94 378.372 246.366 372.053 249.535 367.386C247.275 369.609 244.409 371.174 241.353 371.988C238.163 372.843 235.233 371.786 232.204 372.209C228.013 372.791 232.605 376.483 234.216 377.977C236.555 380.148 239.143 382.035 241.445 384.248C244.075 386.777 246.305 389.689 248.518 392.586C249.924 394.423 251.335 396.269 252.447 398.3C253.451 400.128 257.334 404.472 258.102 404.916C262.294 407.338 265.806 410.801 269.967 413.276C273.32 415.266 277.408 416.552 281.146 415.869C281.584 415.835 282.025 415.78 282.396 415.805C283.547 415.875 284.686 416.099 285.776 416.469C286.444 416.696 287.093 416.977 287.779 417.143C288.474 417.308 289.193 417.351 289.907 417.394C290.109 417.406 290.314 417.415 290.519 417.415C292.99 417.568 295.415 417.186 297.454 415.762C299.898 414.053 301.144 410.795 300.461 407.893C299.037 410.192 296.967 411.971 294.763 413.576V413.573Z" fill="#C49270"/>
<path d="M261.905 287.569C262.031 285.662 262.891 283.889 263.8 282.208C265.699 278.69 268.069 275.138 271.7 273.466C273.583 272.6 275.672 272.303 277.723 272.006C280.715 271.571 283.728 271.96 286.731 271.898C289.591 271.837 292.509 271.347 295.152 270.251C297.494 269.281 299.836 268.31 302.176 267.339C302.987 267.002 303.802 266.666 304.637 266.396C307.721 265.401 311.11 264.936 314.313 264.446C316.38 264.13 318.474 263.882 320.557 264.045C322.642 264.204 324.733 264.795 326.426 266.02C327.207 266.586 327.507 267.985 327.385 268.898C327.333 269.293 326.769 269.89 326.766 270.159C326.778 267.927 324.953 266.001 322.85 265.251C320.746 264.501 318.432 264.691 316.227 265.043C311.27 265.83 306.435 267.373 301.937 269.599C300.262 270.429 298.63 271.353 296.912 272.085C293.122 273.699 289.015 274.336 284.955 274.835C281.296 275.282 277.264 275.781 274.089 277.814C273.519 278.178 272.983 278.592 272.46 279.021C269.526 281.433 266.443 284.388 265.405 288.142C264.854 290.142 264.921 292.38 265.962 294.171C264.315 293.724 263.424 293.029 262.695 291.44C262.15 290.255 261.829 288.877 261.914 287.566L261.905 287.569ZM1.2055 503.556C2.50376 507.239 3.97655 511.051 6.27913 514.233C6.99256 515.222 7.79785 516.143 8.63682 517.031C10.1525 518.639 11.7784 520.145 13.4992 521.532C15.22 522.919 16.7632 524.426 18.5269 525.721C26.6716 531.71 37.9457 531.477 46.6967 536.539C49.3882 538.097 51.7765 540.124 54.3669 541.848C58.8557 544.837 63.9538 546.906 69.2571 547.889C72.4415 548.48 76.2628 548.695 79.1257 546.891C81.9886 545.088 83.8717 540.587 85.0261 537.589C85.2986 536.885 85.5466 536.141 85.467 535.391C85.4149 534.91 85.2312 534.454 85.0475 534.007C84.3494 532.292 83.6115 531.272 82.0254 530.237C72.8426 524.251 60.6408 526.039 50.371 522.209C48.5033 521.511 46.6692 520.604 45.2515 519.202C44.0788 518.042 43.2398 516.596 42.3916 515.182C38.5367 508.767 34.0938 502.573 28.2547 497.897C22.4125 493.218 15.0057 490.156 7.54371 490.689C3.61218 490.971 0.250172 493.176 0.0144026 497.404C-0.0437743 498.445 0.0787033 499.48 0.302225 500.5C0.528808 501.535 0.859498 502.557 1.21468 503.556H1.2055Z" fill="#697B8A"/>
<path d="M4.68978 492.6C5.71247 492.218 8.24163 491.523 9.18471 492.349C9.57357 492.689 9.68686 493.369 9.30718 493.715C10.4646 493.357 11.6373 492.998 12.8498 492.952C14.0593 492.907 15.3331 493.216 16.218 494.039C15.5933 494.144 15.1616 494.881 15.379 495.476C17.8531 494.422 20.9793 495.194 22.6756 497.279C22.9879 497.665 23.2543 498.084 23.5207 498.504C23.8453 499.015 24.1698 499.53 24.4944 500.041C24.9139 499.563 25.6947 499.459 26.2244 499.811C26.7817 500.84 27.5655 501.74 28.5055 502.435C29.072 502.855 29.7028 503.204 30.1529 503.746C30.603 504.288 30.8357 505.096 30.4652 505.699C32.6667 506.37 34.4243 508.333 34.8468 510.595C34.9264 511.03 34.9724 511.496 35.251 511.839C35.5296 512.181 36.1451 512.289 36.3808 511.915C36.4666 511.78 36.4911 511.6 36.6197 511.505C36.8493 511.327 37.1678 511.56 37.3545 511.783C38.7447 513.477 39.4673 515.418 40.9431 517.099C43.3651 519.855 46.0719 522.433 49.3267 524.123C52.8847 525.969 56.9081 526.664 60.8243 527.516C67.7259 529.016 74.6122 531.129 80.534 534.981C81.3883 535.535 82.2456 536.153 82.757 537.032C85.228 541.27 79.7318 546.919 75.8645 547.715C74.2387 548.049 72.5546 547.92 70.9134 547.678C65.1937 546.843 59.67 544.678 54.9086 541.398C53.2062 540.226 51.6017 538.918 49.8809 537.776C40.6033 531.622 28.6831 530.758 19.0533 525.17C16.7661 523.841 14.6288 522.258 12.6937 520.455C8.37635 516.428 5.13376 511.327 3.06389 505.813C1.45637 501.529 -1.1279 494.78 4.69284 492.594L4.68978 492.6Z" fill="#46535D"/>
<path d="M13.2912 485.805C14.8436 486.056 16.3225 486.641 17.7708 487.256C23.4293 489.666 28.8275 492.645 34.2134 495.618C35.0432 496.078 35.8822 496.54 36.5987 497.165C37.0243 497.535 37.404 497.964 37.8694 498.282C38.4664 498.693 39.1738 498.907 39.8688 499.115C42.4286 499.881 44.9884 500.646 47.5482 501.412C50.702 502.355 54.0609 503.301 57.23 502.41C58.0292 502.183 58.8283 501.84 59.6551 501.929C60.2828 501.996 60.8584 502.309 61.4095 502.618C63.161 503.604 64.9155 504.642 66.3056 506.093C67.6957 507.545 68.697 509.474 68.6204 511.482C68.6112 511.7 68.5867 511.932 68.4581 512.107C68.2959 512.33 68.008 512.419 67.7386 512.487C65.7054 512.986 63.5621 513.032 61.5075 512.615C59.701 512.251 57.9863 511.544 56.2992 510.803C49.1404 507.661 42.2632 503.873 35.7811 499.501C30.9065 496.212 26.2187 492.575 20.8879 490.092C20.1377 489.742 19.3538 489.412 18.5271 489.4C17.5289 489.384 16.592 489.837 15.6152 490.046C11.9439 490.833 7.95729 488.193 4.50955 489.678C3.81755 489.975 3.2021 490.425 2.59277 490.872C3.16842 490.45 3.53891 489.093 4.20029 488.502C5.0117 487.777 5.93641 487.18 6.92542 486.72C8.90037 485.805 11.1448 485.453 13.2973 485.802L13.2912 485.805ZM273.173 280.245C273.13 280.97 274 281.154 274.551 281.433C275.819 282.07 276.912 283.055 277.677 284.253C278.706 285.86 279.132 287.798 280.21 289.372C280.874 290.346 281.762 291.142 282.656 291.914C282.873 292.104 283.097 292.293 283.363 292.413C283.752 292.587 284.193 292.593 284.619 292.587C289.16 292.529 293.691 291.644 297.92 289.988C299.12 289.519 300.311 288.977 301.306 288.163C303.906 286.038 304.745 282.48 305.385 279.182C305.483 278.677 305.581 278.169 305.786 277.697C306.104 276.968 306.659 276.371 307.222 275.814C310.89 272.186 315.468 269.485 320.416 268.024C321.086 267.825 321.806 267.626 322.262 267.097C322.718 266.567 322.718 265.59 322.082 265.296C321.824 265.177 321.524 265.195 321.24 265.217C320.146 265.299 319.05 265.385 317.963 265.532C308.202 266.849 299.665 272.865 290.045 274.969C284.796 276.117 279.129 276.136 274.502 278.867C274.067 279.124 273.21 279.672 273.176 280.251L273.173 280.245Z" fill="#404A5A"/>
<path d="M149.124 74.3086C149.124 74.3086 153.512 88.2863 154.311 91.4922C155.111 94.698 158.742 99.8145 158.742 99.8145C158.742 99.8145 162.79 100.347 156.09 105.534C149.394 110.718 146.666 111.643 140.312 113.532C132.314 115.908 125.939 116.125 125.397 115.045C123.018 110.286 124.822 107.319 124.822 107.319L123.882 97.7753L123.453 93.4028L149.124 74.3117V74.3086Z" fill="#F0BFA2"/>
<path d="M143.249 93.2537C146.948 90.997 152.257 84.5241 152.257 84.5241L149.575 75.77C149.575 75.77 141.087 85.3784 136.764 87.9259C132.44 90.4734 123.579 95.3389 123.579 95.3389L124.213 100.841C124.213 100.841 129.198 101.824 143.246 93.2537H143.249Z" fill="#E0A385"/>
<path d="M88.0579 47.1908C88.0579 47.1908 93.055 61.7013 93.3795 62.8587C93.7041 64.0161 96.2486 66.4228 96.4935 67.2893C96.7354 68.1558 98.1715 69.9379 98.1715 69.9379C98.1715 69.9379 99.2125 75.8842 100.52 78.3276C101.827 80.768 106.947 88.6127 108.723 90.707C110.471 92.7677 115.68 98.4384 117.324 99.85C118.968 101.262 122.211 100.619 124.896 100.181C127.581 99.7397 129.477 99.8347 131.675 97.6576C133.874 95.4837 144.759 85.3058 145.925 82.795C147.095 80.2842 151.207 72.6875 150.72 70.9514C150.234 69.2153 149.664 62.5923 149.664 62.5923C149.664 62.5923 152.689 58.7281 153.672 56.1132C154.477 53.9729 154.327 50.2772 153.464 47.3837C152.607 44.5054 151.299 42.062 149.979 41.8079C148.66 41.5537 148.139 41.5445 148.139 41.5445C148.139 41.5445 145.488 33.1885 145.163 32.0311C144.838 30.8737 142.86 25.2918 140.601 20.9346C138.442 16.7704 135.545 14.7587 130.57 14.0728C120.566 12.6919 112.011 12.4071 105.104 15.5885C98.196 18.7698 93.5908 23.4913 91.3342 28.8007C89.0775 34.1101 85.9084 40.6137 88.0579 47.1877V47.1908Z" fill="#F0BFA2"/>
<path d="M125.615 36.9851C127.59 38.0966 130.459 41.6607 130.729 42.6252C130.998 43.5897 131.678 45.2707 131.678 45.2707C131.678 45.2707 133.916 43.605 135.257 44.6859C136.598 45.7667 140.766 53.9574 140.766 53.9574C140.766 53.9574 140.689 47.7386 141.938 45.5187C143.188 43.2957 144.572 42.5884 145.781 42.1567C146.583 41.8689 147.995 41.3973 147.995 41.3973C147.995 41.3973 144.501 29.1373 144.06 28.2371C143.57 27.2298 140.542 16.3048 136.693 18.5247C131.044 21.7856 125.615 36.9851 125.615 36.9851Z" fill="#C99D84"/>
<path d="M124.048 36.594C122.118 37.1329 118.006 34.3343 115.33 35.9142C112.654 37.4942 111.457 39.91 109.476 40.256C107.495 40.602 103.073 38.9302 102.488 40.55C101.904 42.1698 99.6255 45.9268 97.3964 46.135C95.1673 46.3432 89.6987 45.3787 88.9332 44.1355C88.1708 42.8924 86.1407 36.3919 85.2987 34.1291C84.4567 31.8663 82.2521 27.7021 83.0604 25.3965C83.8688 23.0908 87.4175 12.7384 87.6901 13.7029L88.3912 16.2106C88.3912 16.2106 91.6246 8.4425 92.7269 7.92503C93.8292 7.40757 94.4539 8.89567 94.4539 8.89567L99.6224 4.33032C99.6224 4.33032 99.7235 6.17361 100.302 6.01132C100.881 5.84904 105.578 1.83178 105.054 2.1839C104.531 2.53602 104.329 4.05168 104.329 4.05168C104.329 4.05168 112.712 -0.16767 111.442 1.22857C110.171 2.62482 110.054 3.6965 110.054 3.6965C110.054 3.6965 117.584 0.1324 117.189 1.70011C116.794 3.26783 117.728 3.62913 117.728 3.62913L122.912 1.34493L121.962 3.89858C121.962 3.89858 129.476 3.24945 128.567 3.71487C127.658 4.18028 126.084 5.24278 126.084 5.24278C126.084 5.24278 133.699 6.43999 132.649 7.1473L131.598 7.85767L135.493 9.88774L134.746 10.9288C134.746 10.9288 139.336 11.7249 139.112 12.4108C138.889 13.0966 137.153 13.5835 138.279 13.8928C139.406 14.202 141.951 16.6087 141.951 16.6087L141.041 17.071L139.412 17.9437C139.412 17.9437 139.097 20.528 138.047 21.2383C136.996 21.9487 136.219 23.6205 136.102 24.6953C135.986 25.77 134.305 26.4467 132.979 27.65C131.653 28.8534 129.216 32.0317 128.659 33.0176C128.102 34.0036 125.202 36.2725 124.044 36.597L124.048 36.594Z" fill="#98795A"/>
<path d="M112.881 60.5867C112.881 60.5867 113.683 58.0055 115.211 57.0226C116.739 56.0397 121.711 52.0133 122.869 51.6887C124.026 51.3641 130.346 52.644 130.346 52.644C130.346 52.644 123.944 53.0513 122.967 54.0158C121.99 54.9834 115.113 61.6216 112.881 60.5836V60.5867Z" fill="#592F1F"/>
<path d="M102.559 63.3375C103.594 63.8244 103.11 65.0553 102.366 65.1257C101.622 65.1961 94.9835 63.5182 94.5334 63.6437C94.0833 63.7693 93.6699 64.0234 93.6699 64.0234C93.6699 64.0234 92.341 62.2475 92.9289 61.8739C93.5168 61.5004 100.801 62.5108 102.559 63.3375Z" fill="#592F1F"/>
<path d="M118.083 63.5647C118.622 63.7607 122.345 63.6872 123.451 63.1728C124.553 62.6553 128.965 58.8555 128.965 58.8555C128.965 58.8555 126.072 64.8661 123.922 65.604C121.773 66.345 118.083 63.5647 118.083 63.5647Z" fill="#592F1F"/>
<path d="M107.17 67.176C106.665 67.5955 104.353 69.4909 102.681 69.9593C101.009 70.4278 98.8535 70.4064 98.8535 70.4064C98.8535 70.4064 103.621 72.3293 104.687 71.6832C105.752 71.0371 107.167 67.176 107.167 67.176H107.17Z" fill="#592F1F"/>
<path d="M110.388 71.5408C110.388 71.5408 111.129 73.1942 111.334 74.2506C111.536 75.31 110.759 76.1796 110.688 77.5942C110.618 79.0088 110.281 80.1265 111.31 81.14C112.339 82.1535 115.906 82.2729 116.374 81.9544C116.843 81.636 117.565 80.2275 117.565 80.2275C117.565 80.2275 120.728 79.8999 121.237 79.3855C121.745 78.8711 122.443 76.7216 121.708 76.0908C120.973 75.4601 119.28 74.7252 119.28 74.7252" stroke="#C99D84" stroke-width="2.49" stroke-miterlimit="10" stroke-linecap="round"/>
<path d="M129.277 85.1138C129.277 85.1138 125.891 86.1181 125.248 86.1242C124.605 86.1303 121.91 86.3232 121.151 86.5345C120.392 86.7458 119.654 87.6552 119.654 87.6552C119.654 87.6552 117.786 86.8346 117.204 87.4653C116.622 88.0961 115.759 90.0343 115.759 90.0343C115.759 90.0343 117.424 90.9713 118.882 91.7919C120.339 92.6125 122.532 93.3412 123.582 92.2879C124.632 91.2346 129.277 85.1168 129.277 85.1168V85.1138Z" fill="#B77676"/>
<path d="M126.84 86.9395C126.191 87.1201 122.51 87.2089 121.659 87.5059C120.808 87.8029 120.082 88.7644 120.082 88.7644C120.082 88.7644 118.802 87.953 118.19 88.4766C117.578 89.0001 117.17 89.6401 117.17 89.6401C117.17 89.6401 120.269 91.5201 121.322 91.1068C122.376 90.6934 126.84 86.9395 126.84 86.9395Z" fill="#77493A"/>
<path d="M146.302 47.0023C146.721 45.5326 147.404 43.8853 148.451 43.9067C149.495 43.9251 150.659 45.4714 151.008 46.7267C151.357 47.9821 151.626 49.6723 151.626 49.6723C151.626 49.6723 149.22 44.418 148.225 45.3213C147.23 46.2246 146.305 47.0023 146.305 47.0023H146.302Z" fill="#CA7459"/>
<path d="M146.146 50.8949C147.869 49.9977 149.621 49.1955 150.276 50.0498C150.931 50.9041 150.518 53.5159 150.518 53.5159L146.311 55.941L146.146 50.8918V50.8949Z" fill="#CA7459"/>
<path d="M150.797 55.6196C151.602 54.0427 152.22 51.7891 152.22 51.7891C152.22 51.7891 152.135 54.8296 151.816 55.543C151.495 56.2564 149.74 57.7874 149.74 57.7874L150.797 55.6196Z" fill="#CA7459"/>
<path d="M149.063 62.3113L144.963 64.0137L146.88 68.8853C146.88 68.8853 149.226 65.8723 149.342 64.8006C149.458 63.729 149.06 62.3143 149.06 62.3143L149.063 62.3113Z" fill="#B7816C"/>
<path d="M122.954 35.1676C122.847 34.7818 116.696 32.6231 116.696 32.6231C116.696 32.6231 119.853 28.5508 119.21 28.7314C118.567 28.9121 114.654 30.2838 114.654 30.2838C114.654 30.2838 114.078 24.7601 116.068 22.9566C118.058 21.1531 123.87 18.1371 123.87 18.1371L111.249 22.087L114.39 17.4635L118.037 14.6404L106.996 18.2871L100.48 26.2114C100.48 26.2114 103.9 24.5611 105.134 26.9892C106.368 29.4173 105.618 32.6783 104.803 33.7377C103.992 34.7971 94.708 38.7838 94.708 38.7838C94.708 38.7838 90.85 36.3985 91.5726 35.5014C92.2922 34.6073 97.868 31.2422 97.868 31.2422C97.868 31.2422 94.1661 30.8932 94.6437 30.6206C95.1214 30.3481 95.893 26.6646 95.893 26.6646C95.893 26.6646 90.7857 28.2323 90.6785 27.8465C90.5714 27.4607 89.763 24.0834 89.763 24.0834C89.763 24.0834 86.1683 27.5863 85.8284 29.3438C85.4885 31.1014 86.5082 40.9363 87.7207 42.5408C88.9332 44.1422 91.9645 48.285 96.3554 46.6407C100.746 44.9964 101.395 40.376 102.975 40.0728C104.555 39.7697 109.418 42.2897 110.474 40.6087C111.53 38.9277 115.857 35.0819 117.195 35.4003C118.533 35.7188 124.048 36.6006 124.048 36.6006L124.149 34.9778L122.954 35.1737V35.1676Z" fill="#4E3D29"/>
<path d="M121.629 79.0242L121.016 80.6072C121.016 80.6072 119.038 81.3482 118.833 81.4492C118.628 81.5503 116.237 82.1443 116.237 82.1443L117.547 80.1816C117.547 80.1816 120.046 80.1326 120.698 79.8111C121.35 79.4896 121.626 79.0242 121.626 79.0242H121.629Z" fill="#B77F69"/>
<path d="M113.009 68.1685C113.058 68.3399 113.735 75.4038 113.925 76.5306C114.115 77.6543 114.51 78.8454 115.462 78.7046C116.414 78.5637 119.36 78.2331 119.586 77.489C119.813 76.7449 119.268 75.4712 118.374 75.5967C117.48 75.7223 113.009 68.1715 113.009 68.1715V68.1685Z" fill="#EDC3B2"/>
<path d="M124.966 108.125C124.966 108.125 124.748 112.663 128.857 113.312C132.967 113.961 138.8 112.663 142.906 110.936C147.012 109.209 161.495 99.2641 162.683 97.6444C163.871 96.0246 165.383 98.6181 165.383 98.6181C165.383 98.6181 162.573 104.022 158.684 106.184C154.795 108.346 145.499 114.614 142.042 115.477C138.585 116.341 131.237 118.934 128.208 117.853C125.18 116.772 122.59 115.477 122.158 113.747C121.726 112.017 122.807 106.83 122.807 106.83L124.32 104.019L124.969 108.125H124.966Z" fill="#2FCAE9"/>
</svg>
