<svg width="58" height="44" viewBox="0 0 58 44" fill="none" xmlns="http://www.w3.org/2000/svg">
<path d="M12.2712 19.3066L13.0795 14.9678H13.6987L14.8503 17.7271L16.0452 14.9678H16.6622L17.3902 19.3066H16.5254L16.1408 16.6299L14.9741 19.3066H14.6852L13.5748 16.6299L13.136 19.3066H12.2712Z" fill="#001E72"/>
<path d="M19.2303 18.2233C19.3631 18.3607 19.5236 18.4684 19.701 18.5393C19.8784 18.6103 20.0688 18.6429 20.2598 18.6351C20.4527 18.6429 20.6452 18.6104 20.8249 18.5395C21.0045 18.4685 21.1674 18.3609 21.3029 18.2233C21.5681 17.927 21.7148 17.5434 21.7148 17.1458C21.7148 16.7482 21.5681 16.3646 21.3029 16.0683C21.0269 15.7957 20.6546 15.6428 20.2667 15.6428C19.8787 15.6428 19.5063 15.7957 19.2303 16.0683C18.9651 16.3646 18.8185 16.7482 18.8185 17.1458C18.8185 17.5434 18.9651 17.927 19.2303 18.2233ZM18.5989 15.5056C18.8205 15.296 19.0813 15.1323 19.3663 15.024C19.6513 14.9156 19.955 14.8647 20.2598 14.8742C20.8795 14.855 21.4816 15.0821 21.9344 15.5056C22.3489 15.9485 22.5795 16.5324 22.5795 17.1389C22.5795 17.7455 22.3489 18.3294 21.9344 18.7723C21.712 18.9847 21.449 19.15 21.1613 19.2585C20.8736 19.367 20.567 19.4164 20.2598 19.4037C19.9546 19.4164 19.6501 19.3669 19.3646 19.2584C19.0791 19.1499 18.8186 18.9845 18.5989 18.7723C18.1844 18.3294 17.9539 17.7455 17.9539 17.1389C17.9539 16.5323 18.1844 15.9484 18.5989 15.5056Z" fill="#001E72"/>
<path d="M26.5047 18.1675V19.1557C26.1734 19.3241 25.8058 19.4089 25.4341 19.4028C25.1439 19.4132 24.8546 19.3651 24.5834 19.2613C24.3122 19.1575 24.0647 19.0002 23.8556 18.7988C23.6282 18.5871 23.4482 18.3297 23.3275 18.0434C23.2069 17.7571 23.1483 17.4485 23.1556 17.1379C23.1428 16.8226 23.1988 16.5083 23.3197 16.2168C23.4406 15.9252 23.6235 15.6635 23.8556 15.4498C24.2164 15.1409 24.6607 14.9461 25.1323 14.8899C25.6038 14.8337 26.0815 14.9187 26.5047 15.134V16.1223C26.3772 15.97 26.2175 15.848 26.0372 15.7649C25.8568 15.6818 25.6602 15.6398 25.4616 15.6419C25.2665 15.6371 25.0726 15.6737 24.8928 15.7494C24.713 15.8251 24.5512 15.9382 24.4184 16.0811C24.1578 16.3764 24.016 16.7579 24.0203 17.1518C24.0093 17.3549 24.0442 17.558 24.1227 17.7458C24.2011 17.9336 24.321 18.1012 24.4733 18.2361C24.608 18.3662 24.7671 18.4683 24.9414 18.5366C25.1157 18.6049 25.3018 18.6381 25.489 18.6341C25.6828 18.6401 25.8755 18.601 26.0517 18.52C26.2279 18.4391 26.383 18.3184 26.5047 18.1675Z" fill="#001E72"/>
<path d="M28.1369 14.9678V16.808L29.7294 14.9678H30.8006L28.9625 16.9732L30.8962 19.3066H29.7708L28.2346 17.3708L28.1369 17.4664V19.3066H27.2874V14.9678H28.1369Z" fill="#001E72"/>
<path d="M32.2284 18.2233C32.3613 18.3607 32.5216 18.4684 32.6991 18.5393C32.8765 18.6103 33.0669 18.6429 33.2579 18.6351C33.4508 18.6429 33.6433 18.6104 33.823 18.5395C34.0026 18.4685 34.1654 18.3608 34.301 18.2233C34.5662 17.927 34.7128 17.5434 34.7128 17.1458C34.7128 16.7482 34.5662 16.3646 34.301 16.0683C34.025 15.7957 33.6527 15.6428 33.2647 15.6428C32.8767 15.6428 32.5044 15.7957 32.2284 16.0683C31.9632 16.3646 31.8166 16.7482 31.8166 17.1458C31.8166 17.5434 31.9632 17.927 32.2284 18.2233ZM31.597 15.5056C31.8185 15.296 32.0793 15.1323 32.3643 15.024C32.6494 14.9156 32.9531 14.8647 33.2579 14.8742C33.8776 14.855 34.4796 15.0821 34.9324 15.5056C35.3469 15.9485 35.5775 16.5324 35.5775 17.1389C35.5775 17.7455 35.3469 18.3294 34.9324 18.7723C34.71 18.9847 34.4471 19.15 34.1594 19.2585C33.8717 19.367 33.5651 19.4164 33.2579 19.4037C32.9527 19.4164 32.6482 19.3669 32.3627 19.2584C32.0772 19.1499 31.8167 18.9845 31.597 18.7723C31.1825 18.3294 30.9519 17.7455 30.9519 17.1389C30.9519 16.5324 31.1825 15.9485 31.597 15.5056Z" fill="#001E72"/>
<path d="M37.2111 17.4267V18.6208H37.568C37.7662 18.6316 37.9641 18.5939 38.1445 18.511C38.2324 18.4597 38.3045 18.3852 38.3529 18.2956C38.4013 18.206 38.4242 18.1049 38.419 18.0032C38.4236 17.8983 38.3958 17.7946 38.3393 17.7062C38.2828 17.6177 38.2004 17.5489 38.1033 17.509C37.9138 17.4434 37.7133 17.4154 37.5131 17.4267H37.2111ZM37.2111 15.656V16.7678H37.568C37.6236 16.7632 37.6786 16.754 37.7327 16.7403C37.7963 16.7166 37.8563 16.6843 37.9111 16.6442C37.9673 16.5989 38.0139 16.5429 38.0484 16.4795C38.0889 16.3939 38.1077 16.2996 38.1033 16.205C38.1088 16.1271 38.0955 16.049 38.0644 15.9773C38.0334 15.9056 37.9855 15.8425 37.9248 15.7932C37.7868 15.7012 37.6241 15.6533 37.4582 15.656L37.2111 15.656ZM36.3601 14.9697H37.4307C37.8035 14.9431 38.1748 15.0395 38.4876 15.2442C38.6236 15.3482 38.7322 15.4838 38.8039 15.6393C38.8757 15.7947 38.9085 15.9654 38.8994 16.1364C38.9082 16.3126 38.8663 16.4877 38.7787 16.641C38.6912 16.7942 38.5615 16.9191 38.4052 17.0011C38.5346 17.0135 38.6601 17.0515 38.7746 17.1129C38.8891 17.1744 38.9901 17.258 39.0719 17.359C39.1537 17.4599 39.2146 17.5762 39.251 17.7009C39.2873 17.8256 39.2984 17.9563 39.2837 18.0854C39.2897 18.25 39.2595 18.4139 39.1955 18.5656C39.1315 18.7174 39.0352 18.8533 38.9131 18.9639C38.6025 19.2108 38.211 19.3331 37.815 19.307H36.3601V14.9697Z" fill="#001E72"/>
<path d="M43.2231 18.1674V19.1556C42.8862 19.3226 42.5146 19.4072 42.1387 19.4027C41.8485 19.4131 41.5592 19.365 41.288 19.2612C41.0168 19.1574 40.7693 19.0001 40.5602 18.7987C40.3327 18.5871 40.1528 18.3296 40.0321 18.0433C39.9115 17.757 39.8528 17.4484 39.8602 17.1378C39.8474 16.8225 39.9034 16.5082 40.0243 16.2167C40.1452 15.9252 40.328 15.6634 40.5602 15.4497C40.9237 15.1408 41.3703 14.9461 41.844 14.8899C42.3177 14.8337 42.7974 14.9186 43.2231 15.1339V16.1222C43.0928 15.9696 42.9306 15.8475 42.748 15.7645C42.5654 15.6815 42.3667 15.6396 42.1661 15.6418C41.9729 15.6356 41.7807 15.6718 41.6029 15.7476C41.4251 15.8235 41.2659 15.9373 41.1367 16.081C40.8705 16.373 40.7278 16.7567 40.7387 17.1517C40.7252 17.3538 40.7577 17.5564 40.8338 17.7442C40.9099 17.932 41.0275 18.1002 41.1779 18.236C41.3145 18.3673 41.4759 18.4701 41.6526 18.5384C41.8293 18.6068 42.0179 18.6393 42.2073 18.6341C42.4007 18.6371 42.5924 18.5968 42.7681 18.5161C42.9439 18.4353 43.0994 18.3161 43.2231 18.1674Z" fill="#001E72"/>
<path d="M44.8435 14.9678V16.808L46.436 14.9678H47.505L45.6668 16.9732L47.6027 19.3066H46.4904L44.9389 17.3708L44.8435 17.4664V19.3066H43.9917V14.9678H44.8435Z" fill="#001E72"/>
<path d="M48.9327 18.2221C49.0683 18.3597 49.2311 18.4674 49.4108 18.5383C49.5904 18.6092 49.7829 18.6418 49.9759 18.6339C50.1668 18.6418 50.3573 18.6092 50.5347 18.5382C50.7121 18.4672 50.8725 18.3595 51.0053 18.2221C51.2705 17.9259 51.4172 17.5423 51.4172 17.1447C51.4172 16.7471 51.2705 16.3634 51.0053 16.0672C50.7293 15.7945 50.357 15.6417 49.969 15.6417C49.5811 15.6417 49.2087 15.7945 48.9327 16.0672C48.6675 16.3634 48.5209 16.7471 48.5209 17.1447C48.5209 17.5423 48.6675 17.9259 48.9327 18.2221ZM48.3013 15.5044C48.7616 15.0976 49.3547 14.873 49.969 14.873C50.5834 14.873 51.1765 15.0976 51.6368 15.5044C52.0513 15.9473 52.2818 16.5312 52.2818 17.1378C52.2818 17.7444 52.0513 18.3283 51.6368 18.7712C51.1765 19.178 50.5834 19.4026 49.969 19.4026C49.3547 19.4026 48.7616 19.178 48.3013 18.7712C47.8868 18.3283 47.6563 17.7444 47.6562 17.1378C47.6563 16.5312 47.8868 15.9473 48.3013 15.5044Z" fill="#001E72"/>
<path d="M55.4805 14.9678V15.6956H53.9161V16.6712H55.4109V17.399H53.9161V18.5788H55.4805V19.3066H53.0645V14.9678H55.4805Z" fill="#001E72"/>
<path d="M13.5614 25.0024C13.8443 25.267 14.2172 25.4142 14.6045 25.4142C14.9919 25.4142 15.3648 25.267 15.6477 25.0024C15.9149 24.7056 16.0575 24.3173 16.0458 23.9181C16.06 23.5226 15.9169 23.1376 15.6477 22.8475C15.369 22.5747 14.9945 22.4219 14.6045 22.4219C14.2146 22.4219 13.8401 22.5747 13.5614 22.8475C13.2922 23.1376 13.1491 23.5226 13.1633 23.9181C13.1516 24.3173 13.2941 24.7056 13.5614 25.0024ZM12.93 22.2847C13.3929 21.8778 13.9882 21.6533 14.6045 21.6533C15.2209 21.6533 15.8162 21.8778 16.2791 22.2847C16.6936 22.7276 16.9242 23.3115 16.9242 23.9181C16.9242 24.5247 16.6936 25.1086 16.2791 25.5515C15.8162 25.9584 15.2209 26.1828 14.6045 26.1828C13.9882 26.1828 13.3929 25.9584 12.93 25.5515C12.5155 25.1086 12.2849 24.5247 12.2849 23.9181C12.2849 23.3115 12.5155 22.7276 12.93 22.2847Z" fill="#001E72"/>
<path d="M18.5445 24.2074V25.3604H18.9563C19.4916 25.3604 19.7524 25.1682 19.7524 24.7976C19.7539 24.7182 19.7388 24.6393 19.7081 24.5661C19.6774 24.4928 19.6317 24.4267 19.574 24.3721C19.4005 24.2433 19.1848 24.1845 18.9699 24.2074L18.5445 24.2074ZM17.7073 26.0879V21.7505H20.2191V22.4779H18.5445V23.4663H19.1347C19.5279 23.4467 19.9144 23.5739 20.2191 23.8232C20.3543 23.9431 20.4613 24.0914 20.5325 24.2575C20.6037 24.4236 20.6372 24.6034 20.6308 24.784C20.6333 25.0644 20.5468 25.3383 20.3838 25.5664C20.2347 25.7496 20.0427 25.893 19.8247 25.984C19.6068 26.075 19.3698 26.1107 19.1347 26.088L17.7073 26.0879Z" fill="#001E72"/>
<path d="M22.2497 22.4781V23.7546H22.6065C22.7997 23.7708 22.9927 23.7225 23.1555 23.6173C23.2315 23.5569 23.2922 23.4794 23.3327 23.3912C23.3732 23.303 23.3925 23.2065 23.3889 23.1095C23.3945 23.0127 23.3747 22.9161 23.3313 22.8294C23.2879 22.7427 23.2226 22.6689 23.1418 22.6153C22.9643 22.5088 22.7579 22.4608 22.5516 22.4781H22.2497ZM21.4124 21.7506H22.6751C22.8966 21.7486 23.1177 21.7716 23.334 21.8192C23.5111 21.8704 23.675 21.9593 23.8144 22.08C23.9619 22.2091 24.0781 22.3702 24.1542 22.5509C24.2303 22.7316 24.2643 22.9273 24.2536 23.1231C24.2658 23.3015 24.2403 23.4805 24.1788 23.6484C24.1173 23.8162 24.0213 23.9693 23.8968 24.0977C23.7503 24.2342 23.5771 24.3389 23.3881 24.4051C23.199 24.4712 22.9983 24.4974 22.7987 24.482H22.2497V26.0879H21.4124L21.4124 21.7506Z" fill="#001E72"/>
<path d="M25.6955 24.4819H26.9308L26.3131 22.9309L25.6955 24.4819ZM27.5622 26.0879L27.1779 25.1819H25.4209L25.0366 26.0879H24.1169L25.9974 21.7505H26.6562L28.4681 26.0879H27.5622Z" fill="#001E72"/>
<path d="M29.3739 22.738L28.9346 22.1615C29.2958 21.826 29.7732 21.6439 30.266 21.6537C30.6381 21.6318 31.0064 21.7384 31.3092 21.9557C31.432 22.0544 31.5306 22.1799 31.5972 22.3227C31.6638 22.4655 31.6968 22.6216 31.6936 22.7791C31.7025 22.9677 31.6566 23.1548 31.5616 23.318C31.4667 23.4811 31.3266 23.6133 31.1582 23.6987C31.3965 23.7559 31.6061 23.8973 31.7484 24.0968C31.8984 24.3091 31.9755 24.5644 31.968 24.8243C31.9697 25.0149 31.9272 25.2033 31.8438 25.3748C31.7605 25.5463 31.6386 25.6961 31.4877 25.8125C31.1238 26.071 30.6845 26.2013 30.2386 26.1831C29.9172 26.2072 29.5954 26.1432 29.3076 25.9981C29.0198 25.853 28.777 25.6323 28.6052 25.3596L29.1543 24.838C29.2401 25.049 29.4016 25.2204 29.6072 25.3184C29.8054 25.4257 30.027 25.4822 30.2523 25.4831C30.4788 25.4954 30.7025 25.4274 30.8837 25.291C30.9492 25.2352 31.0015 25.1657 31.0371 25.0874C31.0727 25.0091 31.0906 24.924 31.0896 24.838C31.0896 24.3988 30.7739 24.1791 30.1425 24.1791H29.7445V23.4517H30.1425C30.3283 23.4604 30.5117 23.4073 30.6641 23.3007C30.7207 23.2536 30.7668 23.1954 30.7997 23.1296C30.8327 23.0638 30.8517 22.992 30.8556 22.9185C30.8594 22.8451 30.8481 22.7716 30.8223 22.7027C30.7964 22.6339 30.7566 22.5711 30.7054 22.5183C30.5683 22.4254 30.4038 22.3818 30.2387 22.3948C30.0782 22.3845 29.9174 22.41 29.7679 22.4693C29.6184 22.5287 29.4837 22.6205 29.3739 22.738Z" fill="#001E72"/>
<path d="M33.8068 25.0024C34.0897 25.267 34.4626 25.4142 34.85 25.4142C35.2373 25.4142 35.6102 25.267 35.8931 25.0024C36.1603 24.7056 36.3029 24.3173 36.2912 23.9181C36.3054 23.5226 36.1622 23.1376 35.8931 22.8475C35.6144 22.5747 35.2399 22.4219 34.85 22.4219C34.46 22.4219 34.0855 22.5747 33.8068 22.8475C33.5376 23.1376 33.3944 23.5226 33.4087 23.9181C33.397 24.3173 33.5396 24.7056 33.8068 25.0024ZM33.1754 22.2847C33.6383 21.8778 34.2335 21.6533 34.8499 21.6533C35.4663 21.6533 36.0616 21.8778 36.5245 22.2847C36.939 22.7276 37.1696 23.3115 37.1696 23.9181C37.1696 24.5247 36.939 25.1086 36.5245 25.5515C36.0616 25.9584 35.4663 26.1828 34.8499 26.1828C34.2335 26.1828 33.6383 25.9584 33.1754 25.5515C32.7609 25.1086 32.5303 24.5247 32.5303 23.9181C32.5303 23.3115 32.7609 22.7276 33.1754 22.2847Z" fill="#001E72"/>
<path d="M38.7896 24.2058V25.4H39.1603C39.36 25.4108 39.559 25.3682 39.7367 25.2765C39.8225 25.2272 39.8925 25.1546 39.9386 25.0671C39.9848 24.9797 40.0052 24.8809 39.9974 24.7823C40.005 24.677 39.9783 24.572 39.9215 24.483C39.8646 24.394 39.7805 24.3256 39.6818 24.2882C39.4968 24.2235 39.301 24.1955 39.1053 24.2058H38.7896ZM38.7896 22.4352V23.547H39.1603C39.2125 23.5413 39.2634 23.5274 39.3113 23.5058C39.3813 23.4954 39.4476 23.4671 39.5034 23.4235C39.5552 23.3774 39.5972 23.3214 39.6269 23.2588C39.6721 23.1743 39.6957 23.08 39.6956 22.9843C39.7017 22.9049 39.6873 22.8252 39.6536 22.7531C39.6199 22.6809 39.5682 22.6187 39.5034 22.5725C39.3692 22.4725 39.2036 22.4238 39.0367 22.4352H38.7896ZM37.9524 21.7489H39.023C39.3962 21.7176 39.769 21.8145 40.0799 22.0234C40.2159 22.1275 40.3245 22.2631 40.3962 22.4185C40.468 22.574 40.5008 22.7446 40.4917 22.9156C40.5003 23.09 40.4582 23.2632 40.3705 23.4142C40.2828 23.5653 40.1533 23.6876 39.9975 23.7666C40.2089 23.7981 40.4054 23.8939 40.5603 24.0411C40.6658 24.1471 40.7484 24.2737 40.8027 24.4131C40.8571 24.5524 40.882 24.7015 40.876 24.851C40.8833 25.0157 40.8538 25.18 40.7897 25.332C40.7256 25.4839 40.6285 25.6197 40.5053 25.7294C40.1965 25.9809 39.8049 26.1081 39.4073 26.0863H37.9524V21.7489Z" fill="#001E72"/>
<path d="M42.6185 24.4819H43.8538L43.2361 22.9309L42.6185 24.4819ZM44.4852 26.0879L44.1009 25.1819H42.344L41.9597 26.0879H41.04L42.9067 21.7505H43.5793L45.3911 26.0879H44.4852Z" fill="#001E72"/>
<path d="M46.7502 21.7505V23.4256H48.5752V21.7505H49.4269V26.0872H48.5752V24.1535H46.7502V26.0872H45.8984V21.7505H46.7502Z" fill="#001E72"/>
<path d="M50.4165 21.7505H51.2529V24.6336L53.6407 21.7505H54.2447V26.0872H53.3952V23.1932L51.0053 26.0872H50.4165V21.7505Z" fill="#001E72"/>
<path d="M57.635 21.7505V22.4783H56.0684V23.4539H57.5654V24.1796H56.0684V25.3615H57.635V26.0872H55.2319V21.7505H57.635Z" fill="#001E72"/>
<path d="M36.9088 9.6851C36.1402 9.69883 35.3578 9.71257 34.5892 9.71257C34.5892 7.26937 34.6029 4.83988 34.6166 2.39669C23.8418 2.72609 19.3809 7.70858 19.326 7.76349L18.5025 8.72429L17.624 7.80466C17.5691 7.74977 12.669 2.75355 2.30597 2.39669V17.2206H0V0.0769233H1.15298C7.36134 -0.192269 13.4702 1.70493 18.4338 5.44374C20.3692 3.74172 25.736 0.0769233 35.7558 0.0769233H36.9088V9.6851Z" fill="#001E72"/>
<path d="M18.4614 44L17.6516 43.1902C16.889 42.4454 15.9811 41.866 14.9844 41.4881C13.9878 41.1103 12.9238 40.9421 11.8592 40.9941H7.7826C2.99226 40.9941 0 38.2489 0 33.8429V16.864H2.30597V33.8429C2.30597 36.9175 4.30996 38.688 7.7826 38.688H11.8592C14.2457 38.6017 16.5853 39.3654 18.4613 40.843C20.3447 39.3692 22.6871 38.6062 25.0772 38.688H29.1538C32.6128 38.688 34.6167 36.9174 34.6167 33.8429V31.5644H36.9089V33.8429C36.9089 38.2489 33.9441 40.9941 29.1538 40.9941H25.0772C24.0094 40.9425 22.9425 41.1122 21.9434 41.4925C20.9443 41.8728 20.0345 42.4554 19.2712 43.2039L18.4614 44Z" fill="#001E72"/>
</svg>
