<svg width="162" height="48" viewBox="0 0 162 48" fill="none" xmlns="http://www.w3.org/2000/svg">
<path d="M88.7963 24.8029H85.7354V4.74938H88.7963V12.6143H89.3042C90.965 12.6143 91.5003 10.8162 91.5003 9.47109V4.74938H94.5748V9.33377C94.6299 10.2547 94.4467 11.1744 94.0428 12.0038C93.6389 12.8333 93.0279 13.5447 92.2689 14.0692C93.0383 14.5802 93.6576 15.287 94.063 16.117C94.4683 16.9469 94.6449 17.8699 94.5748 18.7909V24.8027H91.5003V18.6537C91.5003 17.3634 90.8826 15.785 89.3315 15.7988H88.7963V24.8029ZM140.817 24.8029V4.74938H143.549V16.4712L146.706 4.74934H150.123V24.8029H147.364V10.8574L143.603 24.8303L140.817 24.8029ZM152.292 24.8029V4.74938H155.024V16.4712L158.167 4.74934H161.585V24.8029H158.826V10.8574L155.065 24.8303L152.292 24.8029ZM160.308 2.34736H153.569V0.000244141H160.308V2.34736ZM133.021 24.8029H129.96V4.74938H133.021V12.6143H133.529C135.19 12.6143 135.725 10.8162 135.725 9.47109V4.74938H138.8V9.33377C138.855 10.2547 138.672 11.1743 138.268 12.0038C137.864 12.8333 137.253 13.5447 136.494 14.0692C137.263 14.5802 137.882 15.287 138.288 16.117C138.693 16.9469 138.87 17.8699 138.8 18.7909V24.8027H135.725V18.6537C135.725 17.3634 135.121 15.785 133.556 15.7988H133.021V24.8029ZM77.5275 24.7617H74.4667V4.72192H83.5668V12.7652H80.4372V7.57685H77.5273V21.9066H80.4372V16.7182H83.5667V24.7616L77.5275 24.7617ZM121.752 24.7617H118.691V4.72192H127.792V12.7652H124.662V7.57685H121.752V21.9066H124.662V16.7182H127.792V24.7616L121.752 24.7617ZM69.1685 7.57691H66.3135V21.9067H69.1685V7.57691ZM66.2586 24.7617H63.1977V4.72192H72.2979V24.7617H66.2586ZM102.714 7.57691H99.8595V21.9067H102.714V7.57691ZM99.8045 24.7617H96.7437V4.72192H105.844V24.7617H99.8045ZM111.073 7.57691V12.9574C112.213 13.0261 113.599 12.9574 113.599 10.9123V9.08676V7.57691H111.073ZM111.073 15.8262V21.9067H113.599V18.0086C113.599 15.9634 112.213 15.7712 111.073 15.8262ZM116.66 8.24947V10.7064C116.689 11.3873 116.55 12.0648 116.252 12.6782C115.955 13.2915 115.511 13.8214 114.958 14.2202C115.53 14.707 115.981 15.3198 116.277 16.0104C116.572 16.7011 116.703 17.4508 116.66 18.2007V24.7617H108.013V4.72192H116.66V8.24947ZM54.5777 18.1458C55.3738 13.8634 56.4171 9.07303 56.8975 4.74938H61.0289V24.8029H58.3523V16.8693L58.6681 9.70442C57.9131 14.7824 56.6344 19.7686 54.8523 24.5832V24.597H54.2895V24.5832C52.511 19.7685 51.2369 14.7822 50.4874 9.70442L50.8032 16.8693V24.8029H48.1267V4.74938H52.2443C52.7247 9.07305 53.7678 13.8633 54.5777 18.1458Z" fill="#001E72"/>
<path d="M84.8698 30.8135V39.749C86.0228 39.8176 87.3954 39.6118 87.3954 37.5666V35.7548V30.8135H84.8698ZM90.47 34.9175V37.3744C90.47 40.4627 88.8778 42.6177 85.8993 42.6177H84.8698V47.9982H81.809V27.9585C84.6914 27.9722 87.5875 27.9585 90.47 27.9585V34.9175ZM91.3073 27.9585H100.778V30.8134H97.5799V47.9982H94.519V30.8135H91.3071L91.3073 27.9585ZM76.6068 30.8134H73.7518V45.1432H76.6068V30.8134ZM73.6969 47.9982H70.636V27.9585H79.7226V47.9982L73.6969 47.9982ZM51.1865 47.9982H48.1257V27.9585H57.2259V36.0018H54.0964V30.8134H51.1865V45.1432H54.0964V39.9548H57.2259V47.9982L51.1865 47.9982ZM62.4417 47.9982H59.3809V27.9585H68.4812V47.9982H65.3517V30.8135H62.4419L62.4417 47.9982Z" fill="#001E72"/>
<path d="M21.3606 37.5819C22.1248 38.4969 22.9405 39.3676 23.8038 40.1898C27.9899 44.1631 33.2148 46.8707 38.8748 47.9998V44.5409C34.162 43.4552 29.8257 41.1283 26.3156 37.8015C25.1997 36.7408 24.18 35.5833 23.2685 34.3425L21.3606 37.5819Z" fill="#001E72"/>
<path d="M8.77453 33.972C10.7056 32.1672 12.2481 29.9874 13.3078 27.566C14.3675 25.1446 14.922 22.5324 14.9373 19.8893V4.72217H18.4924V19.8893C18.49 22.6783 18.9158 25.4512 19.7551 28.111C20.5878 25.4497 21.0136 22.6778 21.018 19.8893V4.72217H24.573V19.8893C24.5889 22.531 25.1423 25.1419 26.1995 27.5629C27.2566 29.984 28.7954 32.1646 30.7221 33.972C33.0468 36.1655 35.8325 37.8116 38.8753 38.7897V42.331C34.8829 41.2492 31.2194 39.1983 28.2102 36.3603C26.0105 34.2805 24.2388 31.7905 22.9945 29.0307C22.1947 31.2848 21.1058 33.4256 19.7551 35.3995H19.7414C18.4007 33.4219 17.3168 31.2818 16.5158 29.0307C15.2617 31.7884 13.486 34.2773 11.2863 36.3603C8.28227 39.198 4.62327 41.2491 0.63501 42.3311V38.7898C3.67515 37.8147 6.45708 36.1681 8.77453 33.972Z" fill="#001E72"/>
<path d="M30.2562 19.5725C30.2657 21.4973 30.6687 23.3998 31.4405 25.163C32.2124 26.9263 33.3368 28.513 34.7445 29.8257C35.9591 30.9826 37.3547 31.933 38.876 32.6395V36.318C36.4002 35.427 34.1376 34.0292 32.2328 32.2139C30.4965 30.5961 29.1099 28.6398 28.1586 26.4657C27.2072 24.2915 26.7113 21.9456 26.7012 19.5724V16.1548H30.2562V19.5725Z" fill="#001E72"/>
<path d="M9.25484 16.1548H12.8099V19.5724C12.7998 21.9456 12.3038 24.2915 11.3525 26.4657C10.4011 28.6398 9.01465 30.5961 7.27841 32.2139C5.3736 34.0292 3.11083 35.427 0.63501 36.318V32.6396C2.15632 31.9331 3.55191 30.9827 4.7665 29.8258C6.17425 28.5132 7.29863 26.9264 8.0705 25.1632C8.84237 23.3999 9.2454 21.4974 9.25484 19.5726V16.1548Z" fill="#001E72"/>
<path d="M16.2277 34.3425C15.3202 35.5865 14.3002 36.7444 13.1805 37.8015C9.67563 41.128 5.34364 43.4551 0.63501 44.5409V47.9998C6.29196 46.8736 11.5133 44.1654 15.6923 40.1898C16.5627 39.3747 17.3789 38.5035 18.1355 37.5819L16.2277 34.3425Z" fill="#001E72"/>
</svg>
